<svg xmlns="http://www.w3.org/2000/svg" version="1.1" viewBox="182.53 70.49 835.35 1057.47">
 <g>
  <path d="m332.48 728.02c0-14.016-11.016-24.984-24.984-24.984-14.016 0-24.984 11.016-24.984 24.984 0 98.484 58.5 204.52 145.5 264.52 4.5 3 9 4.5 14.016 4.5 8.0156 0 15.984-3.9844 20.484-11.016 8.0156-11.484 5.0156-27-6.5156-35.016-72.984-50.016-123.98-141.52-123.98-222.98z"/>
  <path d="m327 635.48c3.9844 2.4844 8.4844 3.5156 12.984 3.5156 8.4844 0 16.5-3.9844 21.516-12 2.0156-3.5156 4.5-6.9844 6.9844-10.5 8.0156-11.484 5.0156-27-6-35.016-11.484-8.0156-27-5.0156-35.016 6-3 4.5-6 8.4844-8.4844 12.984-6.9844 12-3.5156 27 8.0156 34.5z"/>
  <path d="m741 383.02c6.9844 0 14.016 0 21-0.98438 48-5.0156 83.484-44.016 118.5-81.516 35.484-38.484 69.516-75 109.5-70.5 9.9844 1.5 19.5-3.5156 24.516-12.516 5.0156-8.4844 4.5-19.5-2.0156-27.516-66-86.484-218.02-141.52-306.98-111-82.5 28.5-126.98 90.984-119.02 167.48 2.4844 24 10.5 45.984 22.5 65.484-6.5156 12-12 24-16.5 35.484-18-33.516-48-68.484-98.016-93.984-12.516-6-27.516-0.98438-33.516 11.016-6 12.516-0.98438 27.516 11.016 33.516 93.516 46.5 96.516 137.02 96.516 142.5-9-1.5-18-3.9844-26.484-7.5-103.5-41.484-230.48-3.9844-295.5 87.984-42 59.484-63.984 128.48-63.984 199.5 0 138.98 86.016 294.98 209.48 379.5 27 18.516 60 27.984 96.516 27.984 21.516 0 44.016-3.5156 67.5-9.9844 24.516-6.9844 51.516-6.9844 75.984 0 62.484 18 120.98 11.484 164.02-18 123.52-84.516 209.48-240.52 209.48-379.5 0-71.016-21.984-140.02-63.984-199.5-65.016-92.016-192-129.98-295.5-87.984-8.4844 3.5156-17.484 6-26.484 7.5 1.5-11.016 8.0156-48 26.484-89.016 26.484 20.016 59.016 30.516 95.484 30.516zm-104.48-141c-7.5-72.516 50.484-103.5 85.5-115.5 12-3.9844 26.016-6 41.016-6 56.484 0 128.48 27 177.52 66.984-38.016 15-69 48.516-96.984 78.984-29.484 32.016-57.516 62.484-86.484 65.484-33.984 3.5156-63-3.9844-84.516-21.516-0.98438-0.51562-1.5-1.5-2.0156-2.0156 22.5-33 54.516-62.016 100.5-74.484 13.5-3.5156 21-17.484 17.484-30.516-3.5156-13.5-17.016-21-30.516-17.484-51.516 14.016-89.016 43.5-116.48 77.484-2.0156-6.9844-3.5156-14.016-4.5-21.516zm27.516 238.5c81.516-33 185.02-2.0156 235.5 70.5 36 51 54.984 110.02 54.984 171 0 123.52-77.016 262.5-187.5 338.48-30 20.484-74.484 24.984-122.02 11.016-33.516-9.5156-69.516-9.5156-103.5 0-47.484 13.5-91.5 9.5156-122.02-11.484-110.48-75.516-187.5-214.5-187.5-338.48 0-60.516 18.984-119.48 54.984-171 36.984-53.016 102.52-83.484 166.5-83.484 23.484 0 47.484 3.9844 69.516 12.984 44.484 18 96.516 18 141 0z"/>
 </g>
</svg>