<svg xmlns="http://www.w3.org/2000/svg" version="1.1" viewBox="80.42 54.58 1039.14 1090.34">
 <g>
  <path d="m1119.5 791.02v-0.51562c0.98438-26.484-9.9844-53.016-30-74.016-29.016-30-73.5-47.484-122.02-47.484h-13.5c-42.984 0-84.984-12.984-117.98-36.984-38.016-27.516-84.516-45-135-53.016-15-28.5-33-54.984-56.016-78.516-36.516-37.5-57-86.016-57-137.02v-14.016c0-85.5-58.5-159-135.98-177.98 12.516-29.484 36.516-59.484 84.984-67.5 13.5-2.0156 23.016-15 20.484-28.5-2.0156-13.5-15-23.016-28.5-20.484-75.516 12.516-112.5 63-129 113.02-42 3-81 18.984-111.52 48.516-34.5 33.516-53.484 78.516-53.484 126.98v15.984c0 50.484-21.516 100.5-60.516 140.48-62.484 63.516-95.484 147.52-93.984 236.48 3.5156 171.52 145.5 315.98 316.5 322.5h12.516c13.5 0 27.516-2.0156 41.016-3.5156 3 3.5156 6 6.9844 9 9.9844 51 52.5 119.48 79.5 203.02 79.5 102.98 0 165.98-54 222-101.02 21.516-18 41.484-35.484 63-48.516 21-12.984 40.5-21.516 59.484-30 60-26.484 111.98-49.5 112.5-173.48zm-165.52-72h13.5c34.5 0 66.516 12 86.016 32.016 8.0156 8.0156 17.016 21.516 15.984 38.484-1.5 36-50.484 66.984-107.48 66.984h-11.484c-53.016 0-104.48 15.984-144 44.484-44.016 31.5-102 48.984-163.5 48.984-76.5 0-147.98-27-191.48-72.516-27-28.5-40.5-62.016-39-96.516 4.5-84.984 105.52-155.02 225.52-156.98h5.0156c62.016 0 120 17.484 164.02 48.984 41.484 30 93.984 46.5 147.52 46.5zm-555 290.02c-144.98-5.4844-265.5-128.02-268.5-273.52-1.5-75.516 27-147 79.5-200.48 48.516-49.5 75-111.52 75-175.5v-15.984c0-34.5 13.5-66.984 38.484-90.984 18.516-18 41.484-29.484 66-33.984-0.51562 9-0.98438 17.016 0 24.516 0.51562 13.5 11.484 23.484 24.984 23.484h0.98438c14.016-0.51562 24.516-12.516 24-26.016 0-0.98438 0-9 0.98438-20.484 56.016 13.5 98.484 66.984 98.484 129.52v14.016c0 63.984 25.5 125.02 71.016 171.52 11.484 12 21.984 24.516 30.984 38.016h-3.5156c-147.98 2.0156-269.02 92.016-274.5 204.52v8.0156h-0.51562c0 6-3 123.52 54.516 223.5h-18.516zm588-89.484c-19.5 8.4844-42 18.516-66 33.516-24.516 15-47.016 34.5-69 53.016-54 45.984-104.48 89.016-189.52 89.016-69.516 0-125.48-21.516-167.02-63.984-28.5-29.016-47.016-65.016-59.484-100.5 52.5 43.5 127.5 68.484 206.48 68.484 72 0 140.48-20.484 192.52-57.984 31.5-22.5 72-35.016 114.98-35.016h11.484c27.984 0 54-6 77.016-15.516-12.984 11.484-30.516 19.5-52.5 29.016z"/>
  <path d="m479.02 780.98c0 57.516 71.484 101.02 166.5 101.02s166.5-43.5 166.5-101.02-75.984-144.98-166.5-144.98-166.5 87.984-166.5 144.98zm166.5-95.016c64.5 0 116.48 68.484 116.48 95.016 0 21-45.516 51-116.48 51-71.016 0-116.48-30-116.48-51 0-27 51.516-95.016 116.48-95.016z"/>
 </g>
</svg>