<?xml version="1.0" encoding="UTF-8"?>
<svg width="1200pt" height="1200pt" version="1.1" viewBox="0 0 1200 1200" xmlns="http://www.w3.org/2000/svg">
 <g>
  <path d="m745.39 955.43c0.51172-25.84 1.1133-55.121-21.043-99.242-22.176-44.121-46.215-61.109-67.246-76.078-19.219-13.703-35.848-25.527-53.031-59.785-17.184-34.25-16.762-54.586-16.285-78.207 0.52734-25.82 1.1133-55.121-21.051-99.242-22.184-44.121-46.039-61.102-67.113-76.078-19.238-13.695-35.848-25.527-53.039-59.777-17.18-34.258-16.766-54.59-16.293-78.199 0.51953-25.832 1.1289-55.129-21.051-99.25-22.172-44.105-46.059-60.828-67.102-75.926-18.863-13.43-35.207-25.035-52.02-57.695-0.26562-0.71094-0.57812-1.3867-0.92969-2.0703-5.5508-11.055-19.016-15.527-30.082-9.957l-186.09 93.559c-11.055 5.5664-15.52 19.035-9.9688 30.094 22.195 44.133 46.07 61.129 67.039 76.102 19.23 13.703 35.84 25.504 53.039 59.785 17.191 34.277 16.766 54.57 16.293 78.172-0.52734 25.824-1.1211 55.129 21.051 99.25 22.164 44.121 46.062 61.102 67.113 76.098 19.23 13.703 35.848 25.508 53.027 59.793 17.191 34.277 16.766 54.57 16.305 78.191-0.51953 25.832-1.1328 55.129 21.035 99.242 22.184 44.121 46.098 60.93 67.195 75.93 19.227 13.703 35.84 25.527 53.031 59.785 17.184 34.25 16.762 54.586 16.285 78.188-0.51953 25.84-1.1133 55.141 21.051 99.262 5.5664 11.055 19.035 15.512 30.094 9.9648l185.98-93.523c11.059-5.5547 15.527-19.027 9.957-30.09-17.18-34.281-16.762-54.68-16.16-78.301zm-85.59 104.34c-8.0781-22.621-7.7773-39.141-7.4688-57.582 0.50781-25.82 1.1133-55.121-21.055-99.242-22.176-44.121-46.062-61.102-67.105-76.102-19.238-13.707-35.848-25.535-53.039-59.785-17.199-34.25-16.766-54.57-16.293-78.191 0.51953-25.84 1.1211-55.137-21.055-99.242-22.164-44.121-46.102-61.012-67.184-76.008-19.227-13.707-35.848-25.535-53.027-59.793-17.191-34.25-16.773-54.586-16.297-78.172 0.52734-25.82 1.1289-55.121-21.055-99.242-22.172-44.121-46.047-61.102-67.102-76.102-14.949-10.688-28.449-20.289-41.809-40.242l52.684-26.492c18.941 30.195 38.512 44.07 56.129 56.598 19.227 13.703 35.848 25.504 53.039 59.785 17.191 34.281 16.762 54.578 16.285 78.172-0.51953 25.824-1.1133 55.121 21.055 99.242 22.172 44.113 46.031 61.102 67.113 76.078 19.23 13.707 35.84 25.535 53.031 59.793 17.184 34.25 16.762 54.578 16.285 78.191-0.51172 25.832-1.1133 55.129 21.051 99.25 22.176 44.113 46.062 61.102 67.113 76.109 19.23 13.695 35.852 25.527 53.031 59.777 17.199 34.258 16.793 54.449 16.414 77.977-0.44531 21.605-0.91797 45.621 11.91 78.738z"/>
  <path d="m1128.8 986.9c-17.184-34.176-16.762-54.578-16.285-78.188 0.51953-25.84 1.1133-55.141-21.051-99.254-22.172-44.121-46.062-61.109-67.062-76.098-19.227-13.703-35.848-25.539-53.039-59.797-17.18-34.238-16.762-54.57-16.285-78.191 0.51172-25.84 1.1133-55.121-21.043-99.242-22.184-44.121-46.07-61.102-67.125-76.102-19.219-13.707-35.84-25.504-53.027-59.793-17.199-34.277-16.766-54.566-16.293-78.188 0.51953-25.84 1.1211-55.137-21.055-99.242-22.172-44.121-46.082-60.918-67.152-75.906-18.789-13.41-35.199-25.047-52.012-57.727-0.27734-0.69141-0.57813-1.3945-0.9375-2.0859-5.5508-11.059-19.016-15.527-30.074-9.9688l-186.11 93.637c-11.066 5.5664-15.52 19.035-9.9648 30.09 22.195 44.121 46.039 61.113 67.105 76.082 19.23 13.703 35.848 25.508 53.043 59.793 17.18 34.277 16.754 54.57 16.285 78.168-0.53125 25.824-1.1289 55.121 21.043 99.242 22.172 44.113 46.039 61.113 67.113 76.078 19.23 13.707 35.848 25.535 53.039 59.793 17.18 34.25 16.762 54.586 16.285 78.199-0.51953 25.824-1.1211 55.121 21.043 99.242 22.176 44.113 46.07 61.102 67.121 76.109 19.238 13.695 35.848 25.527 53.027 59.777 17.199 34.258 16.773 54.578 16.297 78.191-0.52734 25.84-1.1289 55.141 21.055 99.25 5.5508 11.066 19.023 15.52 30.094 9.9688l185.98-93.527c5.3594-2.6602 9.4453-7.3672 11.32-13.062 1.8828-5.6992 1.3945-11.91-1.3438-17.25zm-101.91 26.129c-8.0586-22.621-7.7656-39.129-7.4688-57.562 0.52734-25.84 1.1289-55.121-21.051-99.242-22.164-44.121-46.051-61.113-67.105-76.109-19.23-13.703-35.848-25.527-53.043-59.785-17.18-34.25-16.762-54.586-16.285-78.207 0.53125-25.82 1.1133-55.121-21.043-99.242-22.172-44.121-46.07-61.102-67.105-76.078-19.23-13.695-35.852-25.527-53.043-59.777-17.184-34.258-16.762-54.59-16.285-78.199 0.52734-25.832 1.1211-55.129-21.051-99.25-22.172-44.105-45.969-60.828-67.012-75.926-14.941-10.691-28.441-20.309-41.801-40.262l52.691-26.477c18.91 30.043 38.418 43.992 56.098 56.523 19.23 13.703 35.84 25.508 53.039 59.793 17.184 34.27 16.754 54.57 16.293 78.16-0.53125 25.84-1.1289 55.141 21.043 99.254 22.172 44.121 46.039 61.109 67.113 76.082 19.227 13.695 35.848 25.504 53.031 59.777 17.184 34.27 16.766 54.578 16.293 78.191-0.52734 25.84-1.1211 55.121 21.043 99.242 22.176 44.121 46.07 61.102 67.121 76.109 19.23 13.703 35.848 25.527 53.027 59.777 17.191 34.258 16.773 54.59 16.297 78.211-0.44922 21.613-0.92578 45.629 11.91 78.73z"/>
 </g>
</svg>
