<?xml version="1.0" encoding="UTF-8"?>
<svg width="1200pt" height="1200pt" version="1.1" viewBox="0 0 1200 1200" xmlns="http://www.w3.org/2000/svg">
 <path d="m1129.2 430.78c-2.3906-3.6094-6-7.2188-10.781-9.6094-103.22-51.609-199.22-45.609-310.78-49.219-50.391-1.2188-100.78 4.7812-151.22 2.3906-69.656-2.3438-140.44-45.562-200.44-76.734-10.781-6-21.609-4.7812-30 1.2188-24-36-45.609-74.391-64.781-112.78-18-33.609-38.391-19.219-68.391-6h-1.2188c-26.391 7.2188-50.391 16.781-74.391 30-6 3.6094-8.3906 8.3906-8.3906 14.391-4.7812 0-8.3906 2.3906-10.781 4.7812-6 2.3906-10.781 7.2188-9.6094 15.609 1.2188 22.781 1.2188 45.609 0 68.391-1.2188 16.781-2.3906 42-10.781 60-6 1.2188-12 3.6094-16.781 9.6094-134.48 163.18-49.266 379.18 65.906 526.78 114 146.39 372 213.61 544.78 145.22 4.7812-2.3906 8.3906-4.7812 12-8.3906h2.3906c12 2.3906 26.391-2.3906 32.391-14.391 7.2188-14.391 14.391-30 18-45.609 2.3906-13.219 0-26.391-10.781-34.781l-1.2188-1.2188c0-2.3906 0-4.7812-1.2188-7.2188-7.2188-31.219-26.391-51.609-51.609-67.219 31.219-1.2188 62.391-1.2188 92.391-7.2188 74.391-13.219 129.61-50.391 174-111.61 0-1.2188 1.2188-1.2188 1.2188-2.3906 16.781-4.7812 24-20.391 20.391-37.219-2.3906-16.781-4.7812-33.609-6-50.391-1.2188-15.609-13.219-30-30-30h-2.3906c52.781-12 94.781-50.391 109.22-104.39v-1.2188h1.2188c15.609-1.2188 31.219-13.219 30-30-1.2188-14.391-1.2188-28.781-2.3906-43.219-1.1719-13.125-13.172-27.562-29.953-27.562zm-777.61-186c13.219 25.219 28.781 49.219 44.391 72-14.391 6-28.781 13.219-42 20.391-13.219-43.219-25.219-86.391-36-129.61 3.6094-1.2188 8.3906-2.3906 10.781-4.7812 3.6094 13.219 18 32.438 22.828 42zm-39.609 133.22c-1.2188 0-1.2188 1.2188-1.2188 1.2188-1.2188 0-1.2188 1.2188-2.3906 1.2188-2.3906 1.2188-3.6094 2.3906-6 3.6094-6 2.3906-8.3906 8.3906-8.3906 14.391h-2.3906c2.3906-42 4.7812-84 6-126 8.3906 31.219 18 62.391 27.609 92.391 0 1.2188 1.2188 2.3906 1.2188 3.6094s-1.2188 3.6094-1.2188 4.7812c-4.8281 0-9.6094 2.3906-13.219 4.7812zm-100.78 6c15.609-37.219 15.609-85.219 14.391-124.78 12 0 25.219 0 37.219 1.2188-2.3906 45.609-4.7812 91.219-7.2188 136.78-16.828 0-31.219-3.6094-44.391-13.219zm74.391-158.39c-1.2188 0-2.3906-1.2188-4.7812-1.2188h-10.781c4.7812-1.2188 8.3906-3.6094 13.219-4.7812 1.125 2.3906 1.125 3.6094 2.3438 6zm7.1719 670.78c-108-116.39-206.39-330-90-470.39 1.2188-1.2188 1.2188-2.3906 2.3906-3.6094 15.609 7.2188 32.391 9.6094 49.219 10.781 1.2188 7.2188 7.2188 10.781 13.219 10.781 61.219 94.781 72 218.39 156 300 44.391 42 96 75.609 150 103.22 31.219 15.609 63.609 30 96 45.609 27.609 13.219 80.391 28.781 92.391 61.219-1.2188 2.3906-2.3906 3.6094-2.3906 6-3.6094 13.219-7.2188 26.391-8.3906 38.391-141.61 52.828-356.44 8.3906-458.44-102zm520.82-80.391c-46.781 3.6094-111.61 13.219-157.22 3.6094-2.3906 0-3.6094 0-4.7812-1.2188-44.391-20.391-88.781-42-128.39-70.781-64.828-45.609-100.83-99.609-133.22-171.61-24-52.781-38.391-111.61-69.609-160.78 6-2.3906 10.781-6 15.609-10.781 51.609 91.219 147.61 144 246 176.39 58.781 19.219 120 30 181.22 38.391 39.609 4.7812 188.39 1.2188 204 44.391 2.3906 4.7812 4.7812 9.6094 8.3906 13.219 1.2188 15.609 3.6094 30 4.7812 44.391 0 3.6094 2.3906 6 4.7812 8.3906-41.953 57.609-101.95 80.391-171.56 86.391zm259.18-296.39c-9.6094 36-38.391 61.219-76.781 63.609-8.3906 0-15.609 3.6094-20.391 9.6094-12-6-24-9.6094-39.609-12-67.219-12-136.78-14.391-204-25.219-130.78-21.609-286.78-63.609-350.39-190.78 12-6 24-12 37.219-18h1.2188c1.2188 1.2188 3.6094 2.3906 6 3.6094 50.391 26.391 100.78 51.609 154.78 69.609 50.391 16.781 96 15.609 147.61 15.609 116.39 0 232.78-15.609 342 31.219v2.3906c1.2188 9.6094 3.6094 19.219 4.7812 30 0 3.6094 2.3906 6 4.7812 9.6094-3.6094 1.125-6 4.7344-7.2188 10.734z"/>
</svg>
