<?xml version="1.0" encoding="UTF-8"?>
<svg width="1200pt" height="1200pt" version="1.1" viewBox="0 0 1200 1200" xmlns="http://www.w3.org/2000/svg">
 <path d="m385.2 824.4c-11.398-10.5-17.699-25.801-23.398-41.699-7.1992-20.699-12.898-43.5-20.102-64.5-11.102-31.5-26.398-59.102-51.898-76.5-18-12.301-40.801-20.398-71.699-20.398-76.5 0-129 24.898-163.5 62.102-34.203 36.898-51.301 86.996-54 141-5.6992 102.3 39.898 217.2 94.199 268.5 125.4 118.5 280.2 129.3 383.7 77.398 73.199-36.602 121.8-104.4 121.8-189 0-48-13.5-77.699-32.102-97.5-18.898-19.801-44.699-30-73.199-35.398-22.199-4.1992-46.199-5.1016-68.398-8.6992-15.602-2.3984-30.602-5.6992-41.102-15.301zm-82.5-29.699c-3.6016-10.5-6.8984-21.602-10.199-32.398-11.699-39.602-21.301-81-74.699-81-53.398 0-94.5 15.898-119.4 42.898-25.199 27-36 64.199-38.398 103.5-4.5 84.301 30.602 179.4 75.602 221.7 103.5 97.5 230.1 110.1 315.6 67.5 52.5-26.398 88.5-74.398 88.5-135.6 0-26.102-4.5-43.801-14.699-54.898-15.602-17.699-41.102-19.5-66.301-22.199-18.898-2.1016-37.801-4.1992-55.5-8.1016-1.1992 17.699-8.1016 34.199-20.398 46.5-29.398 29.398-83.102 28.199-119.4-8.1016-36.301-36.301-37.5-90-8.1016-119.1 12.301-12.301 29.102-19.5 47.102-20.398zm152.7 199.2c-31.5 45-79.801 62.699-149.1 48-16.199-3.6016-32.102 6.8984-35.699 23.102-3.6016 16.199 6.8984 32.102 23.102 35.699 98.699 21.301 165.9-8.1016 210.9-72 9.6016-13.5 6.3008-32.398-7.1992-41.699-13.5-9.6016-32.398-6.3008-41.699 7.1992zm359.4-460.8c-10.5 9.8984-25.199 12.898-41.102 15.602-22.199 3.6016-46.199 4.8008-68.398 8.6992-28.5 5.1016-54 15.301-73.199 35.398-18.602 19.5-32.102 49.5-32.102 97.199 0 84.898 48.602 152.4 121.8 189.3 103.5 51.898 258.3 41.102 383.7-77.398 54.602-51.602 99.898-166.2 94.199-268.5-3-54-19.801-104.1-54.301-141.3-34.5-37.199-87-62.102-163.5-62.102-30.898 0-53.699 8.1016-71.699 20.398-25.5 17.699-40.801 45.301-51.898 76.5-7.1992 21-12.898 43.5-20.102 64.5-5.6992 16.199-12 31.199-23.398 41.699zm-516.6 324.6c3-3.3008 7.8008-3.6016 12.301-3.3008 7.8008 0.89844 15.602 4.8008 21.898 11.398 6.6016 6.3008 10.5 14.398 11.398 21.898 0.60156 4.5 0 9.3008-3.3008 12.301-3.3008 3.3008-7.8008 3.6016-12.301 3.3008-7.8008-0.89844-15.602-4.8008-21.898-11.398-6.6016-6.6016-10.5-14.398-11.398-21.898-0.60156-4.5 0-9.3008 3.3008-12.301zm498.3-252.9c-17.699 3.8984-36.602 6-55.5 8.1016-25.199 2.6992-50.699 4.5-66.301 22.199-9.8984 11.398-14.699 28.801-14.699 54.898 0 61.199 36 109.2 88.5 135.6 85.199 42.898 212.1 30.301 315.6-67.5 45-42.301 80.102-137.4 75.602-221.7-2.1016-39.301-13.199-76.5-38.398-103.5-24.898-27-63.898-42.898-119.4-42.898s-63 41.699-74.699 81c-3.3008 10.801-6.6016 21.602-10.199 32.398 18 1.1992 34.801 8.1016 47.102 20.398 29.398 29.398 28.199 83.102-8.1016 119.4-36.301 36.301-90 37.5-119.4 8.1016-12.301-12.301-19.199-28.801-20.398-46.5zm-649.8 112.8c-24.898 19.199-43.199 44.102-51.898 75.602-4.5 15.898 4.8008 32.398 20.699 36.898 15.898 4.5 32.398-4.8008 36.898-20.699 5.1016-18.602 15.898-33 30.898-44.398 13.199-10.199 15.602-28.801 5.3984-42-10.199-13.199-28.801-15.602-42-5.3984zm548.7 19.801c45 63.898 112.2 93.301 210.9 72 16.199-3.6016 26.398-19.5 23.102-35.699-3.6016-16.199-19.5-26.398-35.699-23.102-69.301 15-117.6-3-149.1-48-9.6016-13.5-28.199-16.801-41.699-7.1992-13.5 9.6016-16.801 28.199-7.1992 41.699zm206.4-171c3.3008 3.3008 3.8984 7.8008 3.3008 12.301-0.89844 7.8008-4.8008 15.602-11.398 21.898-6.3008 6.3008-14.398 10.5-21.898 11.398-4.5 0.60156-9.3008 0-12.301-3.3008s-3.6016-7.8008-3.3008-12.301c0.89844-7.8008 4.8008-15.602 11.398-21.898 6.6016-6.6016 14.398-10.5 21.898-11.398 4.5-0.60156 9.3008 0 12.301 3.3008zm-480.3-237.9c-5.6992-5.3984-8.6992-12.898-11.398-21-4.5-12.898-7.8008-26.699-12.301-39.602-7.5-21.898-18.602-40.801-36.301-52.801-12.602-8.6992-28.801-14.699-50.699-14.699-51 0-86.102 17.102-108.9 42-23.102 24.602-34.5 58.199-36.301 94.199-3.6016 66.602 26.102 141 61.801 174.3 95.699 90.301 217.5 83.102 281.7 27.898 30-25.801 48.602-62.102 48.602-105.3 0-33.602-9.8984-54-23.102-67.801-13.199-14.102-31.199-21.301-51.301-25.199-13.801-2.6992-28.801-3.3008-42.602-5.3984-7.1992-1.1992-14.398-2.1016-19.199-6.6016zm595.2 145.2c14.699 11.398 25.5 25.801 30.898 44.398 4.5 15.898 21 25.199 36.898 20.699 15.898-4.5 25.199-21 20.699-36.898-9-31.801-27-56.398-51.898-75.602-13.199-10.199-32.102-7.8008-42 5.3984-10.199 13.199-7.8008 32.102 5.3984 42zm-653.1-124.5c-7.5-14.102-12.898-30.898-17.699-47.398-5.6992-19.5-8.6992-41.699-35.102-41.699-30 0-51.301 8.1016-65.102 22.801s-19.199 35.102-20.398 56.398c-2.6992 48.301 17.102 103.2 42.898 127.5 59.398 56.102 132 64.199 181.2 39.602 28.5-14.398 48.301-40.199 48.301-73.199 0-12.301-1.5-20.699-6-26.102-7.8008-9-21-8.3984-33.602-9.8984-16.801-1.8008-33.602-4.1992-48.602-9l-13.199 13.199c-11.699 11.699-30.602 11.699-42.602 0-11.699-11.699-11.699-30.602 0-42.301l9.8984-9.6016zm309.9-221.1c-4.8008 4.5-12 5.3984-19.199 6.6016-13.801 2.1016-28.801 3-42.602 5.3984-20.102 3.6016-37.801 11.102-51.301 25.199-13.199 13.801-23.102 34.5-23.102 67.801 0 42.898 18.602 79.199 48.602 105.3 64.199 55.199 186 62.398 281.7-27.898 35.398-33.301 65.398-108 61.801-174.3-2.1016-36-13.5-69.301-36.301-94.199-23.102-24.898-57.898-42-108.9-42-21.898 0-38.102 5.6992-50.699 14.699-17.699 12.301-28.801 31.199-36.301 52.801-4.5 12.898-7.8008 26.699-12.301 39.602-2.6992 8.1016-5.6992 15.898-11.398 21zm12.301 60c-14.699 4.8008-31.5 7.1992-48.602 9-12.602 1.5-25.801 0.89844-33.602 9.8984-4.8008 5.3984-6 13.801-6 26.102 0 33 19.801 58.801 48.301 73.199 48.898 24.602 121.8 16.5 181.2-39.602 25.801-24.301 45.602-79.199 42.898-127.5-1.1992-21.301-6.8984-41.699-20.398-56.699-13.5-14.699-34.801-22.801-65.102-22.801-26.398 0-29.102 22.199-35.102 41.699-4.8008 16.5-10.199 33.301-17.699 47.398l9.8984 9.6016c11.699 11.699 11.699 30.602 0 42.602-11.699 11.699-30.602 11.699-42.602 0l-13.199-13.199z" fill-rule="evenodd"/>
</svg>
