<?xml version="1.0" encoding="UTF-8"?>
<svg width="1200pt" height="1200pt" version="1.1" viewBox="0 0 1200 1200" xmlns="http://www.w3.org/2000/svg">
 <path d="m729.71 61.031c-27.75 3.6094-60.047 16.969-89.109 37.031-11.016 7.7344-34.031 28.031-44.953 39.844-23.297 25.219-48.375 63.656-61.594 94.359-16.219 37.547-25.078 72.375-28.031 111.09-1.1719 14.625-2.0625 19.406-3.6094 20.531-1.125 0.9375-2.4375 1.6875-3.0938 1.6875-0.46875 0-5.1094-3.8438-10.266-8.4844-41.766-37.781-93.844-59.25-153.89-63.516-31.078-2.1562-66.328 2.2031-93.422 11.719-52.969 18.375-94.641 51.656-128.72 102.98-11.953 18.094-25.969 46.125-32.906 65.953-6.4219 18.609-13.5 50.25-15.797 71.578-5.7656 52.969 0.23438 129.19 16.969 213 10.922 55.312 34.078 127.4 60.562 189.74 23.25 54.516 49.969 96.703 81.234 128.06 16.078 16.078 28.406 25.594 47.156 36.75 17.766 10.547 33.422 17.109 54.375 22.5 14.016 3.75 16.359 3.9844 39.375 3.9844 18.75 0.14063 26.859-0.51562 34.688-2.2031 34.594-7.6875 65.812-23.484 89.203-45.094 16.969-15.562 13.922-14.812 24.844-6.5625 15.141 11.719 30.188 18.656 53.578 25.078 38.953 10.781 87.047 2.5781 122.76-20.859 6.4688-4.2188 12.094-8.2031 12.609-8.9531 0.51562-0.9375 5.1562 2.6719 11.578 8.7188 18.375 17.625 39.094 30.609 62.625 39.188 22.875 8.3906 35.719 10.547 60.516 10.828 23.297 0.14062 32.672-1.3125 55.312-8.4844 52.547-16.734 95.859-54.516 132.79-115.83 21.703-35.859 50.766-103.36 68.484-159.05 23.906-75.188 34.359-126.84 43.219-214.69 2.1562-21.328 2.1562-81.984 0-97.031-13.266-93.609-56.578-168.56-122.39-212.11-44.25-29.203-99.234-43.734-148.5-39.234-54.891 5.1562-106.31 26.109-143.81 58.781-15.984 13.875-15.984 13.734-19.547 12.188-2.9531-1.4062-3.0938-1.9219-3.0938-14.25 0-29.578 6.4219-52.312 20.953-74.062 14.672-21.844 29.812-34.594 53.062-44.344 19.547-8.25 29.719-14.531 39.984-25.312 13.922-14.531 23.531-38.719 23.531-58.875 0-13.406-5.1094-32.297-11.672-43.594-2.9531-5.0156-9.8906-13.5-15.328-18.891-20.297-20.203-47.297-28.312-79.688-24.188zm28.172 67.5c12.328 6.1875 16.969 18 11.438 28.781-3.75 7.2188-8.625 10.547-21.891 14.812-37.922 12.328-69.797 41.906-91.5 85.219-15.562 30.984-21.328 58.219-21.328 100.64v23.906l-6.9844 4.6406c-3.8438 2.5781-11.016 8.1094-15.797 12.234l-8.8594 7.5469-5.6719-4.9688c-3.0938-2.8594-10.547-8.25-16.453-12.234-5.9062-3.8438-10.922-7.7344-11.297-8.625-1.4062-3.6094 2.2969-44.344 5.3906-60.141 9.2812-47.297 31.266-92.953 61.969-128.29 26.625-30.75 56.156-51.188 91.406-63.141 14.016-4.6406 20.672-4.7344 29.578-0.375zm-404.81 233.34c22.875 3.9844 48.844 13.734 48.844 18.516 0 0.89062-8.25 5.7656-18.281 10.641-46.922 23.016-77.906 50.016-106.03 92.203-24.328 36.375-39.75 76.594-46.031 119.53-1.6875 11.578-1.9219 24.047-1.6875 69.422 0.375 53.859 0.51563 55.406 3.2344 60.422 3.3281 6.1875 10.922 13.641 16.969 16.688 6.6562 3.375 18.75 3.0938 26.109-0.51562 6.6562-3.1875 14.484-11.156 17.062-17.344 1.1719-2.9531 1.8281-19.406 2.4375-62.484 0.9375-63.234 1.5469-69.422 9.2812-94.219 4.7344-15.141 16.969-40.125 27.141-55.125 9.4688-14.297 29.156-35.625 43.406-47.344 24.844-20.156 57.469-35.719 86.812-41.25 13.875-2.5781 39.984-2.0625 52.688 1.2656 15.562 3.8906 33.562 13.266 42.562 21.984 11.156 10.969 12.703 14.156 12.703 26.766 0 12.469 1.9219 18.141 8.7656 25.078 7.3125 7.5469 13.641 10.406 23.391 10.406 20.297 0.14062 35.203-17.109 32.906-37.922-1.0312-9 0.51563-12.609 9.375-22.125 10.312-11.062 25.219-19.172 45-24.047 12.234-3.1875 37.688-3.4688 52.453-0.65625 38.578 7.3594 74.297 27.516 103.88 58.781 26.859 28.266 42.656 56.953 53.109 96l4.5938 17.484 0.65625 62.391c0.65625 50.25 1.1719 62.953 2.5781 65.531 7.1719 12.75 18.234 19.922 30.328 19.828 13.641-0.28125 24.562-7.5938 30.75-20.953 2.5312-5.8125 2.6719-7.5938 2.6719-65.062 0-52.219-0.23438-60.562-2.2969-71.344-9.7969-49.875-29.578-94.125-58.125-129.84-26.484-33.188-53.859-55.172-92.156-73.688-10.406-5.1094-19.031-9.8906-19.031-10.641 0-3.375 20.203-11.719 40.359-16.734 18.797-4.5 37.266-5.9062 55.688-4.3594 43.312 3.8438 79.312 20.953 111.7 53.203 32.391 32.297 52.688 73.547 62.344 126.14 5.25 29.156 4.6406 88.547-1.4062 131.63-6.1875 43.312-8.1094 55.031-12.984 77.906-19.922 95.016-61.969 201.19-101.2 256.36-18.234 25.688-41.906 47.016-63.891 57.422-20.016 9.5156-28.781 11.438-53.344 11.344-19.781 0-21.984-0.28125-32.109-3.6094-6.0469-2.0625-13.266-4.7812-16.078-6.2812-14.531-7.3594-33.047-22.922-38.719-32.531l-3.0469-5.2969 4.5938-9.8906c7.3594-16.078 8.25-22.5 8.25-64.406 0-36.516-0.14062-37.406-3.0938-43.688-11.953-25.359-47.438-24.938-58.359 0.60938-2.2031 5.0156-2.7188 10.312-3.3281 38.859-0.65625 22.594-1.5469 35.344-2.8594 40.359-5.1094 19.781-22.875 41.531-42.656 52.312-23.156 12.609-59.297 13.359-84.234 1.7812-23.25-10.781-42.422-33.281-48.422-56.812-2.2031-8.7188-2.5781-14.25-2.5781-40.875 0-28.688-0.28125-31.359-2.7188-36.375-12.844-26.625-50.531-24.281-59.391 3.4688-1.7812 5.5312-2.2031 12.75-2.2031 43.453 0 40.219 0.65625 45.141 8.25 62.859 2.4375 5.7656 3.0938 8.625 2.2031 10.266-1.8281 3.4688-21.891 22.266-28.453 26.766-35.719 24.562-80.344 27.141-121.45 6.9375-28.922-14.156-54.141-39.188-76.125-75.703-41.625-69.188-78.422-174.32-94.219-269.21-17.344-104.77-16.688-166.74 2.2031-221.39 9.0938-26.203 21.562-48.469 39.188-69.422 19.406-23.25 36.234-36.891 60.797-49.078 34.219-17.109 69.047-21.609 111.23-14.391z"/>
</svg>
