<?xml version="1.0" encoding="UTF-8"?>
<svg width="1200pt" height="1200pt" version="1.1" viewBox="0 0 1200 1200" xmlns="http://www.w3.org/2000/svg">
 <g>
  <path d="m1060.5 520.92c0-127.69-103.92-231.61-231.61-231.61-20.531 0-40.312 3-59.297 8.0625-6.375-99.844-86.391-158.63-90-161.16-3.8438-2.7656-8.5312-3.9375-13.312-3.1406-161.11 25.312-205.87 160.31-217.18 212.06-23.062-7.7812-48.375-12.375-76.078-12.375h-1.7812c-174.14 1.2188-227.39 93.141-229.55 96.938-1.5469 2.7656-2.2969 5.8594-2.2969 9.1406 2.8594 136.78 95.766 200.76 137.53 222.61-19.453 33.844-30.703 73.078-30.703 114.84 0 127.69 103.92 231.61 231.61 231.61 48.844 0 96.375-15.609 135.71-44.062 41.531 62.156 112.31 103.31 192.61 103.31 127.69 0 231.61-103.92 231.61-231.61 0-54.844-19.312-105.23-51.234-144.94 47.109-43.688 73.969-104.53 73.969-169.69zm-36 0c0 55.078-22.922 106.45-63 143.39-41.156-37.312-95.531-60.375-155.39-60.375-47.859 0-92.391 14.625-129.37 39.609-28.078-34.688-43.453-77.625-43.453-122.63 0-107.86 87.703-195.61 195.61-195.61 107.77 0.14062 195.61 87.844 195.61 195.61zm-360.32-351c17.531 14.859 69.844 65.531 69.938 139.69v0.23438c-65.859 29.625-115.45 89.156-131.39 161.29-24.234-36.141-63.844-82.781-120.14-111.7 6.375-36.047 38.156-162.66 181.6-189.52zm-488.53 273.71c11.062-15.375 62.062-73.922 195.94-74.859h1.4531c141 0 215.53 146.06 225 165.94 0.9375 16.688 3.6094 33.141 8.0625 48.938-37.547-24.938-82.078-39-128.29-39-72.938 0-138 33.938-180.47 86.859-31.828-15.047-116.77-66.797-121.69-187.87zm302.16 528.24c-107.86 0-195.61-87.703-195.61-195.61 0-107.86 87.703-195.61 195.61-195.61 66.703 0 129.37 34.688 165 90.844-42.141 42-68.297 99.938-68.297 164.06 0 34.453 7.7812 66.938 21.234 96.375-33.703 25.781-75.234 39.938-117.94 39.938zm328.31 59.297c-107.86 0-195.61-87.703-195.61-195.61 0-107.86 87.703-195.61 195.61-195.61 107.86 0 195.61 87.703 195.61 195.61 0 107.91-87.844 195.61-195.61 195.61z"/>
  <path d="m515.39 781.45c-29.531-4.3125-54.938-22.781-68.156-49.453-3-6.1406-9.2344-10.078-16.078-10.078s-13.078 3.8438-16.078 10.078c-13.219 26.766-38.625 45.234-68.156 49.453-6.7031 0.9375-12.375 5.7656-14.531 12.234s-0.375 13.688 4.5469 18.469c21.375 20.766 31.078 50.766 26.062 80.062-1.2188 6.7031 1.5469 13.547 7.2188 17.625 5.5312 4.0781 12.844 4.5469 18.938 1.3125 26.391-13.781 57.844-13.922 84.234 0 2.625 1.4531 5.5312 2.0625 8.3906 2.0625 3.7031 0 7.4531-1.2188 10.547-3.4688 5.5312-4.0781 8.2969-10.781 7.2188-17.625-5.0625-29.391 4.6875-59.297 26.062-80.062 4.9219-4.7812 6.7031-11.859 4.5469-18.469-2.3906-6.375-8.0156-11.203-14.766-12.141zm-53.156 87.234c-10.219-2.625-20.625-3.9375-31.219-3.9375-10.547 0-21 1.3125-31.219 3.9375-1.3125-21-8.0625-41.531-19.312-59.297 19.547-7.7812 36.938-20.391 50.391-36.609 13.453 16.219 30.844 28.781 50.391 36.609-10.969 17.906-17.578 38.297-19.031 59.297z"/>
  <path d="m875.86 773.06c-3-6.1406-9.2344-10.078-16.078-10.078s-13.078 3.8438-16.078 10.078c-13.219 26.766-38.625 45.234-68.156 49.453-6.7031 0.9375-12.375 5.7656-14.531 12.234s-0.375 13.688 4.5469 18.469c21.375 20.766 31.078 50.766 26.062 80.062-1.2188 6.7031 1.5469 13.547 7.2188 17.625 3.1406 2.2969 6.8438 3.4688 10.547 3.4688 2.8594 0 5.7656-0.70312 8.3906-2.0625 26.391-13.781 57.844-13.781 84.234 0 6 3.2344 13.453 2.625 18.938-1.3125 5.5312-4.0781 8.2969-10.781 7.2188-17.625-5.0625-29.391 4.6875-59.297 26.062-80.062 4.9219-4.7812 6.7031-12 4.5469-18.469s-7.7812-11.297-14.531-12.234c-29.719-4.4531-55.172-22.922-68.391-49.547zm15 136.64c-10.219-2.625-20.766-3.9375-31.219-3.9375s-21 1.3125-31.219 3.9375c-1.3125-21-8.0625-41.531-19.312-59.297 19.547-7.7812 36.938-20.391 50.391-36.609 13.453 16.219 30.844 28.781 50.391 36.609-10.969 17.906-17.578 38.297-19.031 59.297z"/>
  <path d="m805.22 541.08c-1.2188 6.7031 1.5469 13.547 7.2188 17.625 5.5312 3.9375 12.938 4.5469 18.938 1.3125 26.391-13.922 57.844-13.922 84.234 0 2.625 1.4531 5.5312 2.0625 8.3906 2.0625 3.7031 0 7.4531-1.2188 10.547-3.4688 5.5312-4.0781 8.2969-10.781 7.2188-17.625-5.0625-29.391 4.6875-59.297 26.062-80.062 4.9219-4.7812 6.7031-12 4.5469-18.469s-7.7812-11.297-14.531-12.234c-29.531-4.3125-54.938-22.781-68.156-49.453-3-6.1406-9.2344-10.078-16.078-10.078s-13.078 3.8438-16.078 10.078c-13.219 26.766-38.625 45.234-68.156 49.453-6.7031 0.9375-12.375 5.7656-14.531 12.234s-0.375 13.688 4.5469 18.469c21.141 20.859 30.844 50.859 25.828 80.156zm68.156-119.39c13.453 16.219 30.844 28.781 50.391 36.609-11.297 17.859-17.859 38.297-19.312 59.297-20.391-5.1562-41.859-5.1562-62.391 0-1.3125-21-8.0625-41.391-19.312-59.297 19.781-7.8281 37.172-20.438 50.625-36.609z"/>
 </g>
</svg>
