<svg xmlns="http://www.w3.org/2000/svg" version="1.1" viewBox="65.63 121.88 1068.77 956.23">
 <g>
  <path d="m313.64 646.87c-7.2188 0-14.391-2.7656-19.922-8.25-10.969-10.969-10.969-28.781 0-39.75l37.5-37.5c11.016-11.016 28.781-11.016 39.797 0 10.969 10.969 10.969 28.781 0 39.75l-37.5 37.5c-5.4844 5.4844-12.703 8.25-19.875 8.25z"/>
  <path d="m671.44 1078.1h-446.76c-23.016 0-44.484-9.0938-60.516-25.547-16.031-16.5-24.516-38.25-23.859-61.219l16.406-577.92c-52.219-12.938-91.078-60.234-91.078-116.44 0-67.312 47.156-126.28 112.08-140.16 140.29-30.047 282.84-40.781 423.56-31.922 15.516 0.98438 27.281 14.344 26.297 29.812-0.9375 15.516-14.25 27.375-29.812 26.297-135.71-8.4844-273 1.8281-408.28 30.797-39.188 8.3906-67.594 44.203-67.594 85.172 0 35.109 28.547 63.656 63.656 63.656 7.5938 0 14.859 3.0938 20.156 8.5312 5.2969 5.4375 8.1562 12.797 7.9688 20.391l-17.109 603.37c-0.23438 7.6406 2.5781 14.906 7.9219 20.391 5.3438 5.5312 12.516 8.5312 20.203 8.5312h446.76c15.516 0 28.125 12.609 28.125 28.125s-12.609 28.125-28.125 28.125z"/>
  <path d="m426.14 534.37c-7.2188 0-14.391-2.7656-19.922-8.25-10.969-10.969-10.969-28.781 0-39.75l168.74-168.74c11.016-11.016 28.781-11.016 39.797 0 10.969 10.969 10.969 28.781 0 39.75l-168.74 168.74c-5.4844 5.4844-12.703 8.25-19.875 8.25z"/>
  <path d="m364.64 796.87c-7.1719 0-14.391-2.7656-19.875-8.25-10.969-10.969-10.969-28.781 0-39.75l281.26-281.26c10.969-11.016 28.781-11.016 39.75 0 11.016 10.969 11.016 28.781 0 39.75l-281.26 281.26c-5.4844 5.4844-12.656 8.25-19.875 8.25z"/>
  <path d="m415.69 946.87c-7.2188 0-14.391-2.7656-19.922-8.25-10.969-10.969-10.969-28.781 0-39.75l160.45-160.45c11.016-11.016 28.781-11.016 39.797 0 10.969 10.969 10.969 28.781 0 39.75l-160.45 160.45c-5.4844 5.4844-12.703 8.25-19.875 8.25z"/>
  <path d="m659.44 703.13c-7.2188 0-14.391-2.7656-19.922-8.25-10.969-10.969-10.969-28.781 0-39.75l37.5-37.5c11.016-11.016 28.781-11.016 39.797 0 10.969 10.969 10.969 28.781 0 39.75l-37.5 37.5c-5.4844 5.4844-12.703 8.25-19.875 8.25z"/>
  <path d="m1134.4 295.03c0-66.094-46.312-123.98-110.16-137.72-141.37-30.328-284.86-41.203-426.47-32.297-14.812 0.9375-26.391 13.219-26.391 28.078s11.578 27.141 26.391 28.078c75.094 4.7344 150.84 15.188 225.19 31.172 38.109 8.1562 65.719 42.938 65.719 82.688 0 36.188-29.438 65.625-65.625 65.625-7.5938 0-14.859 3.0938-20.156 8.5312s-8.1562 12.797-7.9688 20.391l17.109 603.37c0.23438 7.6406-2.5781 14.906-7.9219 20.391-5.3438 5.4844-12.516 8.5312-20.156 8.5312-15.562 0-28.125 12.609-28.125 28.125 0 15.516 12.562 28.125 28.125 28.125h189.42c23.016 0 44.484-9.0938 60.516-25.547 16.031-16.5 24.516-38.25 23.859-61.219l-16.406-577.87c53.344-12.984 93.047-61.172 93.047-118.45z"/>
 </g>
</svg>