<?xml version="1.0" encoding="UTF-8"?>
<svg width="1200pt" height="1200pt" version="1.1" viewBox="0 0 1200 1200" xmlns="http://www.w3.org/2000/svg">
 <g>
  <path d="m396 434.4c37.199-37.199 54-88.801 46.801-141.6l-48 6c4.8008 38.398-7.1992 75.602-32.398 102-26.398 26.398-63.602 38.398-102 32.398l-7.1992 48c8.3984 1.1992 16.801 2.3984 25.199 2.3984 44.398-1.1953 86.398-17.992 117.6-49.195z"/>
  <path d="m765.6 804c-37.199 37.199-54 88.801-46.801 142.8l48-7.1992c-6-38.398 6-75.602 32.398-102 26.398-26.398 63.602-38.398 102-32.398l6-48c-54-7.2031-105.6 9.5977-141.6 46.797z"/>
  <path d="m1112.4 757.2c63.602-63.602 63.602-193.2 0-256.8-14.398-14.398-32.398-26.398-50.398-34.801-2.3984-22.801-9.6016-45.602-20.398-66 37.199-69.602 25.199-158.4-31.199-214.8-57.602-57.602-145.2-69.602-214.8-31.199-20.398-10.801-42-18-64.801-20.398-8.3984-19.199-20.398-36-34.801-51.602-30-31.199-79.199-48-134.4-48-55.199 0-104.4 18-134.4 48-16.801 16.801-30 38.398-38.398 61.199-8.3984 3.6016-16.801 7.1992-25.199 10.801-64.801-33.602-140.4-18-202.8 43.199-62.398 62.398-78 138-43.199 202.8-38.398 69.602-25.199 158.4 31.199 214.8 19.199 19.199 43.199 33.602 67.199 42-6 45.602 7.1992 92.398 38.398 126l-207.6 174 6 15.602c22.801 60 114 151.2 170.4 170.4l15.602 4.8008 166.8-198c28.801 26.398 66 40.801 104.4 40.801 10.801 0 22.801-1.1992 33.602-3.6016 9.6016 24 22.801 45.602 40.801 63.602 34.801 34.801 81.602 52.801 128.4 52.801 30 0 58.801-7.1992 86.398-21.602 64.801 33.602 140.4 18 202.8-43.199 62.398-62.398 78-138 43.199-202.8 7.1992-14.398 13.199-30 16.801-45.602 19.199-5.9961 36-16.797 50.398-32.398zm-33.598-33.598c-3.6016 3.6016-8.3984 7.1992-13.199 10.801-3.6016-42-21.602-81.602-52.801-112.8-1.1992-1.1992-3.6016-2.3984-4.8008-4.8008l1.1992-1.1992c26.398-26.398 43.199-60 50.398-96 6 4.8008 13.199 9.6016 19.199 14.398 44.402 46.801 44.402 145.2 0.003906 189.6zm-102-504c44.398 44.398 51.602 115.2 16.801 168v1.1992c-4.8008 7.1992-10.801 14.398-16.801 20.398-21.602 21.602-50.398 36-81.602 38.398l4.8008 48c40.801-3.6016 79.199-21.602 109.2-50.398 15.602 46.801 4.8008 100.8-32.398 138-52.801 52.801-136.8 52.801-189.6 0-28.801-28.801-42-68.398-38.398-108l2.3984-28.801-28.801 2.3984c-40.801 3.6016-79.199-9.6016-108-38.398-25.199-25.199-39.602-58.801-39.602-94.801s14.398-69.602 39.602-94.801c36-36 90-48 138-32.398-28.801 28.801-46.801 68.398-50.398 109.2l48 4.8008c3.6016-31.199 16.801-60 38.398-81.602 6-6 13.199-12 21.602-16.801 50.398-35.996 121.2-28.797 166.8 15.605zm-416.4-136.8c42 0 79.199 13.199 100.8 33.602 6 6 10.801 12 15.602 19.199-36 6-69.602 22.801-96 50.398l-1.1992 1.1992s-1.1992-1.1992-1.1992-1.1992c-36-36-82.801-54-130.8-52.801 3.6016-6 8.3984-10.801 13.199-15.602 20.398-22.797 57.598-34.797 99.598-34.797zm-397.2 331.2 8.3984-13.199-8.3984-13.199c-31.199-48-20.398-105.6 30-156 50.398-50.398 108-61.199 156-30l13.199 8.3984 13.199-8.3984c52.801-34.801 123.6-27.602 168 16.801 2.3984 2.3984 3.6016 4.8008 6 6-14.398 26.398-22.801 56.398-22.801 88.801 0 31.199 8.3984 61.199 22.801 88.801-2.3984 2.3984-3.6016 4.8008-6 6-28.801 28.801-68.398 42-108 38.398l-28.801-2.3984 2.3984 28.801c3.6016 40.801-9.6016 79.199-38.398 108-52.801 52.801-136.8 52.801-189.6 0-44.395-43.203-51.594-114-17.996-166.8zm98.402 254.4c4.8008 0 9.6016 1.1992 14.398 1.1992 46.801 0 94.801 9.6016 90 20.398l-75.602 63.602c-21.598-22.797-32.398-53.996-28.797-85.199zm-38.402 424.8c-39.602-21.602-96-78-118.8-120l360-302.4 2.3984-3.6016c19.199-31.199 21.602-85.199-12-138 2.3984-10.801 3.6016-21.602 4.8008-32.398 13.199-1.1992 27.602-3.6016 40.801-7.1992 16.801 30 24 63.602 24 63.602l8.3984 42 116.4-109.2c16.801 6 34.801 9.6016 52.801 10.801 1.1992 15.602 3.6016 30 8.3984 44.398l-111.6 118.8 42 8.3984c13.199 2.3984 48 13.199 73.199 30-3.6016 14.398-7.1992 28.801-7.1992 43.199-6 0-12 1.1992-18 1.1992-67.199-44.398-148.8-16.801-152.4-15.602l-6 2.3984zm211.2-177.6 63.602-75.602c10.801-2.3984 31.199 36 31.199 84 0 6 0 12 1.1992 18-33.598 7.1992-70.797-2.3984-96-26.398zm562.8-64.801c31.199 48 20.398 105.6-30 156-50.398 50.398-108 61.199-156 30l-13.199-8.3984-13.199 8.3984c-52.801 34.801-123.6 27.602-168-16.801-25.199-25.199-39.602-58.801-39.602-94.801s14.398-69.602 39.602-94.801c28.801-28.801 68.398-43.199 108-38.398l28.801 2.3984-2.3984-28.801c-3.6016-40.801 9.6016-79.199 38.398-108 2.3984-2.3984 4.8008-4.8008 7.1992-7.1992 26.398 13.199 55.199 20.398 84 20.398 30 0 61.199-7.1992 87.602-22.801 3.6016 2.3984 7.1992 6 10.801 9.6016 44.398 44.398 51.602 115.2 16.801 168l-8.3984 13.199z"/>
 </g>
</svg>
