<?xml version="1.0" encoding="UTF-8"?>
<svg width="1200pt" height="1200pt" version="1.1" viewBox="0 0 1200 1200" xmlns="http://www.w3.org/2000/svg">
 <path d="m1064.6 789.66c2.625-6.4688 4.125-13.5 4.125-20.906v-37.5c0-14.438-5.625-27.516-14.625-37.5 9-9.9844 14.625-23.062 14.625-37.5 0-17.531-8.2031-33-20.812-43.312 20.812-14.062 37.594-33.562 47.906-57.516 20.109-46.641 10.406-99.094-25.359-136.97-116.11-122.95-287.58-193.45-470.53-193.45s-354.42 70.5-470.53 193.45c-35.719 37.875-45.422 90.328-25.359 136.92 10.359 24 27.094 43.5 47.953 57.562-12.609 10.312-20.812 25.828-20.812 43.312 0 14.438 5.625 27.516 14.625 37.5-9 9.9844-14.625 23.062-14.625 37.5v37.5c0 7.4062 1.5 14.438 4.125 20.906-23.906 6.4688-41.625 28.172-41.625 54.094v37.5c0 51.703 42.047 93.75 93.75 93.75h825c51.703 0 93.75-42.047 93.75-93.75v-37.5c0-25.922-17.719-47.578-41.625-54.094zm-895.87-20.906v-37.5c0-10.312 8.3906-18.75 18.75-18.75h184.92c8.625 2.1562 17.109 4.8281 25.688 7.3125 6.75 1.9688 13.594 3.7031 20.344 5.8594 8.1094 2.625 16.125 5.8125 24.188 8.7188 7.3125 2.6719 14.672 5.0625 21.891 7.9688 6.9375 2.7656 13.688 6.0469 20.531 9.0469 8.2031 3.5625 16.453 6.9375 24.562 10.828 2.8125 1.3594 5.5312 2.9531 8.3438 4.3594 11.859 5.9062 23.719 11.906 35.344 18.469h0.046876c1.3125 0.75 2.6719 1.6406 4.0312 2.4375h-369.89c-10.359 0-18.75-8.4375-18.75-18.75zm463.45 22.172c-20.859-14.766-40.688-27.375-60.469-38.531-14.344-8.1094-28.922-15.656-43.688-22.781-4.6406-2.25-9.4219-4.2656-14.109-6.4219-7.8281-3.6094-15.562-7.3594-23.438-10.688h389.72c-6.75 3.5156-13.266 7.5-19.828 11.344-3.8906 2.25-7.875 4.3125-11.719 6.7031-11.812 7.2188-23.438 14.906-34.734 23.109-16.688 12.281-32.625 25.312-47.391 38.859-20.766 19.219-39.656 39.609-56.391 60.75-25.031-23.016-50.719-43.547-77.906-62.297zm203.81-7.0312c10.969-7.9688 22.219-15.422 33.703-22.406 3.375-2.0625 6.8906-3.75 10.266-5.7188 8.2969-4.7812 16.547-9.5625 25.031-13.828 3.4219-1.6875 6.9375-3.0938 10.406-4.7344 8.6719-4.125 17.391-8.2031 26.297-11.812 3.75-1.5 7.6406-2.6719 11.484-4.125 8.2969-3.0938 16.594-6.1875 25.031-8.8125h34.312c10.312 0 18.75 8.4375 18.75 18.75v37.5c0 10.312-8.4375 18.75-18.75 18.75h-180.84c1.5469-1.125 2.8125-2.4375 4.3594-3.6094zm-697.45-243.37c-14.297-33.141-7.5-69.141 18.188-96.328 109.03-115.5 270.61-181.74 443.26-181.74 172.69 0 334.22 66.188 443.26 181.69 25.641 27.188 32.438 63.188 18.188 96.328-15.844 36.703-52.5 59.484-95.672 59.484l-731.48 0.046874c-43.219 0-79.875-22.781-95.672-59.484zm827.16 96.984h46.781c10.312 0 18.75 8.4375 18.75 18.75s-8.4375 18.75-18.75 18.75h-825c-10.359 0-18.75-8.4375-18.75-18.75s8.3906-18.75 18.75-18.75zm103.03 243.74c0 31.031-25.219 56.25-56.25 56.25h-825c-31.031 0-56.25-25.219-56.25-56.25v-37.5c0-10.312 8.3906-18.75 18.75-18.75h465.14c9.1875 6.4688 18.047 13.406 26.953 20.344 5.0156 3.9375 10.219 7.5 15.188 11.578 14.344 11.859 28.359 24.328 42.234 37.781 1.875 1.8281 4.125 3.1406 6.5156 4.0312 0.65625 0.23438 1.3594 0.23438 2.0625 0.375 1.4531 0.375 2.9062 0.84375 4.4531 0.84375 0.5625 0 1.0781-0.046875 1.6406-0.09375 5.4375-0.46875 10.406-3.2812 13.594-7.7344 8.7656-12.188 18.375-24.094 28.688-35.719 3.4688-3.9375 7.4531-7.6875 11.109-11.531 6.3281-6.75 12.75-13.453 19.547-19.922h262.92c10.312 0 18.75 8.4375 18.75 18.75v37.5zm-482.02-511.74c-7.3125-7.3125-7.3125-19.172 0-26.531 7.3125-7.3125 19.172-7.3125 26.531 0l37.5 37.5c7.3125 7.3125 7.3125 19.172 0 26.531-3.6562 3.6562-8.4375 5.4844-13.266 5.4844-4.7812 0-9.6094-1.8281-13.266-5.4844zm187.5 75c-7.3125-7.3125-7.3125-19.172 0-26.531 7.3125-7.3125 19.172-7.3125 26.531 0l37.5 37.5c7.3125 7.3125 7.3125 19.172 0 26.531-3.6562 3.6562-8.4375 5.4844-13.266 5.4844-4.7812 0-9.6094-1.8281-13.266-5.4844zm-375 0c-7.3125-7.3125-7.3125-19.172 0-26.531 7.3125-7.3125 19.172-7.3125 26.531 0l37.5 37.5c7.3125 7.3125 7.3125 19.172 0 26.531-3.6562 3.6562-8.4375 5.4844-13.266 5.4844-4.7812 0-9.6094-1.8281-13.266-5.4844z"/>
</svg>
