<?xml version="1.0" encoding="UTF-8"?>
<svg width="1200pt" height="1200pt" version="1.1" viewBox="0 0 1200 1200" xmlns="http://www.w3.org/2000/svg">
 <path d="m1107.6 962.95h36.328c20.016 0 36.281 16.266 36.281 36.281v72.609c0 60.094-48.797 108.89-108.89 108.89h-943.69c-60.094 0-108.84-48.797-108.84-108.89v-72.609c0-20.016 16.219-36.281 36.281-36.281h36.281v-362.95c0-60.094 48.797-108.89 108.89-108.89h93.844l461.21-461.21c14.203-14.156 37.172-14.156 51.328 0l108.89 108.89c14.156 14.156 14.156 37.172 0 51.328l-137.68 137.68 28.781 28.781c14.203 14.156 14.203 37.125 0 51.328l-83.203 83.203h275.29c60.094 0 108.89 48.797 108.89 108.89zm0 72.562h-1016.3v36.328c0 20.016 16.266 36.281 36.281 36.281h943.69c20.016 0 36.281-16.266 36.281-36.281zm-689.58-471.79h-217.78c-20.016 0-36.281 16.266-36.281 36.281v362.95h290.34v-362.95c0-20.016-16.266-36.281-36.281-36.281zm199.6-293.48-220.87 220.87h224.02l108.89-108.89zm108.89 6.2344 112.03-111.98-57.562-57.562-112.03 111.98zm308.53 686.48v-362.95c0-20.016-16.266-36.281-36.328-36.281h-260.26c4.0312 11.344 6.1875 23.578 6.1875 36.281v72.609c0 20.016-16.266 36.281-36.281 36.281s-36.281-16.266-36.281-36.281v-72.609c0-20.016-16.266-36.281-36.328-36.281h-115.08c4.0312 11.344 6.2344 23.578 6.2344 36.281v362.95z" fill-rule="evenodd"/>
</svg>
