<?xml version="1.0" encoding="UTF-8"?>
<svg width="1200pt" height="1200pt" version="1.1" viewBox="0 0 1200 1200" xmlns="http://www.w3.org/2000/svg">
 <path d="m1075 544.5s-0.51562-3-0.98438-5.0156c0-1.5-0.51562-3.5156-1.5-5.0156v-0.51562c-105.52-211.5-361.5-213.98-372.52-213.98-3 0-6 0-8.4844 1.5l-14.484 5.4844c-18.984-23.484-45-39-74.484-44.484-12.984-99-107.02-147.98-111-150.52-12.516-6-27.516-0.98438-33.516 11.016s-0.98438 27.516 11.016 33.516c0.98438 0 70.5 37.5 83.484 105.98-55.5 12.516-96.984 62.484-96.984 121.5v3.5156l-313.5 114h-0.51562c-2.0156 0.51562-3.5156 2.0156-5.0156 3-0.98438 0.51562-2.4844 1.5-3 2.0156-0.98438 0.98438-2.0156 2.4844-3 3.9844s-2.0156 2.4844-2.4844 3.9844c-0.51562 0.98438-0.51562 2.4844-0.98438 3.9844 0 2.0156-0.98438 3.5156-0.98438 5.4844v500.53c0 14.016 11.016 24.984 24.984 24.984h900c14.016 0 24.984-11.016 24.984-24.984v-501zm-264.52 326.02 150-150h64.5v14.484l-135.52 135.52h-79.5zm-150 0 150-150h79.5l-150 150zm-150 0 150-150h79.5l-150 150zm-150 0 150-150h79.5l-150 150zm-150 0 150-150h79.5l-150 150zm814.5-200.02h-849.98v-99.984h849.98zm-849.98 50.016h114.52l-114.52 114.52zm849.98 85.5v64.5h-64.5zm-18.984-285.52h-714l174.98-63.516c1.5 3.5156 3 7.5 5.0156 11.016 2.4844 3.9844 6.5156 7.5 10.5 9.5156 30.516 14.484 62.016 21.516 94.5 21.516s65.016-6.9844 98.484-21c5.0156-2.0156 9-6 12-10.5 11.016-18.516 17.016-41.016 17.016-62.484 0-11.016-1.5-21.984-4.5-32.484l3.5156-1.5c29.484 0.98438 207.52 14.016 302.02 150zm-426-191.02c27.516 0 52.5 15 66 39.516 6 11.016 9 23.484 9 35.484 0 10.5-2.0156 21-6.5156 30.516-48.516 18.516-93.516 18.516-137.02 0-2.0156-5.0156-3.9844-10.5-5.0156-18-0.98438-3-1.5-6.9844-1.5-12.516 0-41.484 33.516-75 74.484-75zm-405 691.03v-99.984h849.98v99.984z"/>
</svg>
