<?xml version="1.0" encoding="UTF-8"?>
<svg width="1200pt" height="1200pt" version="1.1" viewBox="0 0 1200 1200" xmlns="http://www.w3.org/2000/svg">
 <path d="m715.13 484.87c8.4844 9.9375 7.9219 24.703-1.3125 33.938s-24 9.7969-33.938 1.3125l-54-53.859-104.02 104.02v-0.046875c-4.6875 4.6875-11.109 7.3125-17.719 7.2656-6.6094 0-12.938-2.5781-17.625-7.2656s-7.3594-11.016-7.3594-17.672 2.6719-12.984 7.3594-17.672l121.64-121.74-0.046874-0.046876c4.7344-4.6406 11.109-7.2656 17.766-7.2188 6.6094 0 12.938 2.5781 17.625 7.2188zm391.87-116.02c4.0781 5.8594 5.4844 13.219 3.7969 20.156-1.6406 6.9844-6.2344 12.891-12.562 16.219l-215.72 114.52c23.156 47.859 13.547 105.09-24 142.74l-196.03 196.03c-37.641 37.547-94.875 47.156-142.74 24l-114.52 215.72c-3.375 6.3281-9.2812 10.875-16.219 12.516-1.9688 0.23438-3.9375 0.23438-5.9062 0-5.0625 0.046875-10.031-1.5-14.25-4.3594-66-45.984-74.016-66.891-82.359-99.984v-0.046875c-6.7031-26.906-18.375-52.359-34.5-75-58.266-88.734-137.48-89.859-138.61-89.859-11.531 0-21.516-7.875-24.281-19.031s2.4844-22.734 12.656-28.078l215.72-114.14c-23.156-47.859-13.547-105.09 24-142.74l196.03-196.03c37.641-37.547 94.875-47.156 142.74-24l114.52-215.72c5.3438-10.172 16.922-15.422 28.078-12.656s19.031 12.75 19.031 24.281c0 3.1406 2.25 81 89.859 138.61 22.641 16.125 48.094 27.797 75 34.5 33.516 8.3906 54.375 16.359 100.27 82.359zm-627.74 483.14-29.25-28.734-57 96.141v-0.046875c-2.9062 6.4688-8.4375 11.391-15.141 13.547-6.75 2.1562-14.109 1.3594-20.203-2.2031-6.1406-3.5625-10.453-9.5625-11.906-16.453-1.4531-6.9375 0.09375-14.156 4.2656-19.875l63.516-107.02-0.75-0.75-106.55 63.375c-11.859 7.0781-27.234 3.1875-34.312-8.6719-7.0781-11.859-3.1875-27.234 8.7188-34.312l96.094-57-28.734-28.734-165.37 87.516v-0.046875c45.75 20.25 84.422 53.672 111.14 96 19.266 27.375 33.234 58.125 41.109 90.656 4.875 18.75 7.6406 29.625 40.125 54.609zm343.87-330.89-144.24-144.24c-29.297-29.25-76.734-29.25-106.03 0l-195.98 195.98c-29.25 29.297-29.25 76.734 0 106.03l144.24 144.24c29.297 29.25 76.734 29.25 106.03 0l195.98-195.98c29.25-29.297 29.25-76.734 0-106.03zm226.87-146.11c-24.984-32.109-35.25-34.875-54.375-39.75-32.531-7.875-63.281-21.844-90.609-41.109-42.328-26.719-75.75-65.391-96-111.14l-87.516 165.37 28.734 28.734 57-96.141v0.046875c2.9062-6.5625 8.4375-11.531 15.234-13.734s14.203-1.3594 20.391 2.2969c6.1406 3.6094 10.453 9.7031 11.812 16.734 1.3594 6.9844-0.32812 14.25-4.6875 19.922l-63.516 107.02 0.75 0.75 106.55-63.984c5.7188-4.1719 12.938-5.7188 19.828-4.2656 6.9375 1.4531 12.938 5.7656 16.453 11.906 3.5625 6.0938 4.3594 13.453 2.2031 20.203-2.1562 6.7031-7.0312 12.234-13.5 15.141l-95.484 57 28.734 28.734z"/>
</svg>
