<?xml version="1.0" encoding="UTF-8"?>
<svg width="1200pt" height="1200pt" version="1.1" viewBox="0 0 1200 1200" xmlns="http://www.w3.org/2000/svg">
 <path d="m1099.9 222.98c-5.625-11.016-12.75-19.266-19.641-25.266 9.3281-21.656 5.2031-47.812-12.469-65.531-17.672-17.672-43.828-21.797-65.531-12.469-6.0469-6.8906-14.297-14.062-25.453-19.734-27.75-13.688-54.281-7.5-66.797-2.9531-26.719-6.6562-48.375-2.7188-62.203 2.0156-34.594 11.672-53.484 37.547-62.719 54.844-34.406-2.25-67.781 11.438-88.875 36.75-30.703 36.047-32.25 90.891-4.4531 132.74v45.516c-62.719-14.766-129.32 3.5156-175.69 49.969-8.4375 8.3906-15.656 17.062-21.375 25.547-0.23438 0.28125-2.4375 3.1875-2.625 3.4688l-389.58 567.37c-16.781 24.281-14.016 54.609 6.7969 75.422 11.766 11.766 26.484 17.766 41.484 17.766 11.578 0 23.344-3.6094 33.891-10.922l569.95-391.64c0.046875 0 0.09375-0.046875 0.09375-0.09375 37.078-25.828 63.375-63.938 74.766-107.34 0.09375-0.1875 0.09375-0.375 0.1875-0.51562 0.1875-0.75 0.5625-1.4531 0.75-2.2031 7.1719-28.828 7.1719-58.594 0.375-87.562h45.703c19.828 13.172 42.609 19.734 64.922 19.734 24.703 0 48.797-8.0625 67.734-24.141 25.406-21.234 38.859-54.328 36.844-88.969 17.344-9.2344 43.125-28.125 54.844-62.719 4.7344-13.875 8.6719-35.578 2.0156-62.203 4.5-12.609 10.734-39.141-3.0938-66.984zm-366.47 452.02-125.81 86.438-55.875-55.875c-7.3125-7.3125-19.172-7.3125-26.531 0-7.3125 7.3125-7.3125 19.172 0 26.531l50.953 50.953-412.74 283.6c-10.969 7.5469-21.516 3.6094-27.609-2.4844-6.1406-6.1406-10.031-16.641-2.4375-27.656l143.39-208.82 47.766 47.766c3.6562 3.6562 8.4375 5.4844 13.266 5.4844 4.7812 0 9.6094-1.8281 13.266-5.4844 7.3125-7.3125 7.3125-19.172 0-26.531l-52.688-52.688 211.87-308.53 72.375 72.375c3.6562 3.6562 8.4375 5.4844 13.266 5.4844 4.7812 0 9.6094-1.8281 13.266-5.4844 7.3125-7.3125 7.3125-19.172 0-26.531l-76.359-76.359c3.1875-3.9375 6.0469-8.0625 9.8438-11.812 28.734-28.734 67.172-44.062 106.31-44.062 18.375 0 36.938 3.375 54.656 10.312 7.4062 2.9531 14.719 6.7969 22.781 11.906 9.8438 5.5312 19.125 12.656 28.266 21.844 9.1406 9.1406 16.312 18.422 22.406 29.203 4.5 7.0781 8.2969 14.344 11.25 21.656 6.75 17.578 9.75 35.906 9.8438 54.188l-16.969-16.969c-7.3125-7.3125-19.172-7.3125-26.531 0-7.3125 7.3125-7.3125 19.172 0 26.531l36.234 36.234c-10.078 31.641-29.812 59.438-57.375 78.656zm331.87-380.68c4.9688 16.125 5.0156 31.547 0.14062 45.797-10.594 31.266-40.266 43.594-46.078 45.797-8.5781 3.1406-13.641 12.047-11.953 21 4.875 26.062-3.8906 52.828-22.266 68.156-0.046875 0.046875-0.09375 0.09375-0.14062 0.09375-24.422 20.766-62.859 20.438-91.312-0.75-3.2812-2.3906-7.1719-3.7031-11.203-3.7031h-64.688c-2.6719-5.4375-5.625-10.641-8.6719-15.328-7.2656-12.938-16.406-24.844-28.031-36.469s-23.531-20.812-35.531-27.469c-5.2969-3.4219-10.781-6.5156-16.312-9.2812v-64.688c0-4.0312-1.3125-7.9688-3.7031-11.203-21.234-28.5-21.562-66.891-0.65625-91.453 15.328-18.422 42-27.094 68.156-22.266 9.2812 1.8281 17.859-3.375 21-11.953 2.1562-5.8125 14.484-35.484 45.797-46.078 14.297-4.875 29.578-4.7812 45.797 0.14062 4.5938 1.4062 9.6094 0.9375 13.922-1.125 0.14062-0.09375 20.531-9.8906 40.406-0.09375 12.422 6.3281 18.375 16.312 20.344 20.344 2.7188 5.3906 7.8281 9.1875 13.781 10.125 6.1406 1.0781 12.047-0.9375 16.312-5.25 8.4844-8.4844 22.359-8.4844 30.844 0s8.4844 22.359 0 30.844c-4.2656 4.2656-6.2344 10.312-5.25 16.312 0.9375 5.9531 4.7812 11.062 10.125 13.781 3.9844 1.9688 13.969 7.9688 20.203 20.156 9.9375 20.062 0.14062 40.406 0.046875 40.594-2.1562 4.3125-2.5781 9.2812-1.125 13.922z"/>
</svg>
