<?xml version="1.0" encoding="UTF-8"?>
<svg width="1200pt" height="1200pt" version="1.1" viewBox="0 0 1200 1200" xmlns="http://www.w3.org/2000/svg">
 <path d="m233.55 139.28h598.29l123.17-61.285h-595.76l-125.69 61.285zm666.5 870.75c-8.9297 4.3516-19.699 0.63672-24.051-8.293-4.3516-8.9297-0.63672-19.699 8.293-24.051l93.461-45.566c8.9297-4.3516 19.699-0.63672 24.051 8.293 4.3516 8.9297 0.63672 19.699-8.293 24.051zm0 60.023c-8.9297 4.3516-19.699 0.63672-24.051-8.293-4.3516-8.9297-0.63672-19.699 8.293-24.051l93.461-45.566c8.9297-4.3516 19.699-0.63672 24.051 8.293 4.3516 8.9297 0.63672 19.699-8.293 24.051zm-205.06-120.71c14.699-1.4883 24.605-6.6484 29.664-15.406 5.5273-9.5664 6.8867-23.953 4.1094-43.102-17.957 7.1562-29.723 15.562-35.277 25.172-6.1641 10.203-3.0625 23.188 1.5039 33.336zm60.734 2.5938c-13.125 22.734-36.949 33.988-71.418 33.734-6.1211-0.042969-12.074-3.2031-15.391-8.8594-17.148-29.238-19.531-55.148-7.1133-77.629 13.934-26.277 47.906-40.945 74.922-48.914 10.176-2.918 20.539 2.2539 23.09 12.797 9.3242 38.324 7.9805 67.988-4.082 88.867zm-428.09 33.719c-10.445 0.070312-19.957-0.93359-28.402-2.9766-17.461-4.2539-30.84-12.91-39.996-25.895-8.7031-12.316-13.168-28.148-13.309-47.41-0.097656-13.594 1.9414-29.043 6.1523-46.305 2.3242-9.625 12.031-15.535 21.656-13.211 14.91 4.2109 30.559 10.164 43.938 18.016 16.625 9.7656 28.148 21.57 34.484 35.32 6.6484 14.414 7.4414 30.289 2.4102 47.508-2.4531 8.418-6.3359 17.121-11.609 26.094-3.3008 5.6406-9.2266 8.8008-15.32 8.8594zm-19.957-37.844c2.8359 0.67969 5.9102 1.1914 9.2109 1.5312 1.3477-2.9922 2.4219-5.8672 3.2305-8.6172 2.5078-8.6172 2.3242-16.145-0.59375-22.48-3.2305-7.0156-9.9219-13.535-20-19.445-4.7617-2.8047-10.234-5.4414-16.398-7.9219-0.93359 6.6055-1.3906 12.672-1.3477 18.211 0.085937 11.691 2.3828 20.707 6.8477 27.027 3.9844 5.6562 10.359 9.582 19.051 11.691zm331.07-395.95-4.0547 7.0312c6.5469 0.22656 13.422 1.2188 20.652 2.9922-5.5703-2.5352-11.098-5.8828-16.598-10.02zm-57.43 99.469-4.0117 6.9453 4.832 0.29688c4.918 0.4375 10.035 1.3047 15.379 2.5938-5.4297-2.5234-10.828-5.7969-16.199-9.8359zm-56.184 38.098c-1.9844-5.6133-3.3867-10.828-5.8945-16.641-5.2734 3.9531-9.8516 7.9219-13.75 11.863-8.2344 8.3477-13.023 16.344-14.328 23.938-1.8555 10.773 3.8828 21.332 10.574 29.426 13.805-5.2422 22.039-12.77 24.648-22.535 2.2695-8.4062 0.94922-17.746-1.2461-26.051zm19.602-46.402 5.5859-9.668c-2.9492-1.2617-5.7812-2.6367-8.4336-4.082-15.816-8.6172-26.461-20.438-31.977-35.363-5.2148-14.203-5.4141-30.645-0.56641-49.293 3.4141-13.195 9.4102-27.594 17.93-43.145 4.7617-8.6875 15.703-11.863 24.391-7.1016 8.957 5.3594 17.758 11.383 25.84 17.984-5.5703-6.8047-9.5391-14.613-11.891-23.43-11.043-41.273 17.336-83.766 37.488-118.73 4.918-8.5742 15.887-11.523 24.465-6.6055 8.5742 4.918 11.523 15.887 6.6055 24.465l-9.75 16.895c16.512 11.723 28.73 23.91 36.625 36.523l24.164-41.867c4.9609-8.5742 15.961-11.496 24.535-6.5352s11.496 15.961 6.5352 24.535l-24.121 41.797c7.0859 0.24219 14.586 1.4023 22.465 3.4453 8.6016 2.2266 17.746 5.5703 27.426 10.02l9.75-16.879c4.9609-8.5742 15.961-11.496 24.535-6.5352 8.5742 4.9609 11.496 15.961 6.5352 24.535-20.195 34.965-42.832 80.758-84.133 91.816-8.8867 2.3828-17.73 2.8359-26.488 1.3594 9.9922 3.7422 19.461 8.3906 28.828 13.492 8.4609 5.1602 11.125 16.215 5.9688 24.676-20.496 33.703-42.434 53.703-65.723 59.938-8.8164 2.3516-17.562 2.8203-26.234 1.4023 8.7891 3.332 18.059 7.668 27.781 12.996l0.70703 0.42578c8.4609 5.1172 11.156 16.145 6.0391 24.605-9.3242 15.363-19.277 26.914-29.211 36.043-4.5352 4.1797-9.0859 7.8516-13.578 11.168 4.707 10.09 8.2344 19.602 10.547 28.531 4.8477 18.668 4.6641 35.105-0.58203 49.293-7.0859 19.246-22.066 31.551-40.395 39.445l22.789 39.473c4.918 8.5742 1.9688 19.547-6.6055 24.465-8.5742 4.918-19.547 1.9688-24.465-6.6055l-22.734-39.375c-19.629 14.742-39.645 19.391-59.98 13.945-23.316-6.2344-45.227-26.234-65.723-59.938-5.7695-9.4531-1.9141-20.383 7.5273-25.527 9.4805-5.1602 18.539-9.3555 27.172-12.613-8.7305 1.4609-17.531 0.99219-26.406-1.375-23.285-6.2344-45.215-26.25-65.707-59.938-5.7695-9.4531-1.9141-20.383 7.5273-25.527 9.5117-5.1719 18.582-9.3984 27.227-12.645-8.7578 1.4727-17.574 1.0352-26.461-1.3477-23.301-6.2344-45.215-26.234-65.707-59.938-5.1602-8.4609-2.4961-19.516 5.9688-24.676 8.9453-5.1875 19.547-10.062 29.238-13.691-7.0586 1.2617-14.145 1.3047-21.23 0.085938-14.98-2.5664-29.367-10.645-43.074-24.164-19.926-19.617-32.895-44.945-46.742-68.898-4.9609-8.5742-2.0391-19.574 6.5352-24.535 8.5742-4.9609 19.574-2.0391 24.535 6.5352l9.7656 16.895c18.41-8.4336 35.051-12.91 49.906-13.449l-24.152-41.824c-4.9609-8.5742-2.0391-19.574 6.5352-24.535s19.574-2.0391 24.535 6.5352l24.164 41.855c7.8789-12.613 20.082-24.773 36.594-36.496l-9.7227-16.84c-4.9609-8.5742-2.0391-19.574 6.5352-24.535 8.5742-4.9609 19.574-2.0391 24.535 6.5352 13.902 24.082 29.281 47.777 36.34 75.035 4.8477 18.652 4.6641 35.105-0.58203 49.293-2.3828 6.4336-5.7109 12.289-10.008 17.562 7.3008-5.7812 15.633-11.523 24.988-17.219 9.1133-4.9766 20-2.6094 25.102 6.7461 18.949 34.609 25.312 63.582 19.09 86.84-2.3672 8.8438-6.3516 16.668-11.961 23.484 7.1133-5.7969 15.336-11.535 24.605-17.207 9.1133-5.5 20.453-3.2305 25.684 6.3516l2.7227 5.1016zm58.918-102.06 4.0664-7.043c-6.2656-2.6641-11.879-5.7383-16.824-9.2266 5.0742 5.3281 9.3125 10.742 12.758 16.27zm53.945-193.41c-4.9609 8.5742-15.961 11.496-24.535 6.5352-8.5742-4.9609-11.496-15.961-6.5352-24.535l5.2148-9.0273c4.9609-8.5742 15.961-11.496 24.535-6.5352 8.5742 4.9609 11.496 15.961 6.5352 24.535zm148.69 85.793c-4.918 8.5742-15.887 11.523-24.465 6.6055-8.5742-4.918-11.523-15.887-6.6055-24.465l5.2148-9.0586c4.918-8.5742 15.887-11.523 24.465-6.6055 8.5742 4.918 11.523 15.887 6.6055 24.465zm-210.22 280.96c3.8398-3.5273 7.668-7.4961 11.422-12.02-10.645-4.4922-20.125-7.1289-28.445-7.8516-6.1953-0.53906-11.621 0.042969-16.258 1.7422 1.2031 10.316 0.65234 19.855-1.6875 28.574-2.3945 8.9453-6.4648 16.867-12.176 23.742 15.066-12.375 32.895-21.09 47.141-34.188zm-36.965-116.5c2.5078 1.3906 5.3281 2.6797 8.418 3.8398 6.6484-8.1914 12.488-18.398 10.602-29.395-1.3047-7.5703-6.082-15.562-14.301-23.91-3.8711-3.9258-8.4609-7.8945-13.762-11.863-2.6094 6.1094-4.6211 11.836-5.9961 17.164-2.9336 11.309-3.0625 20.637-0.39844 27.895 2.3945 6.5039 7.5703 11.949 15.434 16.27zm41.074 22.676c11.438 9.3398 22.066 12.699 31.863 10.078 10.672-2.8633 21.828-12.047 33.379-27.539-17.746-7.625-31.988-10.008-42.703-7.1445-9.7812 2.6094-17.293 10.812-22.535 24.605zm0.15625-140.81c2.5938 9.75 10.812 17.262 24.59 22.492 9.3398-11.438 12.699-22.055 10.078-31.832-2.8633-10.688-12.047-21.812-27.539-33.363-7.625 17.746-10.008 31.988-7.1289 42.703zm57.273 41.359c11.438 9.3242 22.066 12.684 31.848 10.062 10.688-2.8633 21.812-12.031 33.352-27.512-6.1094-2.6094-11.836-4.6055-17.207-5.9961-11.309-2.9336-20.621-3.0625-27.895-0.38281-10.234 3.7852-16.426 14.074-20.098 23.824zm-272.27-154.56c4.9609 8.5742 2.0391 19.574-6.5352 24.535-8.5742 4.9609-19.574 2.0391-24.535-6.5352l-5.2305-9.0273c-4.9609-8.5742-2.0391-19.574 6.5352-24.535s19.574-2.0391 24.535 6.5352zm-148.71 85.934c4.918 8.5742 1.9688 19.547-6.6055 24.465-8.5742 4.918-19.547 1.9688-24.465-6.6055l-5.2148-9.0586c-4.918-8.5742-1.9688-19.547 6.6055-24.465s19.547-1.9688 24.465 6.6055zm322.56 385.06c9.8516-3.7148 20-9.7383 23.824-20.098 2.6797-7.2695 2.5508-16.582-0.38281-27.895-1.3906-5.3711-3.4023-11.125-6.0078-17.25-15.477 11.535-24.648 22.676-27.512 33.379-3.1758 11.863 2.9062 23.059 10.078 31.863zm-36.141-60.648c3.4727-5.5547 7.7969-11.027 12.953-16.414-4.9883 3.5586-10.672 6.6602-17.023 9.3672l4.0664 7.043zm-51.562 20.863c7.1875-1.7422 14.004-2.7344 20.508-2.9609l-4.0391-7c-5.4727 4.0977-10.941 7.4258-16.469 9.9648zm23.172 68.699c9.7812 2.6211 20.41-0.73828 31.848-10.078-4.0664-10.629-10.785-21.488-22.52-24.605-10.715-2.8633-24.961-0.48047-42.703 7.1445 11.551 15.492 22.676 24.676 33.379 27.539zm-29.043-189.06c3.4297-5.5 7.6406-10.898 12.684-16.199-4.9336 3.4727-10.504 6.5352-16.738 9.1836zm-51.703 20.949c7.2422-1.7734 14.117-2.7656 20.664-3.0039l-4.0547-7.0312c-5.5117 4.1367-11.043 7.4844-16.609 10.035zm23.316 68.656c9.793 2.6211 20.438-0.73828 31.875-10.078-5.2422-13.777-12.77-21.996-22.535-24.605-10.715-2.8789-24.961-0.48047-42.703 7.1445 11.551 15.492 22.676 24.676 33.363 27.539zm7.2578-128.43c13.707-5.2422 21.883-12.742 24.477-22.465 2.8477-10.688 0.48047-24.875-7.0859-42.562-28.133 21.727-33.93 43.414-17.391 65.027zm-52.938-4.9336c-7.2695-2.6641-16.609-2.5352-27.938 0.39844-5.3164 1.3906-11.027 3.3867-17.137 6.0078 11.535 15.465 22.664 24.633 33.336 27.496 9.7812 2.6211 20.41-0.75 31.848-10.078-3.543-9.2695-10.547-20.324-20.113-23.824zm15.988-56.863c3.1875-4.6641 7.0156-9.2852 11.48-13.891-1.7148 1.1484-3.5 2.2383-5.3594 3.2891l-1.0469 0.625c-2.6641 1.4609-5.5 2.8047-8.4766 4.0977l3.4023 5.8828zm-51.449 22.152c7.3828-1.8125 14.398-2.8359 21.074-3.0625l-4.0664-7.043c-2.5664 1.9141-5.1445 3.6562-7.7539 5.2305-3.0742 1.8711-6.1641 3.4883-9.2539 4.875zm30.828-59.781c3.0469-1.1641 5.8555-2.4375 8.4062-3.8398 6.6758-3.4023 12.797-9.0977 15.434-16.242 2.6797-7.2695 2.5508-16.582-0.38281-27.895-1.3906-5.3594-3.3867-11.098-5.9961-17.207-15.492 11.551-24.66 22.676-27.523 33.352-3.1445 11.707 2.8633 23.047 10.062 31.832zm-55.176-5.7383c-10.715-2.8789-24.961-0.49609-42.703 7.1289 3.9688 5.2734 7.9219 9.8516 11.879 13.75 8.3477 8.2344 16.344 13.023 23.938 14.328 6.9297 1.1914 14.258-0.55469 21.926-5.2031 2.4375-1.4727 4.9336-3.2734 7.4961-5.3711-4.0234-10.586-10.844-21.531-22.535-24.633zm715.66-484.11c2.2969 3.6016 3.8281 7.0859 3.5586 11.465l0.015624 987.59c0 7.3398-4.4062 13.664-10.715 16.457l-186.83 91.105-0.38281 0.19922-0.3125 0.14062-0.83594 0.38281-0.042969 0.027344-1.2344 0.46875h-0.015625l-0.39844 0.14062h-0.027343l-0.39844 0.12891h-0.042969l-0.39844 0.11328h-0.027344l-0.39844 0.097657h-0.042968l-0.39844 0.097656h-0.042968l-0.39844 0.085937h-0.027344l-0.42578 0.070313h-0.015625l-0.87891 0.11328-0.4375 0.042969h-0.015625l-0.42578 0.027344h-0.042969l-0.39844 0.015625-0.52344 0.015625h-677.84c-9.9336 0-18-8.0664-18-18v-982.72c0-9.2266 0.53906-17.051 10.133-21.742l188.09-91.715c2.5352-1.2344 5.2305-1.8281 7.8789-1.8125l677.86-0.015625c5.9375 0.22656 10.73 2.5938 14.43 7.2266zm-184.55 113.73v948.27l152.12-74.184v-948.25l-152.12 74.168zm-36 12.332h-641.84v946.72h641.84z"/>
</svg>
