<svg xmlns="http://www.w3.org/2000/svg" version="1.1" viewBox="239.76 209.45 720.39 781.17">
 <path d="m959.39 508.69c-0.23438-3.7969-0.46875-7.5469-0.79688-11.297-5.2031-61.266-63.469-105.47-106.36-142.78-43.594-37.922-204.1-190.55-257.16-131.9-94.359 101.95-190.6 202.22-292.13 297.14-18.938 18.281-38.062 36.328-55.266 56.344-9.1875 10.688-9.9375 21.328-4.5 33.328 12.516 27.656 24.141 55.547 27.094 86.203 3.1875 19.031 13.781 31.5 33.797 26.672 17.297 25.594 24.469 52.875 19.594 82.172-30.562 9.3281-18.75 23.672-7.3125 63.516 10.688 33.516 19.5 64.172 28.406 95.953 4.9219 17.578 15.891 27.656 34.078 26.484 40.312-6.1875 225.74-68.484 249.14-76.406 45.984-15.516 91.828-31.359 137.58-47.578 38.531-13.641 130.5-48.047 168.89-62.109 21.422-7.875 23.906-18.703 24.422-38.953 1.125-44.766-0.375-98.812-0.375-143.72 0.14062-37.219 3-75.703 0.89062-113.06zm-619.5 204.66c22.266-2.4844 41.062 3 46.922 24.047 4.9688 17.812 3.6562 49.312-27.469 59.203 4.4531-30.234-1.7344-58.078-19.453-83.25zm577.6 54.562c-172.18 65.344-334.55 119.39-520.78 180.47-5.0156 1.6406-10.547-1.3125-11.859-6.4219-9.5156-36-17.297-69.891-28.828-104.62 41.25-4.7344 78.141-52.969 65.672-104.11-12.094-49.5-72.984-61.781-115.22-54.938-2.5781-8.3906-6.1875-25.781-8.5781-33.891-4.6875-15.984-1.4531-19.266 6.2344-20.25 101.48-12.656 218.86-30.75 318.89-52.641 12.75-3 23.297-1.6875 31.219 10.688 11.391 13.969 33.703 22.5 53.625 19.734 19.406-3.3281 8.2969-13.922-8.6719-28.781-10.359-9.0469-19.219-19.453-25.781-31.312-12.516-24-1.7812-50.203 2.2969-74.672 2.9062-19.219-19.5-31.266-32.625-12.562-17.062 20.531-20.953 47.766-19.125 73.594-9.1875 3.7031-19.125 5.7188-28.734 7.9219-47.297 10.781-95.391 18.234-143.34 25.359-43.875 6.5156-106.03 15.094-150.84 20.953 16.359-16.734 73.5-71.484 86.719-85.031 26.438-27.094 52.734-54.281 78.984-81.516 48.328-50.156 94.125-104.11 144.56-152.06 6.0469-5.7656 13.406-3.6562 20.578-2.3438 58.688 14.719 110.48 47.203 156.28 86.766 24.281 20.953 96.234 86.531 106.36 102.09-31.172 4.6875-68.203 14.438-98.203 22.031-8.7188-22.406-53.203-74.062-76.406-48.75-4.3125 5.7188-2.8594 10.734 0.89062 15.234 41.203 40.219 42.094 55.219 23.531 108.84-6 17.344 16.172 28.5 28.688 16.922 10.219-6.9844 13.781-18.422 16.406-28.594 4.2656-16.641 15.844-23.438 29.531-28.031 27.281-9.1406 55.828-13.172 83.953-18.703 3.8438-0.75 10.172-2.6719 10.781 11.719 1.6406 39.656 3.8906 115.36 4.4531 155.29 0.42188 37.219 0.89062 83.578-0.65625 111.61zm-296.29-146.72c-56.953-34.266-122.16 23.625-127.18 81.328-8.4844 47.25 30.75 89.109 78.328 83.156 47.812-6 84.984-50.062 85.266-95.531 0.1875-27.047-12.891-54.797-36.422-68.953zm-15.328 98.531c-13.922 19.078-57.516 38.766-68.109 4.6406-6.4219-20.719 3.5625-50.109 20.109-63.703 27.656-22.734 54.75 5.5312 55.406 34.266 0.23438 8.6719-2.0156 17.438-7.4062 24.797zm201.28-75.141c-23.297-0.5625-46.172 11.344-60.75 29.344-19.875 24.656-27.094 62.625 0.60938 83.953 23.625 18.188 53.016 25.031 80.484 11.391 23.156-11.484 41.672-37.406 39.516-64.125-2.6719-33.281-25.359-59.766-59.859-60.562zm20.156 76.922c-8.4375 14.625-29.344 20.109-44.672 14.016-8.1094-3.2344-12.469-9.0938-13.734-15.844-1.2188-6.3281 0.28125-13.5 3.8438-19.922 7.5469-13.594 23.156-21.609 38.438-17.672 18.562 4.6875 25.875 22.547 16.125 39.422zm-176.81-395.02c-5.4375 0.5625-10.969 1.8281-16.266 3.4219-30.375 9.0469-86.016 42.047-49.875 77.344 22.875 22.359 67.359 5.0156 88.734-10.828 16.828-12.422 28.969-36.562 14.859-55.594-9.6094-12.938-23.391-15.844-37.453-14.344zm-33.797 52.406c-11.953-14.203 9.9375-25.781 21.328-27.375 12.609-1.7812 18.562 0.51562 20.156 4.5938 4.5938 11.906-27.984 38.766-41.484 22.781zm-122.21 80.812c-27.328 3.8906-31.594 50.203 0.5625 49.359 40.359-0.98438 44.531-52.641-0.5625-49.359zm-33 379.87c-18.234 20.766 22.828 54.75 40.641 27.984 22.5-33.516-12.938-59.484-40.641-27.984z"/>
</svg>