<?xml version="1.0" encoding="UTF-8"?>
<svg width="1200pt" height="1200pt" version="1.1" viewBox="0 0 1200 1200" xmlns="http://www.w3.org/2000/svg">
 <g>
  <path d="m544.64 63.281c-13.828 7.3594-16.922 23.062-7.1719 37.734l4.7812 7.1719-6.6562-5.1094c-34.172-26.625-81.75-40.125-132.98-37.547-60.562 2.9062-118.92 28.312-184.31 80.719-26.625 21.141-59.859 54.094-62.25 61.266-2.5781 7.8281-0.89063 15 5.625 22.359 15 17.203 75.234 62.625 105.61 79.875 24.094 13.641 42.328 21.328 65.906 27.797 15.328 4.0781 18.938 4.4531 51.516 4.4531 32.25 0 36.375-0.375 51.375-4.4531 38.25-10.406 65.719-25.594 97.125-54.094 5.1094-4.5938 9.5625-8.2031 9.8906-8.0156 0.84375 1.0312-11.766 51.375-19.312 76.969-17.578 59.906-38.203 115.36-70.828 192-25.734 60.047-37.688 87.703-38.203 88.406-0.32812 0.14062-9.5625-0.375-20.672-1.4062-77.953-6.2812-156.14 25.641-207.66 84.516-65.719 75.422-79.547 189.42-33.797 280.74 13.828 27.656 27.469 46.594 50.156 69.281 30.562 30.562 60.094 48.797 100.03 61.781 26.25 8.5312 50.672 12.281 80.203 12.281 73.219 0 136.87-26.438 186.52-77.484l16.922-17.25 19.781 19.641c29.156 29.016 56.672 46.406 95.062 60.094 28.172 10.219 45.234 13.312 78.516 14.484 43.688 1.3594 75.047-4.0781 113.11-19.969 74.438-31.078 130.22-100.88 149.02-186 4.4062-20.484 6.1406-58.547 3.4219-79.547-9.9375-74.766-50.344-141.47-109.59-180.89-46.078-30.562-105.47-46.078-159.37-41.484-10.266 0.84375-20.484 1.875-22.547 2.3906-3.2344 0.70312-4.7812-1.5469-14.156-20.812-9.0469-18.797-18.797-40.453-36.703-82.453-6.4688-15.188-24.047-64.5-30.703-86.344-23.906-78.328-35.016-154.78-30.234-208.55 1.0312-10.734 2.0625-19.594 2.3906-19.969 0.375-0.51563 2.3906-0.32813 4.4531 0.375 2.9062 0.65625 3.75 2.2031 3.75 6.2812 0 8.5312 6.3281 32.109 12.797 48.328 11.953 29.672 37.875 66.047 61.641 86.672 12.609 10.922 33.938 25.078 49.125 32.766 17.578 8.8594 48.984 18.609 69.656 21.656 20.812 3.0938 57.141 3.6094 81.234 0.89063 40.594-4.2656 119.25-19.312 132.56-25.266 8.9062-3.9375 14.531-11.953 14.531-21 0-15.516-35.484-94.031-57.328-126.79-23.578-35.484-55.641-70.5-83.484-91.312-25.922-19.453-65.859-37.031-97.453-42.984-15.516-2.9062-62.953-2.9062-78.328 0-20.625 4.0781-47.438 12.281-59.016 18.234-6.1875 3.2344-6.5156 0.51562-0.375-4.0781 8.2031-6.6562 12.469-14.016 12.469-21.844 0-10.922-5.2969-19.969-14.156-24.234-9.0469-4.4531-11.953-4.4531-21-0.32812-8.0156 3.5625-27.469 26.109-46.078 53.062-11.625 16.547-14.344 19.453-14.344 14.672 0-5.8125-34.312-67.406-41.297-73.922-8.3438-7.8281-18.75-9.1875-29.156-3.75zm-101.91 53.766c18.422 3.4219 38.719 10.922 53.062 19.453 11.438 6.8438 33.984 24.938 33.984 27.328 0 0.65625-10.266 1.6875-22.547 2.2031-12.469 0.70312-29.156 2.2031-37.031 3.6094-13.125 2.2031-15.516 2.0156-27.469-0.89062-7.1719-1.6875-18.281-4.9219-24.562-7.3125-13.828-5.2969-69.281-33.281-69.281-35.156 0-0.70312 4.7812-2.5781 10.734-4.2656 27.281-7.6875 58.875-9.5625 83.109-4.9688zm395.06 39.609c22.547 6.3281 40.641 14.672 60.609 28.312l12.797 8.7188-28.172 1.0312c-30.047 1.1719-50.016 4.2656-73.359 11.062l-14.531 4.4531-15.328-7.6875c-18.094-8.8594-33.656-14.812-54.469-20.812-8.5312-2.3906-15.516-4.5938-15.844-4.9688-1.2188-1.1719 14.812-9.7031 26.438-14.156 22.031-8.3438 37.875-10.734 65.203-10.031 17.391 0.46875 28.312 1.6875 36.656 4.0781zm-531.61 3.2344c5.1562 3.6094 24.938 14.156 43.875 23.719l34.641 17.391-13.969 9.0469c-17.25 11.297-42 35.672-53.438 52.266-4.4531 6.7969-9.2344 12.422-10.406 12.422-5.4844 0-86.016-57.516-86.016-61.406 0-4.9688 67.219-59.766 73.406-59.766 1.3594 0 6.7969 2.9062 11.906 6.3281zm220.18 56.672c0 2.7188-32.438 33.938-45.047 43.5-16.734 12.656-31.219 20.297-50.531 26.812-14.672 4.9219-18.609 5.625-40.969 6.2812-13.641 0.375-26.438 0-28.641-0.84375-3.9375-1.5-3.4219-2.2031 11.438-17.719 30.188-32.109 64.688-50.203 108.52-56.859 17.766-2.7188 45.234-3.4219 45.234-1.1719zm224.44 27.797c9.375 4.7812 21.469 11.625 26.953 15.375 21 14.344 42.844 38.391 56.812 62.812 8.0156 14.156 18.094 38.203 16.219 38.906-2.7188 0.84375-28.172-6.3281-40.594-11.438-37.031-15.188-68.625-43.875-88.781-80.391-5.7656-10.594-13.312-28.828-15-37.031l-1.0312-5.4375 14.156 4.4062c7.6875 2.3906 21.844 8.2031 31.266 12.797zm182.26 1.3594c6.6562 1.0312 16.359 2.5781 21.516 3.75 9.1875 2.0625 9.1875 2.0625 19.969 18.281 10.734 16.734 37.031 67.406 39.047 75.609 0.89062 3.4219 0.51562 4.5938-2.0156 5.4375-9.2344 2.9062-91.125 14.672-101.91 14.672-5.2969 0-5.8125-0.46875-6.9844-6.4688-1.5469-8.5312-10.922-32.578-18.797-48.141-7.8281-15.703-20.438-34.266-32.578-48.797-5.1094-5.9531-9.2344-11.062-9.2344-11.578 0-0.70312 16.078-3.6094 29.016-5.1562 8.9062-0.98438 47.625 0.51562 61.969 2.3906zm-337.74 81.938c5.2969 47.25 21.656 115.17 39.938 166.55 13.125 36.375 36.188 92.016 57.516 138.42 3.5625 7.8281 6.1406 14.344 5.8125 14.672-0.375 0.32812-11.109 5.625-23.766 11.953-34.125 16.734-65.531 41.484-85.828 67.734l-4.5938 6-14.344-15.562c-27.469-29.484-55.312-49.125-91.828-64.641-8.3438-3.6094-15-6.5156-15-6.8438 0-0.1875 5.1094-11.766 11.25-25.781 39.281-88.547 54.094-125.06 75.797-186.71 16.359-46.406 38.906-124.4 39.422-137.02 0.32813-7.6875 2.9062 6.6562 5.625 31.219zm-206.68 352.6 7.6875 1.0312-2.3906 5.7656c-7.6875 18.281 3.75 37.219 22.359 36.891 13.828-0.32812 21.984-7.5 26.766-23.062 2.3906-7.6875 3.9375-7.6875 21.516 0.51562 27.328 12.797 59.391 39.094 80.062 66.047l9.7031 12.656-7.1719 20.812c-11.438 33.797-13.125 44.859-13.125 84.797 0 44.719 2.5312 57.844 20.625 104.3l3.0938 7.8281-8.7188 10.922c-11.766 14.859-34.969 36.891-48.094 45.75-35.672 24.234-84.844 37.875-127.31 35.344-33.281-1.875-58.031-8.5312-85.172-22.875-49.172-25.781-84.328-68.109-101.39-121.5-7.6875-24.234-9.5625-36.047-9.375-63.188 0-59.859 19.266-106.31 61.453-146.9 34.266-33.281 74.391-50.719 125.9-54.984 13.5-1.1719 15.891-1.1719 23.578-0.14063zm438.1 3.0469c73.031 11.812 136.18 66.422 159.37 137.72 10.406 32.625 12.281 75.797 4.4531 109.08-19.312 81.375-82.078 141.79-163.82 157.18-16.547 3.2344-57.703 2.7188-75.609-0.84375-16.406-3.0938-39.938-10.922-53.25-17.578-36.188-18.281-69.141-49.828-88.922-85.172-7.3125-13.125-16.875-39.422-20.484-55.969-3.8906-17.766-4.9219-48.984-2.3906-68.625 8.3906-66.562 49.5-124.08 110.11-154.26 24.047-11.766 23.531-11.766 26.25-2.3906 5.8125 19.781 22.359 27.328 39.938 18.281 10.078-5.1562 14.859-22.547 8.9062-32.953-1.4062-2.3906-2.3906-4.7812-2.5781-5.625 0-2.0625 42.844-1.3594 58.031 1.1719z"/>
  <path d="m293.26 728.53c-17.766 8.8594-26.109 14.672-39.422 27.656-13.688 13.312-23.578 26.953-32.766 45.375-12.281 24.609-12.656 37.406-1.2188 47.812 5.1094 4.7812 7.3594 5.625 14.156 5.625 14.344 0 20.156-5.4844 27.844-26.109 8.2031-21.844 28.641-43.875 53.766-57.703 13.453-7.3125 21.141-14.812 21.469-20.812 0.70312-12.281-2.7188-19.781-10.922-24.891-8.8594-5.4844-17.203-4.6406-32.906 3.0469zm385.69 22.172c-8.8594 4.125-29.344 23.25-40.266 37.734-9.5625 12.469-21 35.156-22.734 44.719-4.5938 25.078 19.453 40.594 39.094 25.078 2.3906-1.875 6.8438-9.7031 10.406-18.609 7.5-18.094 17.578-31.031 34.5-44.719 15.516-12.609 18.234-19.266 13.125-31.547-1.6875-4.2656-5.2969-9.375-7.6875-11.25-6.6562-4.7812-17.906-5.4844-26.438-1.4062z"/>
 </g>
</svg>
