<?xml version="1.0" encoding="UTF-8"?>
<svg width="1200pt" height="1200pt" version="1.1" viewBox="0 0 1200 1200" xmlns="http://www.w3.org/2000/svg">
 <g>
  <path d="m1080.3 322.92c-5.6719-4.0781-11.297-8.2969-17.578-12.891 23.672-13.266 45.656-25.641 70.641-39.609-7.6406-4.0781-11.391-6.2812-15.281-8.1562-19.078-9.0938-38.109-18.422-57.422-27.047-7.0781-3.1875-8.9062-7.0312-8.3906-14.906 2.3438-35.25-6.2344-68.016-27.234-96.609-19.406-26.391-38.906-26.391-59.297-0.32812-2.2031-3.8906-3.6094-7.7344-6.1406-10.688-7.9688-9.0938-15.047-19.734-24.797-26.297-21-14.203-41.766-2.9531-44.156 22.312-0.1875 1.7812-0.79688 3.5625-1.4531 6.3281-15.844-8.25-29.906-19.688-48.422-14.578-22.406 6.1875-21.516 24.234-18.938 42.797-6.8438-1.0781-11.578-2.1562-16.406-2.5312-14.344-1.0781-26.672 3.1406-34.828 15.656-7.9688 12.234-4.4062 24.281 1.1719 36.844 8.25 11.578 19.875 18.844 33.938 21.891 5.3438 1.1719 11.062 0.75 19.781 1.2656-10.453 11.438-19.312 19.828-26.719 29.391-23.297 30.141-35.25 65.484-46.406 101.39-6.9844 22.359-14.859 45.094-26.719 65.062-36.938 62.297-109.22 82.266-173.76 50.062-27.469-13.688-43.734-38.156-60.188-62.531-13.172-19.547-25.219-40.359-41.156-57.375-61.312-65.625-157.64-86.719-241.4-54.188-80.906 31.453-125.21 93.703-145.18 175.6-3.375 13.781 3.4219 26.484 14.672 31.641 11.297 5.1562 24.938 1.5 33.375-10.078 3.9375-5.4375 6.1875-12.188 8.9531-18.422 8.2031-18.516 14.391-38.25 24.797-55.406 57.703-95.203 197.9-112.22 269.06-18.797 15.234 20.016 28.266 41.766 42.422 62.578 69.656 102.19 216.61 110.86 297.32 17.391 28.031-32.484 43.266-71.438 54.375-112.12 13.688-46.547 25.828-76.547 70.219-122.58 24.375-27.75 65.719-32.812 96.047-11.719s40.031 61.547 22.547 94.078c-18.797 31.453-25.031 65.625-21.375 102.09 3.7969 37.641 6.0469 75.422 10.219 113.02 5.7188 51.375 3.6562 101.58-18.797 149.26-32.297 68.625-80.672 120.47-155.58 141.1-24.797 6.8438-36.562 20.391-40.688 43.312-1.7812 10.078-13.453 14.766-21.75 8.7656-5.625-4.0781-9.2344-10.453-13.828-16.125-33.75-41.625-119.16-44.953-149.44 9.9375-5.8125 10.594-13.969 12.984-22.875 9.9375-4.6406-1.5938-9.2344-9.6094-9.9844-15.188-3.1875-24.469-16.969-38.156-39.797-45.562-31.594-10.172-59.156-27.844-81.047-52.547-14.719-16.594-26.062-36.188-38.953-54.375-9.375-13.312-21.094-17.672-33.422-12.562-12 4.9688-20.016 19.266-16.594 33.281 2.5312 10.5 6.5625 21.094 12.094 30.281 29.109 48.562 69.75 84.375 122.06 106.27 9.9375 4.125 15.609 10.125 18.844 20.297 6.9844 22.078 15.188 43.734 22.5 65.719 1.2188 3.6094 1.3125 8.0625 0.46875 11.766-6.0938 27.328-12.75 54.562-18.703 81.938-1.9688 9.0938-6.0469 12.234-15.656 12.188-20.203-0.14062-40.359-0.1875-60.562-0.1875-15.375 0.32812-27.703 12.797-27.844 28.219-0.14062 15.375 12 28.078 27.375 28.641 31.781 0 63.562-0.09375 95.344-0.09375 133.08-0.09375 266.21-0.23438 399.32-0.28125 15.609 0 28.266-12.656 28.266-28.266s-12.656-28.266-28.266-28.266c-27.469 0-54.891 0.046875-82.359 0.1875-8.25 0.046875-12.656-2.1562-14.625-10.594-6.375-27.281-13.734-54.375-19.781-81.75-1.2656-5.7656 0.14063-12.844 2.3906-18.516 8.3906-20.719 17.109-41.344 26.906-61.406 3.0469-6.2344 9.0938-12.094 15.188-15.469 24.047-13.547 51.281-22.641 72.562-39.469 85.172-67.5 127.26-157.4 128.95-265.82 0.375-25.922-3.0469-51.938-4.6875-77.953-1.2656-19.875-1.2188-19.875 18-22.547 53.484-7.4531 81.75-56.016 59.109-101.86-9.1875-18.562-23.672-32.719-40.453-44.766zm-327.05 739.92c-63.891-0.14062-127.78-0.046875-191.68-0.046875-1.125 0-2.2031-0.70312-4.7344-1.4531 6.6094-24.281 13.922-48.281 19.547-72.703 3.6094-15.703 11.578-27.516 22.547-39.141 15-15.844 28.078-33.656 41.062-51.234 9.3281-12.703 33.609-13.922 43.547-1.5469 17.766 22.172 35.953 44.062 53.719 66.281 2.6719 3.3281 4.6406 7.6875 5.6719 11.859 6.4219 25.125 12.375 50.344 18.797 75.469 2.1094 8.0156 1.2188 12.516-8.4844 12.516z"/>
  <path d="m960.56 285.84c0 35.578-53.344 35.578-53.344 0s53.344-35.578 53.344 0"/>
  <path d="m370.87 464.02c10.172 8.5781 18.234 19.641 27.422 29.344 11.391 12.047 30.422 12.562 42.469 1.125 12.047-11.391 12.516-30.422 1.125-42.469-0.5625-0.60938-1.125-1.1719-1.6875-1.7812-0.65625-0.70312-1.2656-1.4062-1.9219-2.1562-0.70312-0.79688-1.4062-1.6406-2.1562-2.4375-1.0781-1.2656-2.1562-2.5312-3.2812-3.75-1.875-2.2031-3.7969-4.3594-5.7188-6.5156-1.0781-1.2188-2.2031-2.4375-3.3281-3.6094-1.2188-1.2656-2.4375-2.5312-3.6562-3.7969-1.3125-1.3594-2.6719-2.6719-4.0781-3.9844-1.4531-1.4062-2.9531-2.7656-4.4531-4.0781-0.89062-0.79688-1.7812-1.5469-2.7188-2.2969-1.5938-1.3594-3.2344-2.6719-4.875-3.9375-3.2812-2.5312-6.6562-4.9688-10.125-7.2656-3.4219-2.25-6.9375-4.4062-10.547-6.4219-3.5625-1.9688-7.2188-3.8438-10.922-5.5312-7.3594-3.375-14.953-6.1875-22.734-8.3906-7.7344-2.1562-15.609-3.75-23.531-4.6406-3.9375-0.46875-7.9219-0.75-11.906-0.89062s-7.9219-0.14062-11.906 0.046875c-3.9375 0.1875-7.9219 0.51562-11.812 0.98438-3.9375 0.46875-7.8281 1.125-11.719 1.9219-7.7344 1.5938-15.375 3.75-22.781 6.5156-7.4531 2.7656-14.672 6.0938-21.609 9.9375-6.9844 3.8906-13.688 8.25-20.062 13.125-6.4219 4.9219-12.469 10.312-18.141 16.078-5.7656 5.8594-11.109 12.094-15.984 18.703-7.1719 9.6094-13.594 19.781-19.219 30.422-5.5312 10.406-10.219 21.188-14.062 32.297-3.7969 10.922-6.7969 22.172-9.0469 33.516-2.2031 11.25-3.6562 22.688-4.4062 34.125-1.0781 16.547 11.438 30.844 27.984 31.922s30.844-11.438 31.922-27.984c2.3906-36.234 13.172-69.141 34.969-98.438 36.375-48.703 97.594-57.562 142.5-19.688z"/>
  <path d="m543.28 674.02c16.547 0 29.953-13.406 29.953-29.906 0-16.547-13.406-29.953-29.953-29.953h-189.32c-16.547 0-29.953 13.406-29.953 29.953s13.406 29.906 29.953 29.906z"/>
  <path d="m364.6 561.28c0 15.141 12.281 27.422 27.422 27.422h49.5c15.141 0 27.422-12.281 27.422-27.422s-12.281-27.375-27.422-27.375h-49.5c-15.188-0.046875-27.422 12.234-27.422 27.375z"/>
  <path d="m332.72 506.21c-8.9531-13.078-26.766-16.453-39.891-7.5-23.062 15.75-36.328 38.859-47.578 63.422-15 32.812-17.391 68.016-19.172 103.31 0 2.4375-0.14062 4.875 0.046875 7.3125 1.2188 15.797 15.047 27.656 30.844 26.391 15.844-1.2188 27.656-15.047 26.438-30.844 0.23438-4.7344 0.46875-9.4688 0.79688-14.203 0.28125-4.4531 0.60938-8.9062 0.98438-13.359 0.375-4.1719 0.79688-8.3438 1.3125-12.516 0.46875-3.8906 1.0781-7.7344 1.7812-11.625 0.65625-3.6094 1.4062-7.1719 2.2969-10.688 0.84375-3.3281 1.7812-6.6094 2.8594-9.8438 1.0781-3.0938 2.25-6.1406 3.5625-9.1406 0.32812-0.75 0.65625-1.4531 1.0312-2.2031 0.32812-0.75 0.70312-1.4531 1.0312-2.2031 0.32812-0.70312 0.65625-1.4062 1.0312-2.1094 0.32812-0.70312 0.65625-1.4062 1.0312-2.1094 1.2656-2.5781 2.5781-5.1562 3.9844-7.6875 1.2656-2.25 2.5312-4.4531 3.8906-6.6562 1.2188-1.9219 2.4844-3.7969 3.8438-5.625 1.1719-1.5938 2.4375-3.1406 3.75-4.6406 0.89062-0.98438 1.7812-1.9219 2.7188-2.8125 0.60938-0.60938 1.2656-1.1719 1.875-1.7344 0.65625-0.5625 1.2656-1.0781 1.9688-1.5938 0.65625-0.51562 1.3594-1.0312 2.0625-1.5 13.078-8.9062 16.406-26.766 7.5-39.844z"/>
  <path d="m549.1 733.18c-4.3594-1.4062-8.5781-3.1406-12.797-4.9688-4.3594-1.9688-8.625-4.1719-12.797-6.5625-4.4531-2.5781-8.7656-5.2969-12.938-8.2969-13.359-9.4219-31.828-6.2812-41.25 7.0781s-6.2812 31.828 7.0781 41.25c57.281 40.547 120.47 46.266 186.1 27.328 83.578-24.047 137.06-98.438 138.14-187.5 0.1875-16.359-12.891-29.766-29.25-29.953s-29.766 12.891-29.953 29.25c-0.09375 6.5156-0.51562 13.031-1.4062 19.5-0.79688 6.1875-2.0156 12.281-3.6094 18.328-1.5469 5.7656-3.4219 11.531-5.6719 17.062-2.1562 5.3906-4.6875 10.688-7.5469 15.75-4.0781 7.2188-8.7656 14.062-14.156 20.391-3.6094 4.2656-7.5 8.2969-11.672 12.047s-8.625 7.2656-13.266 10.453c-4.7344 3.2344-9.7031 6.1406-14.812 8.7656-5.2969 2.6719-10.828 4.9688-16.453 6.9375l-4.3594 1.4062c-0.75 0.23438-1.4531 0.42188-2.2031 0.65625-1.3125 0.375-2.5781 0.75-3.8906 1.125-5.1562 1.4062-10.359 2.625-15.656 3.6562-4.9688 0.9375-9.9844 1.7344-15.047 2.2969-2.9531 0.32812-5.9531 0.60938-8.9531 0.75-4.6875 0.28125-9.375 0.375-14.062 0.23438-4.5469-0.14062-9.0469-0.46875-13.547-1.0312-4.4062-0.5625-8.8125-1.3125-13.125-2.2969-4.3594-1.0312-8.6719-2.25-12.891-3.6562z"/>
 </g>
</svg>
