<?xml version="1.0" encoding="UTF-8"?>
<svg width="1200pt" height="1200pt" version="1.1" viewBox="0 0 1200 1200" xmlns="http://www.w3.org/2000/svg">
 <path d="m226.13 756.28c-16.125-19.547-33.75-33.609-50.25-42.234-24.375-12.328-47.625-14.016-67.125-6.4688-20.625 7.9688-39 24.469-47.625 49.312-7.5 22.5-7.125 52.641 9.75 90 24.75 54.422 90.75 119.58 202.5 127.5 57 4.0781 124.13 6.1406 205.87-29.672 126-42.188 144.74-177.05 117-247.5-1.125-3-2.25-5.8125-3.75-8.5781-19.5-40.172-58.875-68.156-100.5-77.672-43.125-9.8906-88.5-0.1875-118.5 33.469-15 16.594-28.5 41.344-46.125 64.219-21.75 27.75-50.625 52.312-101.25 47.625zm-26.625 26.438c-13.125-16.312-27-28.219-40.875-35.25-13.125-6.75-25.875-9-36.375-4.875-24.375 9.375-39.375 39.938-17.25 88.781 20.625 45.703 77.25 98.906 171 105.61 17.625 1.2188 36.375 2.3438 56.25 2.0156-45.75-21.75-81-61.594-102.75-107.39-7.875-16.828-16.5-31.453-25.875-43.781-1.5-1.4531-3-3.1875-4.125-5.1094zm267.37 126.66c101.62-33.609 116.62-141.89 94.5-198.47-0.75-2.0625-1.5-3.9844-2.625-5.9062-14.625-29.906-43.875-50.391-75-57.469-30-6.8438-61.5-1.4531-82.125 21.797-14.625 16.078-27.375 40.266-44.625 62.391-24.375 30.891-55.5 58.312-104.62 62.25 3.75 6.7969 7.5 14.062 11.25 21.703 33.375 70.969 106.5 125.53 202.87 93.75zm246-135.71c79.875 40.172 147 41.672 204 40.641 112.12-1.9219 181.5-63.422 209.26-116.34 19.125-36.422 21-66.562 14.25-89.438-7.125-25.266-24.375-42.75-44.625-51.75-19.125-8.625-42.375-8.1562-67.125 2.8125-17.25 7.7344-35.625 20.812-52.875 39.469-50.625 1.9688-78.375-24.141-98.25-52.969-16.5-23.766-28.875-49.219-42.75-66.609-28.125-35.203-72.75-47.344-116.62-39.844-42 7.3125-82.875 33.141-104.62 72.188-1.5 2.7188-2.625 5.4844-4.125 8.3906-31.125 68.859-19.875 204.56 103.5 253.45zm147.37 2.1562c19.875 1.4062 38.25 1.3125 55.875 1.0312 94.125-1.6406 153.37-51.75 176.63-96.281 24.75-47.531 11.625-78.891-12.375-89.578-10.125-4.7344-23.25-3.1406-36.75 2.9062-13.875 6.3281-28.875 17.391-42.75 33-1.125 1.875-2.625 3.5625-4.125 4.875-10.125 11.859-19.5 26.016-28.5 42.375-23.625 44.531-61.125 82.453-108 101.67zm87.75-140.53c-49.125-6.6094-78.75-35.625-101.25-67.781-16.125-23.016-27.75-47.859-41.25-64.688-19.5-24.281-50.625-31.406-81-26.203-31.5 5.4375-61.875 24.281-78 53.344-1.125 1.875-1.875 3.7969-3 5.8125-25.125 55.312-15.75 164.26 84 203.26v0.046875c94.5 36.938 170.63-13.641 207.74-82.734 4.125-7.4062 8.25-14.438 12.75-21.047zm-690-262.87c-16.5-19.5-33.75-33.562-50.625-42.188-24-12.328-47.625-14.016-67.125-6.4688-20.625 7.9219-39 24.469-47.25 49.266-7.875 22.5-7.5 52.688 9.375 90.047 24.75 54.375 91.125 119.53 202.87 127.45 57 4.0781 123.74 6.1875 205.5-29.625 126-42.188 144.74-177.05 117-247.55-1.125-2.9531-2.25-5.7656-3.75-8.5781-19.5-40.125-58.5-68.109-100.5-77.672-43.125-9.8906-88.5-0.1875-118.5 33.516-14.625 16.594-28.125 41.344-46.125 64.172-21.75 27.75-50.625 52.359-100.88 47.625zm-26.625 26.484c-13.125-16.359-27.375-28.219-41.25-35.297-13.125-6.7031-25.875-9-36.375-4.8281-24.375 9.375-39.375 39.938-17.25 88.781 21 45.656 77.25 98.906 171.37 105.61 17.625 1.2188 36 2.3438 55.875 1.9688-45.75-21.703-81-61.547-102.38-107.34-8.25-16.828-16.875-31.453-26.25-43.781-1.5-1.4531-3-3.2344-3.75-5.1094zm267 126.66c101.62-33.609 117-141.89 94.5-198.47-0.75-2.0625-1.5-4.0312-2.625-5.9531-14.25-29.906-43.875-50.344-75-57.469-30-6.7969-61.5-1.4062-82.125 21.797-14.25 16.125-27.375 40.266-44.625 62.438-24 30.891-55.5 58.266-104.62 62.25 3.75 6.7969 7.5 14.062 11.25 21.656 33.375 70.969 106.88 125.58 203.26 93.797z" fill-rule="evenodd"/>
</svg>
