<?xml version="1.0" encoding="UTF-8"?>
<svg width="1200pt" height="1200pt" version="1.1" viewBox="0 0 1200 1200" xmlns="http://www.w3.org/2000/svg">
 <g>
  <path d="m345.71 406.92c-0.09375 9.7969 3.75 19.172 10.594 26.156 6.8906 6.9375 16.266 10.875 26.016 10.922h73.688c20.156-0.375 36.188-16.922 36-37.078v-169.08c-0.046875-19.969-16.031-36.234-36-36.609h-73.688c-20.156 0.09375-36.516 16.406-36.609 36.609zm36.609-169.69 74.062 0.60938v169.08l-0.375 1.0781-74.062-0.60938z"/>
  <path d="m563.29 444h73.453-0.046875c19.969-0.375 35.953-16.641 36-36.609v-169.55c-0.046875-19.969-16.031-36.234-36-36.609h-73.406c-19.969 0.375-35.953 16.641-36 36.609v169.08c-0.23438 20.156 15.844 36.703 36 37.078zm0-206.29 74.062 0.60938-0.046875 168.61v0.60937l-74.062-0.60937z"/>
  <path d="m744 444h73.453c19.922-0.375 35.906-16.641 36-36.609v-169.55c-0.09375-19.969-16.078-36.234-36-36.609h-73.453c-19.969 0.375-35.953 16.641-36 36.609v169.08c-0.1875 20.156 15.844 36.703 36 37.078zm0-206.29 74.062 0.60938v168.61c0.09375 0.1875 0.09375 0.42187 0 0.60937l-74.062-0.60937z"/>
  <path d="m264.71 189.94v434.06c-50.953 21.422-84.094 71.391-84 126.71v43.547h84v216.05c0.42188 45.188 37.125 81.656 82.359 81.703h505.87c45.469-0.046875 82.266-36.891 82.359-82.312v-216h84v-43.453c0.14062-55.312-33-105.28-84-126.71v-433.6c-0.28125-45.281-37.031-81.891-82.359-81.938h-505.87c-45.328 0.046875-82.078 36.656-82.359 81.938zm-48 567.84v-7.5469c0-44.672 29.25-84.094 72-97.078 9.6094-3.1875 19.641-4.9688 29.766-5.1562h255.98c4.1719 0 7.5469 3.375 7.5469 7.5469v29.297c0 4.7812-0.46875 9.5625-1.4531 14.297-6.6094 33.938-36.422 58.359-71.016 58.172h-292.82zm239.29-145.78h-74.297v-92.156c0-1.3594 0.5625-2.6719 1.5469-3.6094 0.9375-0.9375 2.25-1.4531 3.6094-1.4531h64.453c1.3594 0 2.625 0.5625 3.5625 1.5s1.5 2.2031 1.5 3.5625zm180.94 0h-74.25v-92.156c0-2.7656 2.25-5.0625 5.0156-5.0625h64.594c1.3125 0 2.625 0.5625 3.5625 1.5s1.4531 2.2031 1.4531 3.5625zm262.36 398.06c-0.23438 25.406-20.906 45.938-46.359 45.938h-505.87c-25.594 0-46.359-20.719-46.359-46.312v-216h208.78c4.0781 0 8.1562 0 12-0.70312h3.2344c3.4688 0 6.8438-1.2188 10.219-1.9219h1.8281c3.7969-1.0312 7.5-2.2031 11.156-3.6094l2.7656-1.2188c3-1.2188 6-2.625 8.8594-4.0781l2.1562-1.2188c3.4688-1.875 6.7969-3.9375 9.9844-6.2344l1.9219-1.4531v0.046875c2.625-1.9219 5.1562-3.9844 7.5469-6.1406l2.1562-1.9219c2.8594-2.625 5.5781-5.4375 8.1562-8.3906l1.0781-1.3125c2.1562-2.625 4.2188-5.3906 6.2344-8.2969 0.28125-0.46875 0.60938-0.89062 0.98438-1.3125l1.0781 1.3125c1.9219 2.8594 3.9375 5.625 6.1406 8.2969l1.0781 1.3125c2.5312 2.9531 5.25 5.7656 8.1562 8.3906l2.1562 1.9219c2.3906 2.1562 4.9219 4.2188 7.5469 6.1406l1.9219 1.4531v-0.046875c3.1875 2.2969 6.5156 4.3594 9.9375 6.2344l2.1562 1.2188c2.8594 1.4531 5.8594 2.8594 8.8594 4.0781l2.7656 1.2188h0.046875c3.6562 1.4062 7.3594 2.5781 11.156 3.6094h1.7812c3.375 0.70312 6.7031 1.4531 10.219 1.9219h3.2344c4.0781 0 8.1562 0.70312 12 0.70312h208.78zm84-259.78v7.5469l-292.82-0.046875c-34.594 0.1875-64.453-24.328-71.016-58.312-0.98438-4.6406-1.4531-9.375-1.4531-14.156v-29.25c0-4.2188 3.375-7.5938 7.5469-7.5938h255.98c10.312 0 20.531 1.5938 30.328 4.6875 42.562 13.172 71.531 52.547 71.438 97.078zm-165-138.28h-74.297v-92.156c0-2.7656 2.25-5.0625 5.0625-5.0625h64.453-0.046875c1.3594 0 2.6719 0.51563 3.6562 1.4531s1.5 2.25 1.5 3.6094zm81-422.53v424.22h-1.6875c-5.3438-0.9375-10.688-1.5-16.078-1.6875h-27.234v-92.156c-0.09375-22.688-18.469-41.062-41.156-41.062h-64.453c-22.547 0.23438-40.688 18.516-40.688 41.062v92.156h-34.688v-92.156c-0.046875-22.641-18.375-40.969-41.016-41.062h-64.594c-22.641 0.09375-40.969 18.422-41.016 41.062v92.156h-34.688v-92.156c0-22.688-18.375-41.062-41.062-41.062h-64.078c-22.688 0-41.062 18.375-41.156 41.062v92.156h-27.234c-5.3438 0-10.734 0.375-16.078 1.0781h-1.6875v-423.14c0.23438-25.406 20.906-45.938 46.359-45.938h505.87c25.453 0 46.125 20.531 46.359 45.938z"/>
  <path d="m341.39 813.47c-9.9375 0-18 8.0625-18 18v25.828c0 9.9375 8.0625 18 18 18s18-8.0625 18-18v-25.828c0-9.9375-8.0625-18-18-18z"/>
  <path d="m341.39 888c-9.9375 0-18 8.0625-18 18v97.219c0 9.9375 8.0625 18 18 18s18-8.0625 18-18v-97.359c-0.046875-9.8906-8.1094-17.859-18-17.859z"/>
 </g>
</svg>
