<?xml version="1.0" encoding="UTF-8"?>
<svg width="1200pt" height="1200pt" version="1.1" viewBox="0 0 1200 1200" xmlns="http://www.w3.org/2000/svg">
 <path d="m450 450c-30.328 0-57.703-18.281-69.281-46.312-11.625-28.031-5.2031-60.281 16.266-81.703 21.422-21.469 53.672-27.891 81.703-16.266 28.031 11.578 46.312 38.953 46.312 69.281 0 19.875-7.9219 38.953-21.984 53.016s-33.141 21.984-53.016 21.984zm150 225c-30.328 0-57.703-18.281-69.281-46.312-11.625-28.031-5.2031-60.281 16.266-81.703 21.422-21.469 53.672-27.891 81.703-16.266 28.031 11.578 46.312 38.953 46.312 69.281 0 19.875-7.9219 38.953-21.984 53.016s-33.141 21.984-53.016 21.984zm262.5 150c-30.328 0-57.703-18.281-69.281-46.312-11.625-28.031-5.2031-60.281 16.266-81.703 21.422-21.469 53.672-27.891 81.703-16.266 28.031 11.578 46.312 38.953 46.312 69.281 0 19.875-7.9219 38.953-21.984 53.016s-33.141 21.984-53.016 21.984zm-300 112.5c-30.328 0-57.703-18.281-69.281-46.312-11.625-28.031-5.2031-60.281 16.266-81.703 21.422-21.469 53.672-27.891 81.703-16.266 28.031 11.578 46.312 38.953 46.312 69.281 0 19.875-7.9219 38.953-21.984 53.016s-33.141 21.984-53.016 21.984zm-225-225c-30.328 0-57.703-18.281-69.281-46.312-11.625-28.031-5.2031-60.281 16.266-81.703 21.422-21.469 53.672-27.891 81.703-16.266 28.031 11.578 46.312 38.953 46.312 69.281 0 19.875-7.9219 38.953-21.984 53.016s-33.141 21.984-53.016 21.984zm262.5 412.5c-144.89 0.70312-283.64-58.5-383.39-163.6-99.75-105.14-151.64-246.79-143.34-391.45 8.2969-144.66 76.031-279.47 187.13-372.52 111.14-93 255.74-135.98 399.61-118.69 11.297 1.3125 21.375 7.6406 27.422 17.25 6.0938 9.6094 7.4531 21.422 3.7969 32.156-24.516 71.109-21.375 148.87 8.8125 217.74 30.188 68.906 85.219 123.89 154.13 154.03 68.906 30.188 146.68 33.281 217.74 8.7188 10.734-3.7031 22.594-2.3438 32.203 3.75 9.5625 6.0469 15.938 16.125 17.25 27.422 17.719 148.82-29.203 298.08-128.9 410.02-99.656 111.89-242.58 175.69-392.44 175.18zm0-975c-119.34 0-233.81 47.391-318.19 131.81-84.422 84.375-131.81 198.84-131.81 318.19s47.391 233.81 131.81 318.19c84.375 84.422 198.84 131.81 318.19 131.81s233.81-47.391 318.19-131.81c84.422-84.375 131.81-198.84 131.81-318.19v-7.7344c-24.656 5.1562-49.781 7.7344-75 7.7344-99.422-0.09375-194.72-39.656-265.03-109.97-70.312-70.312-109.88-165.61-109.97-265.03 0-25.219 2.5781-50.344 7.7344-75z"/>
</svg>
