<?xml version="1.0" encoding="UTF-8"?>
<svg width="1200pt" height="1200pt" version="1.1" viewBox="0 0 1200 1200" xmlns="http://www.w3.org/2000/svg">
 <g>
  <path d="m1120.7 258.84c1.0312-6.4219 3.8438-11.531 7.0781-17.531 4.6406-8.5781 9.8906-18.328 9.75-32.203-0.23438-20.062-13.922-38.016-26.672-48.188-2.625-2.1094-3.1406-13.266-3.375-19.922-0.5625-12.984-1.1719-27.703-10.969-37.5s-24.516-10.406-37.547-10.969c-6.6562-0.28125-17.859-0.75-19.922-3.375-10.125-12.75-28.078-26.438-48.188-26.672h-0.60938c-13.594 0-23.109 5.1562-31.547 9.75-6 3.2344-11.109 6-17.531 7.0781-3.5625 0.5625-7.0781-1.0312-13.125-4.2188-8.25-4.3125-19.5-10.219-35.016-6.6094-14.062 3.2812-23.062 13.828-30.328 22.312-4.875 5.7188-9.5156 11.156-14.016 12.609-3.5625 1.125-7.8281 0.23438-14.391-1.3594-8.8594-2.1094-19.922-4.7344-32.344-0.046875-13.312 5.0156-21.047 15.891-27.281 24.656-3.3281 4.6875-7.4531 10.5-10.125 11.203-4.4531 1.125-8.4844 0.375-13.641-0.60938-9.5625-1.7812-22.641-4.2656-38.297 7.2188-13.312 9.7969-16.922 20.906-19.594 29.016-2.1562 6.5156-3.3281 9.7969-7.4062 13.125-2.3438 1.9219-7.3594 1.9688-13.172 2.0625-9.75 0.14062-23.109 0.32812-35.531 10.031-13.125 10.266-16.266 22.172-18.797 31.734-1.9219 7.3125-3.2344 11.672-7.2188 15.656-1.2656 1.2656-4.4062 0.9375-10.828-0.09375-9.7969-1.4531-24.75-3.75-38.812 7.6406-9.1406 7.4062-12.281 17.25-15.047 25.969-2.1562 6.75-3.9844 12.609-8.2969 16.547-1.4531 1.3125-2.7656 1.4531-10.453 0.09375-8.7188-1.5938-22.031-4.0312-35.109 6.0938-21.562 16.641-23.391 35.531-24.75 49.359-0.23438 2.5312-0.46875 5.0156-0.89062 7.4062-1.0781 6.7969 3.5625 13.219 10.359 14.297 6.6562 1.0312 13.219-3.5625 14.344-10.359 0.42188-2.8594 0.75-5.8594 1.0312-8.9531 1.2188-12.234 2.1562-21.938 15.141-31.969 3.8906-3.0938 7.3594-2.7656 15.422-1.3125 8.2969 1.5469 20.812 3.7969 31.781-6.2812 9.1875-8.4375 12.516-18.938 15.188-27.375 2.25-7.125 3.7969-11.578 6.9375-14.109 5.2031-4.2656 10.406-3.6562 19.359-2.3438 9.2344 1.4062 21.938 3.3281 32.25-6.9844 8.9531-8.9531 11.578-18.938 13.688-26.953s3.5156-13.359 10.031-18.422c5.4844-4.3125 11.344-4.5938 20.438-4.7344 8.7188-0.14062 19.547-0.28125 28.641-7.7344 9.8906-8.1094 12.938-17.297 15.328-24.703 2.2969-6.9844 3.7969-11.625 10.641-16.641 6.8906-5.0156 10.875-4.2656 18.891-2.7656 6.6094 1.2656 14.766 2.8125 24.562 0.23438 11.438-3 18.234-12.516 24.188-20.906 4.9219-6.8906 9.5156-13.406 15.656-15.75 5.0625-1.9219 10.031-0.84375 17.766 0.98438 8.2031 1.9688 17.531 4.1719 27.891 0.79688 11.203-3.6562 18.703-12.422 25.359-20.156 5.625-6.5625 10.922-12.797 17.016-14.203 6.0938-1.4531 10.312 0.46875 17.672 4.3594 7.4062 3.8906 16.5 8.7188 28.875 6.75 10.547-1.7344 18.422-6 25.359-9.75s12.469-6.75 19.688-6.75h0.32812c9.1875 0.09375 20.812 7.0312 28.922 17.25 9.1875 11.578 24.75 12.234 38.438 12.797 7.5938 0.32812 18 0.75 20.906 3.6562 2.8594 2.9062 3.3281 13.312 3.6562 20.906 0.5625 13.688 1.2656 29.25 12.797 38.438 10.219 8.1094 17.156 19.734 17.25 28.875 0.09375 7.4062-2.9531 12.984-6.75 20.016-3.75 6.9375-8.0156 14.812-9.75 25.359-2.0156 12.188 2.8594 21.422 6.75 28.828 3.8906 7.3594 5.8125 11.484 4.3594 17.672-1.4062 6.0469-7.6406 11.344-14.203 16.969-7.7812 6.6094-16.547 14.109-20.156 25.359-3.3281 10.359-1.125 19.641 0.79688 27.844 1.8281 7.7344 2.8594 12.703 0.9375 17.766-2.2969 6.1406-8.8594 10.781-15.703 15.703-8.4375 6-17.953 12.75-20.953 24.188-2.5312 9.7969-0.98438 18 0.28125 24.562 1.5 8.0156 2.25 12-2.8125 18.891-5.0156 6.8438-9.6562 8.3438-16.641 10.641-7.4062 2.3906-16.594 5.3906-24.703 15.328-7.4531 9.1406-7.6406 19.969-7.7344 28.688-0.14062 9.0938-0.42188 14.953-4.7344 20.438-5.1094 6.5156-10.406 7.875-18.422 10.031-8.0156 2.1094-18 4.7344-26.953 13.688-10.312 10.312-8.3906 22.969-6.9844 32.25 1.3594 8.8594 1.9219 14.156-2.2969 19.359-2.5312 3.1406-7.0312 4.6875-14.109 6.9375-8.4375 2.6719-18.984 6-27.422 15.188-10.031 10.922-7.7344 23.484-6.2344 31.781 1.4531 8.0625 1.6875 11.484-1.3125 15.422-10.031 13.031-19.734 13.969-31.969 15.141-3.0938 0.28125-6.0469 0.60938-8.9531 1.0312-6.7969 1.0781-11.438 7.5-10.359 14.344 0.98438 6.1406 6.2812 10.5 12.328 10.5 0.65625 0 1.3594-0.046875 2.0156-0.1875 2.3906-0.375 4.875-0.60938 7.4062-0.84375 13.781-1.3594 32.672-3.1875 49.312-24.75 10.125-13.078 7.6875-26.391 6.0938-35.109-1.3594-7.6406-1.2188-9 0.09375-10.453 3.9375-4.2656 9.75-6.1406 16.547-8.2969 8.7188-2.7656 18.609-5.9062 26.016-15.047 11.391-14.062 9.0938-28.969 7.6406-38.812-1.0312-6.6562-1.2656-9.6562-0.09375-10.828 3.9844-3.9844 8.3438-5.25 15.656-7.2188 9.5625-2.5312 21.469-5.6719 31.734-18.797 9.7031-12.422 9.8906-25.734 10.031-35.484 0.09375-5.8125 0.14062-10.828 2.0625-13.219 3.3281-4.0312 6.6094-5.25 13.125-7.3594 8.1094-2.6719 19.219-6.2812 29.016-19.594 11.531-15.656 9.0469-28.781 7.2188-38.344-0.98438-5.1562-1.7344-9.2344-0.65625-13.594 0.70312-2.625 6.5625-6.7969 11.25-10.125 8.7188-6.2344 19.641-13.969 24.656-27.234 4.6875-12.469 2.0625-23.484-0.046875-32.344-1.5469-6.6094-2.4844-10.875-1.3594-14.391 1.4531-4.5 6.8906-9.1406 12.609-14.062 8.4844-7.2188 19.031-16.219 22.312-30.281 3.6562-15.562-2.25-26.812-6.6094-35.062-3.1875-6.0469-4.8281-9.375-4.2188-13.125z"/>
  <path d="m937.4 723.74c-5.4844-4.125-13.312-3-17.484 2.5312-4.125 5.5312-3 13.359 2.5312 17.484 37.688 28.266 52.734 61.172 58.781 82.266-181.26-82.172-337.92-123.74-504.52-67.219-6.5625 2.2031-10.078 9.3281-7.8281 15.844 2.2031 6.5625 9.375 10.031 15.844 7.8281 150.52-51.047 294.28-17.438 458.39 53.953-178.64 13.078-298.69 101.91-396.79 174.56-132.52 98.203-220.08 163.13-370.26 12.938-150.18-150.19-85.266-237.74 12.938-370.26 72.797-98.297 161.76-218.53 174.71-397.6 132.37 294.28 143.21 439.45-132.66 747.14-4.5938 5.1562-4.1719 13.031 0.9375 17.672 2.3906 2.1562 5.3906 3.1875 8.3438 3.1875 3.4219 0 6.8438-1.4062 9.2812-4.1719 292.69-326.48 270.28-483.94 124.55-801.14 21.141 6.0469 53.953 21.141 82.125 58.734 4.1719 5.5312 12 6.6562 17.484 2.4844 5.5312-4.125 6.6562-11.953 2.5312-17.484-52.453-69.891-120.32-72.703-123.19-72.797-3.4688-0.046874-6.7031 1.2188-9.1406 3.6094-2.4375 2.3906-3.7969 5.6719-3.75 9.0938 3 201.1-93.656 331.55-171.32 436.36-78 105.33-142.87 193.08-83.672 307.5l-22.453 116.72c-0.75 3.9844 0.46875 8.1094 3.2812 11.062l57.562 59.578c2.3906 2.4844 5.625 3.7969 9 3.7969 0.84375 0 1.6875-0.09375 2.5781-0.28125l115.55-24.141c32.156 17.203 62.297 24.844 91.219 24.844 75.188 0 142.6-49.922 219.32-106.78 104.81-77.672 236.11-174.24 436.36-171.32 3.2812-0.046874 6.7031-1.3125 9.0938-3.75 2.3906-2.4375 3.7031-5.7188 3.6094-9.1406-0.09375-2.8594-2.8594-70.734-72.797-123.19zm-800.68 387.61-48.234-49.969 15.984-83.156c13.969 20.203 31.641 41.25 53.812 63.422 21.516 21.562 41.953 38.531 61.594 52.312l-83.203 17.391z"/>
  <path d="m531 418.69c-1.5469-6.7031-8.1094-10.969-15-9.375-6.75 1.5469-10.922 8.25-9.375 15 6.5156 28.125 28.453 51.891 55.969 60.562 1.2656 0.375 2.5312 0.5625 3.75 0.5625 5.3438 0 10.219-3.4219 11.906-8.7188 2.0625-6.5625-1.5469-13.594-8.1562-15.703-18.938-5.9531-34.641-22.969-39.094-42.328z"/>
  <path d="m609.89 504.14c-6.8906 0.51562-12.047 6.5156-11.531 13.406 2.2031 29.625 23.391 57.094 51.469 66.797 1.3594 0.46875 2.7188 0.70312 4.0781 0.70312 5.1562 0 10.031-3.2344 11.812-8.4375 2.25-6.5156-1.2188-13.641-7.7344-15.891-18.938-6.5625-33.188-25.078-34.688-45.047-0.51562-6.8906-6.6094-12.094-13.406-11.531z"/>
  <path d="m762.42 659.53c-21.938-7.875-39.75-26.625-46.5-48.984-1.9688-6.6094-9-10.312-15.562-8.3906-6.6094 1.9688-10.359 8.9531-8.3906 15.562 8.9531 29.812 32.719 54.844 62.016 65.297 1.4062 0.46875 2.8125 0.75 4.2188 0.75 5.1094 0 9.9375-3.1875 11.766-8.2969 2.2969-6.5156-1.0312-13.641-7.5469-15.984z"/>
  <path d="m611.06 630.14c-2.9062-6.2812-10.359-9-16.594-6.0938-6.2812 2.9062-9 10.359-6.0938 16.594 10.359 22.406 31.875 39.375 56.016 44.297 0.84375 0.1875 1.6875 0.23438 2.5312 0.23438 5.8125 0 11.016-4.0781 12.234-10.031 1.3594-6.75-3-13.359-9.75-14.766-16.547-3.375-31.219-14.953-38.297-30.281z"/>
  <path d="m539.16 545.26c-1.875-6.6094-8.625-10.453-15.422-8.625-6.6562 1.875-10.5 8.7656-8.625 15.422 5.5312 19.594 16.219 37.359 30.938 51.375 2.4375 2.2969 5.5312 3.4219 8.625 3.4219 3.2812 0 6.6094-1.3125 9.0469-3.8906 4.7812-5.0156 4.5469-12.938-0.42188-17.672-11.438-10.922-19.781-24.75-24.094-40.031z"/>
  <path d="m551.34 703.5c0.46875 0.046875 0.9375 0.09375 1.4062 0.09375 6.2812 0 11.672-4.7344 12.422-11.109 0.75-6.8438-4.1719-13.078-11.016-13.828-10.922-1.2188-22.5-8.9062-23.672-23.297-0.51562-6.8906-6.7031-11.906-13.453-11.438-6.8906 0.51562-12 6.5625-11.438 13.453 1.9688 24.375 20.812 43.359 45.797 46.125z"/>
  <path d="m608.95 375.24c-12.234-7.875-20.625-21.797-21.938-36.281-0.60938-6.8906-6.8906-11.953-13.594-11.344-6.8906 0.60938-11.953 6.7031-11.344 13.594 2.0156 22.312 14.438 42.891 33.281 55.031 2.1094 1.3594 4.4531 2.0156 6.7969 2.0156 4.125 0 8.1094-2.0156 10.5-5.7188 3.75-5.8125 2.0625-13.547-3.7031-17.297z"/>
  <path d="m631.5 423.79c7.2188 20.391 22.5 37.406 42 46.641 1.7344 0.79688 3.5625 1.2188 5.3906 1.2188 4.6406 0 9.1406-2.625 11.297-7.125 2.9531-6.2344 0.28125-13.688-5.9531-16.641-13.312-6.3281-24.234-18.422-29.156-32.391-2.2969-6.5156-9.5625-9.8438-15.938-7.6406-6.5156 2.2969-9.9375 9.4219-7.6406 15.938z"/>
  <path d="m780.37 554.02c3.0469-6.1875 0.51562-13.688-5.6719-16.734-14.859-7.3594-26.203-21.375-30.281-37.5-1.6406-6.6562-8.4844-10.734-15.188-9.0469s-10.734 8.4844-9.0469 15.188c5.8125 23.109 22.078 43.219 43.453 53.766 1.7812 0.89062 3.6562 1.3125 5.5312 1.3125 4.5938 0 9-2.5312 11.203-6.9375z"/>
  <path d="m823.31 581.76c-1.3125-6.7969-7.9688-11.156-14.578-9.9375-6.7969 1.2656-11.25 7.8281-9.9375 14.625 4.4531 23.531 23.109 43.219 46.359 48.984 0.98438 0.23438 2.0156 0.375 3 0.375 5.625 0 10.734-3.7969 12.141-9.5156 1.6406-6.7031-2.4375-13.5-9.1406-15.141-13.734-3.4219-25.172-15.469-27.797-29.391z"/>
  <path d="m662.58 311.86c-1.3594-6.7969-8.0625-11.156-14.719-9.7969-6.75 1.3594-11.156 7.9688-9.7969 14.719 4.9688 24.75 22.406 46.453 45.516 56.672 1.6406 0.70312 3.375 1.0781 5.0625 1.0781 4.7812 0 9.375-2.7656 11.438-7.4531 2.8125-6.3281-0.046875-13.688-6.375-16.5-15.797-6.9844-27.703-21.797-31.125-38.719z"/>
  <path d="m741.37 393.42c-6.7031 1.7812-10.641 8.625-8.8594 15.328 6.2812 23.391 24.047 43.641 46.406 52.875 1.5469 0.65625 3.1875 0.9375 4.7812 0.9375 4.9219 0 9.5625-2.9062 11.531-7.7344 2.625-6.375-0.375-13.688-6.75-16.312-15.328-6.3281-27.562-20.25-31.828-36.281-1.8281-6.6562-8.6719-10.594-15.328-8.8594z"/>
  <path d="m822.84 498.1c5.0625 23.672 24.188 43.734 47.625 49.828 1.0312 0.28125 2.1094 0.42188 3.1406 0.42188 5.5781 0 10.641-3.7031 12.094-9.3281 1.7344-6.7031-2.25-13.5-8.9531-15.281-14.297-3.7031-26.391-16.406-29.484-30.844-1.4531-6.75-8.1562-10.969-14.859-9.6094-6.75 1.4531-11.062 8.0625-9.6094 14.812z"/>
  <path d="m743.72 271.5c-10.969-6.8438-19.312-17.859-22.922-30.234-1.9219-6.6562-8.9062-10.453-15.469-8.5312-6.6562 1.9219-10.453 8.8594-8.5312 15.469 5.25 18.281 17.578 34.5 33.75 44.578 2.0625 1.2656 4.3125 1.875 6.6094 1.875 4.1719 0 8.25-2.1094 10.641-5.9062 3.6562-5.8594 1.8281-13.547-4.0312-17.203z"/>
  <path d="m770.26 300.28c-6.7969 1.2188-11.297 7.7344-10.078 14.531 3.9844 22.078 23.016 40.266 45.281 43.219 0.51562 0.09375 1.0781 0.09375 1.6406 0.09375 6.1406 0 11.531-4.5469 12.375-10.875 0.89063-6.8438-3.8906-13.125-10.781-14.016-11.578-1.5469-21.844-11.344-23.906-22.875-1.2656-6.7969-7.875-11.297-14.531-10.078z"/>
  <path d="m846.47 374.29c-6.75 1.5-10.969 8.1562-9.5156 14.906 4.9219 22.078 23.016 40.125 45.094 44.953 0.89062 0.1875 1.7812 0.28125 2.6719 0.28125 5.7656 0 10.922-3.9844 12.188-9.8438 1.5-6.75-2.7656-13.406-9.5625-14.859-12.516-2.7656-23.203-13.406-26.016-25.969-1.5-6.7031-8.1094-10.922-14.906-9.5156z"/>
  <path d="m920.81 453.84c-4.9688 4.7812-5.1094 12.703-0.32812 17.672 11.812 12.234 27.609 19.969 44.484 21.703 0.42188 0.046875 0.89062 0.046875 1.3125 0.046875 6.3281 0 11.766-4.7812 12.422-11.203 0.70312-6.8438-4.2656-13.031-11.109-13.734-10.875-1.125-21.469-6.2812-29.062-14.156-4.8281-4.9688-12.703-5.1094-17.672-0.32812z"/>
  <path d="m828.84 233.81c-13.078-8.0156-22.078-22.406-23.484-37.688-0.65625-6.8906-6.5156-11.953-13.641-11.297-6.8438 0.65625-11.906 6.75-11.297 13.594 2.1562 22.922 15.656 44.672 35.344 56.672 2.0156 1.2656 4.2656 1.8281 6.5156 1.8281 4.2188 0 8.2969-2.1094 10.688-6 3.6094-5.9062 1.7344-13.594-4.1719-17.203z"/>
  <path d="m863.26 292.64c-0.75 10.828 3.3281 21.938 11.203 30.469 7.9219 8.5312 18.656 13.453 29.531 13.5h0.09375c6.8438 0 12.469-5.5312 12.516-12.422 0.046876-6.8906-5.5312-12.516-12.422-12.562-3.9844-0.046875-8.1094-2.0156-11.344-5.4844-3.2344-3.4688-4.9219-7.7344-4.5938-11.719 0.46875-6.8906-4.7344-12.844-11.578-13.359-6.2812-0.5625-12.844 4.6875-13.359 11.578z"/>
  <path d="m946.78 357.14c-6.5625 2.25-10.031 9.3281-7.8281 15.891 7.0781 20.719 27.281 36.375 49.078 38.062 0.32812 0.046875 0.65625 0.046875 0.98438 0.046875 6.4219 0 11.906-4.9688 12.422-11.531 0.51562-6.8906-4.5938-12.891-11.484-13.453-12-0.9375-23.484-9.8438-27.375-21.234-2.25-6.5156-9.5156-10.031-15.891-7.7812z"/>
  <path d="m963.94 258.32c-0.28125 13.172 5.3438 26.297 15.047 35.109 8.4375 7.6406 19.734 11.906 31.125 11.906 1.7344 0 3.5156-0.09375 5.25-0.32812 6.8438-0.79688 11.766-7.0312 10.922-13.922s-7.2656-11.766-13.875-10.922c-5.7656 0.75-12.234-1.3125-16.594-5.2969s-6.9844-10.125-6.8438-16.031c0.14062-6.8906-5.3438-12.656-12.188-12.797-6.2812 0.42188-12.609 5.2969-12.797 12.188z"/>
  <path d="m928.6 194.48c-12.516-7.6875-21.938-20.25-25.781-34.406-1.8281-6.6562-8.625-10.594-15.375-8.7656-6.6562 1.8281-10.594 8.6719-8.7656 15.328 5.5312 20.25 18.938 38.156 36.797 49.172 2.0625 1.2656 4.3125 1.8281 6.5625 1.8281 4.2188 0 8.2969-2.1094 10.641-5.9531 3.6094-5.9062 1.7812-13.594-4.125-17.203z"/>
  <path d="m1025.5 220.87c1.4531 0.5625 2.9531 0.79688 4.4531 0.79688 5.0156 0 9.7969-3.0469 11.672-8.0625 2.4375-6.4219-0.79688-13.688-7.2656-16.125-15.938-6.0469-27.938-21.516-29.953-38.484-0.79688-6.8438-7.1719-11.812-13.875-10.969-6.8438 0.79688-11.766 6.9844-10.969 13.875 3.0469 25.969 21.469 49.641 45.891 58.969z"/>
 </g>
</svg>
