<?xml version="1.0" encoding="UTF-8"?>
<svg width="1200pt" height="1200pt" version="1.1" viewBox="0 0 1200 1200" xmlns="http://www.w3.org/2000/svg">
 <path d="m490.6 1097.7c4.8281 9.1406 1.2656 20.484-7.9219 25.312-30.094 15.75-61.688 30.797-96.656 45.984-36.469 20.016-79.641 30.984-123.32 30.984l-7.3125-0.1875c-113.02-3.2344-208.18-78.938-242.02-181.03-0.09375-0.1875-0.09375-0.375-0.1875-0.51562-8.625-26.25-13.453-54.188-13.172-83.156 0.98438-108.23 66.844-203.39 167.81-242.48 120.66-46.031 227.86-115.36 318.61-206.16 90.75-90.75 160.13-197.95 206.11-318.56l1.2188-3.0469c43.031-107.16 149.81-173.06 264.71-164.06 27.469 2.1094 53.672 8.7656 78.188 18.844 0.5625 0.1875 1.0781 0.46875 1.6406 0.70312 89.672 37.547 154.6 123.66 161.11 224.81 2.7656 41.812-4.125 82.312-20.438 120.37l-16.406 37.406c-4.2188 9.4219-15.281 13.641-24.797 9.4688-9.4688-4.2656-13.688-15.328-9.4688-24.797l16.219-36.891c13.922-32.484 19.828-67.172 17.438-103.08-3.1875-49.266-22.547-94.359-52.688-130.08 0.23438 42.375-6.7969 106.22-44.297 156.19-3.7031 4.9219-9.2812 7.5-15 7.5-3.9375 0-7.875-1.2188-11.203-3.75-8.2969-6.1875-9.9844-17.953-3.75-26.25 46.641-62.203 36.375-155.76 34.312-170.9-11.484-8.3438-23.766-15.703-36.703-21.797-18.422 12.234-68.297 51.609-96.094 134.86-2.625 7.875-9.9375 12.797-17.766 12.797-1.9688 0-3.9375-0.32812-5.9531-0.98438-9.7969-3.2812-15.141-13.875-11.859-23.719 23.766-71.344 61.828-114.33 89.109-137.72-11.25-2.7188-22.734-4.7344-34.547-5.625-98.719-7.8281-190.13 48.797-226.97 140.53l-1.0781 2.7656c-47.812 125.34-120 236.95-214.55 331.45-94.547 94.547-206.16 166.74-331.69 214.64-86.438 33.469-142.92 115.08-143.76 207.84-0.046875 7.0781 0.28125 14.016 0.89062 20.953 25.547-34.688 82.5-91.406 199.45-130.36 30.422-10.125 58.172-22.266 82.547-36.047 9.0469-5.1094 20.438-1.9219 25.547 7.0781 5.1094 9.0469 1.9219 20.438-7.0781 25.547-26.438 14.953-56.438 28.078-89.156 38.953-156.98 52.312-194.48 138.47-194.81 139.31l-4.3125 10.781c30.234 85.219 110.53 147.98 205.36 150.71l6.75 0.1875c37.406 0 74.391-9.375 106.88-27.141 35.672-15.562 66.469-30.188 95.719-45.516 9.1875-4.7812 20.531-1.2656 25.312 7.9219zm428.16-760.22c-152.11 0-275.58 118.97-281.06 270.84-0.375 10.359 7.6875 19.031 18.047 19.406 10.359 0.98438 19.031-7.6875 19.406-18.047 4.7812-131.58 111.75-234.71 243.56-234.71 134.39 0 243.74 109.36 243.74 243.74 0 90-49.406 172.4-128.86 215.06-9.1406 4.875-12.562 16.219-7.6406 25.359 3.375 6.2812 9.8438 9.8906 16.547 9.8906 3 0 6.0469-0.70312 8.8594-2.25 91.688-49.125 148.64-144.24 148.64-248.06 0-155.11-126.14-281.26-281.26-281.26zm206.26 281.26c0-113.72-92.531-206.26-206.26-206.26-106.5 0-194.76 79.828-205.22 185.68-1.0312 10.312 6.5156 19.5 16.828 20.531 10.172 0.9375 19.5-6.5156 20.531-16.828 8.5781-86.578 80.766-151.82 167.9-151.82 93.047 0 168.74 75.703 168.74 168.74 0 58.922-29.953 112.59-80.156 143.63-8.8125 5.4375-11.531 16.969-6.0938 25.781 3.5156 5.7656 9.7031 8.9062 15.984 8.9062 3.375 0 6.75-0.89062 9.8438-2.8125 61.359-37.875 97.969-103.5 97.969-175.5zm-187.5-75v-18.75c0-10.359-8.3906-18.75-18.75-18.75s-18.75 8.3906-18.75 18.75v18.75c0 10.359 8.3906 18.75 18.75 18.75s18.75-8.3906 18.75-18.75zm-71.766 40.734c4.7812 0 9.6094-1.8281 13.266-5.4844 7.3125-7.3125 7.3125-19.172 0-26.531l-13.266-13.266c-7.3125-7.3125-19.172-7.3125-26.531 0-7.3125 7.3125-7.3125 19.172 0 26.531l13.266 13.266c3.6562 3.6562 8.4375 5.4844 13.266 5.4844zm92.812 100.55 13.266 13.266c3.6562 3.6562 8.4375 5.4844 13.266 5.4844 4.7812 0 9.6094-1.8281 13.266-5.4844 7.3125-7.3125 7.3125-19.172 0-26.531l-13.266-13.266c-7.3125-7.3125-19.172-7.3125-26.531 0-7.3125 7.3125-7.3125 19.172 0 26.531zm16.5-66.281c0 10.359 8.3906 18.75 18.75 18.75h18.75c10.359 0 18.75-8.3906 18.75-18.75 0-10.359-8.3906-18.75-18.75-18.75h-18.75c-10.359 0-18.75 8.3906-18.75 18.75zm-3.2344-79.547-13.266 13.266c-7.3125 7.3125-7.3125 19.172 0 26.531 3.6562 3.6562 8.4375 5.4844 13.266 5.4844 4.7812 0 9.6094-1.8281 13.266-5.4844l13.266-13.266c7.3125-7.3125 7.3125-19.172 0-26.531-7.3125-7.3125-19.172-7.3125-26.531 0zm40.734 379.55c0 155.11-126.14 281.26-281.26 281.26-155.06 0-281.26-126.14-281.26-281.26 0-155.11 126.19-281.26 281.26-281.26 155.11 0 281.26 126.14 281.26 281.26zm-37.5 0c0-134.39-109.36-243.74-243.74-243.74-134.39 0-243.74 109.36-243.74 243.74 0 134.38 109.36 243.74 243.74 243.74 134.39 0 243.74-109.36 243.74-243.74zm-37.5 0c0 113.72-92.531 206.26-206.26 206.26-113.72 0-206.26-92.531-206.26-206.26 0-113.73 92.531-206.26 206.26-206.26 113.72 0 206.26 92.531 206.26 206.26zm-37.5 0c0-93.047-75.703-168.74-168.74-168.74-93.039 0-168.74 75.703-168.74 168.74 0 93.039 75.703 168.74 168.74 168.74 93.039 0 168.74-75.703 168.74-168.74zm-168.74-112.5c-10.359 0-18.75 8.3906-18.75 18.75v18.75c0 10.359 8.3906 18.75 18.75 18.75 10.359 0 18.75-8.3906 18.75-18.75v-18.75c0-10.359-8.3906-18.75-18.75-18.75zm-53.016 32.953c-7.3125-7.3125-19.172-7.3125-26.531 0-7.3125 7.3125-7.3125 19.172 0 26.531l13.266 13.266c3.6562 3.6562 8.4375 5.4844 13.266 5.4844 4.7812 0 9.6094-1.8281 13.266-5.4844 7.3125-7.3125 7.3125-19.172 0-26.531zm-3.2344 79.547c0-10.359-8.3906-18.75-18.75-18.75h-18.75c-10.359 0-18.75 8.3906-18.75 18.75 0 10.359 8.3906 18.75 18.75 18.75h18.75c10.359 0 18.75-8.3906 18.75-18.75zm-10.031 39.75-13.266 13.266c-7.3125 7.3125-7.3125 19.172 0 26.531 3.6562 3.6562 8.4375 5.4844 13.266 5.4844 4.7812 0 9.6094-1.8281 13.266-5.4844l13.266-13.266c7.3125-7.3125 7.3125-19.172 0-26.531-7.3125-7.3125-19.172-7.3125-26.531 0zm66.281 16.5c-10.359 0-18.75 8.3906-18.75 18.75v18.75c0 10.359 8.3906 18.75 18.75 18.75 10.359 0 18.75-8.3906 18.75-18.75v-18.75c0-10.359-8.3906-18.75-18.75-18.75zm66.281-16.5c-7.3125-7.3125-19.172-7.3125-26.531 0-7.3125 7.3125-7.3125 19.172 0 26.531l13.266 13.266c3.6562 3.6562 8.4375 5.4844 13.266 5.4844 4.7812 0 9.6094-1.8281 13.266-5.4844 7.3125-7.3125 7.3125-19.172 0-26.531zm27.469-58.5h-18.75c-10.359 0-18.75 8.3906-18.75 18.75 0 10.359 8.3906 18.75 18.75 18.75h18.75c10.359 0 18.75-8.3906 18.75-18.75 0-10.359-8.3906-18.75-18.75-18.75zm-40.734-15.516c4.7812 0 9.6094-1.8281 13.266-5.4844l13.266-13.266c7.3125-7.3125 7.3125-19.172 0-26.531-7.3125-7.3125-19.172-7.3125-26.531 0l-13.266 13.266c-7.3125 7.3125-7.3125 19.172 0 26.531 3.6562 3.6562 8.4375 5.4844 13.266 5.4844zm-370.13-179.68c-0.09375 0.1875-8.4844 18-33.281 41.391-7.5469 7.125-7.875 18.984-0.79688 26.484 3.7031 3.9375 8.6719 5.9062 13.641 5.9062 4.5938 0 9.2344-1.6875 12.844-5.1094 30.328-28.594 40.734-50.953 41.812-53.391 4.1719-9.4219-0.09375-20.344-9.4688-24.609-9.375-4.2188-20.484 0-24.75 9.3281z"/>
</svg>
