<?xml version="1.0" encoding="UTF-8"?>
<svg width="1200pt" height="1200pt" version="1.1" viewBox="0 0 1200 1200" xmlns="http://www.w3.org/2000/svg">
 <path d="m600 0c-331.31 0-600 268.69-600 600s268.69 600 600 600 600-268.69 600-600-268.69-600-600-600zm327.98 294.66c6.6562-9.3281 24.656-3.3281 46.688 19.312 21.984 22.688 12.656 51.984-4.6875 55.312-18 3.3281-21.328-8.6719-21.328-8.6719l-18.656-33.984c-9.9844-18-8.6719-22.688-2.0156-32.016zm22.688 184.69c25.312-10.688 45.984 6.6562 42.656 21.984-2.6719 15.328-14.016 14.016-14.016 14.016l-33.328 3.9844c-17.344 2.0156-20.672 0-26.672-9.3281-5.3438-8.6719 5.3438-20.672 30.656-31.312zm-49.312 192 21.984-28.688c11.344-15.328 15.984-15.328 26.016-12.656 9.9844 2.6719 9.9844 21.328-2.0156 49.312-12 27.984-38.672 29.344-46.688 14.016-8.0156-15.328 0.65625-21.984 0.65625-21.984zm-25.312 189.32s-9.9844 18.656-36.656 7.3125-47.344 12.656-47.344 12.656-36.656 24.656-45.984 8.0156c-9.9844-16.688 3.3281-30 22.688-40.688l50.016-27.328s25.312-7.3125 45.328 6.6562c19.312 14.016 12 32.672 12 32.672zm-276.66-84c-106.69 0-185.34-89.344-185.34-183.98 0-106.69 79.312-183.98 185.34-183.98 105.98 0 204 86.672 192.66 192.66-12 113.34-86.016 176.02-192.66 176.02zm57.984 123.32c-12.656 12-28.688 6-37.312-6.6562 0 0-24.656-27.984-6.6562-38.016 18-9.9844 38.672 10.688 38.672 10.688s18.656 22.688 5.3438 34.688zm-71.344 68.672c-12.656 5.3438-21.328 0-32.016-6.6562-10.688-7.3125-20.672-24-9.9844-39.328 0 0 15.328-20.672 35.344 2.6719s19.312 38.016 6 43.312zm-187.31-134.02c24 15.328 32.672 36.656 16.688 44.016-15.984 8.0156-32.016-6-32.016-6s-18-9.3281-31.312-20.016-14.016-21.984 0-33.984 45.984 15.328 45.984 15.328zm15.984-590.68c15.984 1.3125 15.328 12.656 15.328 12.656l7.3125 32.672c3.9844 17.344 1.3125 20.672-6.6562 27.328-8.0156 6.6562-21.328-3.3281-33.984-27.984s2.0156-45.984 18-44.672zm168-18.656c15.328 7.3125 12 18.656 12 18.656l-1.3125 36c-0.65625 18.656-3.9844 21.984-14.016 25.312-9.9844 3.3281-20.672-11.344-26.672-41.344-6-29.344 14.672-45.984 30-38.672zm234.66-68.016s16.688-20.672 37.312 0c20.672 20.672 0 38.672 0 38.672s-19.312 6-30.656-6.6562c-11.344-12-12.656-19.312-7.3125-32.672zm21.984 222.66c1.3125 8.0156-5.3438 12.656-12 15.328-7.3125 3.3281-15.984 3.3281-24 1.3125-9.9844-2.6719-23.344-7.3125-24-16.688-0.65625-14.672 8.6719-26.016 28.688-26.016 19.312 0 28.688 9.9844 31.312 26.016zm-93.328-143.34c13.312-8.6719 35.344 16.688 35.344 16.688 14.016 12 9.3281 39.984-6.6562 41.344-15.984 1.3125-28.688-18-33.984-27.984-5.3438-9.9844-8.6719-21.328 5.3438-30zm-110.02-80.672c10.688-25.312 37.312-27.328 45.984-14.016s0 20.016 0 20.016l-20.672 26.016c-10.688 14.016-15.328 14.016-25.312 12s-10.688-18.656 0-44.016zm303.98 873.32c-98.672 79.312-230.68 112.69-332.02 114.66-224.02 0-385.31-151.31-385.31-151.31s-102.66-79.312-154.69-273.32c-51.984-194.02 31.312-327.98 63.984-388.69 185.39-270.61 451.36-255.94 451.36-255.94 27.328 0 21.328 11.344 16.688 23.344-9.9844 11.344-22.688 19.312-94.688 35.344-135.98 29.344-242.02 130.69-242.02 130.69s-118.69 118.69-152.02 263.34c-33.328 144.66 27.328 180.66 68.672 213.98 41.344 32.672 33.984 40.688 34.688 63.984-22.688 62.016-2.6719 98.672 26.672 136.69 29.344 35.344 77.344 67.312 125.34 63.328 48.656-3.9844 25.312-3.9844 72 6 58.688 74.016 92.672 75.328 156 81.328s90-25.312 90-25.312 15.328-46.688 77.344-66c67.312 6 103.31 15.328 172.69-30.656 69.984-46.688 68.016-122.02 68.016-155.34 0-33.328 9.9844-54 50.672-85.312s34.688-129.98 34.688-129.98 3.9844-23.344 29.344-27.328c25.312-3.9844 29.344 42.656 19.312 149.34-27.328 104.67-98.672 226.69-198 306.66zm-614.68-625.26c-14.672 6-32.672-8.0156-41.344-15.984-8.6719-8.0156-14.672-17.344-4.6875-30s38.672 4.6875 38.672 4.6875c16.688 7.3125 21.328 35.344 6.6562 41.344zm-103.31 224.68c8.0156-3.9844 16.688-2.0156 24 0.65625 13.312 6 23.344 18.656 22.688 33.328 0 5.3438-1.3125 9.9844-5.3438 14.016-14.016 14.672-33.984-4.6875-33.984-4.6875s-26.016-34.688-7.3125-43.312zm-41.344-101.34c2.6719-18 45.328-18.656 45.328-18.656 26.016-0.65625 39.328 6 37.312 19.312-2.6719 23.344-37.312 19.312-37.312 19.312s-48-2.0156-45.328-19.312z"/>
</svg>
