<?xml version="1.0" encoding="UTF-8"?>
<svg width="1200pt" height="1200pt" version="1.1" viewBox="0 0 1200 1200" xmlns="http://www.w3.org/2000/svg">
 <g>
  <path d="m709.2 309.6 79.199 7.1992-7.1992 79.199c-1.1992 14.398 9.6016 27.602 24 28.801l79.199 7.1992-7.1992 79.199c-1.1992 7.1992 1.1992 14.398 6 19.199 4.8008 4.8008 10.801 8.3984 18 9.6016l76.801 6h2.3984c8.3984 0 15.602-3.6016 21.602-10.801 90-118.8 148.8-288 80.398-369.6-68.398-81.602-246-52.801-378 16.801-8.3984 3.6016-13.199 12-14.398 21.602l-6 76.801c-1.1992 7.1992 1.1992 14.398 6 19.199 4.8008 6 12 9.6016 19.199 9.6016zm33.602-86.402c123.6-60 259.2-70.801 300-22.801 40.801 49.199 7.1992 180-73.199 291.6l-36-3.6016 7.1992-79.199c1.1992-14.398-9.6016-27.602-24-28.801l-79.199-7.1992 7.1992-79.199c1.1992-14.398-9.6016-27.602-24-28.801l-79.199-7.1992z"/>
  <path d="m265.2 472.8c10.801 9.6016 22.801 19.199 36 28.801 4.8008 3.6016 9.6016 4.8008 15.602 4.8008 4.8008 0 8.3984-1.1992 13.199-3.6016 8.3984-4.8008 14.398-14.398 13.199-24l-3.6016-63.602 79.199-3.6016c7.1992 0 13.199-3.6016 18-8.3984 4.8008-4.8008 7.1992-12 7.1992-19.199l-3.6016-79.199 79.199-3.6016c14.398-1.1992 26.398-13.199 25.199-27.602l-2.3945-81.598 63.602-3.6016c9.6016 0 19.199-7.1992 22.801-15.602 3.6016-9.6016 2.3984-20.398-4.8008-27.602-9.6016-12-20.398-22.801-32.398-32.398-118.8-108-270-110.4-366-3.6016-45.602 49.199-67.199 112.8-61.199 177.6 7.1992 67.203 40.797 132 100.8 186zm1.1992-328.8c36-39.602 84-60 133.2-60 48 0 97.199 18 142.8 55.199l-28.801 1.1992c-7.1992 0-13.199 3.6016-18 8.3984-4.8008 4.8008-7.1992 12-7.1992 19.199l3.6016 79.199-80.398 4.8047c-14.398 1.1992-26.398 13.199-25.199 27.602l3.6016 79.199-79.199 3.6016c-7.1992 0-13.199 3.6016-18 8.3984-4.8008 4.8008-7.1992 12-7.1992 19.199l1.1992 28.801c-40.801-42-64.801-88.801-68.398-138-4.8047-49.199 11.992-98.402 47.992-136.8z"/>
  <path d="m792 860.4c-40.801-30-104.4-60-202.8-60-97.199 0-162 28.801-202.8 60-168 21.602-300 72-300 148.8 0 105.6 252 162 501.6 162s502.8-56.398 502.8-163.2c0-75.602-132-126-298.8-147.6zm-16.801 55.203c8.3984 7.1992 12 19.199 8.3984 30-1.1992 4.8008-6 18-21.602 21.602-40.801 9.6016-103.2 21.602-174 21.602-69.602 0-133.2-12-174-21.602-10.801-2.3984-19.199-10.801-22.801-21.602-1.1992-4.8008-3.6016-16.801 7.1992-27.602 44.398-43.199 108-64.801 188.4-64.801 81.605 0 144.01 20.402 188.41 62.402zm-187.2 201.6c-294 0-448.8-70.801-448.8-108 0-25.199 68.398-64.801 200.4-87.602-2.3984 12-2.3984 25.199 1.1992 38.398 8.3984 30 31.199 52.801 61.199 60 43.199 10.801 111.6 22.801 186 22.801 75.602 0 142.8-12 186-22.801 30-7.1992 52.801-30 61.199-60 3.6016-13.199 3.6016-25.199 1.1992-38.398 132 24 200.4 63.602 200.4 87.602 0.007812 37.199-153.59 108-448.79 108z"/>
  <path d="m705.6 692.4c-6 13.199 0 28.801 14.398 34.801 3.6016 1.1992 7.1992 2.3984 10.801 2.3984 10.801 0 20.398-6 24-16.801l9.6016-22.801c14.398-34.801 9.6016-75.602-14.398-105.6-13.199-16.801-14.398-39.602-3.6016-58.801l12-19.199c7.1992-12 3.6016-28.801-8.3984-37.199-12-7.1992-28.801-3.6016-37.199 8.3984l-12 19.199c-22.801 37.199-20.398 85.199 7.1992 120 12 14.398 14.398 34.801 7.1992 51.602z"/>
  <path d="m565.2 692.4c-6 13.199 0 28.801 14.398 34.801 3.6016 1.1992 7.1992 2.3984 10.801 2.3984 10.801 0 20.398-6 24-16.801l9.6016-22.801c14.398-34.801 9.6016-75.602-14.398-105.6-13.199-16.801-14.398-39.602-3.6016-58.801l12-19.199c7.1992-12 3.6016-28.801-8.3984-37.199-12-7.1992-28.801-3.6016-37.199 8.3984l-12 19.199c-22.801 37.199-20.398 85.199 7.1992 120 12 14.398 14.398 34.801 7.1992 51.602z"/>
  <path d="m424.8 692.4c-6 13.199 0 28.801 14.398 34.801 3.6016 1.1992 7.1992 2.3984 10.801 2.3984 10.801 0 20.398-6 24-16.801l9.6016-22.801c14.398-34.801 9.6016-75.602-14.398-105.6-13.199-16.801-14.398-39.602-3.6016-58.801l12-19.199c7.1992-12 3.6016-28.801-8.3984-37.199-12-7.1992-28.801-3.6016-37.199 8.3984l-12 19.199c-22.801 37.199-20.398 85.199 7.1992 120 12 14.398 14.398 34.801 7.1992 51.602z"/>
 </g>
</svg>
