<svg xmlns="http://www.w3.org/2000/svg" version="1.1" viewBox="143.75 251.48 956.82 702.79">
 <g>
  <path d="m1098.7 505.2c-4.4414-12.359-15.719-20.398-28.68-20.52-9.4805 0-18.84 0.23828-28.078 0.71875-1.3203 0.12109-2.6406 0.12109-3.9609 0.23828-8.7617 0.60156-17.52 1.4414-26.039 2.5195-1.5586 0.23828-3.1211 0.35938-4.8008 0.60156-8.5195 1.1992-16.922 2.5195-25.078 4.1992-1.3203 0.23828-2.5195 0.48047-3.7188 0.83984-8.6406 1.8008-17.039 3.7188-25.32 6.1211h-0.12109c-8.2812 2.2812-16.199 4.9219-24 7.8008-1.0781 0.35938-2.1602 0.71875-3.2383 1.1992-7.4414 2.7617-14.641 5.7617-21.602 9-1.3203 0.60156-2.6406 1.1992-3.8398 1.8008-6.9609 3.2383-13.68 6.7188-20.039 10.441-1.0781 0.60156-2.0391 1.1992-3 1.8008-6.7188 3.9609-13.199 8.0391-19.32 12.359 0 0-0.12109 0-0.12109 0.12109-22.441-52.68-64.68-101.4-119.76-140.76 17.16-70.32 4.5586-99.48 1.6797-104.88-1.9219-3.6016-4.9219-6.3594-8.5195-8.1602-123.72-59.281-259.56-50.281-326.88 20.398-103.56 8.1602-191.52 51-233.88 121.56-3.4805 5.8789-3.6016 13.078-0.23828 19.078l21.602 38.398-38.398 21.602c-6 3.3594-9.6016 9.6016-9.6016 16.441-0.23828 82.32 52.559 164.64 137.04 225.36 17.281 78.121 95.398 144.72 198.36 173.4 22.441 6.2383 46.199 10.801 70.68 13.199 3.9609 0.35938 8.0391-0.48047 11.52-2.5195 5.2812-3.1211 31.199-21.48 52.922-90.602 67.559-5.0391 128.76-24.961 175.32-58.32 26.16 60.961 79.922 118.68 150.96 161.28 2.3984 1.4414 5.0391 2.5195 7.6797 3.2383 9.3594 2.6406 19.559 0.60156 27.602-5.8789 10.32-8.3984 14.281-22.078 9.8398-34.559-23.16-66.359-25.68-136.44-7.0781-202.68 18.48-66.238 57-124.92 111.24-169.68 9.5938-8.875 13.312-22.555 8.8711-35.156zm-391.68-184.08c1.6797 8.3984 3.2383 27.48-3.3594 60.238-37.559-22.199-79.441-40.32-124.56-52.922-37.68-10.559-75.359-16.441-111.84-18.359 60.598-31.438 152.4-28.559 239.76 11.043zm-162 580.08c-95.039-11.398-174.96-56.281-210.6-114.48 32.16 17.16 67.441 31.32 104.88 41.879 45.121 12.602 90.359 18.961 133.92 19.441-11.398 31.68-22.68 47.16-28.199 53.16zm270.96-149.4c0-0.12109-0.12109-0.23828-0.23828-0.48047-0.23828-0.60156-0.48047-1.1992-0.71875-1.8008-0.23828-0.60156-0.48047-1.1992-0.83984-1.8008-0.23828-0.35938-0.48047-0.83984-0.83984-1.1992-0.48047-0.71875-0.83984-1.3203-1.4414-1.9219-0.12109-0.12109-0.12109-0.23828-0.23828-0.23828-0.23828-0.23828-0.48047-0.48047-0.71875-0.71875-0.60156-0.60156-1.0781-1.0781-1.8008-1.5586-0.48047-0.35938-0.96094-0.60156-1.4414-0.96094-0.60156-0.35938-1.0781-0.71875-1.6797-0.96094-0.60156-0.23828-1.0781-0.48047-1.6797-0.71875-0.60156-0.23828-1.1992-0.48047-1.6797-0.60156-0.60156-0.12109-1.1992-0.23828-1.8008-0.35938-0.60156-0.12109-1.1992-0.23828-1.8008-0.23828h-1.8008c-0.60156 0-1.1992 0-1.8008 0.12109-0.71875 0.12109-1.3203 0.23828-1.9219 0.35938-0.35938 0.12109-0.83984 0.12109-1.1992 0.23828-0.12109 0-0.23828 0.12109-0.48047 0.12109-0.60156 0.23828-1.1992 0.48047-1.8008 0.71875s-1.1992 0.48047-1.6797 0.83984c-0.48047 0.23828-0.83984 0.60156-1.3203 0.83984-0.60156 0.48047-1.3203 0.83984-1.8008 1.3203-0.12109 0.12109-0.23828 0.12109-0.35938 0.23828-43.32 39.359-107.4 61.922-179.64 66.359-0.23828-0.12109-0.48047-0.23828-0.71875-0.23828-4.3203-1.1992-8.7617-0.71875-12.602 0.96094-45.719 1.3203-94.199-4.5586-142.68-18.121-36.359-10.199-70.32-24-101.04-40.68 97.801-56.281 154.92-201.48 137.52-358.8-1.1992-10.441-10.559-17.879-20.879-16.68-10.441 1.1992-17.879 10.559-16.68 20.879 16.922 153.36-41.039 292.8-138 331.44-75.359-51.238-124.44-120.12-128.88-189.48l44.879-25.32c4.3203-2.5195 7.5586-6.6016 9-11.398 1.4414-4.8008 0.71875-9.9609-1.8008-14.398l-25.32-44.879c60.719-87.121 209.88-119.88 360.6-77.762 48.48 13.559 93 33.719 131.4 58.559 2.3984 3.4805 6 6.1211 10.32 7.4414 0.23828 0.12109 0.48047 0.12109 0.71875 0.12109 59.52 41.16 102.6 93.719 119.16 149.88 0 0.12109 0.12109 0.23828 0.12109 0.35938 0.48047 1.4414 0.96094 2.7617 1.8008 3.9609 0.12109 0.12109 0.23828 0.23828 0.35938 0.35937 0.60156 0.96094 1.1992 1.8008 1.9219 2.6406 0.12109 0.12109 0.23828 0.23828 0.48047 0.35937 0.35937 0.35938 0.71875 0.60156 1.0781 0.96094 0.71875 0.71875 1.5586 1.3203 2.3984 1.8008 0.35938 0.23828 0.83984 0.48047 1.1992 0.71875 0.96094 0.48047 2.0391 0.96094 3.1211 1.3203 0.23828 0.12109 0.48047 0.23828 0.71875 0.23828h0.23828c1.4414 0.35938 2.8789 0.60156 4.3203 0.60156h0.96094c1.0781 0 2.2812-0.12109 3.3594-0.35938 0.48047-0.12109 0.83984-0.23828 1.3203-0.35937 1.0781-0.23828 2.0391-0.71875 3-1.0781 0.35938-0.12109 0.71875-0.35937 1.0781-0.48047 1.3203-0.71875 2.5195-1.5586 3.6016-2.5195 43.801-39.84 112.2-63.602 189.6-66.602-52.801 48-90.48 108.6-109.44 176.52-18.961 67.922-18.238 139.32 2.1602 207.6-64.797-42.605-110.88-98.406-127.68-155.16z"/>
  <path d="m351.84 426.96c-15.48-4.3203-31.441 4.6797-35.762 20.16-4.3203 15.48 4.6797 31.441 20.16 35.762 15.48 4.3203 31.441-4.6797 35.762-20.16 4.3203-15.363-4.8008-31.441-20.16-35.762z"/>
 </g>
</svg>