<?xml version="1.0" encoding="UTF-8"?>
<svg width="1200pt" height="1200pt" version="1.1" viewBox="0 0 1200 1200" xmlns="http://www.w3.org/2000/svg">
 <path d="m306.47 1075.4h0.1875c0.28125 0 0.46875-0.14062 0.75-0.14062 50.766 53.578 130.03 80.297 239.29 80.297 48.234 0 89.109-4.6406 124.97-14.25 11.859-3.1875 18.891-15.328 15.703-27.188s-15.375-18.891-27.234-15.75c-24 6.4219-50.859 10.359-81.469 11.953 76.969-96.188 55.547-310.55-64.359-651.1-3.6094-10.266-14.156-16.312-24.703-14.531-10.641 1.8281-18.469 11.109-18.469 21.891 0 65.016-46.875 111.05-101.16 164.39-61.172 60.094-130.5 128.21-130.5 235.55 0 65.625 11.719 119.62 34.875 162.71-126.71-11.625-184.31-87.656-185.44-242.86-0.9375-135.84 121.08-232.4 228.71-317.58 62.344-49.312 116.2-91.969 141.84-138.05 31.688-57 28.266-156.56 22.359-216.98 25.688 24.188 41.578 57.656 42.656 113.3 0.23438 10.688 8.0156 19.734 18.562 21.469 10.359 1.6875 20.812-4.2188 24.516-14.25 12.375-33.656 44.812-40.828 68.25-41.344-11.484 35.766-24.844 96.422-1.875 137.81 25.641 46.125 79.453 88.734 141.84 138.05 86.25 68.25 183.98 145.6 217.03 244.78 3.8906 11.625 16.406 18 28.125 14.062 11.625-3.8438 17.953-16.453 14.062-28.125-37.266-111.75-140.53-193.5-231.66-265.6-56.156-44.438-109.27-86.438-130.55-124.78-18.516-33.328 4.7344-104.72 14.344-127.08 2.5781-6.0938 2.3438-13.078-0.70312-18.984s-8.5781-10.172-15.094-11.531c-26.906-5.7656-73.875-5.8594-108.94 18.844-15.797-68.109-57.469-100.59-98.25-123.24-7.4531-4.125-16.688-3.6562-23.625 1.3125-6.9844 4.9219-10.5 13.453-9.0469 21.844 7.9688 46.594 21.609 180.32-10.875 238.74-21.328 38.391-74.391 80.344-130.55 124.78-109.88 86.953-246.71 195.19-245.58 352.74 1.3594 192.84 87.047 287.29 262.03 288.71zm94.594-412.69c36.609-35.953 74.016-72.703 95.719-117.05 106.83 325.4 111.33 515.11 13.266 564.24l-0.28125 0.14062c-157.87-9.5625-225.89-84-225.89-243.47 0-88.734 56.953-144.61 117.19-203.81zm754.45 177.19c0-29.953-27.188-58.922-54.047-72.094-23.484-11.531-45.938-11.016-61.781 1.2188-63.234 48.938-124.74 78.516-178.4 98.578-7.9219-120.56-69.422-184.92-124.08-242.11-46.266-48.422-86.25-90.188-88.406-159.56-0.42188-12.281-10.969-22.312-22.922-21.516-12.281 0.375-21.891 10.641-21.516 22.922 2.7188 86.391 52.547 138.47 100.73 188.9 53.578 56.016 108.7 114.05 112.27 226.5-18.844 5.9062-36.422 10.875-51.938 15.188-62.531 17.438-107.72 30.047-107.72 75.328 0 77.859 116.44 182.21 235.55 182.21 198.1 0 262.22-212.58 262.22-315.52zm-88.641-35.719c0.32812-0.14062 0.9375-0.28125 1.875-0.28125 3.0938 0 9.4688 1.2656 17.859 6.375 14.391 8.7656 24.469 22.688 24.469 29.625 0 13.266-1.5469 29.156-4.4062 46.266-25.969-7.0781-47.812-24.938-72.047-58.594 10.688-7.3594 21.422-15.047 32.25-23.438zm-173.58 306.79c-98.578 0-191.11-85.922-191.11-137.76 0-11.531 36.516-21.75 75.188-32.531 55.641-15.516 133.78-37.406 219.74-88.969 23.812 33.562 54.328 65.766 99.469 77.719-25.266 85.547-86.297 181.5-203.29 181.5z"/>
</svg>
