<?xml version="1.0" encoding="UTF-8"?>
<svg width="1200pt" height="1200pt" version="1.1" viewBox="0 0 1200 1200" xmlns="http://www.w3.org/2000/svg">
 <path d="m47.391 898.03c13.406 63.469 70.078 109.59 134.72 109.59 9.375 0 18.609-1.0312 28.125-3.0469 7.6406-1.5469 15-3.2344 22.453-4.9219v0.046875c15.75 57.609 68.344 99.281 128.06 101.39 1.2188 0 2.4375 0.046875 3.6562 0.046875 10.688 0 21.75-1.2656 33.328-3.8438 576.47-139.03 735-568.5 751.26-617.26 17.25-53.719-0.75-113.44-44.438-148.36-1.9688-1.6406-4.3594-2.8594-6.4219-4.3594 32.672-64.828 9.3281-144.89-54.234-181.18-35.484-20.531-77.578-23.812-115.17-9.8438-14.484-13.406-31.734-23.812-51-30.328-71.25-23.625-149.16 15.328-173.63 87-4.4531 13.406-114.33 329.06-554.29 435.1-73.734 17.906-119.2 92.391-101.44 165.89 1.875 7.9688 4.6406 15.422 7.7344 22.641-11.203 25.828-14.578 53.719-8.7188 81.516zm153.71 63c-6.5625 1.4062-12.797 2.1094-18.938 2.1094-43.734 0-82.125-31.266-91.266-74.297-4.5-21.281-1.3594-42.797 9.2344-62.438 7.2188-13.875 17.906-25.078 30.516-33.516-0.23438 14.953 4.3125 30.094 14.531 42.656 21.281 25.688 58.359 31.031 85.547 13.781 7.7344 1.9688 21.656 7.5938 26.859 9.75 4.0312 1.5938 8.4844 3.375 13.219 5.1094-25.359 24.281-40.312 56.297-42.328 90.891-8.9531 2.1562-17.906 4.0312-27.328 6zm312.84-394.18 0.42188 2.3438c0.14062 0.79688 0.32812 1.875 0.46875 2.8594-2.2969 1.6406-4.5938 3.3281-6.8906 4.9219-1.9688-0.79688-3.7969-1.5-5.1094-2.0156-16.5-6.5156-38.156-14.953-61.922-18 24.094-14.766 46.359-30.094 67.031-45.75-0.32812 21.328 3.2344 41.109 5.9531 55.641zm-197.11 165.14c0.51562 2.9531 1.125 6.375 1.7344 10.078-3.75-1.3594-7.3125-2.7656-9.8906-3.7969l-2.5781-0.98438c-0.42188-0.14062-0.84375-0.32812-1.2656-0.51562 4.0312-1.5469 8.0625-3.1875 12.047-4.7812zm-27.047 46.688 2.8125 1.0781c26.719 10.312 47.812 18.469 61.969 6 14.25-11.719 11.344-32.344 5.2969-65.812-7.4062-41.812-11.016-78.516 20.578-104.2 31.453-25.688 66.656-14.953 106.73 0.84375 5.4375 2.2031 10.406 4.125 15.141 5.9062 0.046875 0 0.09375 0.046875 0.1875 0.046875 22.078 8.1562 37.594 11.062 49.781 1.5469 13.922-11.484 11.297-31.219 5.8594-62.438l-0.42188-2.5781c-7.5-40.5-11.625-78.984 20.156-105 31.594-25.828 67.078-14.812 108.8 1.7812 2.2969 0.89062 4.3594 1.7344 6.5625 2.5781 0.046875 0 0.09375 0.046875 0.1875 0.046875 25.594 9.9375 42.703 14.766 56.344 4.1719 14.297-11.766 11.391-32.344 5.4375-65.016-7.5-40.5-11.625-78.984 20.156-105 20.016-16.406 41.578-18.047 64.688-13.078 0.23438 0.046875 0.42188 0.14062 0.60938 0.14062 13.312 2.9062 27.141 7.9688 41.484 13.688 33.422 13.922 51.703 18.562 64.922 7.6875 4.3594-3.5625 9.8906-5.1562 15.516-4.6406 5.5781 0.5625 10.594 3.1875 14.156 7.6406 0.84375 1.0312 1.1719 2.2969 1.7812 3.4688-22.266 7.6406-42.562 21.609-58.781 40.406-19.453-2.25-38.578-9.5156-52.781-15.141-33.422-13.922-51.656-18.609-65.062-7.5938-14.25 11.766-11.344 32.344-5.3906 65.016 7.5 40.5 11.625 78.984-20.156 105-31.594 25.828-67.078 14.812-107.16-1.1719-30.844-12.188-50.578-18.75-64.688-7.1719-14.016 11.578-11.297 31.406-5.3906 64.688 7.7344 42.094 11.578 79.078-20.156 105.05-31.875 26.109-68.859 14.484-107.02-0.79688-33.75-13.641-51.047-18-64.922-7.4531-14.156 11.766-11.578 32.484-5.625 65.25 7.5469 40.688 11.109 76.5-17.766 102.61-16.969 5.0156-33.703 9.6094-50.297 13.594-3.2344 0.75-6.375 1.8281-9.5156 2.8125-18.281-2.5781-36.328-9.5156-49.594-14.812-30.609-12.422-50.25-19.031-65.016-7.6406-8.9531 7.3125-22.266 6-29.578-2.8125-7.3594-9.0469-6.0938-22.312 2.8594-29.625 2.5781-2.1094 5.1562-3.5625 7.7344-5.1562 13.688-3 26.672-6.6562 38.25-10.172 19.266 0.5625 39.609 7.5938 61.359 16.359zm593.16-371.95s-0.046875 0.09375-0.09375 0.14062c-0.42188 0.65625-0.75 1.3594-1.0781 2.0625-0.42188 0.89062-14.109 28.5-42 69.328 11.578-35.391 4.7812-72.516 0.42188-96.141-0.51562-2.9531-1.4531-7.9219-2.25-13.125 3.4219 1.3125 7.5 2.9062 12.281 4.875 11.438 4.5469 26.578 10.219 43.312 14.297-5.2031 9.2344-10.594 18.469-10.594 18.516zm-437.95 298.78c-0.51562-3-1.4531-8.1094-2.2969-13.406 3.4688 1.3125 7.6406 2.9062 12.516 4.875 33.844 13.594 96.891 38.859 151.78-6 54.656-44.719 42.844-109.03 35.484-149.06-0.46875-2.5781-1.2188-6.7969-1.9219-11.297 3.6562 1.3594 7.7812 2.9531 12.422 4.7812 34.922 13.922 92.578 36.703 145.4-1.4062-69.797 86.906-185.06 197.9-351.79 260.95 8.7656-33.375 2.5312-67.312-1.5938-89.391zm661.74-239.39c-15.375 46.125-166.26 454.45-719.06 587.76-8.9531 2.0156-17.578 2.9531-25.547 2.6719-40.266-1.4062-75.891-29.672-86.578-68.672l-21.422 5.8594 20.719-8.6719c-8.2031-34.219 3.3281-69.469 30.141-92.578 0.79688-0.46875 1.5938-1.0781 2.2969-1.6875 10.125-8.4844 22.594-14.672 36.094-17.906 28.734-6.8438 57.422-15 87.609-24.984 1.0781-0.375 2.9062-0.9375 5.0625-2.0625 295.18-99.938 451.87-348.89 482.39-412.97 0.46875-0.5625 0.98438-1.1719 1.4062-1.7344 1.0781-1.3594 1.9688-2.8594 2.7188-4.5 3.4219-6 12.938-22.5 17.438-30.844 16.312-30.328 45.141-49.734 75.234-50.672 10.734-0.375 21.422 1.2188 31.547 4.5938 11.391 3.8438 21.234 9.2344 29.578 16.219 30.141 24.141 42 63.516 30.281 100.12zm-84.984-281.53c43.172 24.609 58.734 78.938 36.609 122.44-11.25-3.4688-22.781-5.1562-34.453-5.6719-2.25-9.2812-6.5625-18.047-12.797-25.594-20.953-25.781-57.844-31.359-85.5-13.969-4.0781-1.0312-12-3.5625-26.719-9.6562-5.9062-2.3438-12.422-4.9219-19.5-7.4531 9.4688-15.234 14.719-24.609 15.281-25.734 9.0938-15.891 22.406-28.453 39-36.516 28.031-14.391 60.891-13.594 88.078 2.1562zm-275.53 22.453c16.594-48.562 69.328-75 117.42-59.062 8.7188 2.9531 16.734 6.9844 24 11.953-12.516 10.359-23.484 22.828-31.969 37.734-0.046875 0.14062-7.3125 13.312-21.797 35.812-27.656-3.1406-58.031 1.2656-86.719 24.75-50.016 40.922-44.062 100.08-37.594 137.34-4.6875 5.2031-9.5156 10.547-14.438 15.844-17.391-6.8438-39.328-14.766-63.094-16.828 82.641-96.938 111.84-180.61 114.14-187.5zm-585.98 464.11c59.719-14.391 113.58-32.578 162.32-53.297-11.297 22.594-13.312 46.781-12 68.859-28.594 11.859-57.797 22.453-87.234 30.938-16.547 0.32812-33.703 3.9844-50.625 13.266-6.0938 1.6875-12.188 3.1875-18.422 4.4062-24.656 5.0625-46.875 16.641-64.781 33.047-3.1875-44.531 25.922-86.297 70.734-97.219zm246.84 261.05c3.9844 3.9844 6.4219 9.75 6.4219 15.516 0 6-2.2031 11.578-6.4219 15.797s-9.7969 6.4219-15.797 6.4219-11.578-2.2031-15.797-6.4219-6.4219-9.75-6.4219-15.797c0-5.7656 2.2031-11.578 6.4219-15.516 2.0156-2.25 4.4531-3.7969 7.3125-4.9219 8.0156-3.3281 18-1.5469 24.234 4.9219zm259.78-108.89c1.125 2.6719 1.7812 5.5781 1.7812 8.4375 0 6-2.4375 11.578-6.6562 15.797s-9.7969 6.6562-15.562 6.6562c-6 0-11.578-2.4375-15.797-6.6562s-6.4219-9.75-6.4219-15.797c0-2.9062 0.42188-5.7656 1.5469-8.4375s2.9062-5.1094 4.875-7.125c2.0156-2.2031 4.4531-3.7969 7.125-4.875 8.2031-3.3281 18.234-1.3125 24.234 4.875 2.2031 2.0156 3.7969 4.4531 4.875 7.125zm162.24-115.78c1.3125 2.6719 1.7812 5.5781 1.7812 8.4375 0 5.7656-2.2031 11.578-6.4219 15.562-4.2188 4.2188-9.7969 6.6562-15.797 6.6562s-11.578-2.4375-15.797-6.6562c-2.0156-2.0156-3.5625-4.4531-4.6875-7.125s-1.7812-5.5781-1.7812-8.4375c0-2.9062 0.65625-5.7656 1.7812-8.4375 1.125-2.9062 2.6719-5.3438 4.6875-7.3125 8.4375-8.2031 23.344-8.2031 31.547 0 2.0156 2.0156 3.5625 4.4531 4.6875 7.3125zm163.78-204.66c0.23438 1.5469 0.42188 2.9062 0.42188 4.4531 0 2.9062-0.65625 5.7656-1.7812 8.4375s-2.6719 5.1094-4.875 7.125c-0.89062 1.125-2.0156 2.0156-3.3281 2.9062-1.125 0.65625-2.4375 1.3125-3.7969 2.0156-1.3125 0.42188-2.9062 0.89062-4.2188 1.3125-1.3125 0.23438-2.9062 0.42188-4.2188 0.42188-6 0-11.578-2.4375-15.797-6.6562-4.2188-3.9844-6.4219-9.7969-6.4219-15.562 0-1.5469 0-2.9062 0.42188-4.4531 0.23438-1.3125 0.65625-2.9062 1.125-4.2188 0.65625-1.3125 1.3125-2.4375 2.0156-3.7969 0.89062-1.125 1.7812-2.2031 2.9062-3.3281 2.0156-2.0156 4.4531-3.7969 7.125-4.875 8.2031-3.3281 18.234-1.3125 24.234 4.875 1.125 1.125 2.0156 2.2031 2.9062 3.3281 0.65625 1.3125 1.3125 2.4375 2.0156 3.7969 0.65625 1.3125 0.89062 2.9062 1.3125 4.2188z"/>
</svg>
