<?xml version="1.0" encoding="UTF-8"?>
<svg width="1200pt" height="1200pt" version="1.1" viewBox="0 0 1200 1200" xmlns="http://www.w3.org/2000/svg">
 <g>
  <path d="m187.44 403.92c0.039063 0.35547 0.039063 0.71875 0 1.0781-0.71875 0.71875-1.3203 1.5586-2.0391 2.3984z"/>
  <path d="m737.64 430.08c-27.359-21.719-72-37.199-106.08-23.281-12.719-42.238-41.16-84.84-86.879-91.559h-0.003906c-20.844-1.4414-41.742 1.9258-61.078 9.8398-5.2383-7.3984-11.316-14.164-18.121-20.156-16.805-13.496-35.969-23.75-56.52-30.242-4.7188-4.5312-10.559-7.7227-16.922-9.2383-12-1.1992-26.762-4.8008-40.922-5.8789l0.003906-0.003906c-0.16016-5.7148-1.1719-11.379-3-16.797-2.0469-5.0469-4.3711-9.9727-6.9609-14.762-3.2109-6.7773-7.4648-13.016-12.602-18.48-5.4961-5.7852-12.109-10.398-19.438-13.559-7.2891-2.7852-14.852-4.793-22.562-6-7-1.9844-14.207-3.1523-21.48-3.4805-6.7969-0.15625-13.586 0.65234-20.156 2.3984-8.7344 2.9844-17.078 7.0117-24.844 12-6.4883 3.2148-12.535 7.2461-18 12-5.3438 4.9375-9.4531 11.062-12 17.883-4.5703 3.9531-8.1445 8.9258-10.438 14.52-6.1523 13.23-8.875 27.797-7.9219 42.359 0.94922 8.168 2.7617 16.211 5.4023 24 2.0195 7.9297 5.2578 15.5 9.5977 22.438 2.0625 2.9648 4.4375 5.7031 7.082 8.1602-5.9844 13.172-8.8594 27.543-8.4023 42-2.0117 9.3555-3.1367 18.879-3.3594 28.441 2.1133 20.641 7.25 40.855 15.242 60 5.4727 11.754 14.277 21.645 25.32 28.441-2.125 4.6562-3.0352 9.7773-2.6406 14.879-7.8828 27.031-9.6445 55.48-5.1602 83.281-0.71875 59.281 30.48 121.44 86.762 145.8 0.96094 0 2.0391 0 3 0.71875 0.71875 4.4414 2.2812 8.7617 3.3594 13.078-0.48047 18.98 2.1562 37.914 7.7969 56.043 7.5586 30.602 31.68 54.48 51.238 78.961l0.003907-0.003906c27.027 23.203 62.16 34.727 97.68 32.043l4.5586 3.2383c33.238 16.32 69.359 26.762 101.04 46.559 21.359 13.801 48 13.441 70.078 26.281 24 12 48.84 24.84 73.559 36h0.003906c3 4.5898 7.7109 7.7852 13.082 8.8789h7.3203c30.633 13.684 62.191 25.191 94.438 34.441 21.551 10.902 44.422 18.969 68.043 24 31.441 13.199 90.961 40.441 121.2 19.559l1.9219-1.8008c30.719-31.078-24.844-129.72-41.762-163.08-13.922-39.359-27.121-78.359-53.039-112.08h-0.003906c-12.926-30.586-28.504-59.977-46.559-87.844-18.238-37.078-41.641-72-57.48-109.56-10.32-15-15.84-32.398-27.48-46.559-1.2344-4.1211-2.7969-8.1328-4.6797-12l0.71875-3.1211c4.3203-21.121-5.8789-41.641-8.8789-62.398-3.5664-35.934-18.68-69.742-43.078-96.363zm-525.84-130.08c0-0.71875 0-1.3203-0.96094-1.9219-0.96094-0.60156 0-1.1992-0.60156-1.8008-0.60156-0.60156 0-1.1992 0-1.8008v-4.3203c0-4.0781 0-8.2812 0.83984-12 0-1.0781 0-2.0391 0.60156-3.1211 0.83984-3.2383 1.9219-6.2383 3-9.3594v0.003907c1.9219-4.4414 3.5273-9.0117 4.8008-13.68 2.668-1.8867 5.1602-4.0156 7.4414-6.3594 2.6406-2.5195 7.1992-6.8398 12-10.801l3.3594-2.1602 1.8008-0.96094c3.3594-1.1992 6.7188-2.2812 10.078-3.2383 6.2344-1.7539 12.566-3.1562 18.961-4.1992h9.4805l2.7617 1.4414 6.9609 4.8008c2.7617 2.2812 5.5195 4.5586 8.0391 7.0781 2.5195 2.5195 3.3594 3.7188 5.0391 5.6406l1.3203 2.0391 0.60156 1.1992v1.3203l1.0781 5.1602c0.83984 6.7188 1.5586 13.559 1.8008 20.398v6.6016 1.6797h-0.003906c-0.26562 0.97656-0.58594 1.9375-0.96094 2.8789l-0.71875 1.4414c-0.80859 1.3242-1.6914 2.6055-2.6406 3.8398-3.5312 4.4336-7.2969 8.6797-11.277 12.719-4.1172 4.2188-8.4414 8.2227-12.961 12-3.3594 2.3984-6.4805 4.8008-9.8398 6.8398l-1.8008 0.96094-2.0391 0.60156h-6.2422c-7.8008 0-15.719-1.4414-24-2.3984l-4.4414-0.83984 0.003906-0.003906c-1.6875-1.2031-3.5469-2.1328-5.5195-2.7578l-4.4414-4.0781c-3.7188-3.9609-7.4414-8.0391-10.922-12zm12 126.84c-1.7344-17.465-2.0938-35.039-1.082-52.559 1.2305-4.5586 2.918-8.9844 5.043-13.203 9.2656 3.6445 19.359 4.6406 29.16 2.8828 6.4805-1.4453 12.855-3.3281 19.078-5.6406 6.2383-2.2812 12-3.9609 18.602-6.2383v-0.003906c4.1914-1.6797 8.2109-3.7695 12-6.2383 3.3477-2.0195 6.5547-4.2656 9.5977-6.7188l4.9219-4.5586v-0.003906c3.2734-3.2109 6.207-6.75 8.7578-10.559 3.3008-4.9805 6.0742-10.289 8.2812-15.84 1.0781-2.7617 2.1602-5.6406 3.1211-8.5195h12.961 5.7578c35.938 7.9414 69.234 24.965 96.719 49.438l0.71875 1.1992 0.003906 0.003906c-9.4297 7.0508-16.059 17.211-18.723 28.68-19.32 32.879-40.441 66.359-75 84-12 18.602-31.199 15.961-50.762 12.961h0.003907c-29.789 1.5117-59-8.5977-81.48-28.203-2.2812-6.8398-4.8008-13.797-7.5586-20.879zm27.719 180c0.71875-28.078 4.1992-55.922 4.5586-84 2.793-4.2109 4.3711-9.1094 4.5625-14.16 22.02 5.0547 44.41 8.3086 66.961 9.7188 37.441 3.8398 69.84-24 93-50.52 6.5117-4.8945 12.688-10.227 18.477-15.957 14.152-13.754 24.633-30.836 30.48-49.684 6.1836-9.7812 10.688-20.527 13.32-31.797 1.5742-1.082 3.0586-2.2852 4.4414-3.6016 0.66797-0.71875 1.2305-1.5273 1.6797-2.3984 15.359-3.9609 31.801-12 48-8.7617 37.078 0.83984 61.801 47.398 54.961 81 3.1211 39.602-22.199 72-45.719 100.56-14.641 12-20.641 29.16-29.52 44.879-29.762 34.199-54.359 72-87.48 103.56-40.32 21.961-99.719 46.199-137.04 5.2812-28.203-18.957-33.004-53.996-40.203-84.719zm336.48 332.52c-21.719-9.8398-43.32-20.039-65.398-29.16 23.816-10.602 46.395-23.805 67.32-39.359 1.918 20.637 1.918 41.406 0 62.039-0.48047 2.043-0.96094 4.1992-1.9219 6.4805zm39.602-8.8789v-3.6016c3.7539-17.863 4.6445-36.215 2.6367-54.359 10.336-0.48047 20.535-2.5469 30.242-6.1211 13.801-1.9219 27.84-3.4805 41.641-6 3.2188 15.176 4.2305 30.738 3 46.203 0 4.6797 0.83984 9.4805 1.3203 14.281-18.719 2.2812-37.441 3.8398-55.922 7.8008-6.4805 1.0781-14.52 1.1953-22.441 1.7969zm301.44 10.68h-0.003907c4.625 8.5039 8.6367 17.324 12 26.398-23.16 4.4414-46.078 10.441-68.879 16.68 0-5.5195-0.83984-11.039-1.4414-16.559-3.8672-13.711-5.9258-27.871-6.1172-42.121 15.238-4.9219 30.48-10.078 45.48-15.359h-0.003906c1.5039-0.78906 2.8789-1.8008 4.082-3 5.7383 11.031 10.863 22.367 15.359 33.961zm-105.36-73.199h-0.003906c-0.71875 9.1445-0.71875 18.332 0 27.48l-4.3203 0.96094v-0.003906c-22.543 9.3125-46.461 14.867-70.801 16.441h-1.4414c-2.5195-21.121-5.6406-42.238-6.4805-63.48 16.801-3.8398 34.68-2.7617 51-9 9-2.5195 17.641-5.5195 26.281-8.6406 1.6836 12.48 3.6016 24.48 6.2422 36.242zm-127.68-90.121c3.0391 13.578 4.25 27.5 3.6016 41.398h-3c-14.707 4.8984-29.695 8.9062-44.883 12h-12l12-10.32v0.003906c15.473-15.449 30.02-31.797 43.562-48.961 0 2.3984 0.71875 4.1992 0.71875 5.8789zm15.719 216c-15.719-8.0391-31.199-16.441-46.441-25.559 16.078-3 32.039-6.9609 45.121-9.7188v1.5586c2.832 10.871 3.0781 22.254 0.72266 33.238zm128.04 51.961c-7.1992-2.1602-14.398-4.8008-21.48-7.1992 6.6016-1.5586 13.199-3.2383 19.922-4.5586-0.12109 3.3555 0.35938 7.3164 0.96094 11.277zm-89.762-35.16h0.003906c0.88672-13.227 0.88672-26.496 0-39.719v-17.398-0.003907c26.344-3.8008 52.402-9.375 78-16.68 1.9609 13.547 2.8438 27.23 2.6406 40.922l2.2812 18.238-4.1992 1.1992c-26.883 2.0391-52.922 8.5195-79.324 12.961zm127.44 36c0-6.7188-0.71875-13.32-1.0781-20.039l4.8008-0.83984c10.586-3.8789 21.461-6.9258 32.52-9.1211 6.6914-3.0781 13.586-5.6836 20.641-7.8008v3.8398c-3.4805 20.879-1.1992 41.879-4.5586 62.52-0.066407 1.3086-0.30859 2.5977-0.72266 3.8398-17.281-6.4805-34.199-14.641-49.559-21.961-0.63672-3.6133-1.5195-7.1836-2.6406-10.68zm111.12 43.922v-0.003906c-7.0234 0.27344-14.062-0.17188-21-1.3203 1.1992-9.1211 0-19.441 1.8008-27.84 1.8008-8.3984 2.3984-17.641 3.4805-26.641 6.7188 17.762 6.8398 37.562 15.121 55.562zm-89.879-216c-11.281 2.3984-23.16 6-35.16 9.7188-2.7617-22.32-4.5586-44.762-6.1211-67.199l7.3203-2.7617c10.203 20.641 22.082 40.441 33.359 60.48zm-84-117.96c-0.71875 12 0 23.039 0 34.559-26.039 7.0781-51.719 14.762-77.879 20.879-0.83984-16.559 0-33.238 0-49.559 24.961-6.4805 53.281-19.68 75.121-27.359 0.35938 7.4375 1.918 14.641 2.6367 21.719zm-38.281-104.76c6.9805 16.012 15.672 31.219 25.922 45.359-8.6523 4.5508-18.035 7.5547-27.719 8.8789-12.898 4.9375-26.133 8.9492-39.602 12 15.66-22.262 28.367-46.465 37.801-72 1.0312 2.0742 2.1914 4.0781 3.4805 6zm-27.477-59.039c-0.54297 2.5703-0.54297 5.2266 0 7.8008-9.5117 35.375-26.816 68.176-50.641 96-9.1641 19.77-22.18 37.516-38.281 52.199-36 60-100.8 92.879-157.68 131.16-37.32 6.9609-84 14.16-111.12-19.559-34.922-25.68-40.801-69.121-46.68-109.44 46.551-0.50391 91.133-18.844 124.56-51.242 27.961-30.602 58.199-60 76.68-97.801 27.48-34.922 58.199-70.32 75.48-111.96v0.003907c2.9922-15.41 7-30.602 12-45.48 21.238 2.8789 44.641-10.559 64.078 5.1602 48.484 29.52 48.363 92.281 51.605 143.16z"/>
  <path d="m233.04 223.56c-29.398 0-27.121-38.52-24-59.281v0.003906c-0.50781-19.82 3.8164-39.465 12.602-57.242 2.043-12.41 7.7227-23.938 16.32-33.117 12-10.32 28.078-9.6016 31.559 8.6406 3.9609 14.641-5.1602 27.121-12 39.359-4.1992 12.961-6.7188 26.398-12 39.121v-0.003907c-1.1992 9.5234-1.1992 19.16 0 28.68 3.6875 3.8398 5.6875 8.9922 5.5508 14.312-0.13281 5.3203-2.3906 10.363-6.2695 14.008-3.1055 3.2305-7.293 5.1992-11.762 5.5195z"/>
 </g>
</svg>
