<?xml version="1.0" encoding="UTF-8"?>
<svg width="1200pt" height="1200pt" version="1.1" viewBox="0 0 1200 1200" xmlns="http://www.w3.org/2000/svg">
 <path d="m213 975.3c-51.301-4.5-79.5-35.102-89.102-66-27.602-9-44.398-24.301-54.301-42.301-9.3008-16.5-12.602-36.602-11.102-58.5-8.6992-8.6992-15.898-19.801-21.301-32.102-7.5-17.398-10.5-37.199-9.8984-54.602-1.1992-0.89844-2.1016-1.8008-3.3008-3-10.5-10.801-23.699-31.199-23.699-73.801v-2.6992c1.1992-55.199 36.602-75.602 62.699-83.102 4.1992-19.5 13.199-33.602 24.301-43.5 2.6992-2.3984 5.6992-4.5 8.6992-6.6016-11.699-17.398-18-35.102-19.5-52.5-1.5-18.898 2.1016-37.801 12-57-6-37.199-1.1992-63.898 13.199-82.5 9.3008-12 22.801-21.602 42.898-27.898 15.301-29.102 30.898-50.699 62.398-60.602 12-13.801 38.699-33.602 93.301-33.602 54.602 0 92.398 40.5 108 62.398 19.801 4.1992 35.398 12.602 47.102 24 9.3008 9 16.199 20.398 20.398 33.898 16.5 2.6992 29.699 9.8984 39.898 20.102 12.301 12.301 21 30.898 23.699 55.801 11.699 12.898 18.301 26.699 21 40.801 3.6016 19.199-0.30078 40.199-13.199 62.102 6.3008 11.102 9.6016 22.199 10.801 33.301 1.8008 15.898-1.5 32.102-8.3984 48.301 12.898 12.602 20.398 28.801 21.898 48.301 10.199 5.6992 18.301 13.5 24.602 23.398 11.398 18 15.301 45.898 6.3008 84.301 6 15 6 28.5 2.1016 40.5-3.6016 11.398-10.801 22.199-22.5 31.801 4.8008 10.801 7.8008 21.898 8.1016 33 0.89844 19.801-5.3984 40.5-22.5 61.5-5.6992 21-15.898 37.199-29.102 49.199-17.398 15.898-40.801 24.898-69.898 26.699-8.6992 13.5-20.102 23.398-33.301 30-19.5 9.6016-44.699 12-75.301 5.3984-11.699 56.398-27 112.8-46.199 169.2-3 8.6992-9.6016 15.301-18 18.602-8.3984 3-18 2.3984-25.801-2.3984l-75-45c-11.398-6.8984-16.801-20.102-13.801-33 11.699-47.102 22.5-94.5 32.102-142.5zm55.199 149.7-23.699-14.102c38.699-159 65.102-322.2 77.398-499.5 16.5 170.4-0.60156 341.7-53.699 513.6zm572.4-309.6c-30.602 6.6016-55.801 4.1992-75.301-5.3984-13.199-6.6016-24.602-16.5-33.301-30-29.102-1.8008-52.5-10.801-69.898-26.699-13.199-12-23.398-28.199-29.102-49.199-17.102-21.301-23.102-42-22.5-61.801 0.60156-11.102 3.3008-22.199 8.1016-33-11.398-9.6016-18.898-20.398-22.5-31.801-3.6016-12-3.6016-25.5 2.1016-40.5-9-38.398-4.8008-66.301 6.3008-84.301 6-9.8984 14.102-17.699 24.301-23.398 1.5-19.801 9-35.699 21.898-48.301-6.8984-16.199-9.8984-32.102-8.3984-48.301 1.1992-11.102 4.5-22.199 10.801-33.301-12.898-22.199-16.801-43.199-13.199-62.102 2.6992-14.102 9.3008-27.898 21-40.801 3-24.898 11.398-43.5 23.699-55.801 10.199-10.5 23.398-17.699 39.898-20.102 4.1992-13.5 11.398-24.898 20.398-33.898 11.699-11.398 27-19.801 46.801-24 15.602-22.199 51.602-62.699 108-62.699 56.398 0 81.301 20.102 93.301 33.602 31.199 9.8984 47.102 31.5 62.398 60.602 19.801 6 33.602 15.898 42.898 27.898 14.398 18.602 19.199 45.301 13.199 82.5 9.8984 19.199 13.801 38.398 12 57-1.5 17.398-7.8008 35.102-19.5 52.5 3 2.1016 6 4.1992 8.6992 6.6016 11.398 9.8984 20.102 24 24.301 43.5 26.398 7.5 62.699 28.5 62.699 85.5v3.8984c-0.89844 39.898-13.5 59.398-23.699 69.898-1.1992 1.1992-2.1016 2.1016-3.3008 3 0.60156 17.398-2.6992 37.199-9.8984 54.602-5.3984 12.301-12.602 23.398-21.301 32.102 1.5 22.199-1.8008 42-11.102 58.5-9.8984 18-26.699 33-54.301 42.301-9.6016 30.898-37.801 61.5-89.102 66 9.6016 48 20.398 95.398 32.102 142.5 3.3008 12.898-2.3984 26.102-13.801 33l-75 45c-7.8008 4.8008-17.102 5.3984-25.801 2.3984-8.3984-3-15.301-9.8984-18-18.602-19.199-56.398-34.5-112.8-46.199-169.2zm-345.3-350.7c4.8008-7.5 7.1992-14.699 6-21.602-1.1992-5.6992-5.1016-10.5-10.801-15.301-6.3008-5.3984-9.8984-13.199-10.199-21.602-0.60156-12.602-1.8008-22.5-7.5-28.5-4.1992-4.1992-10.801-3.8984-18.898-3-8.3984 0.89844-16.801-1.5-23.102-6.8984s-10.199-13.5-10.5-21.898c-0.30078-9.3008-2.1016-16.801-7.1992-21.602-6-5.6992-14.699-8.1016-26.102-9.3008-10.199-1.1992-19.199-7.1992-23.699-16.5 0 0-20.699-43.5-63.301-43.5-31.5 0-48.898 15-48.898 15l0.60156-1.1992-26.699 16.199 5.6992-0.60156c-23.699 4.5-28.5 23.102-39 44.102-4.1992 8.3984-12 14.102-21 15.898-10.199 2.1016-17.398 3.8984-21.602 9.3008-2.3984 3-3 7.1992-3.3008 12-0.60156 9.3008 0.89844 20.398 3.6016 33.301 1.5 7.8008 0 15.602-4.1992 22.199-17.398 27-6.6016 52.199 20.699 77.699 28.801 12 39 32.699 42.602 52.199 12.301 8.1016 21.301 17.699 26.398 28.5 5.6992 12 7.8008 25.5 4.5 41.398-3.3008 16.199-19.199 26.699-35.398 23.398s-26.699-19.199-23.398-35.398c1.1992-6.6016-5.1016-8.3984-12.301-11.398-11.102-4.8008-18.301-15.602-18.301-27.602 0-4.5 0-11.102-6-14.699-6.6016 0.30078-12.602 1.5-16.801 5.3984-5.3984 4.8008-6.8984 13.199-6.8984 24.898 0 16.5-13.5 29.398-30 29.398 0 0-30 0-30 30v3.3008c0.60156 13.801 4.8008 24.602 6 27.301 13.801 2.6992 24 15 24 29.398 0 3.6016-0.60156 7.1992-1.8008 10.5-2.6992 8.1016-1.5 19.5 1.5 30.301 2.6992 9.3008 6.6016 18.602 14.102 22.5 11.699 6 18 18.898 15.898 31.5-2.3984 14.398-3.6016 27.602 2.1016 37.801 5.3984 9.3008 16.5 14.398 33.898 17.699 14.102 2.6992 24.301 15 24.301 29.398 0 15.602 15.602 29.699 44.102 30.602 6.3008-36 12.301-72.301 17.102-109.2-35.398-49.801-70.199-86.102-105.3-105-14.699-7.8008-20.102-25.801-12.602-40.5 7.5-14.699 25.801-20.102 40.5-12.602 29.102 15.301 58.5 40.199 87.602 73.801 7.1992-64.801 12-131.1 15-199.8l-74.699-56.102c-13.199-9.8984-15.898-28.801-6-42 9.8984-13.199 28.801-15.898 42-6l41.102 30.898c0.89844-34.199 0.89844-69 0.89844-104.1 0-15 10.801-27.602 25.5-30 14.699-2.1016 28.801 6.8984 33.301 21.301 6.3008 21.301 12 42.602 17.398 63.898l25.801-19.5c13.199-9.8984 32.102-7.1992 42 6 9.8984 13.199 7.1992 32.102-6 42l-47.398 35.699c9.8984 48.898 17.102 98.102 21.602 147l37.199-22.5c14.102-8.3984 32.699-3.8984 41.102 10.199 8.3984 14.102 3.8984 32.699-10.199 41.102l-63.602 38.102c1.1992 27.602 1.5 55.199 0.89844 83.102 20.102-18.898 42.602-32.699 68.398-40.5 15.898-4.8008 32.699 4.1992 37.5 20.102 4.8008 15.898-4.1992 32.699-20.102 37.5-38.102 11.398-64.801 43.5-87.602 83.699-1.1992 2.3984-2.6992 4.1992-4.5 6-2.6992 27.602-6.3008 55.199-10.801 83.102 25.199 6.3008 43.199 3.3008 51.602-17.398 4.8008-12 16.5-19.5 29.398-18.898 19.5 0.89844 35.699-1.1992 46.199-11.102 6.6016-6 10.5-14.398 12.898-25.199 1.1992-5.1016 3.6016-9.8984 6.8984-13.801 8.1016-9 12.602-16.801 12-25.199-0.30078-9-5.3984-17.102-12.602-25.199-6-7.1992-8.3984-16.801-6.3008-26.102 2.1016-9.3008 8.3984-16.801 16.801-20.699 8.6992-3.8984 15.898-7.1992 18.898-12.602 0.89844-1.5-1.1992-2.6992-2.3984-5.1016-4.1992-7.1992-5.1016-15.602-3-23.398 3.8984-13.5 6-24.898 5.6992-34.199 0-5.6992-0.30078-10.5-3-13.801-2.1016-2.3984-5.3984-3.3008-9.3008-3.8984-15.898-3-26.699-18-24.301-34.199 2.1016-13.5-2.3984-22.801-13.801-28.5-7.8008-3.8984-13.5-10.801-15.602-19.199-2.1016-8.3984-0.89844-17.102 3.8984-24.301 9.8984-14.699 16.5-29.102 9.3008-43.801-6.6016 0-13.5 0.89844-19.801 3-4.5 1.5-9.6016 2.6992-11.102 7.1992-5.3984 15.602-22.199 24-38.102 18.898-15.602-5.3984-24-22.199-18.898-38.102 6.6016-19.199 20.398-32.699 38.699-40.801 14.699-6.6016 33-9.6016 49.801-9.8984zm436.8 465.3c-53.398-171.9-70.5-343.2-53.699-513.9 12.602 177.6 39 340.5 77.398 499.8l-23.699 14.102zm102-625.8c27.301-25.5 38.398-50.699 20.699-77.699-4.1992-6.6016-5.6992-14.699-4.1992-22.199 2.6992-12.898 4.1992-23.699 3.6016-33.301-0.30078-4.8008-0.89844-9-3.3008-12-4.1992-5.3984-11.699-7.1992-21.602-9.3008-9-1.8008-16.801-7.8008-21-15.898-10.5-20.699-15.301-39.301-39-44.102 1.8008 0.30078 3.8984 0.60156 5.6992 0.60156l-26.699-16.199 0.60156 1.1992s-17.398-15-48.898-15c-42.602 0-63.301 43.5-63.301 43.5-4.5 9-13.5 15.301-23.699 16.5-11.102 1.1992-20.102 3.6016-26.102 9.3008-5.1016 5.1016-6.8984 12.602-7.1992 21.602-0.30078 8.3984-4.1992 16.199-10.5 21.898-6.3008 5.3984-14.699 8.1016-23.102 6.8984-8.1016-0.89844-14.699-1.1992-18.898 3-5.6992 5.6992-6.8984 15.602-7.5 28.5-0.30078 8.3984-3.8984 15.898-10.199 21.602-5.6992 4.8008-9.6016 9.8984-10.801 15.301-1.1992 6.8984 1.1992 14.102 6 21.602 16.801 0.30078 34.801 3.3008 49.801 9.8984 18.301 8.1016 32.102 21.602 38.699 40.801 5.3984 15.602-3.3008 32.699-18.898 38.102-15.602 5.3984-32.699-3.3008-38.102-18.898-1.5-4.5-6.3008-5.6992-11.102-7.1992-6.3008-1.8008-13.199-2.6992-19.801-3-7.1992 14.398-0.60156 29.102 9.3008 43.801 4.8008 7.1992 6.3008 16.199 3.8984 24.301-2.1016 8.3984-7.8008 15.301-15.602 19.199-11.102 5.3984-15.898 15-13.801 28.5 2.3984 16.199-8.3984 31.199-24.301 34.199-3.8984 0.60156-7.1992 1.5-9.3008 3.8984-2.6992 3.3008-3 8.1016-3 13.801 0 9.6016 2.1016 21 5.6992 34.199 2.1016 7.8008 1.1992 16.199-3 23.398-1.1992 2.1016-3.3008 3.3008-2.3984 5.1016 3 5.3984 10.199 8.6992 18.898 12.602 8.6992 3.8984 14.699 11.699 16.801 20.699 2.1016 9.3008 0 18.898-6.3008 26.102-7.1992 8.3984-12.301 16.5-12.602 25.199-0.30078 8.3984 4.1992 16.199 12 25.199 3.6016 3.8984 6 8.6992 6.8984 13.801 2.3984 10.801 6.3008 19.5 12.898 25.199 10.801 9.8984 26.699 12 46.199 11.102 12.898-0.60156 24.602 6.8984 29.398 18.898 8.1016 20.699 26.102 23.699 51.602 17.398-4.5-27.602-8.1016-55.199-10.801-83.102-1.8008-1.8008-3.3008-3.8984-4.5-6-22.801-40.199-49.5-72.301-87.602-83.699-15.898-4.8008-24.898-21.602-20.102-37.5 4.8008-15.898 21.602-24.898 37.5-20.102 25.801 7.8008 48.602 21.898 68.398 40.5-0.60156-27.602 0-55.199 0.89844-83.102l-63.602-38.102c-14.102-8.3984-18.898-27-10.199-41.102 8.3984-14.102 27-18.898 41.102-10.199l37.199 22.5c4.5-49.199 11.699-98.102 21.602-147l-47.398-35.699c-13.199-9.8984-15.898-28.801-6-42 9.8984-13.199 28.801-15.898 42-6l25.801 19.5c5.3984-21.301 11.102-42.602 17.398-63.898 4.1992-14.398 18.301-23.398 33.301-21.301 14.699 2.1016 25.801 15 25.5 30 0 35.398 0 70.199 0.89844 104.1l41.102-30.898c13.199-9.8984 32.102-7.1992 42 6 9.8984 13.199 7.1992 32.102-6 42l-74.699 56.102c3 68.699 8.1016 135 15 199.8 29.398-33.602 58.5-58.5 87.602-73.801 14.699-7.8008 32.699-2.1016 40.5 12.602 7.8008 14.699 2.1016 32.699-12.602 40.5-35.398 18.602-70.199 54.898-105.3 105 5.1016 36.898 10.801 73.199 17.102 109.2 28.5-0.89844 44.102-15 44.102-30.602 0-14.398 10.199-26.699 24.301-29.398 17.398-3.3008 28.5-8.3984 33.898-17.699 5.6992-10.199 4.5-23.398 2.1016-37.801-2.1016-12.898 4.1992-25.5 15.898-31.5 7.5-3.8984 11.398-13.199 14.102-22.5 3.3008-10.801 4.5-22.199 1.5-30.301-1.1992-3.3008-1.8008-6.8984-1.8008-10.5 0-14.398 10.5-26.699 24-29.398 1.1992-3 6-15.301 6-30.602v-2.6992c-1.8008-27.301-30-27.301-30-27.301-16.5 0-29.699-13.199-30-29.398 0-11.699-1.5-20.102-6.8984-24.898-4.1992-3.8984-10.199-5.1016-16.801-5.3984-6 3.8984-6 10.199-6 14.699 0 12-7.1992 23.102-18.301 27.602-6.8984 3-13.5 4.8008-12.301 11.398 3.3008 16.199-7.1992 32.102-23.398 35.398-16.199 3.3008-32.102-7.1992-35.398-23.398-3.3008-15.898-1.1992-29.398 4.5-41.398 5.1016-10.801 14.102-20.699 26.398-28.5 3.3008-19.5 13.801-40.199 42.602-52.199z" fill-rule="evenodd"/>
</svg>
