<?xml version="1.0" encoding="UTF-8"?>
<svg width="1200pt" height="1200pt" version="1.1" viewBox="0 0 1200 1200" xmlns="http://www.w3.org/2000/svg">
 <path d="m1034.2 877.31c-8.0625 23.531-20.156 45.609-35.297 65.391-14.766 19.922-32.531 37.922-52.922 52.312-20.156 14.531-42.141 27-65.766 34.688-15.469 5.7656-35.859 7.0781-51.703 11.625-15.938 4.3125-28.688 12.375-30.141 34.781-1.5469 23.766 13.547 32.062 34.688 33.141 10.312-0.375 22.078-1.7812 33.375-4.6875 11.156-3.4688 22.219-6.375 31.453-9.7031 59.062-18.609 112.22-55.219 150.94-103.55 38.859-48.375 62.859-108.61 68.297-170.39l1.2188-23.297c0.375-3.4688 0.14062-8.2969-0.23438-13.312-0.60938-4.9219-1.0781-9.8438-2.5312-14.531-4.5469-19.219-15.609-36.609-30.469-49.453s-33.938-20.859-53.531-22.547c-11.062-0.70312-16.078-0.23438-23.766-0.375h-17.297c4.4531-6.4688 8.7656-13.922 12.703-21.938 19.547-38.297 29.062-91.547 32.062-134.39 4.6875-63-3.375-127.69-25.219-187.92 18.469-31.078 27.938-67.688 26.156-103.31-1.6875-46.078-22.078-91.781-54.938-123.84-32.391-32.391-78.141-52.078-123.84-53.297-36.141-1.4531-72.938 8.7656-103.69 28.078-70.453-24.938-146.39-31.547-219.14-21-81.609 11.391-159 43.312-225.71 89.859-92.625 64.547-164.76 158.86-200.39 266.63-17.859 53.766-27.844 110.62-26.156 167.86 1.2188 48.938 10.078 98.062 26.859 144.61-19.078 30.609-29.062 67.078-27.375 102.94 1.4531 44.859 21 89.391 52.922 120.94 31.453 31.781 76.078 51.375 120.84 52.781 35.766 1.5469 72.234-8.2969 102.84-27.469 16.219 6 32.625 11.062 49.312 15 32.391 8.0625 73.922 15.703 107.62 12.703 14.297-2.0625 26.766-5.0625 36.469-9.4688 7.5469 9.1406 15.375 18 23.859 26.156 23.062 22.781 49.219 42.938 78.469 58.453 13.219 8.0625 29.391 14.156 45.609 19.781 16.547 4.4531 33.234 7.9219 48.469 6.7031 15-0.23438 28.219-4.9219 37.078-12.375 8.8594-7.5469 13.453-18.234 12.938-33.234-0.375-12.375-4.9219-21.469-11.531-28.219-6.6094-6.7031-15.469-10.781-25.312-15.234-19.781-6.9375-44.062-13.688-62.766-21.938-42.375-19.219-79.078-50.297-105.38-88.922-13.078-19.312-22.922-40.688-30.609-62.625-6.7031-22.312-10.922-45.469-11.766-69-0.375-3.7031 0-4.0781-0.23438-5.3906 0.23438-1.0781 0.14062-2.3906 0.46875-3.4688 0.375-2.2969 1.2188-4.4531 2.3906-6.4688 2.2969-4.2188 6.1406-7.6875 10.312-9.8438 2.1562-0.9375 4.4531-1.7812 6.9375-2.1562h1.9219l1.0781-0.23438h2.625l10.453-0.14062 41.766-0.46875 167.16-1.0781h228c1.4531 0 2.7656 0.23438 4.2188 0.375 2.625 0.60938 5.2969 1.5469 7.6875 2.7656 4.6875 2.7656 8.8594 6.9375 11.062 12 2.3906 6 2.8594 7.2188 1.7812 22.781-0.70312 24.938-5.8594 49.547-14.391 72.844zm-389.53-180.94-42.703-0.60938-21.375-0.375c-5.7656-0.23438-17.625-0.23438-27.141 1.6875-39.938 7.4531-73.078 42-78.469 83.062-0.70312 4.7812-1.0781 10.781-1.0781 14.625l0.23438 11.766c0.375 7.7812 0 15.703 0.9375 23.625 1.7812 15.703 3.6094 31.453 7.6875 46.781 6.375 27.703 16.312 54.703 29.859 80.062-27-1.0781-58.781-2.3906-83.062-8.1562-23.062-5.3906-45.609-12.844-67.219-22.453-8.5312-3.7031-18.844-2.625-26.391 3.7031l-0.23438 0.23438c-21.469 18.141-49.547 27.609-77.625 26.297-28.078-1.2188-54.938-13.078-74.625-33-19.781-19.781-31.547-46.781-32.531-74.625-1.2188-27.938 8.3906-55.781 26.625-76.922 6.375-7.4531 8.3906-18.234 4.2188-27.844-33.375-76.547-38.625-164.53-19.312-246.47 19.078-82.312 62.391-158.86 122.39-218.76 60-59.859 136.69-103.22 218.86-121.92 81.938-18.938 169.55-12.469 244.92 21.938 9.7031 4.4531 21.469 3.2344 30.234-3.9375l0.84375-0.60938c20.859-17.297 48-25.922 74.766-24.141 26.766 1.5469 51.844 13.547 69.844 32.766 18.141 19.219 27.938 44.391 27.844 70.078 0 25.781-9.7031 50.156-26.766 68.156-9.375 9.8438-12.703 24.609-7.4531 38.062l1.2188 3.1406c20.391 52.219 27.141 109.31 21.234 164.76-3.6094 37.547-14.766 81.844-22.078 118.08-3.7031 19.688-5.625 37.688-2.5312 52.219h-100.31l-170.86-1.2188z"/>
</svg>
