<?xml version="1.0" encoding="UTF-8"?>
<svg width="1200pt" height="1200pt" version="1.1" viewBox="0 0 1200 1200" xmlns="http://www.w3.org/2000/svg">
 <path d="m491.86 142.03c-16.875 21.656-27.281 47.812-31.547 65.156-0.5625 2.3438-2.1094 4.3125-4.1719 5.4844-12.938 7.2656-32.531 20.906-48.75 37.875-13.453 14.062-23.625 29.484-26.906 44.719 48.656-4.6406 90.234 19.406 118.83 56.109 29.672 38.062 45.984 90.422 42.797 141.14 19.078 12.938 33.703 26.625 44.812 40.969 2.625-5.0625 5.6719-9.8438 9-14.391-1.875-10.266-2.8594-23.203-3.4688-37.266-0.46875-11.062-0.70312-23.203-0.98438-35.625-0.09375-5.5312-0.23438-11.156-0.375-16.734-0.42188-18.188-1.125-36.375-2.6719-52.781-1.5469-16.453-3.9844-30.609-7.6875-40.969-1.5938-4.5469 0.75-9.5156 5.25-11.109 4.5469-1.6406 9.5156 0.70312 11.109 5.25 4.4531 12.422 7.0312 28.266 8.625 45.188 1.6406 17.062 2.3438 35.719 2.7656 53.953 0.14062 5.7656 0.28125 11.484 0.375 17.109 0.28125 12.281 0.51562 24.094 0.98438 34.969 0.32812 7.5469 0.75 14.484 1.3125 20.625 18.281-17.672 40.172-30.281 55.828-37.219-7.1719-29.016-9.375-69.188 4.125-107.25 13.922-39.422 44.484-75.938 101.81-95.156-27.891-35.438-72.984-58.453-98.297-66.984-2.4375-0.79688-4.3594-2.6719-5.2969-5.0625-5.625-14.203-18.094-35.906-36.75-53.906s-42.891-31.781-72.469-31.781c-28.828 0-51.375 16.125-68.25 37.688zm298.92 114.84c8.1562-2.0156 16.734-3.75 25.828-5.1094 25.5-37.594 79.219-60.188 126.37-50.625 24.703 4.9688 47.625 18.797 63.656 43.734 15.375 23.859 23.906 57.234 22.453 101.48 45.703 30.75 53.812 85.875 47.062 134.68-3.4688 25.359-11.062 49.828-20.156 69.797-7.3125 16.125-15.984 30.141-24.797 39.141 24.75 46.547 17.156 91.734-6.0938 125.48-22.594 32.766-60.188 55.031-97.266 57.516-14.766 57.188-47.109 115.03-82.594 162.84-34.828 46.969-73.453 85.219-102.56 103.88 0.375 14.156-3.5625 27.328-14.016 37.922-0.1875 0.1875-0.375 0.375-0.5625 0.51562-29.391 24.75-100.17 50.438-183.1 23.297-82.031-26.859-174.52-104.91-251.11-283.03-18.234 6.2344-36.609 3.4688-53.203-5.0625-18.938-9.75-35.766-27-48.75-47.25-12.984-20.297-22.5-44.203-26.344-67.969-3.4688-21.234-2.5312-42.844 4.9688-61.734-14.812-12.609-26.203-30.516-34.219-50.438-9-22.406-13.969-47.953-14.578-72.844-0.5625-24.891 3.2344-49.547 12.141-70.078 7.7812-17.812 19.594-32.859 36.141-41.719-19.078-51.984 0.32812-108.89 39.797-138.24 20.953-15.562 47.578-23.344 76.828-18.562 25.172 4.1719 51.703 17.578 77.953 42.375 5.1562-18.094 17.156-34.688 30.188-48.328 16.312-17.109 35.578-30.938 49.547-39.188 5.2031-18.984 16.219-45.516 33.797-68.016 18.75-24 45.844-44.391 81.938-44.391 35.391 0 63.75 16.594 84.516 36.656 19.172 18.469 32.391 40.312 39.328 56.344 28.781 10.453 77.672 36.328 106.83 76.922zm-50.859 763.69c25.922-18.469 59.859-52.641 91.359-95.109 36-48.516 68.062-106.78 81.234-162.94 0.89062-3.9375 4.4062-6.7031 8.4375-6.7031 32.906 0 68.719-19.641 89.812-50.25 20.812-30.094 27.141-70.547 1.9688-112.97-2.2969-3.7969-1.3125-8.7188 2.2031-11.391 7.2656-5.4844 16.688-18.703 25.266-37.547 8.3906-18.516 15.469-41.391 18.75-65.016 6.5625-47.766-2.625-95.531-43.266-120.19-2.7188-1.6406-4.3125-4.6875-4.1719-7.875 2.2031-44.391-6.0938-75.469-19.5-96.328-13.312-20.672-32.062-31.969-52.453-36.094-41.672-8.3906-89.859 12.938-110.44 46.219-1.3594 2.2031-3.6562 3.7031-6.1875 4.0312-12.141 1.6875-23.297 3.9844-33.516 6.8438-59.578 16.453-88.922 51.047-101.91 87.75-13.219 37.266-9.7031 77.391-1.7812 104.11 1.3125 4.3594-0.98438 9-5.25 10.594-17.062 6.4688-48.656 23.672-68.438 48.844-5.8594 7.5-10.594 15.516-13.641 24.094 21.562 37.641 21.703 77.719 18.562 115.83-0.75 8.7656-1.5938 17.156-2.4844 25.406-1.125 10.875-2.2031 21.516-2.9531 32.484-1.2188 18.797-1.125 36.656 2.2031 53.625 4.3594 21.844 17.203 47.812 33.891 75.938 9.4219 15.938 19.641 31.875 29.859 47.812 6 9.375 12 18.75 17.859 28.172 13.359-14.156 26.156-32.062 38.391-52.781 7.6875-62.016-8.625-150.61-19.688-195.71-1.125-4.6875 1.7344-9.375 6.375-10.547 4.6875-1.125 9.375 1.7344 10.547 6.375 9.0469 36.938 22.031 104.44 22.125 163.6 20.016-41.016 37.594-88.406 52.406-136.69 7.3594-24 14.016-48.141 19.922-71.719 0.84375-16.172 0-43.312-5.3906-72.609-5.4375-29.859-15.469-61.125-32.484-85.219-2.7656-3.9375-1.8281-9.375 2.1094-12.141s9.3281-1.8281 12.094 2.1094c19.078 26.953 29.719 61.031 35.391 92.109 0.89062 4.7812 1.6406 9.5625 2.2969 14.203 12.234-59.438 18.703-109.92 18.703-137.81 0-4.7812 3.8906-8.6719 8.7188-8.6719 4.7812 0 8.6719 3.8906 8.6719 8.6719 0 39.094-11.766 117.61-33.047 202.74-4.5 18.094-9.4688 36.516-14.859 54.984 15.938-7.7812 35.297-18.375 53.719-30.75 26.203-17.578 49.125-37.828 58.875-57.516 2.1562-4.3125 7.3594-6.0938 11.672-3.9375 4.3125 2.1094 6.0469 7.3594 3.9375 11.625-11.906 24.094-38.203 46.406-64.781 64.266-25.172 16.875-51.797 30.516-70.125 38.625-19.219 61.922-43.172 123.05-71.297 171.24-13.828 23.719-28.781 44.531-44.859 60.891 9 14.953 17.203 29.672 23.625 43.641 5.0156 10.828 9.0469 21.469 11.531 31.688zm-519.66-743.53c-35.203 26.156-51.938 78.797-31.078 125.11 0.98437 2.2031 0.98437 4.6875 0.09375 6.8906-0.9375 2.25-2.7188 3.9844-4.9688 4.8281-15.234 5.7656-26.766 18.469-34.453 36.094-7.6875 17.672-11.203 39.703-10.688 62.719 0.5625 22.969 5.1562 46.453 13.359 66.797 8.2031 20.391 19.734 37.078 33.797 47.203 3.4219 2.4844 4.5938 7.0781 2.7188 10.922-8.0156 16.125-9.75 36.375-6.2812 57.703 3.4688 21.281 12.047 42.984 23.859 61.406 11.812 18.516 26.578 33.188 42 41.156 15.234 7.7812 30.844 9.0469 45.984 1.4062 2.1094-1.125 4.6406-1.2656 6.8906-0.42188 2.2969 0.84375 4.0781 2.5781 5.0156 4.7812 76.078 180.98 167.06 256.08 243.89 281.26 58.688 19.219 110.06 9.7031 142.18-5.1562-31.406-3.75-62.344-17.484-91.922-38.25-39.188-27.469-76.641-67.594-110.67-114.7-0.42187-0.51562-0.79687-1.0781-1.1719-1.6406-33.75-46.969-64.266-101.02-89.906-156.94-4.2656-8.625-12.188-16.5-23.531-24.562-10.125-7.2188-22.219-14.062-35.578-21.656-1.5938-0.89062-3.1875-1.8281-4.8281-2.7188-30.047-17.062-64.875-37.688-88.688-71.391-2.7656-3.8906-1.8281-9.3281 2.1094-12.094 3.8906-2.7656 9.3281-1.8281 12.094 2.0625 21.328 30.141 52.828 49.125 83.062 66.281 1.6406 0.9375 3.2344 1.8281 4.875 2.7656 11.297 6.375 22.406 12.703 32.203 19.219-8.4844-20.719-16.266-41.531-23.25-62.203-23.484-69.516-38.156-137.48-40.5-193.97-0.1875-4.7812 3.5156-8.8125 8.3438-9.0469 4.7812-0.1875 8.8594 3.5625 9.0469 8.3438 1.7812 43.453 11.203 94.547 26.812 148.31 1.5938-11.859 3.7031-24.609 6.4219-37.547 6.5156-31.312 16.641-64.547 32.016-87.844 2.625-3.9844 8.0156-5.1094 12.047-2.4375 3.9844 2.625 5.1094 8.0156 2.4375 12.047-13.5 20.438-23.062 51.047-29.484 81.797-6.1875 29.578-9.1875 58.359-10.125 76.312 11.438 33.609 24.984 67.641 40.266 101.02 17.25 37.5 36.656 74.109 57.703 108.19-2.0156-15.375-3.0938-32.344-3.2344-49.5-0.1875-22.453 1.2188-45.422 4.4531-65.812 3.1875-20.203 8.2969-38.672 15.938-51.469 2.4375-4.125 7.7812-5.4844 11.906-3.0469s5.4844 7.7812 3.0469 11.906c-5.9531 9.9844-10.641 25.828-13.688 45.328-3.0938 19.266-4.4531 41.25-4.2656 62.953 0.1875 21.656 1.9219 42.75 5.0625 60.234 3 16.781 7.125 29.016 11.438 35.438 0.32813 0.46875 0.65625 0.9375 0.98438 1.4062 33.375 46.172 69.516 84.703 106.64 110.72 36 25.266 72.328 38.297 107.72 35.906 5.6719-6.9844 7.7812-15.891 6.6562-27.234-1.125-11.391-5.4844-24.703-12.375-39.703-6.8906-14.953-16.031-31.031-26.297-47.812-7.2188-11.766-15.141-24.141-23.109-36.656-10.547-16.406-21.188-33.094-30.609-48.938-16.734-28.266-30.984-56.438-35.953-81.422-3.75-19.125-3.75-38.719-2.4844-58.125 0.70312-10.969 1.9219-22.5 3.0938-33.844 0.84375-8.2969 1.6875-16.5 2.3438-24.328 3.1875-38.578 2.4375-75.141-18.141-108.89-10.875-17.859-27.656-35.344-53.156-51.938-2.7188-1.7812-4.2188-4.875-3.9375-8.0625 4.3125-48-10.828-98.25-38.766-134.11-27.891-35.719-67.688-56.484-113.39-48.094-2.9062 0.51563-5.9531-0.46875-7.9688-2.6719-28.359-30.891-56.016-45.609-80.438-49.594-24.281-4.0312-46.172 2.3906-63.562 15.328z" fill-rule="evenodd"/>
</svg>
