<?xml version="1.0" encoding="UTF-8"?>
<svg width="1200pt" height="1200pt" version="1.1" viewBox="0 0 1200 1200" xmlns="http://www.w3.org/2000/svg">
 <g>
  <path d="m206.34 1036.3c-37.594 0-72.938-14.672-99.469-41.344-26.531-26.438-41.203-61.734-41.203-99.328 0-31.875 10.547-62.156 30.047-86.766-67.078-172.69-5.3906-393.66 157.08-556.13 162.52-162.47 383.48-224.26 556.13-157.13 24.469-19.406 54.797-30.047 86.812-30.047 37.594 0 72.891 14.672 99.422 41.344 26.578 26.438 41.25 61.734 41.25 99.328 0 31.875-10.547 62.109-30 86.766 36.234 93.75 34.969 205.26-4.0312 316.26-5.1562 14.672-21.188 22.359-35.859 17.203-14.672-5.1094-22.359-21.188-17.203-35.812 36.609-104.3 36.094-207.94-1.4531-291.94-5.2031-11.672-1.875-25.266 7.8281-33.234 15.844-16.031 24.469-36.984 24.469-59.25 0-22.5-8.8125-43.641-24.797-59.578-15.984-16.031-37.125-24.844-59.625-24.844s-43.641 8.8125-59.578 24.797c-8.25 8.25-22.453 12.281-33.094 7.5-151.36-67.594-361.31-10.781-510.47 138.37-149.16 149.16-206.06 359.06-138.37 510.47 4.7344 10.688 2.4375 23.156-5.8125 31.359l-2.0156 2.0156c-15.703 15.656-24.469 36.797-24.469 59.297s8.7656 43.641 24.75 59.578c15.984 16.078 37.125 24.844 59.672 24.844 22.359 0 43.359-8.6719 59.203-24.422 7.9688-9.75 21.562-13.031 33.234-7.875 78.047 34.734 174.32 37.641 271.13 8.1562 14.906-4.5938 30.609 3.8438 35.109 18.703 4.5469 14.859-3.8438 30.562-18.703 35.109-102.89 31.359-206.21 29.953-293.21-3.4688-24.562 19.453-54.844 30.047-86.766 30.047zm58.688-80.016c-0.375 0.51562-0.79688 1.0781-1.1719 1.6406 0.375-0.5625 0.79688-1.125 1.1719-1.6406z"/>
  <path d="m460.5 328.13c-8.9531 0-17.719-4.2188-23.156-12.141-8.8594-12.75-5.6719-30.281 7.0781-39.141 87.328-60.422 180.94-88.078 270.71-79.875 15.469 1.4062 26.859 15.094 25.453 30.562-1.4062 15.516-15.188 26.719-30.562 25.453-77.625-7.0781-156.14 16.547-233.53 70.125-4.9219 3.375-10.5 5.0156-15.984 5.0156z"/>
  <path d="m356.34 421.82c-6.1875 0-12.422-2.0156-17.578-6.1406-12.094-9.7031-14.062-27.375-4.4062-39.516 0.32812-0.375 7.4531-9.2812 20.391-22.828 10.734-11.203 28.547-11.625 39.797-0.84375 11.203 10.734 11.578 28.547 0.84375 39.75-10.781 11.25-16.734 18.609-17.109 19.078-5.5312 6.8906-13.734 10.5-21.938 10.5z"/>
  <path d="m964.64 856.78c11.344-36.75 9.7031-77.625-8.0625-115.03l-21.469-45.234-120.84 57.375z"/>
  <path d="m669.32 878.11c17.203 36.281 46.875 63.938 83.812 78.938l15.562-181.55-120.84 57.375z"/>
  <path d="m1103.5 678.79-12.047-25.406c-3.1875-6.75-8.9531-11.906-15.984-14.438-7.0312-2.4844-14.766-2.1094-21.516 1.0781l-68.062 32.344 21.469 45.234c24.656 51.938 27.609 110.34 8.3438 164.53s-58.5 97.594-110.44 122.26c-29.344 13.922-60.703 20.906-92.203 20.906-24.328 0-48.75-4.1719-72.375-12.562-54.141-19.312-97.547-58.547-122.21-110.48l-21.516-45.234-68.062 32.344c-6.75 3.1875-11.953 8.9531-14.438 15.984s-2.1094 14.766 1.0781 21.469l12.094 25.406c36.516 76.922 100.78 135 180.98 163.6 34.969 12.422 71.109 18.609 107.16 18.609 46.641 0 93.094-10.359 136.5-30.984 158.76-75.375 226.6-265.87 151.22-424.64z"/>
  <path d="m881.16 953.58c23.344-11.109 42.656-27.281 57.422-46.453l-117.8-80.625-12.188 142.36c24.75 0.70312 49.5-4.3125 72.562-15.281z"/>
 </g>
</svg>
