<?xml version="1.0" encoding="UTF-8"?>
<svg width="1200pt" height="1200pt" version="1.1" viewBox="0 0 1200 1200" xmlns="http://www.w3.org/2000/svg">
 <path d="m846.14 44.438h-492.28c-12.281 0-22.219 9.9375-22.219 22.219v77.297l-107.48 241.87s-0.046874 0.14062-0.046874 0.23438c-0.09375 0.1875-0.09375 0.42188-0.1875 0.65625-0.9375 2.3438-1.3594 4.7812-1.4531 7.2188 0 0.32812-0.1875 0.60938-0.1875 0.89062v738.42c0 12.281 9.9375 22.219 22.219 22.219h711.1c12.281 0 22.219-9.9375 22.219-22.219l-0.046875-738.37c0-0.32812-0.1875-0.60938-0.1875-0.89062-0.09375-2.4375-0.51562-4.875-1.4531-7.2188-0.09375-0.23438-0.09375-0.46875-0.1875-0.65625 0-0.046875-0.046875-0.14062-0.046875-0.23438l-107.48-241.87v-77.297c0-12.281-9.9375-22.219-22.219-22.219zm-470.11 44.438h447.84v37.594h-447.84zm-7.7812 82.031h443.68l-89.625 201.71-443.68 0.046875 89.625-201.71zm94.969 246.14h251.29v55.453c-33.188 9.4688-63.703 20.625-93.141 31.641-101.86 38.016-190.45 70.734-354.71 11.156v-98.25h196.6zm-196.6 145.5c64.125 21.75 117.89 30.188 165.47 30.188 78.844 0 140.76-23.109 204.79-46.969 24.891-9.2812 50.859-18.375 77.625-26.578v348c-6.0938 3.4219-12 6.6562-18.516 10.312-36.562 20.578-78 43.922-132.42 68.062-72.609 32.297-136.64 37.359-190.18 15.094-68.062-28.266-100.08-93.375-106.83-108.66v-289.45zm492.32-55.125c82.734-17.062 133.08-17.109 174.37 19.453v317.76c-71.25-35.578-120.42-26.391-174.37-0.79688zm174.37-35.25c-50.859-27.984-109.59-23.156-174.37-10.266v-44.906h174.37zm-666.66 462.32c20.812 24.797 49.875 50.484 89.203 66.984 27.516 11.531 56.953 17.297 88.125 17.297 42.797 0 88.828-10.875 137.72-32.578 54.656-24.281 97.828-48.422 132.84-68.109v192.94l-447.89 0.046875zm492.32 176.53v-217.45c63.656-33.469 102-41.484 174.37 1.6875v215.76zm12-738.42 75.188-169.22 75.188 169.22h-150.42zm-398.58 430.82c-3.6562 8.9531-5.7656 18.703-5.7656 28.969 0 42.422 34.5 76.922 76.922 76.922h82.031c42.422 0 76.922-34.5 76.922-76.922 0-10.453-2.1562-20.438-5.9531-29.531 22.312-5.8594 39.844-22.453 42.328-24.938 4.1719-4.1719 6.5156-9.7969 6.5156-15.703 0-33.844-23.391-52.172-48.656-61.125 2.3906-2.3906 4.5938-5.1094 6.5156-8.2031 10.219-16.5 9.1406-37.359-3.0938-61.875-5.4844-10.969-18.844-15.375-29.812-9.9375-10.969 5.4844-15.422 18.844-9.9375 29.812 6.0469 12.141 5.5312 17.906 5.0625 18.656-0.9375 1.5938-7.4062 3.7969-12.75 3.8906-2.2031 0-4.1719 0.70312-6.1875 1.2656-16.219-17.625-37.969-28.641-61.969-28.641s-45.75 11.016-61.969 28.641c-2.0625-0.60938-4.125-1.2656-6.4219-1.2656-4.0781 0-11.391-2.0625-12.516-3.8906-0.46875-0.75-1.0312-6.4688 5.0625-18.656 5.4844-10.969 1.0312-24.328-9.9375-29.812-10.969-5.4375-24.375-1.0312-29.812 9.9375-12.281 24.516-13.312 45.375-3.0938 61.875 1.7812 2.9062 3.8438 5.4375 6.0469 7.6875-25.875 8.7656-50.25 27.094-50.25 61.688 0 5.9062 2.3438 11.578 6.5156 15.703 2.5312 2.5312 21 20.156 44.203 25.453zm153.24 61.453h-82.031c-17.906 0-32.484-14.578-32.484-32.484s14.578-32.484 32.484-32.484h82.031c17.906 0 32.484 14.578 32.484 32.484s-14.578 32.484-32.484 32.484zm55.266-104.3c-2.2969-0.42188-4.5-3.2344-6.0469-5.8594 0.046875-1.4531 0.375-2.8594 0.375-4.3594 0-3.2344-0.5625-6.2812-0.84375-9.4219 9.4219 2.1562 19.5 6 24.047 12.891-6.1875 4.1719-12.984 7.5-17.578 6.7969zm-96.281-70.031c25.453 0 46.125 26.859 46.125 59.812 0 1.9219-0.32812 3.7031-0.46875 5.5781-1.5938-0.09375-3.0469-0.46875-4.6875-0.46875h-82.031c-1.5938 0-3.0938 0.375-4.6875 0.46875-0.14062-1.875-0.46875-3.7031-0.46875-5.5781 0-33 20.719-59.812 46.172-59.812zm-89.719 49.875c-0.28125 3.3281-0.84375 6.5625-0.84375 9.9375 0 0.42188 0.09375 0.84375 0.09375 1.2656-0.14062 0.23438-0.42188 0.42188-0.51562 0.65625-1.4062 2.8594-4.2656 7.7344-7.3594 8.25-4.0781 0.75-11.344-2.5781-17.531-6.75 4.9219-7.4062 16.219-11.344 26.203-13.406z"/>
</svg>
