<?xml version="1.0" encoding="UTF-8"?>
<svg width="1200pt" height="1200pt" version="1.1" viewBox="0 0 1200 1200" xmlns="http://www.w3.org/2000/svg">
 <path d="m754.92 1011.8c-25.219-78.938-26.719-180.28-24.281-245.72 70.641 19.078 171.71-9.2812 240.94-69.141 69.562-60.141 97.922-141.79 79.781-230.06-19.219-93.703-72.797-170.44-154.64-221.58-72.422-45.422-165.28-69.938-268.36-71.203-14.203-0.14063-28.5-0.42188-42.562-0.79688-103.08-3-196.78 17.859-271.08 60.281-84 47.859-140.44 122.29-163.5 215.21-21.703 87.422 3.2812 170.21 70.359 233.06 13.219 12.422 27.797 23.719 43.359 33.703 62.062 39.938 137.44 58.219 194.58 45.281-0.28125 65.578-6 167.06-34.5 245.06-9.7969 27 0.5625 56.297 23.859 71.297 3.1406 2.0625 6.4219 3.7031 9.9375 5.2031 81.703 33.422 168.42 35.203 258 5.0625 30.891-10.734 48.047-44.531 38.109-75.656zm-250.78 3.8438c39.281-122.44 34.219-277.08 32.203-317.58 1.6406-4.3594 2.8594-9 3.9375-13.781 12.141-59.203-6.9375-93.141-25.078-111.28-46.781-46.641-128.29-31.219-137.44-29.297-21.141 4.3594-34.781 25.219-30.422 46.359s25.078 34.781 46.219 30.281c19.641-3.9375 54.141-4.0781 66.281 8.0625 8.5781 8.5781 6 28.781 3.7031 39.938-0.70312 3.1406-2.0625 9.7031-16.359 14.203-39.703 12.562-118.36-7.7812-172.08-58.219-32.203-30.141-66.562-81.938-47.859-157.08 34.922-140.58 168.14-221.44 356.29-216 14.438 0.42188 29.297 0.70312 43.922 0.9375 188.29 2.2031 318.14 88.359 347.21 230.29 15.562 75.938-20.859 126.14-54.281 155.06-55.781 48.281-135.14 65.438-174.28 51.281-14.203-5.2031-15.281-11.719-15.797-14.859-1.9219-11.297-3.7031-31.5 5.2969-39.797 12.562-11.719 47.203-10.078 66.422-5.4375 21 5.2969 42.281-7.3594 47.578-28.359 5.2969-21-7.5-42.281-28.359-47.578-9-2.2969-89.859-21-138.56 23.719-18.938 17.297-39.422 50.578-29.578 110.2 0.79687 4.7812 1.9219 9.4219 3.2812 13.922-3.7969 40.219-15 193.92 18.938 317.58-60.188 17.062-116.53 16.219-171.19-2.5781z"/>
</svg>
