<?xml version="1.0" encoding="UTF-8"?>
<svg width="1200pt" height="1200pt" version="1.1" viewBox="0 0 1200 1200" xmlns="http://www.w3.org/2000/svg">
 <g>
  <path d="m870.14 718.45c-87.703-127.78-106.69-169.31-92.062-284.63 10.688-84.234-5.8594-238.55-95.531-318.71-57.609-51.469-135.61-65.766-231.71-42.375-78 18.938-131.63 63.703-155.16 129.14-36.703 102.61 7.2188 240.14 69.469 323.06 73.312 97.453 68.391 180.84 63.609 261.37-1.0781 19.078-2.2969 38.766-2.2969 57.938 0 65.531 11.391 185.29 88.078 250.45 33.938 28.922 76.688 43.312 127.55 43.312 15.938 0 32.625-1.4531 50.062-4.3125 96.469-15.703 168.71-69 203.29-150.14 36.469-85.453 26.531-189.47-25.453-265.22zm3.4688 255.84c-31.312 73.219-97.078 121.45-185.16 135.84-66 10.781-119.3-0.60937-158.16-33.703-71.859-61.078-79.688-182.76-79.688-232.22 0-18.469 1.0781-36.938 2.2969-56.531 4.7812-81 10.219-172.69-68.391-277.22-58.453-77.766-99.938-205.92-66.141-300.47 20.859-58.312 67.312-96.703 138.24-113.86 27.844-6.8438 54-10.219 78.375-10.219 52.453 0 96.469 15.703 131.63 47.156 82.781 73.922 97.781 218.63 87.703 297.71-15.938 125.53 10.312 176.39 96 301.22 46.688 68.062 56.062 165.37 23.156 242.29z"/>
  <path d="m819.37 823.22-36.844 4.3125c-4.7812-15.703-10.219-31.688-16.078-47.766l25.781-3.1406c6.6094-0.84375 11.297-6.8438 10.453-13.312-0.84375-6.6094-6.7031-11.297-13.312-10.453l-31.547 3.8438c-18.469-47.625-39.844-95.062-58.453-136.22-8.0625-17.859-15.609-34.547-22.078-49.453-19.922-45.703-19.453-109.08-19.078-170.53 0.23438-31.219 0.23438-61.547-2.0625-89.859l41.156-13.453c6.2344-2.0625 9.7031-8.8594 7.6875-15.141-2.0625-6.2344-8.7656-9.7031-15.141-7.6875l-36.375 11.859c-3.375-23.625-9.1406-45.375-19.078-64.078-3.1406-5.8594-10.312-8.0625-16.219-4.9219-5.8594 3.1406-8.0625 10.453-4.9219 16.219 9 16.922 14.062 37.547 17.062 60.375l-52.688 17.156c-6.2344 2.0625-9.7031 8.8594-7.6875 15.141 1.6875 5.0625 6.375 8.2969 11.391 8.2969 1.2188 0 2.5312-0.23438 3.7031-0.60938l47.625-15.469c1.6875 25.688 1.6875 53.391 1.4531 81.938-0.375 63.844-0.70312 129.84 21.141 180.24 6.4688 15 14.156 31.781 22.219 49.781 17.766 39.234 38.062 84.234 55.781 129.37l-27.375 3.375c-6.6094 0.84375-11.297 6.8438-10.453 13.312 0.70312 6.1406 5.8594 10.547 11.859 10.547h1.4531l33.375-4.0781c6 16.078 11.531 32.062 16.453 47.625l-93.703 11.062c-6.6094 0.70312-11.297 6.7031-10.547 13.312 0.70312 6.1406 5.8594 10.547 11.859 10.547h1.4531l97.781-11.531c9.4688 34.688 14.859 66.938 13.219 93.469-0.375 6.6094 4.6875 12.234 11.297 12.703h0.70312c6.2344 0 11.625-4.9219 12-11.297 1.6875-28.312-3.7031-61.922-13.219-97.781l33-3.9375c6.6094-0.70312 11.297-6.7031 10.547-13.312-0.70312-6.6094-6.8438-11.156-13.312-10.547z"/>
  <path d="m621.24 722.63-59.531 12.375c-6.2344-100.92-38.297-193.69-69-271.69l30.609-7.0781c6.4688-1.4531 10.453-7.9219 9-14.391-1.5469-6.4688-8.0625-10.453-14.391-9l-34.078 7.9219c-2.7656-6.8438-5.5312-13.547-8.1562-20.062-6.7031-16.453-13.078-32.297-18.844-47.297l30.844-8.8594c6.375-1.7812 10.078-8.5312 8.2969-14.859-1.7812-6.375-8.5312-10.078-14.859-8.2969l-32.625 9.375c-11.297-31.312-18.844-58.688-18.844-80.297 0-6.6094-5.3906-12-12-12s-12 5.3906-12 12c0 24.703 7.7812 53.531 19.688 86.859l-50.391 14.531c-6.375 1.7812-10.078 8.5312-8.2969 14.859 1.5469 5.2969 6.375 8.625 11.531 8.625 1.0781 0 2.1562-0.14062 3.375-0.46875l52.219-15c6 15.609 12.703 32.156 19.781 49.688 2.1562 5.3906 4.4531 10.922 6.7031 16.547l-21.141 4.9219c-6.4688 1.4531-10.453 7.9219-9 14.391 1.3125 5.5312 6.2344 9.2344 11.625 9.2344 0.9375 0 1.7812 0 2.7656-0.375l24.609-5.7656c30.844 77.859 63.234 170.76 68.859 271.08l-19.781 4.0781c-6.4688 1.3125-10.688 7.6875-9.375 14.156 1.2188 5.625 6.1406 9.6094 11.766 9.6094 0.84375 0 1.6875 0 2.3906-0.23438l15.703-3.2344c0.46875 37.219-2.8594 75.234-11.625 114-1.4531 6.4688 2.5312 12.844 9 14.391 0.84375 0.23438 1.7812 0.23438 2.625 0.23438 5.5312 0 10.453-3.7031 11.625-9.375 9.7031-42.375 13.078-83.859 12.375-124.31l63.375-13.078c6.4688-1.3125 10.688-7.6875 9.375-14.156s-7.7812-10.688-14.156-9.375z"/>
 </g>
</svg>
