<?xml version="1.0" encoding="UTF-8"?>
<svg width="1200pt" height="1200pt" version="1.1" viewBox="0 0 1200 1200" xmlns="http://www.w3.org/2000/svg">
 <path d="m934.36 526.5c-36.328-35.25-75.234-67.828-113.34-101.2-44.438-38.906-83.578-81.938-108.14-136.45-13.547-30-21.188-61.359-21.047-94.547 0.14062-33.797 0.75-67.641-0.89062-101.34-0.375-8.625-6.75-20.625-13.828-24.141-5.7656-2.8594-18.938 2.2969-24.844 7.9688-16.828 16.125-32.109 33.844-49.359 52.922-2.9531 3.2344-8.0156 3.2344-10.969 0-17.297-19.078-32.578-36.797-49.406-52.922-5.9062-5.7188-19.078-10.875-24.844-7.9688-7.0781 3.5156-13.406 15.516-13.828 24.141-1.6406 33.703-1.0312 67.547-0.89062 101.34 0.14062 33.188-7.5469 64.547-21.094 94.547-24.609 54.516-63.703 97.594-108.14 136.45-38.109 33.375-77.016 65.953-113.3 101.2-66.141 64.219-97.828 142.82-95.203 235.78 3.6094 125.53 101.2 244.22 224.39 268.26 28.5 5.625 57.938 6.4219 88.641 9.6094-9.0469 12.562-18.562 24.094-26.203 36.797-7.4062 12.469-7.5938 25.641 5.0156 35.672 11.25 8.9531 26.297 6.4219 36.891-5.625 5.1562-5.9062 9.75-12.281 14.672-18.375 9.9375-12.328 19.922-24.703 32.062-39.75 13.312 25.453 24.047 47.719 36.562 68.906 9.1406 15.141 31.078 15.141 40.219 0 12.516-21.188 23.203-43.453 36.562-68.906 12.141 15 22.125 27.375 32.062 39.75 4.875 6.1406 9.4688 12.469 14.672 18.375 10.594 12.047 25.641 14.578 36.891 5.625 12.609-10.031 12.469-23.203 5.0156-35.672-7.5938-12.75-17.156-24.281-26.203-36.797 30.703-3.1875 60.141-4.0312 88.641-9.6094 123.19-24.094 220.82-142.74 224.39-268.26 2.6719-92.953-29.062-171.56-95.156-235.78zm-531.24 451.22c-88.219-14.344-165.66-97.031-180-188.21-13.969-88.828 14.062-163.08 76.688-225.19 27.328-27.188 56.672-52.453 85.641-77.953 48.234-42.562 98.062-83.578 130.97-140.9-1.5469 41.906-14.578 80.062-36.75 114.98-18.75 29.531-40.078 57.469-57.938 87.469-63.609 106.55-73.969 217.4-16.969 329.29 18.797 36.984 48.281 68.531 74.812 105.23-25.125-1.4062-51.188-0.60938-76.453-4.7344zm194.26 70.266c-28.5-61.828-75.797-103.55-115.55-151.31-71.438-85.969-76.547-181.82-34.969-281.72 12.141-29.203 28.969-57.375 48.234-82.547 60.375-78.75 81.188-166.22 67.922-263.9-4.0312-29.906-0.60938-60.844-0.60938-88.359 10.406 6.1875 22.922 19.359 34.969 19.594 12.047-0.23438 24.562-13.453 34.969-19.594 0 27.516 3.4219 58.453-0.65625 88.359-13.219 97.688 7.5938 185.16 67.969 263.9 19.266 25.125 36.047 53.344 48.234 82.547 41.578 99.891 36.469 195.74-34.969 281.72-39.75 47.812-87.047 89.484-115.55 151.31zm374.26-258.47c-14.391 91.172-91.781 173.81-180 188.21-25.266 4.125-51.328 3.3281-76.406 4.7812 26.531-36.75 56.016-68.297 74.812-105.23 57-111.89 46.594-222.74-16.969-329.29-17.906-30-39.234-57.984-57.938-87.469-22.172-34.922-35.156-73.078-36.75-114.98 32.906 57.328 82.734 98.344 130.97 140.9 28.922 25.547 58.266 50.812 85.594 77.953 62.625 62.062 90.656 136.36 76.688 225.14z"/>
</svg>
