<?xml version="1.0" encoding="UTF-8"?>
<svg width="1200pt" height="1200pt" version="1.1" viewBox="0 0 1200 1200" xmlns="http://www.w3.org/2000/svg">
 <g>
  <path d="m763.09 163.09c-211.94 0-388.49 150.95-428.41 351.11l523.01 209.87 38.008 15.188-15.27 37.965c-43.816 109.08-123.86 194.77-223.11 246.3 33.859 8.4219 69.211 13.402 105.72 13.402 241.32 0 436.91-195.59 436.91-436.91 0.042969-241.32-195.55-436.91-436.87-436.91zm0.042968 56.098c25.309 0 45.809 11.203 45.809 25.02 0 13.859-20.496 25.062-45.809 25.062-25.352 0-45.891-11.203-45.891-25.062-0.042969-13.859 20.496-25.02 45.891-25.02zm-108.96 117.46c-30.621 0-55.434-13.527-55.434-30.246 0-16.723 24.812-30.207 55.434-30.207 30.578 0 55.391 13.484 55.391 30.207 0 16.719-24.809 30.246-55.391 30.246zm108.96 58.297c-26.637 0-48.172-11.742-48.172-26.266 0-14.523 21.574-26.266 48.172-26.266 26.555 0 48.133 11.742 48.133 26.266-0.003907 14.523-21.621 26.266-48.133 26.266zm108.91-58.297c-30.621 0-55.434-13.527-55.434-30.246 0-16.723 24.812-30.207 55.434-30.207 30.578 0 55.391 13.484 55.391 30.207 0.003906 16.719-24.809 30.246-55.391 30.246z"/>
  <path d="m842.54 761.98-811.01-325.34c-89.789 223.93 18.797 478.28 242.81 568.16 53.277 21.41 108.38 31.535 162.53 31.535 173.27-0.003907 337.16-103.73 405.67-274.35zm-733.29-48.418c-11.535-5.6836-20.082-16.098-23.402-28.504-15.312-56.387-13.691-115.52 8.5078-170.91l250.66 100.62c3.6523 1.4922 6.0586 4.9805 6.0586 8.9219 0 3.9414-2.3633 7.4688-6.0156 8.9609l-198.96 82.113c-11.91 4.8125-25.312 4.3945-36.848-1.2031zm169.08 179.2c-12.656 4.0664-26.512 2.3242-37.715-4.7734-30.332-19.293-57.219-42.031-79.871-67.301-9.75-10.789-13.566-25.684-10.375-39.875 3.2383-14.191 13.152-25.891 26.598-31.453l190.08-78.422c3.6094-1.4922 7.7188-0.66406 10.457 2.0742 2.7812 2.6953 3.6523 6.8867 2.2422 10.457l-73.566 183.27c-4.9883 12.41-15.152 21.871-27.848 26.02zm240.98 35.766c-7.4258 12.531-20.457 20.582-34.977 21.66-34.023 2.6133-69.332 0.58203-104.77-6.5156-13.07-2.6133-24.273-10.914-30.621-22.656-6.3086-11.699-7.1367-25.641-2.1562-38.008l73.816-184.02c1.4102-3.6094 4.8555-6.0156 8.7969-6.0586 3.8594-0.042969 7.4258 2.1992 9.0039 5.7656l83.441 188.75c5.8906 13.285 4.9336 28.637-2.5352 41.082zm112.86-24.812c-11.035 6.6797-24.438 8.2148-36.68 4.3164-12.324-3.8164-22.324-12.82-27.508-24.562l-86.887-196.3c-1.5781-3.6094-0.87109-7.8008 1.8672-10.621 2.7383-2.7812 6.9297-3.6914 10.582-2.2422l250.03 100.33c-22.07 55.184-61.613 98.918-111.41 129.08z"/>
 </g>
</svg>
