<?xml version="1.0" encoding="UTF-8"?>
<svg width="1200pt" height="1200pt" version="1.1" viewBox="0 0 1200 1200" xmlns="http://www.w3.org/2000/svg">
 <g>
  <path d="m1169.5 721.26c-0.23828-0.32422-0.57422-0.50391-0.82812-0.79297-0.25391-0.30078-0.35938-0.67188-0.64844-0.94922l-57.07-55.848c-5.0625-26.809-11.676-50.832-19.055-65.762-13.957-28.234-30.289-31.008-41.508-28.391-0.011719 0-0.023438 0.011719-0.035157 0.011719-0.085937 0.011719-0.16797-0.011719-0.25391 0.011719-9.0352 2.3398-19.246 6.5391-30.359 12.504-19.02 10.176-37.402 29.148-46.645 51.406-2.0898-1.7148-4.4023-3.2383-6.9844-4.5117-16.246-8.0742-38.004-4.6094-66.434 10.621-19.043 10.211-37.465 29.258-46.691 51.602-2.0742-1.6914-4.3672-3.2031-6.9375-4.4766-16.246-8.0625-37.957-4.6094-66.406 10.621-19.223 10.273-37.789 29.555-46.922 52.129-1.9805-1.5859-4.1406-3.0234-6.5625-4.2344-16.246-8.1016-37.992-4.5859-66.445 10.621-19.031 10.211-37.465 29.258-46.68 51.574-2.0742-1.6914-4.3789-3.2031-6.9375-4.4648-16.246-8.0625-37.98-4.6211-66.422 10.633-11.473 6.1445-22.754 15.695-31.766 26.855-0.12109 0.15625-0.14453 0.33594-0.25391 0.50391-0.85156 1.0664-1.5234 2.3633-2.293 3.5508-38.027 11.496-61.152 28.609-68.426 50.977-5.4492 16.754-1.2852 35.09 11.711 51.602 0.22656 0.27734 0.5625 0.38281 0.80469 0.64844 0.30078 0.3125 0.44531 0.71875 0.78125 1.0078l60.996 52.668c8.543 25.176 19.246 47.426 30.492 61.766 12.086 15.434 23.195 19.645 31.727 19.645 4.1523 0 7.5703-1.043 10.32-2.2422 0.10938-0.035156 0.21484-0.011719 0.32422-0.058594l1.8594-0.74219c4.6094-1.8242 9.8281-3.8867 15.457-6.9102 19.043-10.211 37.465-29.258 46.691-51.574 2.0742 1.7031 4.3906 3.2148 6.9609 4.4883 5.6641 2.7969 11.988 4.2109 19.02 4.2109 13.176 0 28.848-4.9336 47.363-14.844 19.223-10.262 37.789-29.555 46.934-52.141 1.9805 1.5859 4.1406 3.0234 6.5508 4.2344 5.6758 2.8203 12.012 4.2461 19.066 4.2461 13.176 0 28.848-4.9336 47.375-14.855 19.043-10.211 37.465-29.258 46.691-51.562 2.0625 1.6914 4.3672 3.2031 6.9258 4.4648 5.6758 2.8086 12 4.2344 19.055 4.2344 13.176-0.011719 28.848-4.9336 47.375-14.855 18.996-10.188 37.391-29.172 46.633-51.422 2.0898 1.7148 4.4023 3.2383 6.9844 4.5117 5.6758 2.8086 12 4.2344 19.055 4.2344 13.176 0 28.848-4.9336 47.387-14.855 9.6133-5.1484 19.117-12.863 27.266-21.793 38.039-8.9141 61.68-24.098 70.02-45.266 6.4336-16.336 3.1328-35.141-9.2617-53.031zm-702.55 210.13c-5.3984-7.0938-10.754-17.531-7.1758-28.547 3.6016-11.051 15.805-21.156 35.027-29.27-4.043 24.422-1.4766 55.559 5.0742 86.258zm123.13 120.27c-4.4141 2.3633-8.7461 4.0938-12.949 5.7461l-1.9336 0.75781c-0.13281 0.058594-0.21484 0.16797-0.34766 0.22656-0.13281 0.058593-0.27734 0.046875-0.40625 0.10938-2.4961 1.2461-8.1836-2.9883-13.812-10.188-33.215-42.406-58.801-162.76-34.105-192.68 0.046875-0.058594 0.046875-0.13281 0.097657-0.17969 6.9492-8.6055 15.84-16.176 24.422-20.762 20.219-10.824 36-14.449 44.398-10.285 8.3047 4.1289 11.387 16.934 13.488 30.156v0.011718l20.797 130.89c4.4766 28.273-21.012 56.211-39.648 66.195zm120.06-57.746c-20.207 10.824-35.977 14.473-44.398 10.297-8.293-4.1172-11.387-16.934-13.512-30.168l-20.785-130.89c-4.4648-28.273 21-56.219 39.625-66.191 20.23-10.824 36.035-14.473 44.438-10.285 8.3047 4.1289 11.375 16.922 13.477 30.145v0.011719l20.785 130.92c4.457 28.305-21.004 56.207-39.629 66.164zm119.91-58.512c-20.219 10.824-36.012 14.496-44.426 10.273-8.3047-4.1289-11.387-16.922-13.488-30.145v-0.011719l-20.773-130.91c-4.5-28.262 20.977-56.195 39.613-66.168 20.219-10.824 36.012-14.449 44.41-10.285 8.3047 4.1289 11.387 16.934 13.488 30.156v0.011719l20.797 130.91c4.4922 28.25-20.996 56.184-39.621 66.168zm120.05-57.719c-20.219 10.824-35.953 14.473-44.426 10.285-8.3047-4.1406-11.398-16.934-13.5-30.156v-0.011719l-20.773-130.89c-4.4648-28.273 21-56.219 39.625-66.191 20.219-10.812 36.023-14.438 44.426-10.285 8.3047 4.1289 11.375 16.922 13.477 30.145v0.011719l11.641 73.188 7.9805 50.305v0.011719c0.097657 0.55078 0.21484 1.2617 0.3125 1.8711l0.875 5.543c4.4609 28.262-21.016 56.195-39.637 66.18zm120.06-57.539c-20.242 10.824-35.965 14.508-44.438 10.285-8.0273-3.9844-11.172-16.055-13.262-28.777l-9.2539-58.234-11.746-74.039c-4.5117-28.273 20.965-56.207 39.613-66.18 9.3242-4.9922 17.641-8.4492 24.77-10.32h0.011719c2.3516-0.49219 5.2422 1.4023 8.5938 5.7852 29.676 38.762 37.922 183.07 29.207 201.84-0.085938 0.085938-0.10938 0.20312-0.17969 0.27734-0.070312 0.070312-0.15625 0.097656-0.21484 0.16797-6.8164 8.0352-15.016 14.852-23.102 19.195zm86.293-54.719c-4.1289 10.488-17.113 19.523-37.066 26.219 2.8438-22.379 1.6211-55.262-2.3633-88.453l33.277 32.578c5.2617 7.8281 10.34 19.035 6.1523 29.656z"/>
  <path d="m448.39 642.52c0.070313 0 0.13281-0.035156 0.20312-0.035156 0.30078 0.046875 0.625 0.058593 0.9375 0.10938 21.312 22.344 41.543 33.758 60.266 33.758 2.3164 0 4.6094-0.17969 6.8867-0.51562 15.648-2.3867 28.645-13.066 36.602-30.059 0.14453-0.30078 0.10938-0.625 0.22656-0.92578 0.16797-0.42188 0.43359-0.78125 0.53906-1.2344l16.992-67.453c16.164-16.414 29.207-33.348 35.953-47.641 11.293-23.93 3.1211-36.012-3.3477-41.363-0.035157-0.035156-0.046876-0.085938-0.085938-0.12109l-1.3086-1.1641c-3.2383-2.8789-6.8984-6.1445-11.496-9.3594-15.109-10.668-36.551-17.578-57.254-16.535 0.27734-1.7656 0.57422-3.5156 0.5625-5.3984-0.085937-16.285-11.449-32.184-34.754-48.602-15.238-10.738-36.91-17.688-57.77-16.512 0.23828-1.6445 0.52734-3.2539 0.52734-5.0039-0.085937-16.285-11.449-32.195-34.754-48.602-15.109-10.656-36.562-17.566-57.254-16.535 0.27734-1.7656 0.57422-3.5156 0.5625-5.4102-0.085938-16.285-11.461-32.184-34.754-48.59-15.07-10.633-36.457-17.531-57.109-16.535 0.27734-1.7773 0.58984-3.5625 0.57422-5.4727-0.070313-16.297-11.449-32.195-34.754-48.613-7.7148-5.4492-17.398-9.8516-27.551-12.758-21.961-26.172-43.297-38.711-63.371-36.828-15.648 1.4141-29.375 11.594-38.664 28.633-0.19141 0.34766-0.19141 0.73047-0.33594 1.0938-0.15625 0.35938-0.43359 0.625-0.55078 0.99609l-20.797 65.207c-18.59 14.258-34.547 28.715-43.5 40.559-17.094 22.68-12.605 37.137-5.8125 45.273 0.011719 0.023438 0.046875 0.023438 0.058594 0.046875 0.046875 0.046875 0.046875 0.12109 0.097656 0.16797 5.3984 6.168 12.719 12.527 21.77 18.926 14.113 9.9492 33.758 16.656 53.16 16.656 1.332 0 2.6523-0.19141 3.9727-0.25391-0.30078 1.8242-0.60156 3.6602-0.58984 5.6172 0.070312 16.285 11.449 32.195 34.754 48.613 14.113 9.9492 33.758 16.645 53.148 16.645 1.3789 0 2.7461-0.20312 4.1172-0.26562-0.28906 1.8008-0.58984 3.6016-0.58984 5.5312 0.070312 16.285 11.438 32.195 34.754 48.625 14.113 9.9492 33.758 16.645 53.16 16.645 1.5586 0 3.0977-0.21484 4.6445-0.30078-0.25391 1.6914-0.55078 3.3594-0.53906 5.1602 0.070312 16.297 11.449 32.195 34.766 48.613 14.102 9.9492 33.742 16.656 53.137 16.656 1.3789 0 2.7461-0.20313 4.1289-0.26563-0.28906 1.8008-0.58984 3.6016-0.58984 5.5195 0.070313 16.297 11.438 32.195 34.754 48.625 9.3359 6.5898 21.312 11.699 33.742 14.398 0.83203 0.19531 1.6836 0.27734 2.5352 0.27734zm82.742-6.168c-3.2148 6.5898-8.832 14.34-18.07 15.758-8.9414 1.4414-20.363-3.457-32.953-13.715 18.852-6.4336 39.613-18.828 59.051-33.926zm-414.53-451.98c3.8281-6.7578 10.141-14.531 19.246-15.348 8.8203-0.79297 19.824 4.9688 31.766 16.379-17.449 6.4062-39.758 18.48-61.801 32.746zm-56.844 142.04c-7.4023-5.2188-13.211-10.246-17.34-14.93-1.1406-1.4023 0.42188-5.1602 1.1406-6.7188 17.039-36.645 124.91-99.32 143.64-100.7 0.046875 0.011718 0.097656 0 0.15625 0.011718 0.046875 0.011719 0.070312 0.046876 0.12109 0.058594 8.7227 2.1133 17.004 5.7227 23.305 10.176 21.336 15.035 24.562 24.695 24.574 29.113 0.035156 7.1875-8.0508 14.102-16.934 20.52l-45.086 32.387-48.742 35.016h-0.011719c-19.496 14.055-50.219 5.3555-64.82-4.9297zm91.281 70.609c-21.336-15.023-24.551-24.684-24.574-29.102-0.035156-7.3203 8.3633-14.363 17.449-20.891l43.441-31.211 44.578-32.016c0.23828-0.16797 0.53906-0.40625 0.79297-0.57422l4.5-3.2383c19.523-14.027 50.23-5.3398 64.824 4.957 21.336 15.012 24.551 24.672 24.574 29.09 0.035156 7.3086-8.3516 14.363-17.426 20.891l-93.324 67.031c-19.523 14.035-50.242 5.3477-64.836-4.9375zm91.43 70.535c-21.336-15.035-24.551-24.695-24.574-29.113-0.023438-7.3086 8.3633-14.352 17.438-20.867l93.336-67.043c19.523-14.027 50.219-5.3516 64.824 4.9453 21.336 15.035 24.551 24.684 24.574 29.102 0.035157 7.3203-8.3633 14.363-17.449 20.891 0 0 0 0.011719-0.011719 0.011719l-93.289 67.008s-0.011718 0-0.023437 0.011719c-19.523 14.039-50.234 5.3516-64.824-4.9453zm92.016 70.129c-21.348-15.035-24.574-24.695-24.59-29.113-0.035157-7.3086 8.3633-14.352 17.438-20.867l93.336-67.055c19.523-14.016 50.242-5.3281 64.836 4.957 21.324 15.023 24.551 24.684 24.574 29.102 0.035157 7.3086-8.3633 14.363-17.449 20.891 0 0 0 0.011719-0.011718 0.011719l-93.289 67.031c-19.566 14.016-50.238 5.3281-64.844-4.957zm66.852 41.426c-0.035156-7.3203 8.3633-14.352 17.449-20.867l93.312-67.031h0.011719c19.512-14.051 50.219-5.3516 64.836 4.9688 3.625 2.543 6.6133 5.2188 9.3359 7.6562l1.3672 1.2109c0.13281 0.12109 0.28906 0.15625 0.43359 0.25391 0.13281 0.10938 0.19141 0.26562 0.32422 0.37109 0.70703 1.1406 0.67188 9.7578-12.551 28.164-29.941 41.664-97.008 91.246-124.75 84.973-0.085938-0.023438-0.15625 0.011718-0.23828-0.011719-9.1914-2.0156-18.289-5.8555-24.949-10.559-21.352-15.066-24.566-24.715-24.578-29.129z"/>
  <path d="m682.45 505.22c2.7109 12.48 11.844 22.367 25.754 27.84 0.38281 0.15625 0.79297 0.12109 1.1992 0.22656 0.34766 0.097657 0.63672 0.33594 0.99609 0.40625l49.824 9.3125c13.273 11.352 26.543 20.184 36.828 24.277 6.1094 2.4375 11.258 3.3711 15.59 3.3711 10.98 0 16.633-6.0859 18.898-9.457 0.023437-0.023438 0.023437-0.070313 0.046875-0.097657 0.046875-0.070312 0.14453-0.097656 0.20312-0.16797 2.1367-2.7227 4.4648-5.7227 6.6602-9.2891 6.8984-11.207 10.922-26.41 10.117-41.23 0.33594-0.011718 0.66016-0.011718 0.99609-0.035156 13.078-0.875 25.078-10.465 36.672-29.305 6.9609-11.305 11.004-26.699 10.105-41.664 0.23828-0.011718 0.45703 0 0.68359-0.023437 13.094-0.875 25.094-10.465 36.672-29.293 6.9258-11.207 10.945-26.426 10.152-41.258 0.32422-0.011719 0.64844-0.011719 0.97266-0.035157 13.094-0.875 25.094-10.465 36.695-29.316 6.875-11.172 10.895-26.328 10.129-41.125 0.33594-0.011719 0.68359-0.011719 1.0312-0.035156 13.094-0.875 25.105-10.465 36.719-29.328 3.625-5.9023 6.2539-13.188 8.0391-20.688 18.742-17.965 27.145-35.004 24.758-50.688-1.9219-12.527-10.68-23.016-24.648-29.543-0.35938-0.16797-0.75781-0.14453-1.1289-0.27734-0.35938-0.13281-0.63672-0.39453-1.0195-0.49219l-48.312-12.18c-11.52-13.141-22.883-24.168-31.586-29.93-20.195-13.379-32.172-6.9492-37.512-1.9062-0.023437 0.023437-0.035156 0.058593-0.058593 0.085937-0.046876 0.035156-0.097657 0.046875-0.14453 0.085938-4.5352 4.4883-8.9297 10.211-13.43 17.496-6.8867 11.207-10.895 26.398-10.117 41.207-0.35938 0.011719-0.68359-0.058594-1.043-0.035157-13.078 0.875-25.094 10.465-36.695 29.328-6.8984 11.219-10.922 26.461-10.105 41.305-0.33594 0-0.63672-0.058594-0.97266-0.035156-13.094 0.86328-25.105 10.453-36.707 29.305-6.9727 11.316-11.016 26.734-10.105 41.699-0.23828 0.011719-0.44531-0.035156-0.68359-0.023437-13.078 0.875-25.078 10.477-36.672 29.316-6.9258 11.219-10.957 26.461-10.141 41.316-0.32422 0.011719-0.63672-0.058594-0.97266-0.035156-13.078 0.86328-25.094 10.465-36.719 29.328-4.6445 7.5586-8.0156 17.039-9.4922 26.676-0.023438 0.19141 0.046874 0.35938 0.023437 0.55078-0.058594 0.45703-0.023437 0.94922-0.070313 1.4141-17.578 19.273-24.875 37.082-21.43 52.945zm48.406 7.8867-14.652-2.7461c-4.2461-1.7891-9.1562-4.9219-10.309-10.234-0.99609-4.5703 0.78125-10.609 4.8477-17.461 4.8867 10.137 11.953 20.504 20.113 30.441zm297.27-322.85c4.4141 2.1836 9.4805 5.7461 10.285 11.016 0.71875 4.6797-1.7383 10.848-6.8633 17.809-4.9219-10.078-11.977-21.527-20.125-33.035zm-13.297 49.93c-1.1055 5.9531-3.2383 11.855-5.9297 16.234-9.9844 16.223-16.199 17.844-17.855 17.953h-0.25391c-3.8984 0-8.9883-5.5938-12.012-9.2031l-51.887-63.516c-0.13281-0.15625-0.30078-0.37109-0.44531-0.52734l-2.6172-3.2031c-9.8047-12-5.7617-33.48 0.91016-44.34 3.2148-5.207 6.3125-9.2656 9.2539-12.312 17.453 0.42969 76.793 77.375 80.836 98.914zm-137.93-16.129c9.9844-16.223 16.199-17.844 17.855-17.953 3.875-0.14453 10.57 7.1406 13.355 10.535l50.785 62.184c0.27734 0.34766 0.66016 0.78125 0.97266 1.1758l2.0898 2.5547h0.011719c9.8047 12.023 5.7617 33.48-0.9375 44.34-9.9844 16.223-16.199 17.844-17.855 17.965-4.1055 0.27734-10.824-7.4414-13.535-10.754l-53.676-65.699h-0.011719c-9.7812-12.02-5.7383-33.473 0.94531-44.348zm-47.77 70.586c9.9844-16.223 16.188-17.832 17.844-17.953 0.097656 0 0.17969-0.011718 0.25391-0.011718 4.4883 0 10.609 7.4883 13.246 10.738 0.011719 0 0.011719 0.011719 0.011719 0.011719l53.664 65.688c0.011718 0 0.011718 0.011718 0.011718 0.011718 9.8281 12.012 5.7852 33.48-0.92578 44.352-9.9727 16.211-16.188 17.832-17.844 17.941-4.0781 0.12109-10.836-7.4414-13.547-10.754 0 0-0.011719 0-0.011719-0.011719l-53.641-65.676c-9.8164-11.996-5.7578-33.465 0.9375-44.336zm-47.461 70.992c9.9844-16.223 16.188-17.844 17.844-17.965 4.1289-0.25391 10.812 7.4297 13.523 10.738 0.011719 0 0.011719 0.011719 0.011719 0.011719l53.676 65.699h0.011719c9.793 12.023 5.7461 33.492-0.94922 44.363-9.9727 16.211-16.176 17.832-17.832 17.941-4.5117 0.45703-10.836-7.4414-13.547-10.754l-53.664-65.699h-0.011719c-9.8164-12.02-5.7695-33.477 0.9375-44.336zm-29.941 52.633c4.4883-0.48047 10.824 7.4297 13.523 10.738 0.011719 0 0.011719 0.011719 0.011719 0.011719l53.676 65.711c9.8164 12.012 5.7734 33.469-0.9375 44.352-1.668 2.7227-3.457 4.9688-5.0898 7.0312l-0.49219 0.625h-0.046875c-5.3867 0-22.57-8.0039-44.902-29.398-28.164-26.977-41.531-52.703-39.793-63.215 0.011719-0.070312-0.023437-0.13281-0.011719-0.21484 1.0078-6.4336 3.2656-12.887 6.2148-17.688 9.9648-16.215 16.18-17.836 17.848-17.953z"/>
 </g>
</svg>
