<?xml version="1.0" encoding="UTF-8"?>
<svg width="1200pt" height="1200pt" version="1.1" viewBox="0 0 1200 1200" xmlns="http://www.w3.org/2000/svg">
 <path d="m865.18 447.19c-27.562 179.26-107.16 308.02-204.84 399.52-155.02 145.22-356.11 195.74-465.98 205.4 226.6 177.24 845.9-127.26 670.82-604.92zm-46.781-246.61c9.75-62.203 34.5-63.609 41.953-77.812h-0.046875c55.969-79.688 202.55-84.844 274.64-6.5625 7.1719 7.7812 6.3281 20.062-1.8281 26.766-59.062 48.984-170.72 58.781-253.45 14.25-26.953 16.219-28.828 81.469-27.984 85.453 4.5469 8.5312 8.3438 17.438 11.391 26.484 11.062 32.859 12.656 68.438 7.0312 96.75 0.375 0.60938 0.75 1.2188 1.0781 1.8281 136.92 274.69 33.328 523.74-184.64 667.97-68.719 45.469-145.13 77.297-219.74 92.953-131.21 27.516-257.48 5.0625-329.53-80.672-9.7031-10.875-4.5-26.203 7.5469-30.234 47.203-15.797 150.66-68.906 201.89-99.609-20.062-61.266 24.656-103.41 24.656-103.55l0.14063-0.14062c0.09375 0 50.438-51.469 116.06-19.312-32.203-65.859 19.406-116.39 19.406-116.44l0.14062-0.14062c0.09375 0 50.484-51.469 116.06-19.359-32.156-65.859 19.406-116.39 19.406-116.44l0.14063-0.14062c0.046874 0 51.609-52.359 117.7-18.562 25.734-40.828 48.797-84.703 67.125-129.56-110.77 81.938-223.64 170.76-326.9 252.05-201.89 158.86-367.5 289.22-422.06 289.18-16.594 0-24.656-20.25-12.891-31.688 227.06-220.31 355.78-548.26 770.21-560.29 3.9844-49.406-16.406-110.2-67.594-130.87-56.719 95.391-200.16 164.86-281.95 93.141-7.3594-6.4219-8.3906-17.391-2.5781-25.031l-0.046875-0.046875c60.422-79.875 193.69-151.18 304.5-99.797 11.297 5.2969 21.328 11.906 30.188 19.453zm181.26-51.562c36.328-0.70312 68.906-10.172 91.781-22.547-51.375-38.906-138.84-40.125-186.74 2.0156 31.688 15.422 64.547 21.141 94.969 20.531zm-365.68 65.766c-43.781 17.062-82.828 46.078-108.28 73.688 65.859 33.469 163.4-22.594 205.55-86.203-32.297-5.5781-65.906 0.32812-97.266 12.516zm-156.19 402.74c-129.19 101.67-243.14 191.34-317.81 240.79 175.13-198.37 309.14-437.95 618.84-473.53-103.08 76.969-206.11 158.06-301.03 232.74zm-92.062 352.78c-42.984 15.797-84.094 26.859-120.71 34.219l99.469-53.812zm148.55-128.34c20.578 10.078 43.922 12.797 66.094 7.9688-18.234 14.812-36.938 28.406-55.875 40.875 0.65625-16.734-2.8125-33.609-10.219-48.844zm-34.969 76.312c-21.984 12.281-44.062 23.203-65.953 32.812l0.09375-0.65625c-52.031-7.875-73.125-72.141-35.859-109.55l0.046874 0.046876 0.14063-0.14063-0.046876-0.046874c25.078-24.984 65.766-24.984 90.844 0l-0.046874 0.046874 0.14062 0.14063 0.046876-0.046876c20.578 20.719 24.609 52.406 10.594 77.391zm170.58-212.26c16.828 8.25 35.578 11.578 54.047 9.8438-14.719 21.703-30.469 41.906-47.062 60.75 6.1875-23.531 3.7969-48.656-6.9844-70.594zm-136.55-1.2188c25.078-24.984 65.766-24.984 90.844 0l-0.046876 0.046875 0.14063 0.14062 0.046874-0.046875c24.938 25.031 25.266 66 0 91.359l-0.046874-0.046875-0.14063 0.14062 0.046876 0.046875c-25.078 24.984-65.766 24.984-90.844 0l0.046874-0.046875-0.14062-0.14062-0.046876 0.046875c-25.078-25.172-25.078-66.188 0-91.359l0.046876 0.046875 0.14062-0.14062zm256.5-157.97c9.4219-14.812 18.469-29.859 27-45.047-4.8281 20.344-10.406 39.891-16.688 58.688-3-4.7812-6.4688-9.3281-10.312-13.641zm-11.062 69.422c-7.4062 16.922-15.375 33.141-23.859 48.75-12.281 9.9844-27.375 14.766-42.422 14.344-55.922-1.5938-83.625-70.172-43.688-110.3l0.046874 0.046875 0.14063-0.14062-0.046876-0.046875c25.078-24.984 65.766-24.984 90.844 0l-0.046874 0.046875 0.14062 0.14062 0.046876-0.046875c12.703 12.703 19.266 29.531 18.844 47.203z" fill-rule="evenodd"/>
</svg>
