<?xml version="1.0" encoding="UTF-8"?>
<svg width="1200pt" height="1200pt" version="1.1" viewBox="0 0 1200 1200" xmlns="http://www.w3.org/2000/svg">
 <g>
  <path d="m350.19 916.06c0.16797-3.5391-1.1211-6.9961-3.5664-9.5586-2.4492-2.5664-5.8398-4.0156-9.3828-4.0156s-6.9336 1.4492-9.3789 4.0156c-2.4492 2.5625-3.7383 6.0195-3.5703 9.5586-0.16797 3.5391 1.1211 6.9961 3.5703 9.5586 2.4453 2.5664 5.8359 4.0156 9.3789 4.0156s6.9336-1.4492 9.3828-4.0156c2.4453-2.5625 3.7344-6.0195 3.5664-9.5586z"/>
  <path d="m390.19 852.66c0.16797-3.543-1.1211-6.9961-3.5664-9.5625-2.4492-2.5625-5.8398-4.0156-9.3828-4.0156-3.543 0-6.9336 1.4531-9.3789 4.0156-2.4492 2.5664-3.7383 6.0195-3.5703 9.5625-0.16797 3.5391 1.1211 6.9922 3.5703 9.5586 2.4453 2.5625 5.8359 4.0156 9.3789 4.0156 3.543 0 6.9336-1.4531 9.3828-4.0156 2.4453-2.5664 3.7344-6.0195 3.5664-9.5586z"/>
  <path d="m279.58 881.73c0-7.168-5.8086-12.973-12.973-12.973-7.1641 0-12.973 5.8047-12.973 12.973 0 7.1641 5.8086 12.973 12.973 12.973 7.1641 0 12.973-5.8086 12.973-12.973z"/>
  <path d="m324.92 832.02c0.039063-3.4648-1.3086-6.8008-3.7461-9.2656s-5.7578-3.8477-9.2227-3.8477-6.7852 1.3828-9.2227 3.8477-3.7852 5.8008-3.7461 9.2656c-0.039063 3.4648 1.3086 6.8008 3.7461 9.2656s5.7578 3.8516 9.2227 3.8516 6.7852-1.3867 9.2227-3.8516 3.7852-5.8008 3.7461-9.2656z"/>
  <path d="m594.59 840.66 41.707-41.742-218.5-218.5-41.742 41.703h0.003907c-16.805 16.797-26.246 39.586-26.246 63.348 0 23.758 9.4414 46.547 26.246 63.348l91.844 91.844c16.797 16.801 39.586 26.242 63.348 26.242 23.758 0 46.547-9.4414 63.344-26.242z"/>
  <path d="m655.39 280.09-228.96 290.66 219.57 219.53 290.62-228.91v-0.003907c5.7422-4.5156 9.2773-11.273 9.707-18.562 0.43359-7.2891-2.2773-14.418-7.4414-19.578l-245.39-245.39h-0.003907c-5.1602-5.1523-12.273-7.8555-19.555-7.4258-7.2773 0.42969-14.027 3.9531-18.543 9.6797z"/>
 </g>
</svg>
