<?xml version="1.0" encoding="UTF-8"?>
<svg width="1200pt" height="1200pt" version="1.1" viewBox="0 0 1200 1200" xmlns="http://www.w3.org/2000/svg">
 <path d="m721.4 626.76c7.0312 73.172-19.219 138.66-97.688 183.61-123.05 70.5-296.53 73.875-390.14-25.031-69.562-73.5-135.66-63.75-168.05-33.75-34.172 31.594-44.391 98.109 11.906 156.98 201.98 211.26 515.58 288.61 778.22 138.14 159.98-91.641 262.6-244.22 295.5-411.14l-3.3281 1.6406c-44.25 22.078-97.547 14.672-134.11-18.656-4.0312-3.6562-8.0625-7.3594-12.141-11.109-31.406-28.594-79.406-28.594-110.86 0-4.2188 3.8906-8.5312 7.7812-12.656 11.578-36.234 33.047-88.969 40.641-133.03 19.219l-23.578-11.484zm-575.9-141.98c38.719 25.031 42.047 63.094 54.469 96.891 12.75 34.594 30.656 66.844 69.938 91.266 17.531 10.969 40.688 5.5312 51.656-12.047 10.969-17.531 5.5312-40.688-12.047-51.656-19.969-12.469-29.391-29.062-36.469-46.453-6.375-15.844-11.016-32.344-16.969-48.469-12.703-34.547-30.609-67.219-69.938-92.578-17.391-11.203-40.594-6.2344-51.844 11.156-11.203 17.391-6.2344 40.594 11.156 51.844zm755.26-188.76c-30.656 3.7031-60.797 13.5-88.406 29.344-81.891 50.719-127.26 153.37-101.86 246.42l2.5312 9.2344 48.375 23.531c30.281 14.719 66.516 9.4688 91.406-13.219 4.1719-3.7969 8.4375-7.6875 12.656-11.578 45.703-41.719 115.69-41.719 161.39 0 4.0781 3.75 8.1562 7.4531 12.141 11.109 25.078 22.922 61.688 28.031 92.109 12.844l27.234-13.594c2.3438-19.875 3.7969-39.891 4.1719-59.953v-0.14062c1.3594-83.531-42.656-161.39-115.22-203.76-22.5-13.078-46.641-22.172-71.438-27.234-2.4375-54.844-22.781-156.28-132.1-219.05-17.953-10.312-40.922-4.0781-51.188 13.828-10.312 17.953-4.0781 40.922 13.828 51.188 75.094 43.078 91.547 111.66 94.406 151.03zm-607.69 91.5c38.719 24.984 42.047 63.094 54.469 96.844 12.75 34.594 30.609 66.844 69.891 91.266 17.578 10.969 40.734 5.5312 51.656-12.047 10.969-17.531 5.5312-40.688-12-51.656-20.016-12.469-29.438-29.062-36.469-46.453-6.4219-15.844-11.016-32.344-16.969-48.469-12.703-34.547-30.609-67.219-69.938-92.578-17.391-11.203-40.594-6.2344-51.844 11.156s-6.2344 40.594 11.156 51.844zm147.52-97.312c38.719 25.031 42.047 63.094 54.469 96.844 12.75 34.594 30.609 66.844 69.891 91.266 17.578 10.969 40.734 5.5312 51.656-12 10.922-17.578 5.5312-40.734-12.047-51.656-20.016-12.469-29.391-29.062-36.469-46.453-6.375-15.797-11.016-32.344-16.969-48.469-12.703-34.547-30.609-67.219-69.938-92.578-17.391-11.203-40.641-6.2344-51.844 11.156s-6.2344 40.594 11.156 51.844z" fill-rule="evenodd"/>
</svg>
