<?xml version="1.0" encoding="UTF-8"?>
<svg width="1200pt" height="1200pt" version="1.1" viewBox="0 0 1200 1200" xmlns="http://www.w3.org/2000/svg">
 <path d="m930.66 727.97c-1.5469-12.141-3.5156-24.281-6.2344-36.234 0-0.046875-0.046875-0.09375-0.046875-0.14062-11.531-52.969-32.109-105.47-59.484-151.74-32.531-55.078-73.688-99.047-119.34-130.03l165.61-165.61c4.875-4.8281 6.6562-11.953 4.7344-18.562-1.9219-6.5625-7.3125-11.578-14.016-12.984-25.031-5.4375-70.969-11.953-126.61-6.0469l26.484-39.656c3.75-5.625 4.1719-12.703 1.2656-18.703-2.9531-6-8.9062-9.9844-15.562-10.453-29.25-1.9219-85.406 0.09375-140.86 29.719-25.078-24.656-62.953-52.969-116.48-66.422-39.188-9.7969-79.734-9.7969-120.61-0.046874-6.9375 1.6406-12.375 7.125-13.922 14.156-1.5938 6.9844 0.98438 14.297 6.5625 18.75 8.7656 6.9844 21.844 18.188 34.172 34.125 4.125 5.2969 7.5938 11.203 11.203 17.016-47.203-11.062-96.516-14.578-147.05-9.9844-8.0156 0.75-14.672 6.4688-16.547 14.25-1.9219 7.8281 1.4062 15.984 8.2031 20.25 59.672 37.828 107.81 85.969 143.16 143.11 10.5 16.641 19.219 33.891 27.094 51.797-9.5156 6.0469-19.078 12.047-28.172 19.219-37.594 29.812-71.344 69.234-99 116.11-27.422 46.312-48 98.859-59.531 151.78-2.7188 12.141-4.6875 24.281-6.1875 35.953v0.046874c0 0.14063-0.046876 0.28125-0.046876 0.375v0.09375c-3.0469 20.391-4.6406 41.062-4.6406 61.5 0 47.109 7.9688 90.469 23.625 128.58 17.484 44.719 44.906 82.641 81.844 112.97 0.375 0.28125 2.6719 2.0625 3.0938 2.3438l0.28125 0.1875c13.219 10.781 27.422 20.203 39.984 26.578l8.4844 5.625c1.8281 1.2188 3.9375 2.0625 6.1875 2.5312 6.9375 3.4688 14.438 6.1406 21.75 9.1406 5.25 2.1562 10.266 4.6875 15.703 6.6094 8.7188 3.0938 17.859 5.3906 27 7.8281 5.2031 1.4062 10.125 3.1875 15.469 4.3594 10.125 2.25 20.672 3.7031 31.172 5.2031 4.6406 0.65625 9.1406 1.7344 13.875 2.25 15.375 1.6406 31.031 2.5312 46.922 2.5312 15.844 0 31.406-0.84375 46.688-2.4844 9.0938-0.98437 17.719-2.7656 26.484-4.2656 5.9062-1.0312 12-1.6406 17.812-2.9062 10.875-2.3906 21.188-5.5781 31.453-8.8594 3.4219-1.0781 7.0781-1.8281 10.453-3l2.8125-0.98437c5.0625-1.8281 9.6562-4.2656 14.578-6.2812 7.0312-2.9062 14.297-5.4844 21-8.7656 2.3438-0.46875 4.6406-1.4062 6.7031-2.7656l6-3.9844c14.391-7.6875 28.125-16.828 42-27.891l0.75-0.51563c0.51562-0.375 2.9062-2.2031 3.4219-2.5781 36.422-29.906 63.938-67.781 81.844-112.59 15.469-38.672 23.297-81.938 23.297-128.72 0-20.625-1.5938-41.484-4.5938-61.594zm-32.906 61.594c0 33.188-4.5 64.172-13.125 92.672l-83.297-55.5 95.391-63.609c0.60938 8.8594 0.98438 17.672 0.98438 26.484zm-36.328 146.72c-3.3281 5.8125-6.9375 11.391-10.781 16.875-1.5469 2.25-3.0469 4.5938-4.6875 6.7969-11.625 15.562-25.266 29.906-41.109 42.938l-37.406 24.844-133.74-89.25 133.78-89.25 103.12 68.719c-1.3125 2.7656-2.5312 5.625-3.9375 8.3438-1.7344 3.3281-3.4688 6.7031-5.3438 9.9375zm-136.4 111.28c-3.6094 1.3125-7.4531 2.3438-11.156 3.5625-7.2656 2.3438-14.625 4.5-22.172 6.375-6.1406 1.5-12.375 2.8125-18.703 4.0312-4.875 0.9375-9.7969 1.6875-14.766 2.4375-7.875 1.1719-15.797 2.2969-23.859 2.9531-2.0156 0.1875-4.0312 0.1875-6.0469 0.32812-18.844 1.3125-37.875 1.3125-56.672 0-2.0156-0.14062-4.0781-0.14062-6.0469-0.32812-8.0156-0.65625-15.938-1.8281-23.859-2.9531-4.9688-0.75-9.8906-1.5-14.766-2.4375-6.3281-1.1719-12.562-2.5312-18.703-4.0312-7.5469-1.875-14.906-4.0312-22.172-6.375-3.7031-1.1719-7.5469-2.25-11.156-3.5625-0.9375-0.32812-1.8281-0.84375-2.7656-1.1719l127.78-85.312 127.78 85.312c-0.9375 0.375-1.7812 0.84375-2.7656 1.1719zm-352.36-65.297c-2.0625-2.1562-3.9375-4.5469-5.9062-6.7969-4.3125-4.875-8.5312-9.7969-12.422-15.047-2.1094-2.8594-4.0312-5.8594-6.0469-8.8125-3.375-4.9688-6.6094-10.031-9.6094-15.281-1.875-3.2812-3.6094-6.6562-5.3438-10.031-1.3594-2.7188-2.5781-5.5312-3.8438-8.2969l102.98-68.672 133.69 89.156-133.69 89.25-38.859-25.875c-7.4531-6.1406-14.438-12.703-21-19.594zm-70.453-192.71c0-8.7656 0.375-17.625 0.98438-26.484l95.484 63.703-83.203 55.5c-8.7188-28.312-13.312-59.297-13.312-92.719zm93.844-272.86c5.2969-6.9375 10.828-13.406 16.453-19.828 3.375-3.8906 6.7031-7.9219 10.172-11.625 6.375-6.7031 13.031-12.844 19.734-18.844 3.0469-2.7188 5.9531-5.7656 9.0469-8.3438 9.8906-8.25 20.016-15.797 30.469-22.453l84.281 56.016-133.82 89.203-55.172-36.75c2.8594-4.4531 5.7188-8.9062 8.7188-13.172 3.3281-4.7812 6.6562-9.6562 10.125-14.203zm161.44-112.92c2.0625-0.46875 4.125-0.98438 6.1875-1.4062 11.438-2.1562 22.922-3.2344 34.359-3.3281 2.3906 0 4.7812 0.046875 7.2188 0.14062 11.531 0.32812 23.062 1.4062 34.5 3.75 1.5 0.32812 3.0469 0.84375 4.5469 1.1719 10.875 2.4844 21.656 5.9531 32.344 10.312 0.89062 0.375 1.7812 0.65625 2.625 1.0312l-79.266 53.672-80.25-53.531c0.60938-0.23438 1.1719-0.5625 1.7344-0.79688 11.953-4.9219 24-8.3438 36.047-11.016zm200.48 63c6.4688 5.8594 12.938 11.719 19.125 18.234 3.6094 3.7969 7.0312 8.0156 10.547 12.047 5.5312 6.3281 10.969 12.703 16.219 19.547 3.5156 4.5938 6.8438 9.4688 10.219 14.25 3 4.3125 5.8594 8.7656 8.7656 13.219l-55.172 36.75-133.92-89.25 83.906-56.25c10.453 6.6562 20.672 14.25 30.562 22.5 3.3281 2.7656 6.4688 6 9.75 8.9531zm-157.97 449.21-133.69-89.203 133.69-89.203 133.78 89.156zm-289.03-209.16 121.36-80.906 133.82 89.156-133.69 89.156-124.03-82.734c0.75-4.875 1.5469-9.7969 2.5312-14.672zm289.03-192.66 133.82 89.203-133.82 89.156-133.82-89.156zm33.797 200.9 133.82-89.156 121.36 80.906c0.98438 4.8281 1.7344 9.75 2.5312 14.672l-123.98 82.688-133.78-89.109zm167.63-111.66 40.547-27c12.844 24.047 23.766 49.453 32.438 75.656zm-443.48-27 40.547 27-72.984 48.656c8.625-26.203 19.547-51.609 32.438-75.656zm500.72-332.72-145.82 145.87c-2.25-1.1719-4.5938-1.9688-6.8438-3.0469-4.5938-2.2031-9.1406-4.2656-13.781-6.1406-4.5938-1.9219-9.2344-3.6562-13.875-5.2969-4.4062-1.5469-8.8125-2.9062-13.219-4.1719-4.9219-1.4062-9.8438-2.7188-14.766-3.7969-4.1719-0.9375-8.3906-1.6875-12.609-2.3438-5.1562-0.84375-10.359-1.5938-15.562-2.1094-4.0312-0.375-8.0625-0.5625-12.141-0.75-3.375-0.14062-6.7031-0.60938-10.078-0.60938-2.0625 0-4.0781 0.32812-6.1406 0.375-3.6562 0.09375-7.3594 0.375-11.016 0.65625-5.4844 0.42188-11.016 0.89062-16.5 1.7344-3.8438 0.5625-7.6875 1.3594-11.578 2.1094-3.2812 0.65625-6.5625 0.98438-9.8438 1.7812 1.8281-2.2031 3.5156-4.3125 5.4375-6.5156 1.5938-1.7812 3.1406-3.5625 4.7812-5.3906 6.1875-6.7969 12.75-13.641 20.062-20.484 15.938-14.25 31.219-26.109 46.641-36.328 7.7812-4.9219 15.891-9.8438 24.234-14.391 14.953-8.0156 30.281-14.953 45.938-20.766 15.656-5.7656 31.641-10.406 47.766-13.875 0.046876 0 0.046876-0.046875 0.09375-0.046875 46.453-10.219 88.078-9.75 118.73-6.375zm-134.21-28.594c-10.266 2.4375-20.25 6.0469-30.328 9.3281-5.5781 1.8281-11.25 3.0938-16.781 5.1562-16.734 6.2812-33.141 13.594-49.125 22.172-5.3438 2.9062-10.547 5.9531-15.656 9-2.3906-1.7344-4.7812-3.4219-7.0312-4.9219-1.875-1.4062-3.8438-2.8125-5.8125-4.1719 3.1406-3.5625 6.0938-7.3125 9.375-10.641 2.9062-2.9531 5.7656-5.9531 8.8594-8.7656 8.1094-7.3125 16.688-13.969 25.688-19.875 1.5-0.98437 2.8125-2.25 4.3594-3.1875 0.89062-0.51562 2.0625-1.2656 2.3438-1.4531 0.79688-0.32813 1.3125-1.0781 2.0625-1.5l0.32812 0.28125c35.297-21 70.594-28.688 98.109-30.938l-26.438 39.516zm-203.58-77.578c40.5 10.172 71.109 30.562 92.484 49.781-8.5312 6.1875-16.688 12.938-24.422 20.203-0.046875 0.046876-0.09375 0.09375-0.14062 0.09375-7.7812 7.3125-15.188 15.141-22.125 23.484-1.1719-0.65625-2.5312-1.2656-3.7031-1.875-9.4219-5.2031-19.219-10.312-29.672-15.234-11.578-5.3438-22.172-9.4688-32.344-12.984-1.2188-0.42188-2.625-1.125-3.7969-1.5469-8.4844-20.438-18.797-38.297-31.359-54.328-3.7031-4.7812-7.4531-9.1875-11.109-13.266 22.359-1.5938 44.578 0.23438 66.188 5.6719zm-162.56 73.406c41.062 1.3594 80.953 8.625 119.34 21.703 12.375 3.6562 25.453 8.7188 39.844 15.375 15.938 7.4531 30.703 15.375 44.203 23.766 6.0938 3.6094 11.812 7.5938 17.578 11.672-0.51562 0.375-1.0781 0.89063-1.5938 1.3125-9.1406 7.0312-18.328 14.578-27.844 23.062-8.1094 7.5938-15.375 15.141-22.219 22.641-1.9219 2.1094-3.7031 4.125-5.5312 6.1875-5.0625 5.7656-9.7969 11.391-14.109 16.922-1.3125 1.6406-2.6719 3.3281-3.9375 4.9219-4.7812 6.2344-9.1875 12.281-13.031 17.953-7.2188-15-15.188-29.391-24.141-43.594-28.641-46.359-65.062-87.188-108.61-121.97z"/>
</svg>
