<?xml version="1.0" encoding="UTF-8"?>
<svg width="1200pt" height="1200pt" version="1.1" viewBox="0 0 1200 1200" xmlns="http://www.w3.org/2000/svg">
 <path d="m791.09 402.78c-76.152-70.859-157.16-119.51-247.64-148.71-31.211-10.129-65.062 7.1172-75.516 38.352-5.1484 15.348-4.0078 31.668 3.2148 45.961 0.96094 1.8945 2.2305 3.5508 3.3711 5.3164-60.793 158.96-148.31 328.52-253.54 490.87-10.859 16.766-10.656 37.414 0.5625 53.879 11.195 16.441 30.312 24.191 49.848 20.23 89.258-18.086 182.04-42.66 283.67-75.145 7.7539-2.4844 14.52 0.55078 17.773 4.668 1.9219 2.4375 3.6016 6.3477 0.71875 11.125-1.9336 3.1445-4.1172 6.5039-6.5508 10.031-20.258 28.789-16.176 49.297-9.1797 61.441 11.352 19.727 36.648 28.043 57.758 28.031 2.2422 0 4.4531-0.097656 6.5742-0.27734 25.367-2.0039 57.406-18.348 65.988-84.84 2.6289-19.859 11.039-31.859 22.512-32.102 7.957-0.40625 16.801 5.6289 18.551 15.48 5.5195 33.758 31.391 47.594 54.625 46.5 13.883-0.67188 32.953-7.668 44.809-25.246 7.5586-11.219 14.508-30.539 4.6328-58.824-6.3477-18.602-7.957-35.398-4.7539-49.934 3.3945-15.289 16.094-28.453 33.961-35.219l23.258-8.8203c11.258 5.9883 23.941 9.1797 36.719 9.1797 8.1836 0 16.367-1.2734 24.18-3.8867 17.988-6.0234 31.176-17.977 37.129-33.648 5.5547-14.641 4.0195-30.719-4.3438-45.254-52.152-90.73-115.5-171.19-188.33-239.16zm62.867 299.15c-25.453 9.6367-43.727 29.242-48.887 52.477-4.1641 18.91-2.3164 40.055 5.4961 62.953 5.2422 15.012 4.6094 28.008-1.8477 37.57-6.9102 10.246-18.359 14.316-26.102 14.699-12.266 0.48047-26.41-5.9883-29.773-26.543-3.6484-20.664-22.223-36-42.73-35.449-18.805 0.40625-40.715 14.531-45.781 53.004-7.8945 61.164-35.125 63.312-44.172 64.02-17.594 1.5117-35.484-5.2695-41.555-15.816-6.3477-11.027 0.85156-25.488 8.0625-35.746 2.7461-3.9961 5.1836-7.7266 7.3672-11.27 7.5-12.406 6.5898-27.156-2.3867-38.496-10.078-12.77-27.73-17.832-43.934-12.648-100.75 32.207-192.71 56.566-281.11 74.484-10.043 2.0039-19.5-1.7891-25.246-10.223-5.7617-8.4609-5.8555-18.684-0.25391-27.324 104.02-160.48 190.77-327.98 251.99-485.7 3.9492 2.3984 8.1016 4.5 12.625 5.9531 74.172 23.93 140.27 63.383 202.04 120.61 60.984 56.652 111.07 123.31 148.87 198.11 2.0273 4.043 4.6094 7.8711 7.5352 11.473zm107.35-23.258c-3.3477 8.832-11.27 15.719-22.297 19.414-15.949 5.3281-34.957 2.3398-48.371-7.6211 0 0-0.011719 0-0.011719-0.011719-5.4961-4.0547-9.707-8.9883-12.551-14.652-39.098-77.363-90.898-146.3-153.98-204.9-64.414-59.676-133.43-100.85-211-125.87-9.0117-2.9023-16.297-9.1094-20.52-17.473-4.2969-8.5195-4.9688-18.289-1.8711-27.516 5.0742-15.18 19.297-24.863 34.441-24.863 3.6367 0 7.3203 0.55078 10.945 1.7266 87.086 28.117 165.16 75.035 238.67 143.44 71.062 66.324 132.93 144.91 183.86 233.57 4.6758 8.1758 5.6484 16.969 2.6836 24.758zm-481.39-156.21v0c-13.523 12.098-21.504 28.945-21.938 46.199-0.39453 16.391 5.9023 31.848 17.723 43.5 12.672 12.516 30.086 18.793 47.641 18.793 17.051 0 34.234-5.9414 47.27-17.844 13.008-11.855 20.316-27.781 20.578-44.832 0.25391-17.016-6.4688-33.035-18.938-45.121-25.062-24.266-65.621-24.551-92.336-0.69531zm74.523 72.922c-17.34 15.828-45.672 15.707-61.871-0.30078-7.0547-6.9727-10.824-16.141-10.586-25.836 0.25391-10.656 5.3398-21.18 13.934-28.883 17.363-15.527 43.57-15.504 59.664 0.035156 7.6562 7.4141 11.785 17.184 11.629 27.504-0.17188 10.371-4.6953 20.125-12.77 27.48zm86.086 34.922c-10.598 10.176-16.273 23.688-16.008 38.039 0.26562 14.496 6.5898 27.996 17.809 38.004 11.219 10.031 25.621 15.023 39.926 15.023 14.82 0 29.531-5.3633 40.453-16.055 10.164-9.9375 15.551-23.074 15.18-37.02-0.39453-14.555-7.2461-28.715-18.793-38.832-22.801-19.934-57.312-19.551-78.566 0.83984zm65.387 57.84c-12.406 12.145-34.211 12.266-47.605 0.28906-6.1797-5.5078-9.6602-12.805-9.8047-20.543-0.14453-7.5859 2.9297-14.797 8.6406-20.281 12.359-11.855 32.617-11.891 46.129-0.097657 6.5273 5.7109 10.391 13.523 10.609 21.422 0.19141 7.1875-2.625 14.004-7.9688 19.211zm-268.7 7.8242c-10.117 8.0508-16.297 19.547-16.945 31.547-0.625 11.375 3.6367 22.188 11.977 30.445 9.0352 8.9531 21.527 13.488 34.176 13.488 11.438 0 23.004-3.707 32.207-11.207 9.9258-8.0742 15.695-19.188 16.234-31.262 0.51562-11.652-3.8984-22.656-12.457-31.008-17.047-16.633-45.68-17.508-65.191-2.0039zm46.262 45.648c-9.8164 8.0156-25.871 7.6797-34.344-0.70703-3.4453-3.4219-5.1367-7.5977-4.8945-12.086 0.27734-5.1602 3.1562-10.273 7.9062-14.051 10.055-7.9805 25.094-7.8125 33.504 0.39453 3.5898 3.5039 5.4492 8.0273 5.2422 12.742-0.22656 5.125-2.8555 9.9961-7.4141 13.707z"/>
</svg>
