<?xml version="1.0" encoding="UTF-8"?>
<svg width="1200pt" height="1200pt" version="1.1" viewBox="0 0 1200 1200" xmlns="http://www.w3.org/2000/svg">
 <path d="m987.98 436.78c4.875-11.203 7.6875-23.297 7.6875-35.812 0-30.609-15.328-57.938-39.844-74.062 13.641-22.875 17.062-51.047 8.1562-77.297-11.297-33.047-40.406-56.25-74.25-60.984-0.75-5.4375-2.0156-10.781-3.7031-15.844-8.25-23.156-24.891-41.766-46.922-52.5-22.172-10.828-47.203-12.281-70.078-4.0312-9.9844 3.4219-18.891 8.4375-26.812 14.578-19.031-23.016-47.625-37.078-78.281-37.078-30 0-57.516 12.891-76.688 34.547-17.672-16.453-41.25-26.25-66.469-26.25h-1.5c-37.312 0.46875-70.406 22.5-85.922 55.547-6.1406-1.125-12.234-1.5469-17.812-1.2656-53.484 0.5625-96.609 44.953-96.047 99.609 0.42188 10.547 2.5781 19.828 5.5781 28.594-2.3438 3.6094-5.0625 6.8438-6.9375 10.922-6.1875-1.0781-12.281-1.6406-18.375-1.6406-53.672 1.0781-96.469 45.609-95.438 99.188 0.28125 14.906 4.0312 28.969 10.406 41.766-1.3125 0.89062-2.7188 1.5938-3.7969 2.7656-3.5625 3.9844-5.25 9.3281-4.5938 14.625l75 637.5c1.0781 9.4688 9.0938 16.547 18.609 16.547h600c9.5156 0 17.484-7.125 18.609-16.547l75-637.5c0.65625-5.2969-1.0312-10.641-4.5938-14.625-0.28125-0.32812-0.70312-0.46875-1.0312-0.75zm-484.55-5.5312c-1.4531-12.328-5.1094-23.953-10.922-34.641 10.125 3.3281 20.953 5.1562 32.391 5.1562h0.09375c7.3125-0.28125 14.25-1.3125 20.906-2.9062-4.5469 10.172-7.0781 21.094-7.5469 32.391zm94.125-21.75c5.3906 0.5625 10.734 0.60938 16.125 0.28125 2.3438-0.14062 4.6406-0.1875 6.9375-0.46875 5.6719-0.75 11.203-2.0625 16.688-3.75 1.9688-0.60938 3.9375-0.9375 5.8594-1.6406 7.2656-2.6719 14.25-6 20.719-10.312 16.547 10.969 35.812 16.922 55.594 16.922 9.9375 0 18.75-1.3125 24.469-3.375 5.3906-1.0312 10.547-2.7656 15.562-4.875 0.51562-0.23438 1.125-0.28125 1.6406-0.51562 0.32812 0.375 0.70312 0.75 1.0312 1.1719 2.8594 3.6094 5.3438 7.5 7.125 11.812 0.1875 0.46875 0.28125 0.98438 0.46875 1.5 1.5 3.8906 2.4375 8.0156 3 12.234 0.09375 0.60938 0.14062 1.2656 0.1875 1.875h-197.29c0.75-8.1094 3.4219-15.938 7.7812-22.875 2.1094 0.51562 4.3125 0.51562 6.4219 0.89062 2.5781 0.46875 5.1094 0.84375 7.7344 1.0781zm351.56 20.906h-138.32c-0.23438-3.8906-0.89062-7.7344-1.5938-11.531-0.1875-0.9375-0.1875-1.875-0.375-2.7656-1.0781-5.0156-2.5312-9.9375-4.4531-14.719 3.2812-0.75 6.6562-1.6875 9.9844-2.7656 16.312-5.5781 30.703-15.844 41.531-29.438 17.016 3.9375 34.594 3 51-2.5781 7.5-2.625 14.25-6.2344 20.531-10.359 0.75-0.46875 1.6875-0.70312 2.4375-1.2188 17.203 8.625 28.266 26.203 28.266 45.984 0 10.641-3.1406 20.859-9 29.391zm-167.76-278.76c27.891-9.9375 59.156 5.1562 69.188 33.328 2.0625 6.1406 2.9062 13.312 2.5781 20.719-0.28125 5.3438 1.7812 10.594 5.5781 14.297 3.75 3.75 8.5781 5.8125 14.438 5.3438 24.703-2.25 47.438 13.312 55.359 36.328 6.9844 20.719 1.2656 43.5-14.625 58.078-0.09375 0.046875-0.09375 0.09375-0.1875 0.14062-5.1562 4.875-11.625 8.6719-18.984 11.25-16.266 5.5312-30.375 2.2969-39.422-1.4062-8.8594-3.5625-18.797-0.046875-23.391 8.25-3.1406 5.625-7.2188 10.359-11.812 14.484-1.4062 1.2656-3.0938 2.0625-4.5938 3.1406-2.2969 1.6406-4.7812 2.9062-7.2656 4.1719 0.09375-0.14062 0.09375-0.32812 0.1875-0.46875 2.9531-5.1094 4.9688-10.688 7.0312-16.219 1.0312-2.7656 2.4844-5.3438 3.2812-8.2031 2.3438-8.5781 3.6562-17.531 3.6562-26.719 0-15.469-3.3281-29.906-9.5156-42.281-9.7031-21.516-27.188-39.141-48.469-49.594 1.3125-6.6094 1.9688-13.312 1.9688-20.203 0-7.0312-0.9375-13.781-2.2969-20.344-0.42188-2.0156-0.98438-3.9375-1.5-5.9062-0.5625-2.0156-0.84375-4.125-1.5469-6.0938 5.4375-5.2969 12.281-9.3281 20.438-12.141zm-117.47-20.344c24.984 0 47.812 14.625 58.688 38.062 4.1719 8.0156 6.2344 16.781 6.2344 26.766 0 8.5312-1.5938 16.734-4.7812 24.422-2.0156 4.9219-1.8281 10.594 0.5625 15.375 2.3906 4.8281 6.7031 8.4375 11.906 9.7969 18.609 5.0625 34.312 18.328 42.422 36.281 3.9375 7.7812 5.9062 16.547 5.9062 26.156 0 22.359-11.484 42.984-30.609 55.078-0.046875 0-0.046875 0.046875-0.09375 0.09375-1.2656 0.46875-2.4844 1.0312-3.6094 1.7344-3.8438 2.4844-8.4844 4.3125-15.844 5.8594-4.2656 1.4062-9.2812 2.1094-15.141 2.1094-15.891 0-30.75-5.8594-42.984-16.969-3.1875-2.9062-7.1719-4.3125-11.156-4.5938-0.46875-0.046875-0.9375-0.28125-1.4062-0.28125-0.51562 0-0.98438 0.23438-1.4531 0.28125-4.0312 0.32812-7.9688 1.7344-11.156 4.6406-4.3594 3.9844-9.2812 7.1719-14.438 9.7969-0.89062 0.46875-1.8281 0.70312-2.7188 1.0781-4.4062 1.9688-8.9531 3.5625-13.641 4.5-1.1719 0.23438-2.3438 0.32812-3.5156 0.51562-4.2656 0.60938-8.5781 0.79688-12.938 0.5625-1.875-0.14062-3.7031-0.32812-5.5781-0.60938-1.5938-0.23438-3.0938-0.79688-4.6406-1.125 4.4062-4.6875 8.2969-9.7969 11.672-15.234 0.51562-0.84375 0.89062-1.8281 1.3594-2.6719 3.5625-6.1875 6.3281-12.75 8.4844-19.594 0.60938-1.9219 1.1719-3.7969 1.6406-5.7656 1.9219-7.9219 3.2812-16.078 3.1406-24.516v-0.09375c0-4.3594-1.3125-8.4844-1.9219-12.703-2.0156-14.062-6.1875-27.703-14.25-39.703 9.7969-15.75 14.812-34.031 14.438-52.547 0-7.6875-1.2656-15.234-3.1406-22.641-0.60938-2.3438-1.5-4.5469-2.25-6.8438-0.98438-2.9062-1.5938-5.9062-2.8594-8.6719 12-17.766 31.922-28.453 53.859-28.453zm-247.4 62.578c7.2656-0.46875 13.875 0.98438 21.844 4.0312 5.0625 1.9688 10.641 1.5938 15.375-0.89062 4.7812-2.4844 8.25-6.9375 9.5156-12.141 6.4688-26.344 29.719-44.953 56.484-45.281 20.203-0.23438 42.094 10.828 52.875 29.625 5.4375 8.7656 8.1562 18.422 8.1562 29.062 0.32812 15-4.7344 28.922-14.625 40.172-6.3281 7.2656-6.1875 18.188 0.42187 25.219 10.312 10.969 15.984 24.938 15.984 39.562 0.32812 23.297-12.469 44.297-33.656 54.891-7.2656 3.75-15.797 5.8594-24.656 6.1875-8.4375 0-16.5-1.5469-23.812-4.5469 0.14062-0.5625 0.046874-1.1719 0.1875-1.7344 1.8281-7.5469 2.8125-15.094 2.5312-22.594-0.51563-25.969-11.156-50.203-29.906-68.25-18.797-18-42.141-26.859-69.375-27.188-7.7812 0.14062-15.375 1.4062-22.734 3.375-2.2969 0.60938-4.4062 1.5938-6.6094 2.3438-5.0156 1.7344-9.8906 3.6562-14.531 6.1406-0.98438 0.51562-2.1094 0.75-3.0938 1.3125 0.70312-32.531 26.719-58.922 59.531-59.25zm-116.34 137.48c7.3594 0 15.328 1.4062 23.859 4.2656 4.8281 1.5938 10.266 1.2656 14.812-1.2656 4.5469-2.4375 7.9219-6.6094 9.2344-11.625 2.5781-9.4219 6.6562-17.672 11.953-23.906 11.203-13.266 27.469-21 44.719-21.328 17.484 0.23438 31.078 5.625 42.609 16.688 11.531 11.156 18.047 26.016 18.375 42.328 0.32812 7.7812-1.4062 15.75-5.625 24.562-2.2031 5.3438-5.4844 10.734-9.6094 15.516-6.2812 7.3594-5.9062 18.281 0.79688 25.219 7.5938 7.875 12.75 17.766 14.953 28.594h-207.66c-0.75 0-1.5 0-2.25 0.046875-9.1406-10.5-14.25-23.766-14.484-38.109-0.65625-32.953 25.688-60.328 58.312-60.984zm-54.047 137.44h148.74l35.297 600h-113.44l-70.547-600zm186.28 0h148.87v600h-113.58zm186.37 600v-600.05h148.87l-35.297 600h-113.58zm264.61 0h-113.44l35.297-600h148.74l-70.547 600z"/>
</svg>
