<?xml version="1.0" encoding="UTF-8"?>
<svg width="1200pt" height="1200pt" version="1.1" viewBox="0 0 1200 1200" xmlns="http://www.w3.org/2000/svg">
 <path d="m1066.8 505.2c0-86.398-64.801-157.2-145.2-157.2h-8.3984c20.398-24 36-49.199 46.801-78 7.1992-18 4.8008-37.199-6-52.801-10.801-16.801-28.801-26.398-49.199-26.398-12 0-22.801 3.6016-32.398 9.6016-6 3.6016-12 7.1992-16.801 10.801 2.3984-12 4.8008-25.199 6-37.199 2.3984-15.602-3.6016-32.398-14.398-44.398-10.801-12-27.602-20.398-44.398-20.398-16.801 0-32.398 7.1992-43.199 19.199-31.199 34.801-61.199 58.801-86.398 76.801 4.8008-8.3984 13.199-15.602 21.602-25.199 8.3984-7.1992 18-16.801 25.199-26.398 20.398-28.801 15.602-68.398-10.801-91.199l-21.602-18c-12-9.6016-27.602-15.602-43.199-15.602-19.199 0-37.199 8.3984-50.398 22.801-52.801 58.801-72 104.4-76.801 146.4-22.801-16.801-49.199-39.602-75.602-69.602-12-12-27.602-19.199-43.199-19.199-16.801 0-32.398 7.1992-44.398 19.199-10.801 12-16.801 27.602-14.398 44.398 1.1992 13.199 3.6016 25.199 7.1992 38.398-6-3.6016-12-7.1992-18-10.801-9.6016-6-20.398-9.6016-32.398-9.6016-19.199 0-38.398 9.6016-49.199 26.398-10.801 15.602-13.199 36-6 54 10.801 28.801 26.398 54 46.801 78h-8.3984c-80.398 0-145.2 70.801-145.2 157.2 0 49.199 20.398 93.602 54 122.4-1.1992 9.6016-2.3984 19.199-2.3984 28.801 0 54 24 102 61.199 132v3.6016c0 69.602 40.801 129.6 97.199 153.6 12 62.398 58.801 111.6 116.4 124.8 22.801 58.801 76.801 100.8 139.2 100.8s116.4-42 139.2-100.8c58.801-13.199 104.4-62.398 116.4-124.8 56.398-22.801 97.199-82.801 97.199-153.6v-3.6016c37.199-30 61.199-78 61.199-132 0-9.6016-1.1992-19.199-2.3984-28.801 33.586-29.996 55.188-74.398 55.188-123.6zm-780-253.2c-2.3984-6 3.6016-13.199 9.6016-13.199 1.1992 0 3.6016 0 4.8008 1.1992 61.199 39.602 114 58.801 153.6 68.398-39.602-45.602-61.199-90-67.199-140.4 0-6 4.8008-9.6016 9.6016-9.6016 2.3984 0 4.8008 1.1992 7.1992 3.6016 67.199 75.602 130.8 108 168 122.4-12-66-21.602-111.6 57.602-200.4 3.6016-3.6016 8.3984-6 13.199-6s8.3984 1.1992 12 4.8008l21.602 16.801c7.1992 6 8.3984 16.801 3.6016 24-25.199 33.602-85.199 51.602-55.199 160.8 37.199-14.398 100.8-46.801 169.2-122.4 2.3984-2.3984 4.8008-3.6016 7.1992-3.6016 6 0 10.801 3.6016 9.6016 9.6016-4.8008 50.398-27.602 96-67.199 140.4 39.602-9.6016 92.398-28.801 153.6-68.398 1.1992-1.1992 3.6016-1.1992 4.8008-1.1992 6 0 12 6 9.6016 13.199-13.199 33.602-32.398 62.398-61.199 87.602 0 0-87.602 38.398-253.2 38.398-165.6 0-253.2-38.398-253.2-38.398-25.219-25.207-45.617-54.004-57.617-87.605zm189.6 373.2c-13.199 7.1992-28.801 12-44.398 12-54 0-98.398-50.398-98.398-111.6 0-61.199 44.398-111.6 98.398-111.6 22.801 0 43.199 8.3984 60 22.801-22.801 27.602-37.199 64.801-37.199 105.6 0 31.203 8.3984 58.801 21.598 82.801zm-44.398 58.801c26.398 0 51.602-8.3984 73.199-21.602 25.199 24 58.801 38.398 94.801 38.398 4.8008 0 9.6016 0 13.199-1.1992-10.801 51.602-52.801 90-102 90-55.199 0-99.602-48-104.4-108 9.5977 1.2031 16.801 2.4023 25.199 2.4023zm69.602-140.4c0-61.199 44.398-111.6 98.398-111.6s98.398 50.398 98.398 111.6c0 61.199-44.398 111.6-98.398 111.6-54-0.003906-98.398-50.402-98.398-111.6zm10.797 291.6c32.398 0 63.602-12 87.602-31.199 25.199 19.199 55.199 31.199 87.602 31.199 4.8008 0 9.6016 0 14.398-1.1992-10.801 51.602-52.801 91.199-102 91.199s-91.199-38.398-102-91.199c4.8008 1.1992 9.6016 1.1992 14.398 1.1992zm175.2-45.598c-20.398 0-39.602-7.1992-56.398-18 16.801-24 27.602-54 30-85.199 12-6 22.801-14.398 32.398-22.801 21.602 13.199 46.801 21.602 73.199 21.602 8.3984 0 16.801-1.1992 24-2.3984-3.6016 58.797-48 106.8-103.2 106.8zm80.398-152.4c-15.602 0-31.199-4.8008-44.398-12 13.199-24 21.602-51.602 21.602-81.602 0-40.801-14.398-76.801-37.199-105.6 16.801-14.398 37.199-22.801 60-22.801 55.199 0 98.398 50.398 98.398 111.6-0.003906 61.203-44.402 110.4-98.402 110.4zm-588-132c0-61.199 44.398-111.6 98.398-111.6 20.398 0 38.398 7.1992 54 18-27.602 28.801-45.602 69.602-45.602 114 0 31.199 8.3984 60 22.801 84-9.6016 3.6016-20.398 6-31.199 6-54 0.003906-98.398-49.199-98.398-110.4zm51.602 150v-2.3984c14.398 6 31.199 8.3984 46.801 8.3984 21.602 0 42-6 61.199-14.398 7.1992 6 14.398 10.801 21.602 15.602v8.3984c0 32.398 8.3984 62.398 24 87.602-14.398 8.3984-31.199 14.398-49.199 14.398-57.605 0-104.4-52.801-104.4-117.6zm62.398 157.2c13.199 3.6016 27.602 6 42 6 28.801 0 55.199-8.3984 78-24 10.801 9.6016 22.801 18 36 25.199 1.1992 21.602 7.1992 42 15.602 60-18 18-42 27.602-67.199 27.602-51.602 1.1992-94.801-39.598-104.4-94.801zm201.6 220.8c-40.801 0-76.801-27.602-92.398-68.398h2.3984c33.602 0 63.602-12 88.801-33.602 19.199 22.801 45.602 39.602 74.398 45.602 1.1992 3.6016 2.3984 8.3984 4.8008 12-16.801 27.598-45.602 44.398-78 44.398zm104.4 92.402c-34.801 0-64.801-20.398-82.801-50.398 32.398-4.8008 61.199-21.602 82.801-46.801 21.602 25.199 50.398 40.801 82.801 46.801-18 29.996-48 50.398-82.801 50.398zm104.4-92.402c-36 0-67.199-21.602-85.199-54 33.602-4.8008 63.602-22.801 85.199-48 24 20.398 55.199 33.602 88.801 33.602h2.3984c-15.598 40.801-50.398 68.398-91.199 68.398zm98.402-124.8c-26.398 0-49.199-10.801-67.199-27.602 8.3984-18 13.199-38.398 15.602-60 13.199-6 25.199-15.602 36-25.199 22.801 14.398 49.199 24 78 24 14.398 0 28.801-2.3984 42-6-10.805 54.004-54.004 94.801-104.4 94.801zm165.6-253.2c0 64.801-46.801 117.6-104.4 117.6-18 0-33.602-4.8008-49.199-14.398 14.398-25.199 24-55.199 24-87.602v-8.3984c7.1992-4.8008 14.398-9.6016 21.602-15.602 19.199 9.6016 39.602 14.398 61.199 14.398 16.801 0 32.398-3.6016 46.801-8.3984zm-46.797-39.598c-10.801 0-21.602-2.3984-31.199-6 14.398-24 22.801-52.801 22.801-84 0-44.398-18-85.199-45.602-114 15.602-12 33.602-18 54-18 55.199 0 98.398 50.398 98.398 111.6 0 61.195-44.398 110.4-98.398 110.4z"/>
</svg>
