<?xml version="1.0" encoding="UTF-8"?>
<svg width="1200pt" height="1200pt" version="1.1" viewBox="0 0 1200 1200" xmlns="http://www.w3.org/2000/svg">
 <g>
  <path d="m337.5 337.5c-9.375 0 14.25 7.875-313.13-114.75-19.5-7.125-29.25-28.875-22.125-48.375s28.875-29.25 48.375-22.125l300 112.5c39 14.625 28.125 72.75-13.125 72.75z"/>
  <path d="m370.87 257.63c-9.75 0-19.125-3.75-26.625-10.875l-183.37-182.63c-14.625-14.625-14.625-38.25 0-52.875s38.25-14.625 52.875 0l183.37 182.63c23.625 23.625 6.75 64.125-26.625 64.125z"/>
  <path d="m1080.7 600h-961.5c-69.75 0-67.125-189 72-221.26 12.75-55.875 56.625-99.75 112.5-112.5 16.875-72.75 88.125-125.63 165.74-115.12 57.375-101.62 204-101.62 261 0 77.625-10.5 148.87 42.375 165.74 115.12 55.875 12.75 99.75 56.625 112.5 112.5 139.13 32.25 141.74 221.26 72 221.26zm-930.74-75h900c0-41.25-33.75-75-75-75-20.625 0-37.5-16.875-37.5-37.5 0-41.25-33.75-75-75-75-20.625 0-37.5-16.875-37.5-37.5 0-41.25-33.75-75-75-75-27 0-35.625 15.75-58.5 4.5-9.75-4.875-16.875-13.5-19.5-24-19.5-73.5-124.5-73.5-144.37 0-2.625 10.5-9.75 19.125-19.5 24-22.875 11.25-30.75-4.5-58.125-4.5-41.25 0-75 33.75-75 75 0 20.625-16.875 37.5-37.5 37.5-41.25 0-75 33.75-75 75 0 20.625-16.875 37.5-37.5 37.5-41.25 0-75 33.75-75 75z"/>
  <path d="m1162.5 525h-1125c-20.625 0-37.5 16.875-37.5 37.5v150c0 13.5 9.75 37.5 39.375 37.5 19.125 251.26 229.5 450 485.63 450h150c102.75 0 201.37-31.5 284.26-91.5 16.875-12 20.625-35.625 8.625-52.5s-35.625-20.625-52.5-8.625c-127.13 91.5-234.37 77.25-390.74 77.25-214.87 0-391.87-165-411-375h971.63c-6 68.25-28.875 133.5-67.125 190.5-11.625 17.25-6.75 40.5 10.5 52.125s40.5 6.75 52.125-10.5c46.125-69.375 73.5-149.26 79.875-232.13h1.5c20.625 0 37.5-16.875 37.5-37.5v-150c0-20.625-16.875-37.5-37.5-37.5zm-1087.5 150v-75h1050v75z"/>
 </g>
</svg>
