<?xml version="1.0" encoding="UTF-8"?>
<svg width="1200pt" height="1200pt" version="1.1" viewBox="0 0 1200 1200" xmlns="http://www.w3.org/2000/svg">
 <path d="m172.5 565.64c-9.7031-6.9844-18.562-15.094-26.203-24.281-35.859-43.219-38.672-99.234-10.359-147.42 2.5781-4.4531 5.3906-8.6719 8.5312-12.844-16.875-11.25-32.391-25.547-44.109-41.109-8.0156-10.594-14.625-21.844-18.891-34.547-15.797-47.438-1.9688-89.438 26.578-122.9 23.531-27.609 57.75-48.984 89.953-61.547l11.109-6.375c26.953-21.609 62.578-40.594 98.25-47.156 43.266-7.9688 86.531 1.0312 119.67 38.438 8.9531 10.031 15.375 21.375 20.531 33.656 7.5938 17.953 12.234 38.531 13.547 58.734 5.1094-0.60937 10.219-0.9375 15.375-0.98437 55.922-0.42188 102.98 30.047 122.48 82.688 14.156 38.344 10.172 82.359-4.5938 119.86-2.0156 5.1562-4.5469 10.641-7.2188 16.266 5.625 0.89062 11.203 2.1562 16.734 3.75 7.9219-10.031 16.641-19.5 26.438-27.562 17.531-14.25 39.094-26.859 61.641-32.438-0.79688-1.8281-1.6406-3.6562-2.3438-5.4375-12.516-31.969-15.797-69.516-3.7031-102.23 16.875-45.609 57.609-72.094 105.98-71.672 2.0156 0 4.0312 0.09375 6 0.1875 1.6406-14.812 5.3438-29.578 10.922-42.703 4.5-10.688 10.078-20.531 17.812-29.203 28.734-32.438 66.188-40.406 103.69-33.469 29.859 5.4844 59.672 21.281 82.359 39.328l8.1094 4.6406c26.953 10.641 55.547 28.594 75.234 51.703 24.75 29.016 36.609 65.391 22.875 106.55-3.7031 10.969-9.375 20.812-16.359 30.047-8.5781 11.344-19.547 21.938-31.547 30.75 1.125 1.6875 2.1562 3.375 3.1875 5.1094 24.469 41.766 21.938 90.234-9.0938 127.64-22.266 26.812-56.438 42.75-90.422 47.906-1.875 0.28125-3.8438 0.51562-5.8594 0.70312 3.9375 13.688 5.4375 28.359 5.1562 42.797h30.281c33.234-0.046875 64.781 14.625 86.156 40.078s30.422 58.969 24.703 91.734c-0.046875 0.14062-0.046875 0.32812-0.09375 0.46875-4.0781 21.844-9.5156 43.266-16.219 64.078-0.1875 0.51562-0.375 1.0781-0.51562 1.5938-39.469 121.08-121.69 222.98-228.84 287.63h105.05c20.719 0 37.5 16.781 37.5 37.5s-16.781 37.5-37.5 37.5h-731.26c-20.719 0-37.5-16.781-37.5-37.5s16.781-37.5 37.5-37.5h86.391c-125.95-76.031-217.36-203.76-244.69-353.63-0.046876-0.09375-0.046876-0.1875-0.09375-0.28125-5.6719-32.484 3.3281-65.766 24.516-90.984 16.359-19.453 38.719-32.578 63.141-37.547zm427.22-66.656c-8.1562-4.4062-16.781-7.875-25.734-9-6.8438-0.84375-13.781-0.98438-20.766-0.79688-6.1875 0.98438-17.391 2.5781-21.422 1.7812-9.0469-1.7812-16.078-6.1406-21.516-12.094-5.0156-5.4844-9.1875-12.844-10.078-23.25-1.1719-13.969 1.5938-28.594 6.75-43.031 5.0625-14.016 12.797-27.938 17.672-40.172 8.1562-20.812 11.812-45.141 3.9844-66.422-8.1094-21.938-28.266-33.891-51.609-33.703-9.375 0.046875-18.75 2.3906-27.609 5.625-3.5625 1.3125-7.1719 2.625-10.641 4.125 1.4062-0.60938 4.9219-2.625 4.9219-2.625s-18.094 8.7188-22.453 9.0938c-6.375 0.51562-12.047-0.5625-16.922-2.4375-11.344-4.4531-23.812-13.031-24.188-34.922-0.1875-10.219 5.1562-22.219 6.0469-32.719 1.4062-16.266-1.2188-34.5-7.5938-49.547-2.0156-4.7812-4.1719-9.3281-7.5938-13.219-13.734-15.516-32.109-17.766-50.016-14.484-24.469 4.5469-48.609 18.469-66.703 33.375-1.7344 1.4062-3.6094 2.6719-5.5312 3.75l-15.422 8.9062c-3.0469 1.7812-5.9062 3-8.4844 3.8438-21.281 8.3438-44.156 21.938-59.672 40.078-11.859 13.875-19.078 30.938-12.516 50.578 1.6406 4.9219 4.5938 9.0938 7.6406 13.172 9.8438 13.078 24.328 24.516 39.094 31.359 9.6094 4.4531 22.594 5.8594 31.406 11.109 11.859 7.1719 15.797 16.5 17.578 24.094 1.9219 8.3438 1.2656 17.016-3.0469 25.594-2.25 4.5-21.938 19.547-21.938 19.547s3.6094-2.0625 4.8281-2.9531c-3.0469 2.25-6 4.7344-8.9062 7.1719-7.2188 6-13.922 12.984-18.703 21.094-11.812 20.109-11.531 43.5 3.4219 61.5 14.484 17.484 37.406 26.438 59.484 29.719 13.078 2.0156 28.969 2.25 43.641 4.875 15.094 2.6719 29.156 7.6406 40.641 15.656 8.1562 5.625 12.375 12.469 14.766 19.266 18.375-0.046875 37.359-0.09375 56.766-0.09375l-96.609-167.39c-10.359-17.953-4.1719-40.922 13.734-51.234 17.906-10.359 40.875-4.2188 51.234 13.734l118.17 204.74c39.281-0.046875 79.359-0.09375 119.2-0.09375 12 0 23.953-0.046875 35.812-0.046875-2.9062-5.25-6.1406-10.359-9.7031-15.328-8.25-11.719-17.25-23.484-28.406-32.578-6.9844-5.7188-14.766-11.156-23.016-15.656zm299.44 63.516c0.42188-8.7656-0.32812-17.719-3.6562-25.547-1.875-4.4062-4.125-8.6719-6.6094-12.75-2.9531-3.3281-7.5-8.6719-8.9062-11.25-3.7969-7.2188-4.875-14.344-4.5-20.766 0.65625-10.547 4.5938-21.188 16.734-29.578 10.078-7.0312 22.406-11.438 35.719-13.875 12-2.1094 24.938-2.3438 35.625-3.9375 16.219-2.4375 33.141-8.8125 43.828-21.609 10.125-12.234 10.125-28.125 2.1094-41.766-3.4219-5.9062-8.3438-10.922-13.594-15.281-2.25-1.875-4.5469-3.7969-6.9375-5.5312 1.2188 0.89062 5.1562 3.1406 5.1562 3.1406s-29.062-55.172-6.6094-68.672c7.2656-4.3594 18.094-5.625 26.109-9.3281 10.922-5.1562 21.703-13.594 29.016-23.297 2.0625-2.7188 4.0312-5.3906 5.1094-8.625 4.4531-13.312-0.79688-24.797-8.7656-34.172-11.812-13.828-29.25-24.094-45.422-30.469-2.3906-0.75-5.1094-1.9688-8.0156-3.6562l-12.516-7.2188-5.4375-3.7031c-13.875-11.391-32.203-22.078-50.906-25.547-12.094-2.2031-24.609-1.0312-33.938 9.5156-2.2969 2.5312-3.6094 5.5781-4.9219 8.7656-4.7812 11.156-6.7031 24.703-5.6719 36.75 0.79688 8.7656 5.1094 18.75 4.9688 27.281-0.1875 10.219-3.7969 17.016-7.3125 21.844-4.6875 6.4219-10.688 10.781-17.812 13.312-4.3594 1.5938-9.375 2.4844-15.047 2.1562-4.4062-0.23438-22.641-8.8125-22.641-8.8125s3.8906 2.3438 5.3438 2.9531c-2.7188-1.1719-5.5312-2.2031-8.25-3.2344-6.4219-2.2969-13.219-4.0312-20.016-4.0781-15.844-0.14062-29.625 7.7812-35.156 22.688-5.7188 15.609-2.7656 33.469 3.2344 48.797 3.8906 9.9844 10.219 21.328 14.391 32.766 4.5469 12.75 6.8906 25.641 5.8594 37.875-1.2656 14.672-8.4844 23.438-17.297 29.25-5.3438 3.6094-12.047 6.1875-20.25 6.5156-2.9062 0.09375-9.7969-1.1719-14.109-2.0625-4.8281-0.09375-9.6094 0.046875-14.391 0.60938-13.312 1.6875-25.688 10.078-35.906 18.422-2.4844 2.0625-4.8281 4.2656-7.0312 6.6094 16.078 13.266 29.672 29.906 41.672 46.969 6.8906 9.75 13.031 19.781 18.375 30.328l126.98-219.98c10.359-17.953 33.328-24.047 51.234-13.734 17.953 10.312 24.094 33.281 13.734 51.234l-121.64 210.71h98.062zm135.56 148.08c2.5312-9.6562 4.6875-19.547 6.5625-29.484 1.8281-10.828-1.2188-21.844-8.2969-30.234-7.125-8.4844-17.625-13.406-28.734-13.406h-99c-50.391 0-108.19 0.046875-169.08 0.046875h-23.719c-15.188 0.046875-30.516 0.046875-45.938 0.046875h-41.438c-47.156 0.046875-94.641 0.09375-140.72 0.14062h-0.09375c-61.969 0.09375-121.31 0.1875-173.58 0.32812-44.625 0.09375-84.094 0.23438-115.78 0.42188h-0.1875c-10.781 0-21 4.7812-27.938 13.031-6.9375 8.2031-9.8906 19.078-8.0625 29.672 1.8281 9.8906 3.9375 19.781 6.4688 29.438h621.84c20.625 0 37.5 16.781 37.5 37.5s-16.875 37.5-37.5 37.5h-595.5c70.641 154.78 226.82 262.5 407.95 262.5 181.18 0 337.36-107.72 408.56-262.5h-71.062c-20.719 0-37.5-16.781-37.5-37.5s16.781-37.5 37.5-37.5z" fill-rule="evenodd"/>
</svg>
