<?xml version="1.0" encoding="UTF-8"?>
<svg width="1200pt" height="1200pt" version="1.1" viewBox="0 0 1200 1200" xmlns="http://www.w3.org/2000/svg">
 <path d="m57.469 355.26v0.1875c0 0.42188 0 0.84375 0.046875 1.2188l2.4844 152.48c0 11.062 3.9844 21.609 10.922 29.906-4.6406 9.0938-9.8906 21.422-12.328 34.781-3.8438 20.812-1.3125 43.688 15.609 62.531 4.5938 5.1094 9.0938 9.2344 13.547 12.469l-0.46875 0.23438c-16.641 7.7344-27.281 24.422-27.281 42.75v153.52c0 18.375 10.641 35.062 27.281 42.75 110.62 51.234 356.63 165.19 459.05 212.63 34.266 15.891 73.828 15.891 108.14 0 102.42-47.438 348.37-161.39 459-212.63 16.688-7.6875 27.328-24.375 27.328-42.75v-153.52c0-18.328-10.641-35.016-27.328-42.75l-0.46875-0.23438c4.4531-3.2344 8.9531-7.3594 13.594-12.469 16.922-18.844 19.453-41.719 15.562-62.531-2.4375-13.359-7.6406-25.688-12.281-34.828 6.8438-8.2031 10.828-18.703 10.922-29.812l2.9531-153.47c0.046875-2.0156-0.23438-3.8906-0.79688-5.7188-1.8281-15.469-11.531-29.109-25.922-35.766l-465.52-215.63c-32.438-15-69.797-15-102.23 0l-465.56 215.63c-15.938 7.4062-26.203 23.438-26.25 41.016zm40.031 384.05v106.03c0 3.75 2.1562 7.125 5.5312 8.7188l459.05 212.63c24.328 11.25 52.312 11.25 76.641 0l459-212.63c3.375-1.5938 5.5781-4.9688 5.5781-8.7188v-106.03c-27.703 12.938-46.172 21.844-92.109 43.172-0.60938 0.23438-1.2188 0.51562-1.8281 0.70312-16.172 21.938-41.391 42.797-79.453 59.766-45.938 20.484-86.672 32.016-122.72 33.516l-152.72 70.734c-34.312 15.891-73.875 15.891-108.14 0-49.219-22.781-65.016-30.094-149.53-69.234-1.2656-0.60938-2.4375-1.3125-3.5156-2.1562-33.703-0.5625-72.094-10.781-117.23-32.859-34.359-16.734-58.5-35.953-75.141-55.922-0.75-0.1875-1.5-0.51562-2.25-0.84375zm418.5 84.328c-0.84375 1.3594-1.9219 2.5781-3.1406 3.7031-17.625 15.984-36.234 28.547-56.531 36.891l105.75 48.984c24.328 11.25 52.312 11.25 76.641 0l102.56-47.531c-19.266-8.0156-36.656-20.531-52.312-37.781-2.4844 2.625-5.0625 5.4375-7.6875 8.25-17.016 17.438-37.688 35.25-80.25 36.562h-0.42188c-37.359 0.5625-55.453-14.062-69.281-30.188-4.4062-5.1562-8.2969-10.547-12.422-15.469-0.9375-1.1719-1.9219-2.2969-2.9062-3.4219zm481.92-122.02c-5.3438 11.719-15.047 23.344-36.797 33.844-27.422 13.172-49.125 7.6406-68.953 1.7344-10.125-3.0469-19.406-7.7344-29.578 0.14062-3.5625 2.8125-5.1094 6.8438-6.7969 11.016-2.0156 4.9219-3.8438 10.219-6.0938 15.516-7.125 16.781-17.953 33.75-46.359 44.859-21.469 8.3438-36.609 7.5-50.719 5.0156-9.0938-1.5938-17.484-4.5-28.453-3.5156 21.516 20.109 46.781 29.062 76.172 29.062 1.3594-0.14062 2.6719-0.1875 4.0312-0.046875 31.875-0.84375 68.531-11.906 110.25-30.516 38.953-17.391 61.594-38.953 73.219-61.734 7.6875-15.234 10.406-30.797 10.078-45.375zm-792.14 5.625c0.65625 7.2188 2.1562 14.672 4.6875 22.125 9.5625 28.172 33.938 56.391 82.031 79.922 79.969 39.047 134.34 35.578 179.72 2.8594-8.6719 0.5625-16.172 2.2031-23.906 3.0938-14.719 1.6875-30 1.5938-50.906-6.5156-28.359-11.109-39.188-28.078-46.312-44.859-2.2969-5.2969-4.0781-10.594-6.0938-15.516-1.6875-4.1719-3.2812-8.2031-6.8438-11.016-10.172-7.875-19.406-3.1875-29.578-0.14062-19.828 5.9062-41.484 11.438-68.953-1.7344-18.234-8.8125-28.031-18.422-33.844-28.219zm-102.94-148.4c-2.9062 6-5.8594 13.688-7.3594 21.844-1.875 10.125-1.6406 21.469 6.6094 30.656 15.656 17.438 30.375 11.812 46.078 10.125 1.1719-0.1875 2.3438-0.32812 3.5625-0.32812 16.781-1.5 34.5-0.60938 54.375 11.578 17.625 10.781 22.688 23.625 26.25 37.547 2.625 10.312 3.6094 21.797 23.531 31.406 21.328 10.266 37.219 0.51562 52.125-3.2812 17.812-4.5469 34.641-4.9219 53.062 9.3281 11.203 8.625 16.594 20.812 21.703 34.453 4.2656 11.297 8.8594 24.047 28.266 31.594 17.484 6.8438 29.156 4.8281 41.484 3.0938 17.438-2.5781 35.812-5.0625 64.359 3.8438 16.453 5.1562 26.766 17.016 37.219 30.328 9.0469 11.672 19.172 24.562 45.844 24.188 28.922-0.9375 42.891-13.312 54.375-25.219 11.297-11.578 21.375-22.453 34.875-28.5 27.703-12.375 45-9.6562 62.016-6.2344 10.875 2.2031 21.609 5.1094 38.484-1.5 19.453-7.5469 24-20.297 28.266-31.594 5.1094-13.641 10.5-25.828 21.75-34.453 18.375-14.25 35.25-13.875 53.062-9.3281 14.906 3.7969 30.797 13.547 52.078 3.2812 19.922-9.6094 20.953-21.094 23.578-31.406 3.5156-13.922 8.625-26.766 26.203-37.547 19.922-12.188 37.641-13.078 54.422-11.578 1.1719 0 2.3438 0.14062 3.5625 0.32812 15.656 1.6875 30.422 7.3125 46.031-10.125 8.25-9.1875 8.5312-20.531 6.6562-30.656-1.5-8.1562-4.5-15.844-7.4062-21.844l-443.44 205.4c-34.312 15.844-73.875 15.844-108.14 0zm1002.5-156.94-453.84 210.19c-32.438 15.047-69.797 15.047-102.23 0l-453.56-210.05 1.7812 106.83c0 3.6562 2.1094 7.0312 5.3906 8.625 0.14062 0.09375 0.32812 0.14062 0.42188 0.23438l458.76 212.48c24.328 11.25 52.312 11.25 76.641 0l458.72-212.48c0.14062-0.09375 0.28125-0.14062 0.46875-0.23438 3.2812-1.5938 5.3906-4.9688 5.3906-8.625zm-931.92 257.29c-5.7188-1.3594-11.203-1.4531-16.5-1.0312l-53.906 24.938c-3.375 1.5469-5.5312 4.9688-5.5312 8.7188s2.1562 7.1719 5.5312 8.7656l69.281 32.062c-6.9844-26.438-4.9219-51.938 1.125-73.453zm870.37-1.0312c-4.9688-0.375-10.031-0.32812-15.422 0.79688 6.4219 20.812 9.6094 46.031 4.3125 72.094 25.359-11.906 40.922-19.359 65.016-30.469 3.375-1.5938 5.5781-5.0156 5.5781-8.7656s-2.2031-7.1719-5.5781-8.7188zm-948.84-302.44v-0.46875c0.046875-3 1.8281-5.6719 4.5469-6.9844l465.52-215.63c22.406-10.359 48.281-10.359 70.688 0l465.56 215.63c2.7656 1.3125 4.5 4.0781 4.5 7.125 0 3-1.7344 5.7656-4.5 7.0781l-465.56 215.63c-22.406 10.359-48.281 10.359-70.688 0l-465.52-215.63c-2.6719-1.2656-4.3594-3.8906-4.5469-6.75z" fill-rule="evenodd"/>
</svg>
