<?xml version="1.0" encoding="UTF-8"?>
<svg width="1200pt" height="1200pt" version="1.1" viewBox="0 0 1200 1200" xmlns="http://www.w3.org/2000/svg">
 <g>
  <path d="m1035.6 483.6c30-127.2-6-267.6-106.8-363.6-138-132-355.2-138-506.4-14.398l-1.1992 1.1992c-49.199 46.801-104.4 92.398-165.6 135.6l-1.1992 1.1992c-70.801 57.602-114 141.6-118.8 229.2-3.6016 81.602 25.199 158.4 82.801 216l1.1992 1.1992c6 4.8008 18 19.199 18 30 0 3.6016-1.1992 7.1992-7.1992 13.199l-1.1992 1.1992c-78 88.801-193.2 164.4-199.2 168l-16.801 10.801 8.3984 19.199c16.801 38.398 63.602 87.602 108 99.602l15.602 4.8008 9.6016-12c4.8008-6 10.801-13.199 16.801-21.602 32.398-42 86.398-112.8 150-168 8.3984 33.602 24 63.602 46.801 91.199l1.1992 1.1992c4.8008 4.8008 12 16.801 12 24 0 1.1992 0 4.8008-4.8008 8.3984l-1.1992 1.1992c-62.398 62.398-97.199 82.801-123.6 97.199l-18 9.6016 6 19.199c12 33.602 49.199 80.398 87.602 94.801l15.602 6 10.801-12c7.1992-8.3984 14.398-16.801 22.801-26.398 21.602-27.602 48-61.199 99.602-97.199l2.3984-1.1992c6-6 24 6 32.398 14.398 54 62.398 132 98.398 208.8 96 66-2.3984 123.6-32.398 163.2-85.199 10.801-14.398 19.199-27.602 27.602-42 18-30 37.199-63.602 93.602-116.4h1.1992c9.6016-9.6016 21.602-19.199 33.602-30 54-45.602 85.199-104.4 88.801-170.4 3.5898-80.402-28.812-162-92.41-234zm-901.2 490.8c-1.1992 2.3984-3.6016 4.8008-4.8008 7.1992-19.199-10.801-39.602-30-52.801-49.199 50.398-34.801 132-97.199 189.6-163.2 14.398-14.398 21.602-31.199 20.398-49.199-1.1992-33.602-27.602-58.801-33.602-63.602-48-48-72-111.6-68.398-178.8 3.6016-74.398 39.602-145.2 100.8-194.4 62.398-44.398 120-91.199 169.2-139.2 129.6-105.6 324-99.602 441.6 13.199 124.8 118.8 138 315.6 28.801 447.6-60 62.398-108 120-144 175.2-49.199 60-120 96-194.4 99.602-68.398 3.6016-132-21.602-180-69.602l-1.1992-1.1992c-25.199-20.398-75.602-45.602-110.4-10.801-69.602 56.398-126 132-160.8 176.4zm944.4-262.8c-3.6016 52.801-27.602 98.398-72 136.8-10.801 9.6016-21.602 19.199-31.199 27.602-15.602 7.1992-32.398 12-49.199 12h-1.1992c-45.602 0-78-30-86.398-38.398l-34.801 33.602c14.398 15.602 55.199 50.398 114 52.801-24 28.801-38.398 52.801-50.398 73.199-8.3984 13.199-14.398 25.199-24 37.199-30 40.801-75.602 64.801-126 66-62.398 2.3984-127.2-27.602-171.6-80.398l-1.1992-1.1992c-20.398-20.398-63.602-45.602-98.398-16.801-56.398 40.801-86.398 78-108 105.6-2.3984 3.6016-4.8008 7.1992-8.3984 9.6016-13.199-9.6016-26.398-24-36-39.602 26.398-16.801 61.199-40.801 114-93.602 13.199-12 21.602-26.398 21.602-42 1.1992-30-20.398-54-25.199-58.801-12-14.398-21.602-31.199-28.801-48 57.602 55.199 133.2 84 212.4 79.199 87.602-4.8008 171.6-48 229.2-118.8l1.1992-2.3984c34.801-54 80.398-109.2 139.2-170.4l1.1992-1.1992c24-30 43.199-62.398 57.602-96 44.395 56.391 65.992 117.59 62.395 173.99z"/>
  <path d="m740.4 396c61.199-34.801 127.2-64.801 194.4-88.801l-15.602-45.602c-54 19.199-106.8 42-158.4 68.398 13.199-28.801 21.602-62.398 22.801-102 16.801-2.3984 37.199-8.3984 56.398-24 13.199-10.801 22.801-25.199 30-42l-44.398-16.801c-2.3984 6-7.1992 15.602-15.602 22.801-9.6016 8.3984-20.398 12-30 13.199-4.8008-26.398-14.398-51.602-27.602-76.801l-42 22.801c16.801 30 26.398 63.602 26.398 96 1.1992 81.602-46.801 136.8-68.398 157.2l-16.801 13.199c-153.6 100.8-274.8 240-337.2 319.2l38.398 30c64.809-82.793 222.01-251.99 387.61-346.79z"/>
  <path d="m346.8 639.6 31.199-37.199c-26.398-21.602-46.801-49.199-58.801-80.398-30-74.398-4.8008-144 7.1992-170.4l-43.199-20.398c-14.398 32.398-44.398 116.4-8.3984 208.8 14.398 38.391 39.598 73.191 72 99.594z"/>
  <path d="m591.6 733.2c49.199-28.801 103.2-15.602 117.6-10.801l14.398-45.602c-25.199-7.1992-91.199-21.602-156 15.602-20.398 12-38.398 27.602-52.801 45.602-25.199-20.398-42-42-50.398-54l-39.602 26.398c19.199 28.801 75.602 99.602 172.8 116.4 13.199 2.3984 27.602 3.6016 40.801 3.6016 27.602 0 55.199-4.8008 81.602-13.199l-15.602-45.602c-32.398 10.801-67.199 13.199-98.398 8.3984-18-3.6016-34.801-8.3984-50.398-15.602 10.793-13.195 22.793-23.996 35.996-31.195z"/>
  <path d="m712.8 1000.8h-2.3984c-66 0-111.6-42-124.8-55.199l-34.801 33.602c20.398 21.602 76.801 69.602 158.4 69.602h2.3984c34.801 0 68.398-9.6016 99.602-26.398l-22.801-42c-21.598 11.992-49.199 19.195-75.598 20.395z"/>
  <path d="m946.8 699.6c-21.602 4.8008-43.199 14.398-61.199 30l31.199 37.199c12-9.6016 26.398-16.801 40.801-19.199 37.199-7.1992 67.199 10.801 75.602 16.801l27.602-39.602c-16.805-12-60.004-37.199-114-25.199z"/>
  <path d="m453.6 362.4c8.3984 18 15.602 34.801 15.602 58.801 0 30-7.1992 43.199-19.199 55.199l33.602 34.801c22.801-22.801 33.602-49.199 33.602-88.801 0-30-7.1992-51.602-15.602-70.801 31.199-3.6016 72-13.199 108-44.398 22.801-20.398 42-45.602 52.801-75.602l-44.398-16.801c-8.3984 21.602-22.801 42-39.602 56.398-32.398 27.602-69.602 33.602-93.602 33.602 0-3.6016-1.1992-6-1.1992-9.6016 0-7.1992-3.6016-67.199 49.199-112.8l-32.398-36c-52.801 46.801-67.199 111.6-64.801 152.4 1.1953 26.406 10.793 45.605 17.996 63.605z"/>
  <path d="m822 484.8c-34.801 8.3984-54 25.199-70.801 39.602-13.199 10.801-24 20.398-42 26.398-6 2.3984-66 20.398-133.2-16.801l-24 42c42 22.801 80.398 30 111.6 30 31.199 0 54-7.1992 61.199-9.6016 26.398-8.3984 42-22.801 57.602-34.801 14.398-13.199 27.602-24 51.602-30 31.199-7.1992 46.801-3.6016 64.801 4.8008l21.602-43.199c-30.008-15.598-60.008-18-98.406-8.3984z"/>
 </g>
</svg>
