<?xml version="1.0" encoding="UTF-8"?>
<svg width="1200pt" height="1200pt" version="1.1" viewBox="0 0 1200 1200" xmlns="http://www.w3.org/2000/svg">
 <g>
  <path d="m1136.5 375.98v-0.98438c2.4844-32.016-8.0156-66-30.984-96-126.98-163.5-426.52-133.5-549-113.02-173.02 29.016-327.52 107.48-414.52 210-44.484 52.5-70.5 110.02-77.016 171.52-2.0156 19.5-1.5 38.484 0 57.984v1.5c0 3.5156-1.5 91.5 0 123-10.5 93.984 26.484 168.98 120.52 243 65.016 51 150.52 75.984 237 75.984 114.98 0 231-43.5 299.02-126.52 25.5-30.984 47.016-63.984 68.016-95.484 9.5156-14.484 18.984-29.016 29.016-43.5 28.5-41.016 65.484-75.984 107.48-101.02 21.516-12.516 44.016-23.016 68.016-33.984 23.016-10.5 46.5-21.516 69-34.5 15.516-9 35.016-21.984 48.984-41.484 40.5-57 25.5-182.48 24-196.5zm-1022 177.52c6-51 27.984-99.984 65.484-144.98 78-92.484 225-166.5 384.52-192.98 89.016-15 387.52-51.984 501.52 94.5 17.484 22.5 30.984 60 11.016 90-16.5 24.984-51.984 41.016-86.484 57l-8.0156 3.5156c-78.984 36-160.5 78-213.98 156-12.984 18.516-24.516 38.016-36.516 57.516-17.484 29.016-33.984 56.016-54.516 81.516-99.984 121.5-324 134.48-460.5 26.484-72.516-57-111.52-144.52-102-228.52zm957.52-9.5156c-6.5156 9.5156-17.016 18-33.516 27.516-20.484 12-42 21.984-65.016 32.484-24 11.016-48.984 22.5-72.516 36.516-48 28.5-90.516 68.484-123 115.5-10.5 15-20.016 30-30 44.484-21 32.016-41.016 62.016-65.016 90.984-103.5 126-335.02 147.52-466.5 43.5-77.484-60.984-107.48-116.48-102.52-191.48 18.984 29.016 42.984 56.016 71.484 78.516 71.016 56.016 162 83.016 252 83.016 108.52 0 214.5-39.984 278.48-117 23.016-27.984 41.484-58.5 59.016-87.516 11.016-18.516 21.984-36.984 34.5-54.984 46.5-67.5 121.5-105.52 194.02-138.98l8.0156-3.5156c27-12.516 56.016-26.016 79.5-45.516-0.98438 35.016-6 69-18.516 86.484z"/>
  <path d="m882 412.5c76.5 0 132-32.016 132-76.5s-55.5-76.5-132-76.5-131.48 32.016-131.48 76.5 55.5 76.5 131.48 76.5zm0-102.98c53.016 0 81.984 20.016 81.984 26.484 0 6.5156-29.016 26.484-81.984 26.484-53.016 0-81.516-20.016-81.516-26.484 0-6.5156 29.016-26.484 81.516-26.484z"/>
  <path d="m567.98 721.5-317.02-24.516c-13.5-0.98438-26.016 9-27 23.016s9 26.016 23.016 27l317.02 24.516h2.0156c12.984 0 24-9.9844 24.984-23.016 0.98438-14.016-9-26.016-23.016-27z"/>
  <path d="m681 649.5c12.984 0 24-9.9844 24.984-23.016 0.98438-13.5-9-26.016-23.016-27l-495.52-39.516c-13.5-0.98438-26.016 9-27 23.016-0.98438 13.5 9 26.016 23.016 27l495.52 39.516z"/>
  <path d="m254.02 486 442.5 37.5h2.0156c12.984 0 24-9.9844 24.984-23.016 0.98438-13.5-9-26.016-23.016-27l-442.5-37.5c-13.5-0.98438-26.016 9-27 23.016-0.98438 13.5 9 26.016 23.016 27z"/>
  <path d="m377.48 372 283.5 17.484h1.5c12.984 0 24-9.9844 24.984-23.484 0.98438-14.016-9.5156-25.5-23.484-26.484l-283.5-17.484c-15-0.51562-25.5 9.5156-26.484 23.484-0.98438 14.016 9.5156 25.5 23.484 26.484z"/>
  <path d="m600.52 281.02 98.016 6h1.5c12.984 0 24-9.9844 24.984-23.484 0.98438-14.016-9.5156-25.5-23.484-26.484l-98.016-6c-15.516-0.98438-25.5 9.5156-26.484 23.484-0.98438 14.016 9.5156 25.5 23.484 26.484z"/>
 </g>
</svg>
