<?xml version="1.0" encoding="UTF-8"?>
<svg width="1200pt" height="1200pt" version="1.1" viewBox="0 0 1200 1200" xmlns="http://www.w3.org/2000/svg">
 <g>
  <path d="m1051.8 448.08c-19.078-30.281-45.562-52.453-72.75-68.672h0.46875c6.4219 0 12.656-2.8594 15.984-8.3438s3.5625-12.422 0.46875-18.141c-3.3281-6.1875-79.406-142.82-192.71-151.92 27.188-45.328 57.469-78.938 79.172-99.422 12.656-11.906 19.312-28.875 18.375-46.266-0.9375-17.156-9.0469-32.906-24.094-44.344-21-15.75-50.297-14.766-69.891 2.625-51.047 45.328-83.25 98.016-103.73 147.61-43.172-9.5156-128.06-32.203-159.05-59.625-19.547-17.156-33.375-14.766-41.719-9.5156-7.1719 4.5469-28.125 17.391-5.0156 118.27-42.656-5.4844-130.4-21.703-175.74-66.281-24.047-24.094-43.406-13.828-48.891-10.031-26.719 18.375-24.094 77.016 6.1875 145.69 0.46875 1.1719 1.1719 2.3906 1.6875 3.5625-29.812 18.141-89.438 68.672-133.31 199.6-43.875 130.74-49.828 421.45 120.71 646.08 34.125 44.812 85.828 71.297 139.5 71.297h6.1875c335.53-12.656 614.06-314.53 606.94-553.03-0.46875-17.625-3.3281-37.922-6.9375-57.703 6.9375 10.266 13.359 21.703 19.547 34.359 3.0938 6.6562 9.7969 10.734 17.391 10.031 7.4062-0.46875 13.594-5.4844 15.75-12.656 20.531-67.031 15.516-125.21-14.531-173.16zm-639.32 716.16c-43.875 1.6875-87.516-19.547-115.88-57-162.14-213.42-156.66-489.32-115.17-612.89 40.547-120.89 93.938-165.52 117.09-180.05 17.391 25.734 37.688 45.094 50.812 56.297-29.109 49.594-51.984 141.42 28.359 212.48 6.1875 6.4219 15.516 16.688 26.953 16.688 2.3906 0 5.0156-0.46875 7.875-1.6875 14.297-5.9531 13.594-21.469 13.125-35.062-1.1719-28.875 1.4531-44.578 18.609-50.062 35.766-11.672 72.984-1.4531 105.89 7.4062 27.188 7.4062 56.766 15.281 79.875 5.7188 0.70312 18.609 2.8594 40.312 7.875 65.344 2.3906 11.438 10.734 29.344 24.562 57.703 11.672 24.094 33.141 68.672 32.438 79.875-0.46875 5.7188 1.9219 11.203 6.4219 15.047 3.3281 2.8594 7.4062 4.3125 11.438 4.3125 1.4531 0 2.8594-0.23438 4.3125-0.46875 155.95-38.391 157.64-193.87 152.39-253.03 22.172 3.0938 59.859 12.891 96.844 41.953 7.1719 28.594 18.141 76.078 19.078 111.14 5.625 199.13-232.13 503.39-572.9 516.28zm629.29-597.84c-75.844-110.67-188.39-108.98-193.64-108.75-5.2578 0.23437-10.266 2.625-13.594 6.6562-3.3281 4.0312-4.5469 9.5156-3.5625 14.531 1.4531 7.6406 34.359 180.05-104.67 228.71-5.7188-18.609-17.156-43.172-31.969-73.922-9.5156-19.547-20.016-41.719-21.703-49.125-15.984-79.875-1.6875-122.34-1.6875-122.58 0.23438-0.70312 0.23438-1.1719 0.23438-1.9219 11.203-44.578-1.9219-68.672-3.7969-71.766-5.0156-8.1094-15.75-10.734-24.094-5.7188-8.3438 4.7812-11.203 15.75-6.6562 24.094 0.23438 0.23438 12.656 24.562-10.969 75.375-8.1094 17.156-21.469 16.219-66.516 4.0312-35.766-9.7969-80.344-21.703-126.14-6.9375-35.062 11.203-42.188 41.719-43.406 65.578-67.969-75.609-5.0156-163.6-2.1562-167.63 0 0 0-0.23438 0.23438-0.46875 0 0 0.23438 0 0.23438-0.23438 1.9219-2.8594 48.188-68.203 163.13-49.594 9.7969 1.6875 18.844-5.0156 20.531-14.766 1.6875-9.7969-5.0156-18.844-14.766-20.531-103.97-16.922-162.14 26.016-186 50.062-15.984-13.594-43.406-40.781-59.156-76.547-24.375-54.844-23.438-88.922-19.594-99.422 1.1719 0.70312 2.625 1.875 4.5 3.7969 67.969 67.031 205.78 78 221.53 78.938 69.891 14.062 85.125 48.188 86.109 50.062 2.625 7.1719 9.5156 11.672 16.688 11.672 1.9219 0 4.0312-0.23438 5.9531-0.9375 9.2812-3.3281 14.062-13.594 10.734-22.875-0.70312-2.1562-19.078-50.297-102.05-70.594-8.3438-34.125-13.359-67.969-12.891-85.359 39.609 33.141 129 56.062 168.14 64.875-23.859 73.453-23.109 132.84-23.109 137.11 0.23438 9.7969 8.8125 17.625 18.141 17.391 9.7969-0.23438 17.625-8.3438 17.625-18.141 0-1.6875-1.6875-176.48 127.6-291.19 6.9375-6.1875 17.156-6.6562 26.016 0 6.9375 5.25 8.3438 12.656 8.5781 16.688 0.46875 7.1719-2.1562 13.828-7.1719 18.375-44.344 42.188-122.58 133.31-147.14 270.42-1.6875 9.7969 4.7812 19.078 14.531 20.766 0.9375 0.23437 2.1562 0.23437 3.0938 0.23437 8.5781 0 15.984-5.9531 17.625-14.766 7.875-43.875 21.938-82.266 38.156-115.64 73.453-5.0156 133.55 64.641 162.14 105.19l-81.094-4.0312c-1.4531 0-2.625 0.23438-4.0312 0.46875-22.875-2.1562-49.594-3.0938-71.297 0.70313-9.7969 1.9219-16.219 11.203-14.297 20.766 1.9219 9.7969 11.203 15.984 20.766 14.297 22.875-4.3125 54.141-1.6875 77.016 1.4531 29.812 6.9375 109.69 30.281 147.84 91.312 17.672 29.062 24.328 62.203 20.016 99.891z"/>
  <path d="m311.34 681.79c4.5469-1.9219 9.2812-5.0156 12.141-9.0469 0.70312-0.9375 0.23438-0.46875 1.9219-3.3281 0.46875-0.70312 1.4531-2.1562 1.9219-3.3281 2.1562-4.3125 2.8594-10.266 2.3906-15.047-0.46875-5.25-2.625-10.5-5.7188-14.531-2.1562-3.0938-5.0156-5.4844-8.3438-7.1719-3.0938-2.1562-6.4219-3.5625-10.266-4.0312-2.8594-0.46875-5.4844-0.46875-8.1094 0-3.1406 0.1875-6 0.70312-9.0938 1.875-2.1562 1.1719-4.3125 2.3906-6.4219 3.5625-4.0312 3.0938-7.1719 6.9375-9.0469 11.438-0.9375 2.3906-1.6875 5.0156-2.1562 7.4062-0.9375 4.7812 0 10.969 1.6875 15.516 0.9375 2.3906 2.1562 4.7812 3.7969 6.6562 0.23438 0.23438 5.0156 5.25 5.25 5.4844 3.7969 3.3281 9.0469 5.25 13.828 6.1875 2.625 0.46875 5.4844 0.46875 8.3438 0.23438 2.625-0.1875 5.25-0.9375 7.875-1.875zm9.75-45.562c0.46875 0.46875 0.70312 0.9375 1.1719 1.1719 0.46875 0.9375 1.1719 2.1562 1.6875 3.0938-0.70312-1.6406-1.6406-3.0469-2.8594-4.2656zm-5.0156-4.7344c0.46875 0.23438 0.70312 0.46875 1.1719 0.70312l0.46875 0.46875c-0.42188-0.46875-1.125-0.70312-1.6406-1.1719zm11.25 27.891c0.23438-0.9375 0.23438-1.9219 0.23438-2.8594v2.3906c0 0.23438 0 0.23438-0.23438 0.46875zm0.23438-8.3438v1.9219c0.23438-0.51562 0.23438-1.2188 0-1.9219zm-53.438 13.828c0.23438 0.23438 0.23438 0.46875 0.46875 0.9375 0-0.46875-0.23438-0.70312-0.46875-0.9375z"/>
  <path d="m547.64 686.11c-1.6875-3.3281-3.7969-6.1875-6.9375-8.5781-2.8594-2.625-6.1875-4.0312-10.031-5.0156-3.5625-1.4531-7.4062-1.9219-11.438-1.1719-2.625 0.70312-5.0156 1.1719-7.6406 1.9219-4.7812 1.9219-8.5781 4.7812-11.906 8.8125-1.1719 2.1562-2.625 4.3125-3.7969 6.1875-2.1562 4.7812-2.8594 9.7969-2.3906 15.047 0 0.9375 0.23438 1.6875 0.23438 2.625 0.23438 4.0312 1.4531 7.6406 3.7969 10.734 1.6875 3.3281 3.7969 6.1875 6.9375 8.5781 2.8594 2.625 6.1875 4.0312 10.031 5.0156 3.5625 1.4531 7.4062 1.9219 11.438 1.1719 2.625-0.70312 5.0156-1.1719 7.6406-1.9219 4.7812-1.9219 8.5781-4.7812 11.906-8.8125 1.1719-2.1562 2.625-4.3125 3.7969-6.1875 2.1562-4.7812 2.8594-9.7969 2.3906-15.047 0-0.9375-0.23438-1.6875-0.23438-2.625-0.42188-3.8438-1.6406-7.4062-3.7969-10.734z"/>
  <path d="m337.78 895.97c4.7812-1.9219 8.5781-4.7812 11.906-8.8125 1.1719-2.1562 2.625-4.3125 3.7969-6.1875 2.1562-4.7812 2.8594-9.7969 2.3906-15.047 0-0.9375-0.23438-1.6875-0.23438-2.625-0.23438-4.0312-1.4531-7.6406-3.7969-10.734-1.6875-3.3281-3.7969-6.1875-6.9375-8.5781-2.8594-2.625-6.1875-4.0312-10.031-5.0156-3.5625-1.4531-7.4062-1.9219-11.438-1.1719-2.625 0.70312-5.0156 1.1719-7.6406 1.9219-4.7812 1.9219-8.5781 4.7812-11.906 8.8125-1.1719 2.1562-2.625 4.3125-3.7969 6.1875-2.1562 4.7812-2.8594 9.7969-2.3906 15.047 0 0.9375 0.23438 1.6875 0.23438 2.625 0.23438 4.0312 1.4531 7.6406 3.7969 10.734 1.6875 3.3281 3.7969 6.1875 6.9375 8.5781 2.8594 2.625 6.1875 4.0312 10.031 5.0156 3.5625 1.4531 7.4062 1.9219 11.438 1.1719 2.6719-0.75 5.0156-1.4531 7.6406-1.9219z"/>
  <path d="m379.55 1007.3c-1.9219-1.4531-3.7969-3.0938-5.9531-4.5469-4.5469-2.625-9.2812-3.7969-14.531-4.0312h-2.625c-4.0312-0.23438-7.6406 0.70312-11.203 2.3906-3.6094 1.4531-6.7031 3.3281-9.3281 6.1875-2.8594 2.625-4.7812 5.7188-5.9531 9.2812-1.9219 3.3281-2.625 7.1719-2.3906 11.203 0.23438 2.625 0.70312 5.0156 0.9375 7.6406 1.4531 4.7812 3.7969 9.0469 7.4062 12.656 1.9219 1.4531 3.7969 3.0938 5.9531 4.5469 4.5469 2.625 9.2812 3.7969 14.531 4.0312h2.625c4.0312 0.23438 7.6406-0.70312 11.203-2.3906 3.5625-1.1719 6.6562-3.0938 9.2812-5.9531 2.8594-2.625 4.7812-5.7188 5.9531-9.2812 1.9219-3.3281 2.625-7.1719 2.3906-11.203-0.23438-2.625-0.70312-5.0156-0.9375-7.6406-1.4062-5.0156-3.7969-9.2812-7.3594-12.891z"/>
  <path d="m604.64 976.78c-2.625-2.8594-5.7188-4.7812-9.2812-5.9531-3.3281-1.9219-7.1719-2.625-11.203-2.3906-2.625 0.23438-5.0156 0.70312-7.6406 0.9375-5.0156 1.4531-9.0469 3.7969-12.891 7.4062-1.4531 1.9219-3.0938 3.7969-4.5469 5.9531-2.625 4.5469-3.7969 9.2812-4.0312 14.531v2.625c-0.23438 4.0312 0.70312 7.6406 2.3906 11.203 1.1719 3.5625 3.0938 6.6562 5.9531 9.2812 2.625 2.8594 5.7188 4.7812 9.2812 5.9531 3.3281 1.9219 7.1719 2.625 11.203 2.3906 2.625-0.23438 5.0156-0.70312 7.6406-0.9375 5.0156-1.4531 9.0469-3.7969 12.891-7.4062 1.4531-1.9219 3.0938-3.7969 4.5469-5.9531 2.625-4.5469 3.7969-9.2812 4.0312-14.531v-2.625c0.23438-4.0312-0.70312-7.6406-2.3906-11.203-1.1719-3.5625-3.0938-6.6562-5.9531-9.2812z"/>
  <path d="m531.19 855.19c-0.9375-0.70312-1.9219-1.4531-2.8594-2.3906-2.8594-2.625-6.1875-4.0312-10.031-5.0156-3.5625-1.4531-7.4062-1.9219-11.438-1.1719-4.0312 0.23438-7.6406 1.4531-10.734 3.7969-3.3281 1.6875-6.1875 3.7969-8.5781 6.9375-1.1719 2.1562-2.625 4.3125-3.7969 6.1875-2.1562 4.7812-2.8594 9.7969-2.3906 15.047 0.70312 2.625 1.1719 5.0156 1.9219 7.6406 1.9219 4.7812 4.7812 8.5781 8.8125 11.906 0.9375 0.70312 1.9219 1.4531 2.8594 2.3906 2.8594 2.625 6.1875 4.0312 10.031 5.0156 3.5625 1.4531 7.4062 1.9219 11.438 1.1719 4.0312-0.23438 7.6406-1.4531 10.734-3.7969 3.3281-1.6875 6.1875-3.7969 8.5781-6.9375 1.1719-2.1562 2.625-4.3125 3.7969-6.1875 2.1562-4.7812 2.8594-9.7969 2.3906-15.047-0.70312-2.625-1.1719-5.0156-1.9219-7.6406-2.1094-4.7812-4.9688-8.5781-8.8125-11.906z"/>
  <path d="m760.13 837.74c-1.9219-4.7812-4.7812-8.5781-8.8125-11.906-2.1562-1.1719-4.3125-2.625-6.1875-3.7969-4.7812-2.1562-9.7969-2.8594-15.047-2.3906-0.9375 0-1.6875 0.23437-2.625 0.23437-4.0312 0.23438-7.6406 1.4531-10.734 3.7969-3.3281 1.6875-6.1875 3.7969-8.5781 6.9375-2.625 2.8594-4.0312 6.1875-5.0156 10.031-1.4531 3.5625-1.9219 7.4062-1.1719 11.438 0.70312 2.625 1.1719 5.0156 1.9219 7.6406 1.9219 4.7812 4.7812 8.5781 8.8125 11.906 2.1562 1.1719 4.3125 2.625 6.1875 3.7969 4.7812 2.1562 9.7969 2.8594 15.047 2.3906 0.9375 0 1.6875-0.23437 2.625-0.23437 4.0312-0.23438 7.6406-1.4531 10.734-3.7969 3.3281-1.6875 6.1875-3.7969 8.5781-6.9375 2.625-2.8594 4.0312-6.1875 5.0156-10.031 1.4531-3.5625 1.9219-7.4062 1.1719-11.438-0.70312-2.3906-1.4531-5.0156-1.9219-7.6406z"/>
 </g>
</svg>
