<?xml version="1.0" encoding="UTF-8"?>
<svg width="1200pt" height="1200pt" version="1.1" viewBox="0 0 1200 1200" xmlns="http://www.w3.org/2000/svg">
 <path d="m90.094 595.13c-20.625 16.734-33.844 42.375-33.844 71.062v0.09375c0 2.7188 0.09375 5.3906 0.1875 8.0156-0.09375 0.89062-0.1875 1.8281-0.1875 2.7656v74.719c0 109.88 89.109 198.98 198.98 198.98h689.53c109.88 0 198.98-89.109 198.98-198.98v-79.359c0-0.51562-0.046875-1.0312-0.09375-1.5469 0.046875-1.5 0.09375-3.0469 0.09375-4.5938v-0.09375c0-28.688-13.219-54.328-33.844-71.062 21.797-22.125 33.844-50.906 33.844-80.812v-7.875c0-65.156-28.312-127.69-78.938-173.76-49.969-45.422-117.75-71.109-188.39-71.109-40.875 0-79.828 13.734-95.672 20.109-0.79688-0.28125-1.5938-0.5625-2.3438-0.84375-1.875-1.0781-3.8906-1.7344-5.9062-2.0625-117.75-40.828-235.55-38.812-353.29 2.9531-15.797-6.2812-55.266-20.156-95.625-20.156-70.688 0-138.42 25.688-188.39 71.109-50.625 46.078-78.938 108.61-78.938 173.76v7.875c0 29.906 12.047 58.688 33.844 80.812zm1014.9 176.34c-29.766 34.969-74.109 57.141-123.61 57.141h-762.84c-49.547 0-93.844-22.172-123.61-57.141 9.7031 79.922 77.766 141.79 160.26 141.79h689.53c82.5 0 150.56-61.875 160.26-141.79zm-12.422-141.19c-5.9062 34.969-26.25 92.297-95.953 107.11-11.578 2.4844-21.938 3.3281-31.547 3-5.0156 19.594-17.391 36.562-35.016 50.156-0.28125 0.1875-0.51562 0.375-0.75 0.5625h52.078c68.906 0 124.82-55.875 124.82-124.82v-0.09375c0-13.781-5.1562-26.344-13.641-35.906zm-439.97 99.094c-11.578-4.1719-21.562-9.4219-31.172-14.344-15.328-7.875-29.156-15.047-51.609-8.3438-13.781 4.125-23.297 10.172-33.891 15.562-1.5469 0.75-3.0938 1.5-4.6406 2.25-1.4062 26.438-15.188 48.938-37.453 66.047-0.28125 0.1875-0.51562 0.375-0.79688 0.5625h200.95c-2.1094-1.5469-4.125-3.2344-6.1406-4.9219-18.703-15.844-31.312-35.391-35.25-56.812zm-555.84-81.141c-2.0156 5.625-3.0469 11.672-3.0469 17.953v0.09375c0 68.953 55.875 124.82 124.82 124.82h39.234c-2.1094-1.5469-4.1719-3.2344-6.1406-4.9219-16.406-13.875-28.078-30.609-33.375-48.938-2.6719 0.23437-5.3906 0.42187-8.2031 0.5625-42.984 1.7344-98.25-28.875-113.3-89.578zm831.47 84.516c-10.359-3.9375-19.969-9.0469-29.484-14.297-19.922-11.016-39.188-23.391-69.703-18.609-22.547 3.5625-32.344 11.625-44.859 18.75-16.125 9.1406-35.438 17.812-77.578 19.172-3.9844 0.09375-7.875 0.046875-11.531-0.046875 4.0781 7.2188 9.9844 13.922 17.062 19.922 23.531 19.969 59.672 32.156 94.922 31.922 38.25-0.32812 75.891-10.125 100.12-28.734 10.125-7.7812 17.719-17.109 21.047-28.078zm-437.68 4.0781c-11.578 1.5469-25.312 2.0156-42.375 0.9375-30.562-1.9688-48.422-10.641-64.125-19.5-17.25-9.75-30.797-20.016-66.656-13.453-9.6562 1.7344-18.844 6.5625-29.344 11.578-9.8438 4.6406-20.531 9.5156-32.859 13.453 3.75 10.406 11.203 19.688 20.719 27.797 23.531 19.969 59.672 32.156 94.969 31.922 38.25-0.32812 75.844-10.125 100.08-28.734 8.8125-6.7969 15.75-14.766 19.594-24zm-359.81-114c4.0781 51.281 45.047 78.844 77.766 77.484 27.797-1.125 47.109-10.078 63.469-17.812 13.828-6.5625 26.062-12.281 38.625-14.578 41.953-7.7344 62.156 0.9375 81.75 11.906 14.672 8.1562 28.781 18.609 58.266 20.484 42.281 2.7656 59.062-6.6094 76.688-15.891 9.5156-4.9688 19.266-9.9375 31.781-13.641 34.5-10.266 55.969-1.2188 79.5 10.875 17.109 8.7656 35.625 19.594 66.844 18.609 39.656-1.2656 53.625-10.312 68.25-18.984 12.703-7.5469 25.828-14.719 49.5-18.469 40.875-6.4219 67.078 8.0625 93.656 22.781 19.781 10.922 39.844 21.938 71.953 15.094 47.016-9.9844 61.922-47.484 66.562-72.75-13.266 4.125-27.328 6.375-41.672 6.375h-827.44c-19.406 0-38.344-4.0312-55.5-11.484zm628.64-308.95c-106.27-36.562-212.53-35.625-318.74 0.09375 3.8438 9.0938 6.6094 19.031 8.4375 29.531 3.5625 20.953 3.4219 44.625 2.4844 68.812-0.42188 10.312-9.1406 18.375-19.5 18-10.312-0.375-18.375-9.1406-18-19.5 0.89062-21.422 1.2188-42.375-1.9688-60.984-2.4844-14.391-6.9375-27.281-16.078-36.891-16.406-5.8125-44.156-13.875-72.469-13.875-61.172 0-119.86 21.984-163.18 61.359-42.562 38.766-66.656 91.219-66.656 146.02v7.875c0 21.703 9.6094 42.375 26.438 57.703 17.531 15.938 41.297 24.797 66.094 24.797h827.44c24.75 0 48.562-8.8594 66.047-24.797 16.875-15.328 26.484-36 26.484-57.703v-7.875c0-54.797-24.094-107.25-66.656-146.02-43.312-39.375-102-61.359-163.18-61.359-29.344 0-57.516 8.3906-73.547 14.25 4.0781 9.2344 6.8906 19.359 8.7656 30.188 3.5625 20.953 3.4688 44.625 2.4844 68.812-0.42187 10.312-9.0938 18.375-19.453 18-10.359-0.375-18.422-9.1406-18-19.5 0.84375-21.422 1.1719-42.375-2.0156-60.984-2.3906-13.969-6.6562-26.438-15.234-35.953z" fill-rule="evenodd"/>
</svg>
