<?xml version="1.0" encoding="UTF-8"?>
<svg width="1200pt" height="1200pt" version="1.1" viewBox="0 0 1200 1200" xmlns="http://www.w3.org/2000/svg">
 <g>
  <path d="m763.5 246.52c11.016-10.5 29.016-23.016 47.484-32.484 10.5-5.4844 15.984-17.484 12.516-29.016-3.5156-11.484-14.016-18.984-26.016-18-45.984 3.5156-116.02 21.516-163.5 41.484 6-33.984 20.016-80.016 54.516-111.52 9.9844-9.5156 11.016-24.984 1.5-35.484s-24.984-11.016-35.484-1.5c-47.016 42.516-64.5 104.02-71.016 146.02-72.516-39.984-156.52-20.016-160.5-18.984-11.484 3-18.984 13.5-18.516 24.984 0.51562 11.484 9 21.516 20.484 23.484 9.9844 2.0156 18.984 5.0156 27.516 8.4844-210.52 48.984-342.98 198.52-342.98 393 0 253.5 220.5 459.52 491.48 459.52s491.48-206.02 491.48-459.52c0-192-125.02-339.52-327.98-390.98zm-177 22.5s2.4844 0.98438 3.5156 2.0156c2.0156 1.5 3.9844 2.4844 6.5156 3.5156 2.0156 0.51562 3.5156 0.98438 5.4844 0.98438h2.0156c2.0156 0 3.9844-0.51562 6.5156-1.5h3.5156c1.5-0.51562 2.4844-2.0156 3.9844-3s3-2.0156 4.5-3c0 0 0.51562 0 0.98438-0.51562 9.5156-6 44.484-21 86.484-33-4.5 8.4844-6.5156 18-6 27.516v8.0156c0 0.51562 0.51562 0.98438 0.98438 1.5 0.51562 2.4844 2.0156 4.5 3.5156 6.5156 0.51562 0.98438 0.98438 2.0156 1.5 2.4844 2.4844 2.4844 5.0156 5.0156 8.0156 6.5156 65.016 29.484 102.98 74.016 124.5 111.98-75.516-45.516-150-57.516-153.98-58.5-5.4844-0.98438-10.5 0-15.516 2.4844-8.0156 4.5-26.016 13.5-72.516 164.02-21-71.016-28.5-147-28.5-147.98-0.51562-6.5156-3.9844-12.984-9.5156-17.016-2.4844-2.0156-5.0156-3.5156-8.0156-3.9844-0.98438 0-2.0156 0-3-0.51562-1.5 0-3-0.51562-4.5-0.51562h-3c-67.5 9-123 33-162.98 56.016 54.516-98.484 135.98-108.52 140.02-108.52 9.5156-0.98438 17.016-8.0156 20.484-17.016 3.5156-9 0-20.016-6.5156-27l-2.0156-2.0156c18.984 5.4844 37.5 15.516 53.484 31.5zm14.016 777.52c-243.52 0-441.52-183.52-441.52-409.5 0-137.48 77.016-249.52 204.98-310.5-1.5 2.0156-3.5156 5.0156-5.0156 7.5-2.4844 3.5156-5.0156 6.9844-7.5 10.5-3.9844 6-8.0156 12.984-12 20.016-2.4844 3.9844-4.5 8.0156-6.5156 12-3.9844 8.0156-8.0156 16.5-11.484 24.984-1.5 3.9844-3.5156 8.0156-5.0156 12-5.0156 13.5-9.9844 27.516-14.016 42.984-3 11.016 2.0156 22.5 11.484 27.984 9.5156 5.4844 21.984 3.9844 30-3.9844 0.98438-0.51562 70.5-68.484 180.98-90.984 6 45.516 21.984 139.5 56.484 204.98 2.4844 4.5 5.4844 7.5 9.9844 9.9844 1.5 0.98438 3.5156 0.98438 5.0156 1.5 2.4844 0.98438 5.0156 2.0156 7.5 2.0156h2.4844c9.9844-0.98438 18.516-8.0156 21.516-18 23.016-80.016 54-173.48 66-198.52 32.484 7.5 120.98 32.484 184.5 96 7.5 7.5 18.984 9.5156 29.016 4.5 9.5156-5.0156 15-15 13.5-26.016 0 0 0-1.5-0.51562-3.5156v-1.5c0-1.5-0.98438-3.9844-1.5-6.5156 0-0.98438 0-1.5-0.51562-2.4844-0.98438-3.5156-2.0156-7.5-3-12s-3-9-4.5-14.016c-0.51562-1.5-0.98438-3.5156-2.0156-5.0156-1.5-3.9844-3-8.0156-5.0156-12.516-0.98438-2.0156-1.5-3.5156-2.4844-5.4844-2.4844-6-5.4844-12.516-9-18.984-0.51562-0.98438-1.5-2.0156-2.0156-3.5156-3-5.4844-6-11.016-9.5156-17.016-1.5-2.4844-3-5.0156-4.5-7.5-3-5.0156-6.5156-9.5156-9.9844-14.484-1.5-1.5-2.4844-3.5156-3.5156-5.0156 113.48 63 179.48 169.5 179.48 299.48 0 225.98-198 409.5-441.52 409.5z"/>
  <path d="m962.02 564.52c-4.5-12.984-18.984-19.5-32.016-15-12.984 4.5-19.5 18.984-15 32.016 0.51562 2.0156 63.984 183.52-152.02 316.5-11.484 6.9844-15.516 22.5-8.0156 34.5 4.5 7.5 12.984 12 21.516 12 4.5 0 9-0.98438 12.984-3.5156 249.98-153.98 173.48-374.02 172.5-375.98z"/>
 </g>
</svg>
