<?xml version="1.0" encoding="UTF-8"?>
<svg width="1200pt" height="1200pt" version="1.1" viewBox="0 0 1200 1200" xmlns="http://www.w3.org/2000/svg">
 <g>
  <path d="m1167.6 740.06-78.188-78.234-469.22-469.22v0.046875c-5.3438-5.3438-12.609-8.3438-20.156-8.3438-7.5938 0-14.812 3-20.156 8.3438l-469.22 469.22-78.281 78.188c-11.109 11.156-11.109 29.203 0 40.312 150.47 150.71 354.71 235.4 567.66 235.4s417.19-84.703 567.66-235.4c11.109-11.156 11.062-29.203-0.09375-40.312zm-567.61-486.98 428.44 428.53-1.125 1.0781c-2.9531 2.7188-6 5.2969-9.0938 7.9219-4.6406 4.0781-9.2812 8.1562-14.016 12.094-3.3281 2.7656-6.75 5.3906-10.125 8.0625-4.5469 3.6094-9.1406 7.2656-13.781 10.781-3.6094 2.6719-7.2188 5.2031-10.781 7.7812-4.5938 3.3281-9.1875 6.6094-13.828 9.7969-3.75 2.5312-7.5469 4.9688-11.297 7.4062-4.6406 3.0469-9.2812 6-14.016 8.9062-3.8906 2.3906-7.8281 4.6406-11.719 6.9375-4.7344 2.7656-9.4688 5.4844-14.25 8.1094-4.0312 2.2031-8.0625 4.3125-12.141 6.4219-4.7812 2.4844-9.6094 4.9688-14.484 7.3125-4.125 2.0156-8.25 3.9375-12.422 5.8594-4.9219 2.25-9.8438 4.4531-14.812 6.6094-4.2188 1.7812-8.3906 3.6094-12.703 5.2969-5.0156 2.0156-10.031 3.9844-15.094 5.8594-4.2656 1.5938-8.5781 3.1875-12.891 4.6875-5.1094 1.7812-10.266 3.4688-15.422 5.1094-4.3125 1.4062-8.6719 2.7656-13.031 4.0781-5.25 1.5469-10.547 2.9531-15.797 4.4062-4.3594 1.2188-8.6719 2.3906-13.078 3.4219-5.3906 1.3125-10.875 2.4844-16.312 3.6562-4.3125 0.9375-8.6719 1.9219-13.031 2.7656-5.625 1.0781-11.297 2.0156-16.969 2.9531-4.2188 0.70312-8.3906 1.4531-12.703 2.1094-6 0.84375-12 1.5469-18 2.2031-4.0312 0.46875-7.9688 1.0312-12 1.4062-6.7031 0.65625-13.406 1.0781-20.109 1.5-3.4219 0.23438-6.7969 0.5625-10.219 0.70312-10.172 0.46875-20.344 0.75-30.562 0.75h-5.9062c-10.219 0-20.391-0.23438-30.516-0.75-3.4219-0.1875-6.7969-0.46875-10.219-0.70312-6.7031-0.42188-13.406-0.84375-20.062-1.5-4.0312-0.375-8.0156-0.9375-12-1.4062-6-0.70312-12-1.3594-18-2.2031-4.2656-0.60938-8.4844-1.4062-12.75-2.1094-5.6719-0.9375-11.297-1.875-16.922-2.9531-4.3594-0.84375-8.6719-1.8281-13.031-2.7656-5.4375-1.2188-10.875-2.3906-16.266-3.6562-4.4062-1.0781-8.7656-2.25-13.125-3.4219-5.25-1.4062-10.547-2.8125-15.75-4.3594-4.4062-1.3125-8.7188-2.6719-13.078-4.0781-5.1562-1.6406-10.266-3.3281-15.328-5.1094-4.3594-1.5-8.6719-3.0938-12.984-4.7344-5.0156-1.875-10.031-3.7969-14.953-5.8125-4.2656-1.7344-8.5312-3.5156-12.797-5.3438-4.9219-2.1094-9.7969-4.2656-14.672-6.5156-4.2188-1.9219-8.3906-3.8906-12.562-5.9062-4.7812-2.3906-9.6094-4.7812-14.391-7.2656-4.125-2.1562-8.2031-4.2656-12.234-6.5156-4.7344-2.625-9.4219-5.2969-14.062-8.0156-3.9844-2.2969-7.9219-4.6406-11.859-7.0312-4.6875-2.8594-9.2812-5.8594-13.875-8.8125-3.7969-2.4844-7.6406-4.9219-11.391-7.4531-4.6406-3.1406-9.1875-6.4219-13.734-9.7031-3.6094-2.625-7.2656-5.2031-10.781-7.875-4.6406-3.4688-9.1875-7.125-13.688-10.734-3.375-2.6719-6.7969-5.2969-10.125-8.1094-4.7344-3.9375-9.375-8.0625-14.016-12.141-3-2.6719-6.0938-5.2031-9.0469-7.9219l-1.2188-1.0781zm0 705.61c-188.06 0.46875-369.24-70.594-506.76-198.84l37.922-37.922c0.75 0.70312 1.5469 1.3594 2.3438 2.0625 3.6094 3.2344 7.2188 6.3281 10.781 9.5156 4.7812 4.1719 9.5156 8.3906 14.391 12.422 3.7969 3.1875 7.6875 6.1875 11.578 9.2812 4.7812 3.7969 9.6094 7.6406 14.484 11.344 4.0312 3.0469 8.1094 5.9062 12.141 8.8594 4.875 3.5156 9.7031 7.0312 14.672 10.359 4.2188 2.8594 8.3906 5.625 12.703 8.3906 4.9219 3.2344 9.8906 6.4219 14.906 9.4688 4.3594 2.6719 8.7188 5.25 13.125 7.8281 5.0625 2.9531 10.078 5.8594 15.188 8.6719 4.4531 2.3906 8.9531 4.7812 13.5 7.2188 5.1562 2.6719 10.312 5.2969 15.516 7.8281 4.5938 2.25 9.1875 4.4531 13.828 6.6094 5.25 2.3906 10.547 4.7344 15.844 7.0781 4.6875 2.0156 9.375 3.9844 14.109 5.9062 5.3906 2.1562 10.781 4.2656 16.266 6.2812 4.7344 1.7812 9.4688 3.6094 14.25 5.2031 5.5312 1.9219 11.109 3.75 16.641 5.5312 4.7812 1.5469 9.6094 3.0938 14.391 4.5 5.6719 1.6875 11.391 3.2344 17.109 4.7812 4.7812 1.2656 9.6094 2.625 14.391 3.7969 5.8594 1.4062 11.766 2.7188 17.672 3.9844 4.7812 1.0312 9.5156 2.1094 14.297 3.0469 6.0938 1.2188 12.234 2.2031 18.422 3.1875 4.6406 0.79687 9.2812 1.6406 13.922 2.2969 6.5156 0.9375 13.078 1.6875 19.641 2.3906 4.3594 0.51562 8.7188 1.125 13.078 1.5469 7.3125 0.70313 14.719 1.2188 22.078 1.6406 3.6094 0.23437 7.2656 0.60937 10.922 0.75 11.062 0.51562 22.172 0.79687 33.328 0.84375h6.4219c11.156 0 22.219-0.28125 33.328-0.79688 3.9375-0.1875 7.8281-0.5625 11.766-0.84375 7.125-0.46875 14.203-0.89062 21.281-1.5938 4.6406-0.42187 9.1875-1.0781 13.828-1.6406 6.3281-0.75 12.656-1.4062 18.938-2.3438 4.875-0.70313 9.7031-1.5938 14.531-2.3906 6-0.98437 11.906-1.9219 17.859-3.0938 4.9688-0.9375 9.8438-2.1094 14.812-3.1406 5.7188-1.2188 11.484-2.4844 17.156-3.8438 4.9688-1.2188 9.8906-2.5781 14.859-3.8906 5.5781-1.5 11.156-3 16.688-4.6406 4.9688-1.4531 9.8438-3.0469 14.766-4.6406 5.4375-1.7344 10.875-3.5156 16.266-5.3906 4.875-1.6875 9.75-3.5156 14.625-5.3438 5.3438-2.0156 10.641-4.0312 15.938-6.1875 4.7812-1.9219 9.6094-3.9375 14.344-6 5.25-2.25 10.453-4.5938 15.656-6.9844 4.6875-2.1562 9.375-4.3594 14.016-6.6562 5.1562-2.5312 10.266-5.1094 15.375-7.7812 4.5938-2.3906 9.1406-4.8281 13.641-7.2656 5.0625-2.8125 10.125-5.6719 15.141-8.625 4.4062-2.5781 8.8125-5.1562 13.219-7.875 5.0156-3.0938 9.9375-6.2344 14.859-9.4688 4.2656-2.7656 8.5312-5.5312 12.703-8.3906 4.9219-3.375 9.7969-6.8438 14.625-10.359 4.0781-2.9062 8.1562-5.8594 12.188-8.8594 4.875-3.7031 9.6562-7.5 14.484-11.344 3.8438-3.0938 7.7344-6.0938 11.531-9.2812 4.875-4.0781 9.6094-8.25 14.391-12.469 3.6094-3.1406 7.2188-6.2344 10.688-9.4219 0.79688-0.70313 1.5938-1.3594 2.3906-2.0625l37.922 37.922-0.09375 0.046876c-137.53 128.26-318.74 199.31-506.81 198.84z"/>
  <path d="m600 554.11c7.5938 0 14.812-3 20.156-8.3906l78.234-78.141c11.156-11.156 11.156-29.25 0-40.359-11.156-11.156-29.203-11.156-40.359 0l-78.188 78.234c-8.1562 8.1562-10.594 20.391-6.1875 31.078 4.4062 10.641 14.812 17.578 26.344 17.578z"/>
  <path d="m756.42 710.53c7.5938 0 14.812-3 20.156-8.3906l78.234-78.141c5.4844-5.2969 8.625-12.609 8.7188-20.297 0.046875-7.6406-2.9531-15-8.3438-20.438-5.4375-5.3906-12.797-8.3906-20.438-8.3438-7.6875 0.09375-14.953 3.2344-20.297 8.7656l-78.188 78.234v-0.046875c-8.1562 8.1562-10.594 20.438-6.1875 31.078s14.812 17.625 26.344 17.625z"/>
  <path d="m345.19 624c11.156 11.156 29.203 11.156 40.359 0l78.234-78.188h-0.046875c11.156-11.156 11.156-29.203 0-40.359-11.109-11.109-29.156-11.109-40.312 0l-78.234 78.188v0.046875c-11.109 11.109-11.109 29.156 0 40.312z"/>
  <path d="m521.81 788.76c7.5469 0 14.812-3.0469 20.156-8.3906l78.234-78.234h-0.046875c10.781-11.203 10.641-28.969-0.375-39.938-10.969-11.016-28.781-11.156-39.938-0.375l-78.234 78.234c-8.1562 8.1562-10.594 20.438-6.1875 31.078 4.4062 10.688 14.812 17.625 26.344 17.625z"/>
 </g>
</svg>
