<?xml version="1.0" encoding="UTF-8"?>
<svg width="1200pt" height="1200pt" version="1.1" viewBox="0 0 1200 1200" xmlns="http://www.w3.org/2000/svg">
 <path d="m184.5 532.8 130.2 572.7c12.602 55.199 61.801 94.5 118.2 94.5h334.2c56.699 0 105.9-39.301 118.2-94.5l130.2-572.7 33-23.699c38.398-27.602 61.5-72 61.5-119.4s-22.801-91.801-61.5-119.4l-32.699-23.398c17.699-24.602 32.699-49.199 42.898-72.301 25.199-57.602 21.301-107.4-20.699-139.2-38.398-28.801-88.5-19.801-140.1 18-22.199 16.199-44.699 37.5-66.898 61.5l-105-75c-36.898-26.398-81-40.5-126.3-40.5-45.301 0-89.398 14.102-126.3 40.5-80.699 57.898-241.5 172.5-322.5 230.4-38.398 27.602-61.5 72-61.5 119.4s22.801 91.801 61.5 119.4l33 23.699zm673.2 424.5c-3.3008-1.5-6.3008-3.6016-8.6992-6 0 0-23.102-21.301-68.699-21.301-5.6992 0-11.699 3.6016-18.301 7.5-11.398 6.3008-23.398 14.699-36 22.801-33.301 21.301-69.602 37.5-102.9 29.102-33.301-8.3984-77.102-42.898-119.4-79.5-34.801-30.301-68.398-62.102-93.602-71.398-28.5-10.5-66.301 0.89844-88.5 23.102l-0.60156 0.60156 52.5 230.4c6.3008 27.898 31.199 47.699 59.699 47.699h334.2c28.5 0 53.398-19.801 59.699-47.699l30.602-135zm84.602-372-216 154.2c-36.898 26.398-81 40.5-126.3 40.5s-89.398-14.102-126.3-40.5l-216-154.2 48.301 212.4c37.199-22.199 85.801-29.699 124.2-15.898 29.699 10.801 71.102 46.5 112.5 82.5 33.898 29.699 67.801 60 94.5 66.602 9.3008 2.3984 18.602-1.1992 28.199-5.3984 14.699-6.6016 29.102-16.801 42.898-25.801 25.801-16.801 51-29.699 71.699-29.699 43.5 0 74.102 13.199 91.801 24l70.199-308.7zm-150.3-424.5-100.5-71.699c-26.699-18.898-58.5-29.398-91.5-29.398-32.699 0-64.801 10.199-91.5 29.398-80.699 57.602-241.5 172.5-322.5 230.4-22.801 16.199-36.301 42.602-36.301 70.5s13.5 54.301 36.301 70.5c80.699 57.898 241.5 172.5 322.5 230.4 26.699 18.898 58.5 29.398 91.5 29.398 32.699 0 64.801-10.199 91.5-29.398 80.699-57.602 241.5-172.5 322.5-230.4 22.801-16.199 36.301-42.602 36.301-70.5s-13.5-54.301-36.301-70.5l-34.801-24.898c-9.8984 11.699-20.102 23.398-30.301 34.5 7.5 19.5 11.398 39.898 11.398 60.602 0 54.602-26.699 105.6-74.102 146.7-64.5 56.102-168.6 93.301-285.9 93.301-117.3 0-221.4-37.199-285.9-93.301-47.102-41.102-74.102-92.102-74.102-146.7 0-54.602 26.699-105.6 74.102-146.7 64.5-56.102 168.6-93.301 285.9-93.301 64.199 0 124.5 11.102 176.4 30.301 5.1016-6.6016 10.199-12.898 15.301-19.5zm51.602 333s0-0.30078-0.30078-0.60156c-12.301-24.602-33.602-24.301-56.398-26.699-25.199-2.6992-52.801-6-80.398-19.801-17.102-8.6992-26.699-24.898-32.102-45.602-1.5-6.3008-3-12.898-5.1016-19.5-1.5-5.1016-3.3008-10.5-7.8008-14.398-6-5.3984-15.898-7.1992-31.5-7.1992s-24.898 2.1016-32.398 6.6016c-11.398 6.6016-15.602 18-21 28.199-12.301 22.801-26.398 43.5-57 53.699-28.5 9.6016-63 2.1016-98.699-6-32.398-7.1992-67.199-15.602-93.898 21 7.5 9.6016 16.199 18.898 26.398 27.602 55.5 48.301 145.5 78.602 246.6 78.602 101.1 0 187.8-29.398 243.6-75.898zm56.102-113.7c-15.602 15.301-30.301 29.699-43.5 42 10.5 5.6992 19.801 13.199 28.5 24 9.8984-17.699 15.602-36.602 15.602-56.398 0-3.3008 0-6.3008-0.30078-9.6016zm-114.9 25.801c45.301-40.199 144-131.7 197.4-215.4 16.5-25.801 28.801-50.398 31.801-72.301 1.8008-13.801-0.60156-26.102-12-34.5-9.3008-6.8984-20.102-6-31.5-2.1016-12 4.1992-24.301 11.398-37.199 20.699-85.199 62.102-178.8 209.4-208.2 257.1 3 8.6992 4.8008 17.699 7.1992 26.102 0.60156 2.6992 2.1016 6.6016 2.6992 8.3984 16.801 8.1016 33.602 10.5 49.5 12.301zm-45.898-175.5c-41.699-13.199-88.801-20.699-138.9-20.699-101.1 0-191.1 30.301-246.6 78.602-33 28.5-53.398 63.301-53.398 101.4 0 4.5 0.30078 9 0.89844 13.199 33.301-29.102 71.102-30.301 109.2-24 18.898 3.3008 37.801 8.3984 55.801 11.699 12.602 2.3984 24.301 4.1992 34.801 0.60156 8.6992-3 13.5-9 17.398-15 4.8008-7.5 8.6992-15.602 13.199-23.398 16.199-27.602 37.5-52.801 99-52.801 24 0 41.699 4.5 54.898 11.102 13.199-20.699 31.801-49.199 54-80.398z" fill-rule="evenodd"/>
</svg>
